<svg width="203" height="45" viewBox="0 0 203 45" fill="none" xmlns="http://www.w3.org/2000/svg">
<g clip-path="url(#clip0_8_11552)">
<path d="M62.923 36.8717L62.1746 44.3992H56.2104L61.9674 2.15576H70.1306L75.8875 44.3992H69.9464L69.175 36.8717H62.923ZM66.665 16.0327L66.1814 9.11777H65.9166L65.41 16.0327L63.6829 30.7932H68.4151L66.665 16.0327Z" fill="black"/>
<path d="M91.6845 21.7344C92.594 22.0286 93.4333 22.5141 94.1485 23.1598C94.8754 23.8952 95.475 24.7517 95.9216 25.6925C96.5133 27.1166 96.7848 28.6585 96.716 30.2043V32.8902C96.716 36.6834 95.9484 39.542 94.4133 41.4661C92.8781 43.3902 90.3105 44.3679 86.7105 44.3993H78.789V2.13232H86.2269C89.4738 2.13232 91.8457 3.02759 93.3655 4.82994C94.8853 6.6323 95.6683 9.3064 95.6683 12.8758V14.3719C95.7202 15.6371 95.5041 16.8989 95.035 18.0708C94.7041 18.8745 94.2319 19.6091 93.6418 20.2383C93.0957 20.804 92.4121 21.2106 91.6614 21.4163L91.6845 21.7344ZM86.273 18.7422C86.7532 18.791 87.238 18.7295 87.6921 18.5624C88.1462 18.3953 88.5583 18.1268 88.8982 17.7763C89.5067 16.8256 89.7827 15.692 89.6811 14.5603V12.7344C89.7888 11.5911 89.5127 10.4443 88.8982 9.4831C88.5572 9.13472 88.1448 8.86838 87.6907 8.70334C87.2366 8.5383 86.7523 8.47869 86.273 8.52891H84.7762V18.7422H86.273ZM86.7565 38.0145C87.3084 38.0625 87.8637 37.9814 88.3804 37.7773C88.897 37.5732 89.3615 37.2515 89.7386 36.8365C90.476 35.6834 90.8126 34.31 90.6943 32.9373V30.2514C90.8088 28.8658 90.4773 27.48 89.7502 26.3051C89.374 25.8856 88.9079 25.5609 88.3885 25.3565C87.8692 25.1522 87.3105 25.0737 86.7565 25.1271H84.7762V38.0852L86.7565 38.0145Z" fill="black"/>
<path d="M100.896 44.3874V2.15576H116.002V8.5288H106.848V19.3194H113.25V25.6924H106.848V38.0144H116.508V44.3874H100.896Z" fill="black"/>
<path d="M137.567 15.7619C137.628 17.2899 137.393 18.8152 136.876 20.2501C136.517 21.186 135.989 22.0449 135.322 22.7829C134.682 23.4332 133.889 23.9038 133.019 24.1493V24.5145C133.714 24.7291 134.349 25.1085 134.873 25.6219C135.416 26.1401 135.858 26.7598 136.174 27.4478C136.604 28.4192 136.805 29.4804 136.761 30.5459V38.3915C136.689 39.4237 136.901 40.4558 137.371 41.3718C137.499 41.6392 137.692 41.8678 137.932 42.0352C138.173 42.2026 138.452 42.3028 138.741 42.326V44.4111H134.539C134.005 44.4251 133.476 44.3032 133 44.0564C132.524 43.8097 132.115 43.4459 131.81 42.9975C131.022 41.6033 130.669 39.9966 130.797 38.3915V30.8168C130.876 29.9216 130.648 29.026 130.152 28.2842C129.842 27.9995 129.476 27.7843 129.08 27.6525C128.683 27.5206 128.264 27.4749 127.849 27.5184H126.134V44.4111H120.193V2.13232H127.849C134.305 2.13232 137.532 6.05903 137.532 13.9124L137.567 15.7619ZM127.884 21.1454C128.408 21.1922 128.936 21.1096 129.423 20.9046C129.91 20.6997 130.341 20.3783 130.682 19.9674C131.397 18.702 131.71 17.2409 131.58 15.7855V13.9124C131.707 12.4535 131.393 10.9898 130.682 9.71871C130.342 9.30708 129.91 8.98517 129.423 8.78013C128.936 8.5751 128.408 8.49296 127.884 8.5407H126.168V21.1572L127.884 21.1454Z" fill="black"/>
<path d="M159.881 2.13232V33.7855C159.881 37.5944 159.144 40.4137 157.67 42.2436C156.196 44.0734 153.955 44.9883 150.946 44.9883C147.941 44.9883 145.696 44.0695 144.234 42.2436C142.771 40.4176 142.034 37.5315 142.034 33.7855V2.13232H147.976V33.7855C147.861 35.0935 148.121 36.4075 148.724 37.5669C149 37.8955 149.341 38.1592 149.726 38.34C150.11 38.5208 150.529 38.6143 150.952 38.6143C151.375 38.6143 151.793 38.5208 152.178 38.34C152.562 38.1592 152.904 37.8955 153.18 37.5669C153.778 36.4059 154.034 35.0923 153.917 33.7855V2.13232H159.881Z" fill="black"/>
<path d="M171.026 19.0484H172.742L177.439 2.15576H183.922L178.211 22.0524L184.428 44.3874H177.934L172.742 25.3979H171.026V44.3874H165.085V2.15576H171.026V19.0484Z" fill="black"/>
<path d="M0 19.2961C7.47246 19.2961 14.9679 19.2961 22.4059 19.2961C23.4696 19.302 24.5176 19.5591 25.4683 20.0475C26.4189 20.5359 27.2465 21.2422 27.8865 22.1115C29.8668 19.5435 32.561 19.2018 35.4625 19.2372C41.4727 19.3079 47.4829 19.2372 53.4932 19.2372H54.8863C55.0219 20.454 54.7644 21.6827 54.1531 22.7357C53.5419 23.7887 52.6105 24.6079 51.5013 25.0683C50.2366 25.6121 48.8879 25.9232 47.5175 25.9872C43.0732 26.105 38.6289 26.0814 34.196 25.9872C31.2715 25.9872 28.9457 26.7529 27.8749 30.1338C26.7235 26.5408 24.179 25.9283 21.1393 25.999C16.8409 26.0775 12.55 26.0775 8.26691 25.999C6.92542 25.9743 5.59629 25.7318 4.3292 25.2804C3.23204 24.9433 2.25811 24.2789 1.53202 23.3724C0.805939 22.4658 0.360704 21.3583 0.253305 20.1914C0.194825 19.9317 0.109926 19.679 0 19.4374V19.2961Z" fill="#DE2F0D"/>
<path d="M49.0373 17.4465C47.7247 17.4465 46.4928 17.5171 45.2723 17.4465C44.9614 17.4465 44.5584 16.8928 44.4203 16.5159C43.2265 13.0365 41.0125 10.0188 38.0805 7.87434C35.1484 5.72993 31.6411 4.56328 28.0371 4.53365C24.433 4.50401 20.9078 5.61283 17.9425 7.70875C14.9771 9.80468 12.716 12.7856 11.4677 16.2449C11.4336 16.4532 11.3583 16.6523 11.2465 16.8299C11.1347 17.0075 10.9887 17.16 10.8173 17.2779C10.646 17.3959 10.453 17.4769 10.2501 17.516C10.0472 17.5551 9.83856 17.5515 9.63705 17.5054C8.65837 17.4229 7.65669 17.5054 6.63196 17.5054C7.7312 12.3963 10.559 7.84882 14.6164 4.66537C18.6738 1.48192 23.6998 -0.13276 28.8075 0.106186C40.8049 0.624511 48.0586 10.4962 49.0373 17.4936" fill="#DE2F0D"/>
<path d="M6.88528 28.2839C8.32451 28.2839 9.591 28.225 10.846 28.2839C11.1799 28.2839 11.5944 28.8022 11.7556 29.1792C13.0986 32.3886 15.3293 35.1263 18.1733 37.0554C21.0172 38.9846 24.3503 40.0211 27.7625 40.0373C31.1747 40.0536 34.5171 39.049 37.3785 37.147C40.2399 35.2451 42.4955 32.5288 43.8676 29.3323C43.9584 28.9476 44.1881 28.6123 44.5107 28.3938C44.8332 28.1752 45.2246 28.0897 45.6062 28.1543C46.6424 28.225 47.6672 28.1543 48.7265 28.1543C47.4369 35.2224 39.3772 44.8349 27.2186 44.3873C24.3506 44.3414 21.5209 43.7056 18.898 42.5176C16.2751 41.3296 13.9127 39.6138 11.9514 37.4724C9.50367 34.8991 7.75708 31.7149 6.88528 28.2367" fill="#DE2F0D"/>
<path d="M188.09 43.3745H186.823V44.8352H188.09V43.3745Z" fill="black"/>
<path d="M199.304 32.5129C200.4 32.7754 201.37 33.4275 202.04 34.3529C202.711 35.2783 203.039 36.4171 202.965 37.5666C202.965 41.3952 200.052 43.3742 196.449 43.3742C192.845 43.3742 189.84 41.4069 189.84 37.4842C189.747 36.3189 190.081 35.1598 190.777 34.2324C191.473 33.305 192.481 32.6753 193.605 32.4658V33.8088C192.801 34.0085 192.095 34.4963 191.613 35.1836C191.131 35.871 190.907 36.7123 190.98 37.5548C190.98 40.6412 193.731 41.9253 196.414 41.9253C199.097 41.9253 201.826 40.6766 201.826 37.4724C201.866 36.6626 201.64 35.8622 201.182 35.2C200.725 34.5377 200.064 34.0519 199.304 33.8206V32.5129Z" fill="black"/>
<path d="M196.334 18.6246C199.788 18.6246 203 20.5801 203 24.656C203 28.4138 200.087 30.546 196.426 30.546C192.764 30.546 189.84 28.4256 189.84 24.5028C189.84 20.8628 192.58 18.6128 196.334 18.6128M196.334 29.1324C199.189 29.1324 201.814 27.5657 201.814 24.5735C201.814 21.3458 199.223 20.0264 196.322 20.0264C193.421 20.0264 190.968 21.5225 190.968 24.55C190.968 27.5775 193.513 29.1324 196.334 29.1324Z" fill="black"/>
<path d="M197.128 4.48817C194.687 4.48817 192.281 4.48816 190.968 4.4057C192.845 4.94758 198.786 7.36249 202.816 8.9528V10.2015C199.626 11.3795 192.995 13.9005 190.945 14.4895C192.419 14.3952 195.332 14.3481 197.531 14.3481H202.816V15.6439H190.024V13.6413C194.226 11.9921 199.684 9.93054 201.215 9.45934C200.145 9.15305 194.111 6.74992 190.024 5.05359V3.19238H202.816V4.48817H197.128Z" fill="black"/>
</g>
<defs>
<clipPath id="clip0_8_11552">
<rect width="203" height="45" fill="white"/>
</clipPath>
</defs>
</svg>
