<svg width="282" height="59" viewBox="0 0 282 59" fill="none" xmlns="http://www.w3.org/2000/svg">
<g clip-path="url(#clip0_8_9909)">
<path d="M5.72805 29.6151V29.4811C5.71101 28.3124 5.85327 27.1468 6.15093 26.0161C6.45525 24.8621 6.94186 23.7636 7.59255 22.7617C8.24643 21.7647 9.05029 20.8737 9.97601 20.12C10.9786 19.3314 12.1191 18.7343 13.3398 18.3588C14.7228 17.906 16.1704 17.6797 17.6262 17.6887C19.1806 17.6942 20.7198 17.993 22.1625 18.5693C23.5981 19.1608 24.9039 20.0257 26.0068 21.1154L24.7767 22.1875C23.832 21.2338 22.6999 20.4843 21.4513 19.986C20.2293 19.4955 18.9245 19.2421 17.607 19.2394C16.375 19.2236 15.1486 19.4046 13.9741 19.7754C12.9368 20.0968 11.9664 20.6027 11.1101 21.2685C10.3038 21.8956 9.60872 22.6527 9.05341 23.5084C8.49666 24.3758 8.08142 25.3256 7.8232 26.3224C7.55726 27.3215 7.42798 28.3518 7.4388 29.3854V29.5194C7.45216 30.8252 7.68606 32.1195 8.13075 33.348C8.56413 34.5245 9.21622 35.6091 10.0529 36.545C10.9333 37.5171 12.0245 38.2765 13.2437 38.7657C14.6373 39.3177 16.1265 39.5909 17.6262 39.5696C18.9437 39.5669 20.2486 39.3136 21.4705 38.8231C22.7287 38.3302 23.8731 37.5877 24.8343 36.6407L26.026 37.7511C24.9298 38.8585 23.6229 39.7371 22.1817 40.3354C20.743 40.927 19.202 41.2327 17.6455 41.2352C16.2192 41.2455 14.7996 41.0389 13.4359 40.6226C12.2277 40.2584 11.0949 39.6814 10.0913 38.9188C9.16737 38.2002 8.36301 37.341 7.70787 36.3727C7.05166 35.3921 6.55838 34.3126 6.24701 33.1758C5.91429 32.0049 5.74614 30.7937 5.74729 29.5768" fill="#7F7F7F"/>
<path d="M5.72805 29.6151V29.4811C5.71101 28.3124 5.85327 27.1468 6.15093 26.0161C6.45525 24.8621 6.94186 23.7636 7.59255 22.7617C8.24643 21.7647 9.05029 20.8737 9.97601 20.12C10.9786 19.3314 12.1191 18.7343 13.3398 18.3588C14.7228 17.906 16.1704 17.6797 17.6262 17.6887C19.1806 17.6942 20.7198 17.993 22.1625 18.5693C23.5981 19.1608 24.9039 20.0257 26.0068 21.1154L24.7767 22.1875C23.832 21.2338 22.6999 20.4843 21.4513 19.986C20.2293 19.4955 18.9245 19.2421 17.607 19.2394C16.375 19.2236 15.1486 19.4046 13.9741 19.7754C12.9368 20.0968 11.9664 20.6027 11.1101 21.2685C10.3038 21.8956 9.60872 22.6527 9.05341 23.5084C8.49666 24.3758 8.08142 25.3256 7.8232 26.3224C7.55726 27.3215 7.42798 28.3518 7.4388 29.3854V29.5194C7.45216 30.8252 7.68606 32.1195 8.13075 33.348C8.56413 34.5245 9.21622 35.6091 10.0529 36.545C10.9333 37.5171 12.0245 38.2765 13.2437 38.7657C14.6373 39.3177 16.1265 39.5909 17.6262 39.5696C18.9437 39.5669 20.2486 39.3136 21.4705 38.8231C22.7287 38.3302 23.8731 37.5877 24.8343 36.6407L26.026 37.7511C24.9298 38.8585 23.6229 39.7371 22.1817 40.3354C20.743 40.927 19.202 41.2327 17.6455 41.2352C16.2192 41.2455 14.7996 41.0389 13.4359 40.6226C12.2277 40.2584 11.0949 39.6814 10.0913 38.9188C9.16737 38.2002 8.36301 37.341 7.70787 36.3727C7.05166 35.3921 6.55838 34.3126 6.24701 33.1758C5.91129 32.0181 5.73668 30.8201 5.72805 29.6151Z" fill="#7F7F7F"/>
<path d="M48.3423 17.9757V17.9565H50.4375L58.2799 30.0743L66.1415 17.9565H68.2174V17.9757L59.1641 31.7972V41.0052H57.3765V31.7972L48.3423 17.9757Z" fill="#7F7F7F"/>
<path d="M48.3423 17.9757V17.9565H50.4375L58.2799 30.0743L66.1415 17.9565H68.2174V17.9757L59.1641 31.7972V41.0052H57.3765V31.7972L48.3423 17.9757Z" fill="#7F7F7F"/>
<path d="M90.5144 36.3342L92.0906 35.5494C92.5794 36.4749 93.2849 37.2694 94.1474 37.8657C95.017 38.4921 95.9847 38.9707 97.0114 39.2823C97.9854 39.5675 98.9947 39.7157 100.01 39.7227C100.522 39.7513 101.036 39.7513 101.548 39.7227C102.091 39.6575 102.63 39.5617 103.162 39.4355C103.715 39.3267 104.252 39.1465 104.758 38.8995C105.232 38.6577 105.677 38.3622 106.084 38.0189C106.492 37.6606 106.814 37.2158 107.026 36.7171C107.262 36.1534 107.38 35.5475 107.372 34.9368C107.367 34.5819 107.322 34.2286 107.237 33.8839C107.154 33.5819 107.031 33.2923 106.872 33.0225C106.717 32.7367 106.5 32.4883 106.238 32.295C105.999 32.0832 105.749 31.885 105.488 31.7016C105.177 31.5115 104.849 31.3513 104.508 31.223L103.451 30.8592C103.055 30.7294 102.65 30.627 102.24 30.5529L101.048 30.285L99.7793 30.0169L98.3569 29.7106L96.9922 29.4235C96.4347 29.2895 95.9926 29.1746 95.6659 29.0598C95.2613 28.9335 94.8635 28.7865 94.4742 28.6194C94.0893 28.4677 93.722 28.2752 93.3785 28.0452C93.0718 27.8243 92.7767 27.5879 92.4943 27.3369C92.2087 27.0907 91.9736 26.7916 91.8023 26.4563C91.6205 26.1163 91.4786 25.7566 91.3794 25.3843C91.2616 24.9669 91.2033 24.5351 91.2065 24.1016V23.9293C91.1922 23.1319 91.3575 22.3415 91.6901 21.616C92.0227 20.8906 92.5143 20.2485 93.1286 19.7369C93.7554 19.2425 94.4558 18.8485 95.2045 18.5692C95.9722 18.2603 96.7715 18.0356 97.588 17.8992C98.3755 17.7674 99.173 17.7033 99.9715 17.7077C100.781 17.7048 101.59 17.756 102.393 17.8609C103.128 17.9624 103.85 18.1421 104.546 18.3969C105.31 18.6746 106.019 19.0828 106.641 19.6029C107.328 20.2016 107.929 20.8907 108.429 21.6513L106.968 22.4936C106.605 21.8751 106.129 21.3297 105.565 20.8855C105.045 20.4534 104.444 20.1281 103.797 19.9284C103.171 19.7226 102.527 19.5752 101.874 19.4881C101.237 19.4089 100.595 19.3706 99.9523 19.3732C99.3545 19.3733 98.7574 19.4117 98.1647 19.4881C97.5107 19.5893 96.8674 19.7495 96.2425 19.9666C95.6412 20.1655 95.0715 20.4491 94.551 20.809C94.052 21.1679 93.6385 21.632 93.34 22.1681C93.0147 22.7535 92.849 23.4135 92.8595 24.0825C92.859 24.475 92.9307 24.8643 93.071 25.2311C93.1977 25.5453 93.3658 25.8414 93.5707 26.1117C93.8128 26.3988 94.106 26.639 94.4357 26.82C94.7761 27.0212 95.1292 27.2003 95.4929 27.356C95.9321 27.5192 96.3815 27.6535 96.8384 27.758L98.2992 28.0834L99.9331 28.4472C101.58 28.7216 103.205 29.1119 104.796 29.6149C105.644 29.848 106.428 30.2662 107.093 30.839C107.758 31.4119 108.287 32.125 108.64 32.9267C108.878 33.6032 108.995 34.3159 108.986 35.0325C108.99 35.9548 108.779 36.8655 108.371 37.6935C108.026 38.4377 107.513 39.0928 106.872 39.6078C106.217 40.093 105.491 40.474 104.719 40.7373C103.929 41.0301 103.111 41.2417 102.278 41.369C101.468 41.4694 100.653 41.5206 99.8369 41.5221C98.5956 41.5315 97.3593 41.3639 96.1656 41.0244C94.9505 40.6813 93.81 40.1166 92.8018 39.3589C91.7635 38.6109 90.9199 37.6263 90.3415 36.4874" fill="#7F7F7F"/>
<path d="M90.5145 36.3342L92.0906 35.5494C92.5794 36.4749 93.2849 37.2694 94.1474 37.8657C95.017 38.4921 95.9847 38.9707 97.0114 39.2823C97.9854 39.5675 98.9947 39.7157 100.01 39.7227C100.522 39.7513 101.036 39.7513 101.548 39.7227C102.091 39.6575 102.63 39.5617 103.162 39.4355C103.715 39.3267 104.252 39.1465 104.758 38.8995C105.232 38.6577 105.677 38.3622 106.084 38.0189C106.492 37.6606 106.814 37.2158 107.026 36.7171C107.262 36.1534 107.38 35.5475 107.372 34.9368C107.367 34.5819 107.322 34.2286 107.237 33.8839C107.154 33.5819 107.031 33.2923 106.872 33.0225C106.717 32.7367 106.5 32.4883 106.238 32.295C105.999 32.0832 105.749 31.885 105.488 31.7016C105.177 31.5115 104.849 31.3513 104.508 31.223L103.451 30.8592C103.055 30.7294 102.65 30.627 102.24 30.5529L101.048 30.285L99.7793 30.0169L98.3569 29.7106L96.9922 29.4235C96.4347 29.2895 95.9926 29.1746 95.6659 29.0598C95.2613 28.9335 94.8635 28.7865 94.4742 28.6194C94.0893 28.4677 93.722 28.2752 93.3785 28.0452C93.0718 27.8243 92.7767 27.5879 92.4943 27.3369C92.2087 27.0907 91.9736 26.7916 91.8023 26.4563C91.6205 26.1163 91.4786 25.7566 91.3794 25.3843C91.2616 24.9669 91.2033 24.5351 91.2065 24.1016V23.9293C91.1922 23.1319 91.3575 22.3415 91.6901 21.616C92.0227 20.8906 92.5143 20.2485 93.1286 19.7369C93.7554 19.2425 94.4558 18.8485 95.2045 18.5692C95.9722 18.2603 96.7715 18.0356 97.588 17.8992C98.3755 17.7674 99.173 17.7033 99.9715 17.7077C100.781 17.7048 101.59 17.756 102.393 17.8609C103.128 17.9624 103.85 18.1421 104.546 18.3969C105.31 18.6746 106.019 19.0828 106.641 19.6029C107.328 20.2016 107.929 20.8907 108.429 21.6513L106.968 22.4936C106.605 21.8751 106.129 21.3297 105.565 20.8855C105.045 20.4534 104.444 20.1281 103.797 19.9284C103.171 19.7226 102.527 19.5752 101.874 19.4881C101.237 19.4089 100.595 19.3706 99.9523 19.3732C99.3545 19.3733 98.7574 19.4117 98.1647 19.4881C97.5107 19.5893 96.8674 19.7495 96.2425 19.9666C95.6412 20.1655 95.0715 20.4491 94.551 20.809C94.052 21.1679 93.6385 21.632 93.34 22.1681C93.0147 22.7535 92.849 23.4135 92.8595 24.0825C92.859 24.475 92.9307 24.8643 93.071 25.2311C93.1977 25.5453 93.3658 25.8414 93.5707 26.1117C93.8128 26.3988 94.106 26.639 94.4357 26.82C94.7761 27.0212 95.1292 27.2003 95.4929 27.356C95.9321 27.5192 96.3815 27.6535 96.8384 27.758L98.2992 28.0834L99.9331 28.4472C101.58 28.7216 103.205 29.1119 104.796 29.6149C105.644 29.848 106.428 30.2662 107.093 30.839C107.758 31.4119 108.287 32.125 108.64 32.9267C108.878 33.6032 108.995 34.3159 108.986 35.0325C108.99 35.9548 108.779 36.8655 108.371 37.6935C108.026 38.4377 107.513 39.0928 106.872 39.6078C106.217 40.093 105.491 40.474 104.719 40.7373C103.929 41.0301 103.111 41.2417 102.278 41.369C101.468 41.4694 100.653 41.5206 99.8369 41.5221C98.5956 41.5315 97.3593 41.3639 96.1656 41.0244C94.9505 40.6813 93.81 40.1166 92.8018 39.3589C91.8074 38.5475 91.023 37.5102 90.5145 36.3342Z" fill="#7F7F7F"/>
<path d="M131.456 29.2893C131.454 28.0849 131.622 26.8862 131.956 25.7286C132.266 24.6036 132.745 23.532 133.379 22.5508C134.013 21.5785 134.798 20.7127 135.704 19.9856C136.682 19.2273 137.789 18.6501 138.972 18.2818C140.323 17.8667 141.73 17.6601 143.143 17.6692C144.578 17.654 146.005 17.8673 147.372 18.301C148.57 18.661 149.691 19.2387 150.678 20.0047C151.59 20.7412 152.375 21.6205 153.004 22.6083C153.634 23.6024 154.107 24.6871 154.407 25.8243C154.711 26.9737 154.859 28.1583 154.849 29.3467V29.4807C154.849 30.9127 154.615 32.3351 154.157 33.6923C153.719 35.0356 153.028 36.2831 152.12 37.3678L155.061 40.2011L153.946 41.3305L151.024 38.5739C148.821 40.4067 146.011 41.3555 143.143 41.2348C141.709 41.2472 140.282 41.0339 138.914 40.6031C137.717 40.2219 136.598 39.6321 135.608 38.861C134.706 38.1125 133.928 37.2275 133.302 36.2384C132.663 35.2281 132.189 34.1231 131.899 32.9648C131.593 31.8092 131.445 30.6182 131.456 29.4233V29.2893ZM133.186 29.2893V29.4233C133.183 30.4478 133.299 31.4692 133.532 32.4671C133.793 33.457 134.194 34.4046 134.724 35.2812C135.245 36.1278 135.893 36.8897 136.646 37.5401C137.491 38.2019 138.448 38.7077 139.472 39.0333C140.64 39.4043 141.86 39.5853 143.086 39.5693C144.569 39.598 146.042 39.3176 147.41 38.7461C148.621 38.2633 149.697 37.4947 150.544 36.5064C151.388 35.5764 152.041 34.4902 152.466 33.3094C152.894 32.0783 153.108 30.7836 153.1 29.4807C153.103 28.1783 152.889 26.8844 152.466 25.6521C152.041 24.4602 151.388 23.3616 150.544 22.4168C149.718 21.4293 148.671 20.6489 147.487 20.1387C146.119 19.5673 144.646 19.2869 143.162 19.3156C141.351 19.2866 139.565 19.7428 137.992 20.6365C136.501 21.4787 135.276 22.7185 134.455 24.2163C133.604 25.771 133.174 27.5191 133.206 29.2893" fill="#7F7F7F"/>
<path d="M131.456 29.2893C131.454 28.0849 131.622 26.8862 131.956 25.7286C132.266 24.6036 132.745 23.532 133.379 22.5508C134.013 21.5785 134.798 20.7127 135.704 19.9856C136.682 19.2273 137.789 18.6501 138.972 18.2818C140.323 17.8667 141.73 17.6601 143.143 17.6692C144.578 17.654 146.005 17.8673 147.372 18.301C148.57 18.661 149.691 19.2387 150.678 20.0047C151.59 20.7412 152.375 21.6205 153.004 22.6083C153.634 23.6024 154.107 24.6871 154.407 25.8243C154.711 26.9737 154.859 28.1583 154.849 29.3467V29.4807C154.849 30.9127 154.615 32.3351 154.157 33.6923C153.719 35.0356 153.028 36.2831 152.12 37.3678L155.061 40.2011L153.946 41.3305L151.024 38.5739C148.821 40.4067 146.011 41.3555 143.143 41.2348C141.709 41.2472 140.282 41.0339 138.914 40.6031C137.717 40.2219 136.598 39.6321 135.608 38.861C134.706 38.1125 133.928 37.2275 133.302 36.2384C132.663 35.2281 132.189 34.1231 131.899 32.9648C131.593 31.8092 131.445 30.6182 131.456 29.4233V29.2893ZM133.186 29.2893V29.4233C133.183 30.4478 133.299 31.4692 133.532 32.4671C133.793 33.457 134.194 34.4046 134.724 35.2812C135.245 36.1278 135.893 36.8897 136.646 37.5401C137.491 38.2019 138.448 38.7077 139.472 39.0333C140.64 39.4043 141.86 39.5853 143.086 39.5693C144.569 39.598 146.042 39.3176 147.41 38.7461C148.621 38.2633 149.697 37.4947 150.544 36.5064C151.388 35.5764 152.041 34.4902 152.466 33.3094C152.894 32.0783 153.108 30.7836 153.1 29.4807C153.103 28.1783 152.889 26.8844 152.466 25.6521C152.041 24.4602 151.388 23.3616 150.544 22.4168C149.718 21.4293 148.671 20.6489 147.487 20.1387C146.119 19.5673 144.646 19.2869 143.162 19.3156C141.351 19.2866 139.565 19.7428 137.992 20.6365C136.501 21.4787 135.276 22.7185 134.455 24.2163C133.598 25.7692 133.161 27.5174 133.186 29.2893Z" fill="#7F7F7F"/>
<path d="M177.358 32.2758V17.9565H179.164V32.2758C179.147 33.3828 179.35 34.4822 179.76 35.511C180.122 36.3971 180.673 37.194 181.375 37.8465C182.039 38.4362 182.809 38.8972 183.643 39.2057C185.32 39.8433 187.175 39.8433 188.852 39.2057C189.688 38.8906 190.457 38.4232 191.12 37.8274C191.827 37.1787 192.378 36.3806 192.735 35.4919C193.154 34.4717 193.363 33.378 193.35 32.2758V17.9565H195.138V32.2758C195.164 33.6297 194.902 34.9738 194.369 36.2193C193.958 37.305 193.3 38.2813 192.447 39.0717C191.608 39.7994 190.644 40.3702 189.602 40.7564C187.502 41.5474 185.185 41.5474 183.086 40.7564C182.041 40.3843 181.075 39.8192 180.241 39.0908C179.391 38.2973 178.734 37.322 178.319 36.2385C177.79 34.9848 177.528 33.6354 177.55 32.2758" fill="#7F7F7F"/>
<path d="M177.358 32.2758V17.9565H179.164V32.2758C179.147 33.3828 179.35 34.4822 179.76 35.511C180.122 36.3971 180.673 37.194 181.375 37.8465C182.039 38.4362 182.809 38.8972 183.643 39.2057C185.32 39.8433 187.175 39.8433 188.852 39.2057C189.688 38.8906 190.457 38.4232 191.12 37.8274C191.827 37.1787 192.378 36.3806 192.735 35.4919C193.154 34.4717 193.363 33.378 193.35 32.2758V17.9565H195.138V32.2758C195.164 33.6297 194.902 34.9738 194.369 36.2193C193.958 37.305 193.3 38.2813 192.447 39.0717C191.608 39.7994 190.644 40.3702 189.602 40.7564C187.502 41.5474 185.185 41.5474 183.086 40.7564C182.041 40.3843 181.075 39.8192 180.241 39.0908C179.391 38.2973 178.734 37.322 178.319 36.2385C177.724 34.9991 177.396 33.6491 177.358 32.2758Z" fill="#7F7F7F"/>
<path d="M262.432 41.0054V18.0333H270.275C271.703 18.0201 273.124 18.2333 274.484 18.6651C276.786 19.3758 278.76 20.8745 280.059 22.8957C280.7 23.8337 281.187 24.8677 281.5 25.9587C281.818 27.0484 281.992 28.1745 282.019 29.3088V29.5577C282.021 30.6487 281.886 31.7356 281.616 32.7929C281.343 33.9268 280.881 35.0073 280.251 35.9898C279.642 36.9973 278.862 37.8914 277.944 38.6316C276.956 39.4402 275.82 40.0512 274.6 40.4311C273.203 40.8815 271.742 41.1014 270.275 41.082L262.432 41.0054ZM264.22 39.3591H270.275C271.8 39.3783 273.313 39.0783 274.715 38.4785C275.935 37.9566 277.015 37.1566 277.867 36.143C278.651 35.1783 279.256 34.083 279.655 32.9078C280.034 31.7855 280.223 30.6078 280.212 29.4236V29.2322C280.198 28.267 280.056 27.3079 279.79 26.3799C279.524 25.458 279.123 24.5805 278.598 23.7763C278.076 22.9584 277.427 22.2283 276.676 21.6132C275.841 20.9672 274.897 20.4745 273.888 20.1582C272.735 19.7822 271.527 19.5947 270.313 19.6031H264.258L264.22 39.3591Z" fill="#7F7F7F"/>
<path d="M262.432 41.0054V18.0333H270.275C271.703 18.0201 273.124 18.2333 274.484 18.6651C276.786 19.3758 278.76 20.8745 280.059 22.8957C280.7 23.8337 281.187 24.8677 281.5 25.9587C281.818 27.0484 281.992 28.1745 282.019 29.3088V29.5577C282.021 30.6487 281.886 31.7356 281.616 32.7929C281.343 33.9268 280.881 35.0073 280.251 35.9898C279.642 36.9973 278.862 37.8914 277.944 38.6316C276.956 39.4402 275.82 40.0512 274.6 40.4311C273.203 40.8815 271.742 41.1014 270.275 41.082L262.432 41.0054ZM264.22 39.3591H270.275C271.8 39.3783 273.313 39.0783 274.715 38.4785C275.935 37.9566 277.015 37.1566 277.867 36.143C278.651 35.1783 279.256 34.083 279.655 32.9078C280.034 31.7855 280.223 30.6078 280.212 29.4236V29.2322C280.198 28.267 280.056 27.3079 279.79 26.3799C279.524 25.458 279.123 24.5805 278.598 23.7763C278.076 22.9584 277.427 22.2283 276.676 21.6132C275.841 20.9672 274.897 20.4745 273.888 20.1582C272.735 19.7822 271.527 19.5947 270.313 19.6031H264.258L264.22 39.3591Z" fill="#7F7F7F"/>
<path d="M217.415 41.0052L228.756 15.8125L240.135 41.0052H238.213L228.756 19.6795L219.338 41.0052H217.415Z" fill="#7F7F7F"/>
<path d="M217.415 41.0052L228.756 15.8125L240.135 41.0052H238.213L228.756 19.6795L219.338 41.0052H217.415Z" fill="#7F7F7F"/>
<path d="M58.2799 14.7786V0.957031H0.961082V58.0427H58.2799V45.7909" stroke="#19BE1E" stroke-miterlimit="10"/>
<path d="M94.551 51.0172V50.6152H99.1065V51.0172H97.0498V56.588H96.6077V51.0172H94.551Z" fill="#2B2B2B"/>
<path d="M94.551 51.0172V50.6152H99.1065V51.0172H97.0498V56.588H96.6077V51.0172H94.551Z" fill="#2B2B2B"/>
<path d="M104.835 56.588V50.6152H105.277V53.4485H108.91V50.6152H109.352V56.588H108.91V53.8696H105.277V56.588H104.835Z" fill="#2B2B2B"/>
<path d="M104.835 56.588V50.6152H105.277V53.4485H108.91V50.6152H109.352V56.588H108.91V53.8696H105.277V56.588H104.835Z" fill="#2B2B2B"/>
<path d="M115.522 56.588V50.6152H118.04C118.316 50.616 118.59 50.6679 118.847 50.7684C119.071 50.8695 119.273 51.0125 119.443 51.1895C119.577 51.3761 119.693 51.5748 119.789 51.783C119.865 52.0049 119.904 52.2377 119.904 52.4721C119.906 52.7006 119.867 52.9275 119.789 53.1422C119.716 53.3578 119.606 53.5587 119.462 53.7356C119.289 53.9041 119.088 54.0402 118.866 54.1376C118.609 54.2347 118.334 54.2803 118.059 54.2716L119.981 56.5688H119.385L117.463 54.3099H115.906V56.5688L115.522 56.588ZM115.964 53.8887H117.886C118.083 53.9075 118.281 53.883 118.467 53.8168C118.653 53.7507 118.822 53.6445 118.962 53.5058C119.09 53.3669 119.188 53.2038 119.251 53.0262C119.314 52.8485 119.34 52.6601 119.328 52.4721C119.355 52.3138 119.355 52.1519 119.328 51.9936C119.268 51.8289 119.183 51.674 119.078 51.5341C118.956 51.3947 118.805 51.2837 118.636 51.2087C118.441 51.1261 118.232 51.0806 118.021 51.0747H115.964V53.8887Z" fill="#2B2B2B"/>
<path d="M115.522 56.588V50.6152H118.04C118.316 50.616 118.59 50.6679 118.847 50.7684C119.071 50.8695 119.273 51.0125 119.443 51.1895C119.577 51.3761 119.693 51.5748 119.789 51.783C119.865 52.0049 119.904 52.2377 119.904 52.4721C119.906 52.7006 119.867 52.9275 119.789 53.1422C119.716 53.3578 119.606 53.5587 119.462 53.7356C119.289 53.9041 119.088 54.0402 118.866 54.1376C118.609 54.2347 118.334 54.2803 118.059 54.2716L119.981 56.5688H119.385L117.463 54.3099H115.906V56.5688L115.522 56.588ZM115.964 53.8887H117.886C118.083 53.9075 118.281 53.883 118.467 53.8168C118.653 53.7507 118.822 53.6445 118.962 53.5058C119.09 53.3669 119.188 53.2038 119.251 53.0262C119.314 52.8485 119.34 52.6601 119.328 52.4721C119.355 52.3138 119.355 52.1519 119.328 51.9936C119.268 51.8289 119.183 51.674 119.078 51.5341C118.956 51.3947 118.805 51.2837 118.636 51.2087C118.441 51.1261 118.232 51.0806 118.021 51.0747H115.964V53.8887Z" fill="#2B2B2B"/>
<path d="M125.69 56.588V50.6152H129.63V51.0364H126.132V53.3527H129.457V53.7739H126.132V56.1477H129.727V56.588H125.69Z" fill="#2B2B2B"/>
<path d="M125.69 56.588V50.6152H129.63V51.0364H126.132V53.3527H129.457V53.7739H126.132V56.1477H129.727V56.588H125.69Z" fill="#2B2B2B"/>
<path d="M135.012 56.588L137.569 50.6152H138.05L140.606 56.588H140.145L139.51 55.1139H136.108L135.474 56.588H135.012ZM136.262 54.6736H139.337L137.8 51.0364L136.262 54.6736Z" fill="#2B2B2B"/>
<path d="M135.012 56.588L137.569 50.6152H138.05L140.606 56.588H140.145L139.51 55.1139H136.108L135.474 56.588H135.012ZM136.262 54.6736H139.337L137.8 51.0364L136.262 54.6736Z" fill="#2B2B2B"/>
<path d="M144.854 51.0172V50.6152H149.409V51.0172H147.353V56.588H146.911V51.0172H144.854Z" fill="#2B2B2B"/>
<path d="M144.854 51.0172V50.6152H149.409V51.0172H147.353V56.588H146.911V51.0172H144.854Z" fill="#2B2B2B"/>
<path d="M169.861 50.6152H169.419V56.588H169.861V50.6152Z" fill="#2B2B2B"/>
<path d="M169.861 50.6152H169.419V56.588H169.861V50.6152Z" fill="#2B2B2B"/>
<path d="M176.012 56.588V50.6152H176.185L180.029 55.5542V50.6152H180.452V56.588H180.299L176.454 51.649V56.588H176.012Z" fill="#2B2B2B"/>
<path d="M176.012 56.588V50.6152H176.185L180.029 55.5542V50.6152H180.452V56.588H180.299L176.454 51.649V56.588H176.012Z" fill="#2B2B2B"/>
<path d="M186.18 51.0172V50.6152H190.755V51.0172H188.698V56.588H188.256V51.0172H186.18Z" fill="#2B2B2B"/>
<path d="M186.18 51.0172V50.6152H190.755V51.0172H188.698V56.588H188.256V51.0172H186.18Z" fill="#2B2B2B"/>
<path d="M196.483 56.588V50.6152H200.424V51.0364H196.925V53.3527H200.251V53.7739H196.925V56.1477H200.52V56.588H196.483Z" fill="#2B2B2B"/>
<path d="M196.483 56.588V50.6152H200.424V51.0364H196.925V53.3527H200.251V53.7739H196.925V56.1477H200.52V56.588H196.483Z" fill="#2B2B2B"/>
<path d="M206.382 56.588V50.6152H206.824V56.1477H210.034V56.588H206.382Z" fill="#2B2B2B"/>
<path d="M206.382 56.588V50.6152H206.824V56.1477H210.034V56.588H206.382Z" fill="#2B2B2B"/>
<path d="M215.743 56.588V50.6152H216.185V56.1477H219.414V56.588H215.743Z" fill="#2B2B2B"/>
<path d="M215.743 56.588V50.6152H216.185V56.1477H219.414V56.588H215.743Z" fill="#2B2B2B"/>
<path d="M225.585 50.6152H225.143V56.588H225.585V50.6152Z" fill="#2B2B2B"/>
<path d="M225.585 50.6152H225.143V56.588H225.585V50.6152Z" fill="#2B2B2B"/>
<path d="M231.428 53.6017C231.408 53.1951 231.47 52.7886 231.612 52.4069C231.754 52.0252 231.973 51.6762 232.254 51.3811C232.529 51.1023 232.859 50.8834 233.223 50.7384C233.587 50.5934 233.977 50.5254 234.369 50.5388C234.759 50.5393 235.144 50.6174 235.503 50.7685C235.862 50.9315 236.187 51.1586 236.464 51.4385L236.214 51.7256C235.967 51.4696 235.667 51.2689 235.336 51.1369C235.004 51.0049 234.649 50.9446 234.292 50.9599C233.984 50.961 233.679 51.0127 233.389 51.113C233.134 51.1915 232.898 51.3219 232.697 51.4959C232.494 51.666 232.319 51.8661 232.178 52.0894C232.044 52.3109 231.941 52.5491 231.87 52.7977C231.809 53.0549 231.776 53.3182 231.774 53.5826C231.772 53.9282 231.83 54.2716 231.947 54.5972C232.05 54.9025 232.207 55.1875 232.408 55.4395C232.633 55.6814 232.909 55.871 233.216 55.9946C233.554 56.1453 233.922 56.2172 234.292 56.2052C234.943 56.2132 235.572 55.9657 236.041 55.5161V53.8506H234.119V53.4485H236.522V55.6883C236.25 55.989 235.918 56.2295 235.547 56.3944C235.176 56.5593 234.775 56.6448 234.369 56.6455C233.933 56.6536 233.5 56.5688 233.1 56.3966C232.743 56.2504 232.427 56.0205 232.178 55.7266C231.933 55.4379 231.744 55.107 231.62 54.7503C231.485 54.3761 231.42 53.9802 231.428 53.5826" fill="#2B2B2B"/>
<path d="M231.428 53.6017C231.408 53.1951 231.47 52.7886 231.612 52.4069C231.754 52.0252 231.973 51.6762 232.254 51.3811C232.529 51.1023 232.859 50.8834 233.223 50.7384C233.587 50.5934 233.977 50.5254 234.369 50.5388C234.759 50.5393 235.144 50.6174 235.503 50.7685C235.862 50.9315 236.187 51.1586 236.464 51.4385L236.214 51.7256C235.967 51.4696 235.667 51.2689 235.336 51.1369C235.004 51.0049 234.649 50.9446 234.292 50.9599C233.984 50.961 233.679 51.0127 233.389 51.113C233.134 51.1915 232.898 51.3219 232.697 51.4959C232.494 51.666 232.319 51.8661 232.178 52.0894C232.044 52.3109 231.941 52.5491 231.87 52.7977C231.809 53.0549 231.776 53.3182 231.774 53.5826C231.772 53.9282 231.83 54.2716 231.947 54.5972C232.05 54.9025 232.207 55.1875 232.408 55.4395C232.633 55.6814 232.909 55.871 233.216 55.9946C233.554 56.1453 233.922 56.2172 234.292 56.2052C234.943 56.2132 235.572 55.9657 236.041 55.5161V53.8506H234.119V53.4485H236.522V55.6883C236.25 55.989 235.918 56.2295 235.547 56.3944C235.176 56.5593 234.775 56.6448 234.369 56.6455C233.933 56.6536 233.5 56.5688 233.1 56.3966C232.743 56.2504 232.427 56.0205 232.178 55.7266C231.933 55.4379 231.744 55.107 231.62 54.7503C231.487 54.3821 231.422 53.993 231.428 53.6017Z" fill="#2B2B2B"/>
<path d="M242.615 56.588V50.6152H246.536V51.0364H243.038V53.3527H246.382V53.7739H243.038V56.1477H246.632V56.588H242.615Z" fill="#2B2B2B"/>
<path d="M242.615 56.588V50.6152H246.536V51.0364H243.038V53.3527H246.382V53.7739H243.038V56.1477H246.632V56.588H242.615Z" fill="#2B2B2B"/>
<path d="M252.687 56.588V50.6152H252.879L256.724 55.5542V50.6152H257.146V56.588H256.973L253.129 51.649V56.588H252.687Z" fill="#2B2B2B"/>
<path d="M252.687 56.588V50.6152H252.879L256.724 55.5542V50.6152H257.146V56.588H256.973L253.129 51.649V56.588H252.687Z" fill="#2B2B2B"/>
<path d="M263.009 53.64C262.98 53.3408 262.98 53.0395 263.009 52.7403C263.091 52.4439 263.214 52.1604 263.374 51.8979C263.541 51.6429 263.742 51.4111 263.97 51.2088C264.213 51.0034 264.494 50.8474 264.797 50.7494C265.137 50.6369 265.495 50.585 265.854 50.5962C266.236 50.5901 266.615 50.6618 266.969 50.8068C267.33 50.965 267.657 51.1926 267.93 51.4768L267.622 51.7448C267.401 51.4993 267.124 51.3091 266.815 51.1897C266.512 51.0562 266.185 50.9846 265.854 50.9791C265.546 50.9783 265.241 51.0301 264.95 51.1322C264.693 51.2172 264.452 51.3468 264.239 51.5151C264.043 51.6788 263.874 51.8727 263.739 52.0894C263.609 52.3193 263.506 52.5634 263.432 52.8169C263.401 53.084 263.401 53.3538 263.432 53.6209C263.43 53.9603 263.489 54.2973 263.605 54.6163C263.716 54.9123 263.872 55.1898 264.066 55.4395C264.281 55.6885 264.551 55.885 264.854 56.0138C265.202 56.1554 265.574 56.2269 265.95 56.2244C266.28 56.2276 266.607 56.1624 266.911 56.0329C267.221 55.8955 267.501 55.7006 267.738 55.4587L268.026 55.7458C267.758 56.0359 267.43 56.2645 267.065 56.4158C266.713 56.5669 266.333 56.6451 265.95 56.6455C265.598 56.6569 265.246 56.605 264.912 56.4924C264.609 56.4046 264.327 56.2546 264.085 56.0521C263.858 55.8636 263.657 55.6445 263.49 55.4012C263.337 55.1347 263.214 54.8523 263.124 54.5589C263.046 54.2589 263.007 53.95 263.009 53.64Z" fill="#2B2B2B"/>
<path d="M263.009 53.64C262.98 53.3408 262.98 53.0395 263.009 52.7403C263.091 52.4439 263.214 52.1604 263.374 51.8979C263.541 51.6429 263.742 51.4111 263.97 51.2088C264.213 51.0034 264.494 50.8474 264.797 50.7494C265.137 50.6369 265.495 50.585 265.854 50.5962C266.236 50.5901 266.615 50.6618 266.969 50.8068C267.33 50.965 267.657 51.1926 267.93 51.4768L267.622 51.7448C267.401 51.4993 267.124 51.3091 266.815 51.1897C266.512 51.0562 266.185 50.9846 265.854 50.9791C265.546 50.9783 265.241 51.0301 264.95 51.1322C264.693 51.2172 264.452 51.3468 264.239 51.5151C264.043 51.6788 263.874 51.8727 263.739 52.0894C263.609 52.3193 263.506 52.5634 263.432 52.8169C263.401 53.084 263.401 53.3538 263.432 53.6209C263.43 53.9603 263.489 54.2973 263.605 54.6163C263.716 54.9123 263.872 55.1898 264.066 55.4395C264.281 55.6885 264.551 55.885 264.854 56.0138C265.202 56.1554 265.574 56.2269 265.95 56.2244C266.28 56.2276 266.607 56.1624 266.911 56.0329C267.221 55.8955 267.501 55.7006 267.738 55.4587L268.026 55.7458C267.758 56.0359 267.43 56.2645 267.065 56.4158C266.713 56.5669 266.333 56.6451 265.95 56.6455C265.598 56.6569 265.246 56.605 264.912 56.4924C264.609 56.4046 264.327 56.2546 264.085 56.0521C263.858 55.8636 263.657 55.6445 263.49 55.4012C263.337 55.1347 263.214 54.8523 263.124 54.5589C263.046 54.2589 263.007 53.95 263.009 53.64Z" fill="#2B2B2B"/>
<path d="M273.927 56.588V50.6152H277.867V51.0364H274.388V53.3527H277.714V53.7739H274.388V56.1477H277.983V56.588H273.927Z" fill="#2B2B2B"/>
<path d="M273.927 56.588V50.6152H277.867V51.0364H274.388V53.3527H277.714V53.7739H274.388V56.1477H277.983V56.588H273.927Z" fill="#2B2B2B"/>
</g>
<defs>
<clipPath id="clip0_8_9909">
<rect width="282" height="59" fill="white"/>
</clipPath>
</defs>
</svg>
