<svg width="149" height="58" viewBox="0 0 149 58" fill="none" xmlns="http://www.w3.org/2000/svg">
<g clip-path="url(#clip0_8_11500)">
<path d="M5.02071 30.5326C5.25229 34.8681 10.2267 39.5351 16.0348 39.5351C20.6664 39.5351 24.4458 38.1451 25.298 35.0983H30.5503C29.8 40.4095 24.066 44.0638 16.044 44.0638C11.8282 44.0638 7.78504 42.3997 4.804 39.4374C1.82295 36.4752 0.148224 32.4575 0.148224 28.2683C0.148224 24.079 1.82295 20.0613 4.804 17.0991C7.78504 14.1368 11.8282 12.4727 16.044 12.4727C24.6867 12.4727 33.1441 18.8424 31.9398 30.5326H5.02071ZM4.88176 26.0039H27.2804C26.0762 21.9813 22.0281 17.0015 16.0348 17.0015C10.0414 17.0015 5.90998 21.9813 4.91881 26.0039" fill="#010101"/>
<path d="M41.2772 0H36.6734V43.2262H41.2772V0Z" fill="#010101"/>
<path d="M71.5311 43.1802V39.0748C70.0664 40.6464 68.2911 41.9006 66.3162 42.7591C64.3414 43.6175 62.2095 44.0617 60.0539 44.0638C55.8381 44.0638 51.7949 42.3997 48.8138 39.4374C45.8328 36.4752 44.1581 32.4575 44.1581 28.2683C44.1581 24.079 45.8328 20.0613 48.8138 17.0991C51.7949 14.1368 55.8381 12.4727 60.0539 12.4727C65.4914 12.4727 68.2241 14.3689 71.5311 17.1395V13.3471H76.1627V43.1802H71.5311ZM48.6137 28.2683C48.6137 33.9477 54.2829 39.5351 60.0539 39.5351C65.8249 39.5351 71.5311 33.9477 71.5311 28.2683C71.5311 22.5889 65.8157 17.0015 60.0539 17.0015C54.2921 17.0015 48.6137 22.5889 48.6137 28.2683Z" fill="#010101"/>
<path d="M107.269 43.1802V39.0748C105.805 40.6472 104.03 41.9021 102.055 42.7606C100.08 43.6191 97.9474 44.0628 95.7916 44.0638C91.5758 44.0638 87.5327 42.3997 84.5516 39.4374C81.5706 36.4752 79.8958 32.4575 79.8958 28.2683C79.8958 24.079 81.5706 20.0613 84.5516 17.0991C87.5327 14.1368 91.5758 12.4727 95.7916 12.4727C101.229 12.4727 103.971 14.3689 107.269 17.1395V13.3471H111.901V43.1802H107.269ZM84.3608 28.2683C84.3608 33.9477 90.0299 39.5351 95.7916 39.5351C101.553 39.5351 107.269 33.9477 107.269 28.2683C107.269 22.5889 101.553 17.0015 95.7916 17.0015C90.0299 17.0015 84.3608 22.5889 84.3608 28.2683Z" fill="#010101"/>
<path d="M144.405 43.2261V28.2682C144.384 26.3114 143.872 24.3907 142.914 22.6808C141.478 19.8641 138.644 17.0014 132.928 17.0014C127.213 17.0014 124.286 19.8641 122.933 22.6808C122.019 24.405 121.527 26.3194 121.497 28.2682V43.2261H116.866V13.3471H121.497V16.624C122.56 15.6235 123.765 14.7831 125.073 14.1295C127.517 12.9499 130.213 12.3781 132.928 12.4634C140.033 12.4634 149 15.5102 149 28.259V43.2261H144.405Z" fill="#010101"/>
<path d="M6.0582 55.4041L5.78957 54.6953H4.02028L3.76091 55.4041H3.16806L4.62239 51.3447H5.19672L6.65105 55.4041H6.0582ZM4.90956 52.2376L4.20554 54.1798H5.61357L4.90956 52.2376Z" fill="black"/>
<path d="M7.69779 53.8853V55.4041H7.22537V52.3665H7.69779V52.6979C7.80651 52.5968 7.92794 52.5101 8.05906 52.4401C8.29273 52.337 8.54455 52.2807 8.80013 52.2744V52.7439C8.62639 52.7453 8.45528 52.7863 8.2999 52.8635C8.1085 52.9548 7.94893 53.1009 7.84164 53.2829C7.73436 53.465 7.68427 53.6747 7.69779 53.8853Z" fill="black"/>
<path d="M9.1058 53.8853C9.10825 53.4573 9.2811 53.0476 9.58658 52.7457C9.89206 52.4439 10.3053 52.2745 10.7361 52.2745C11.103 52.2372 11.4702 52.3417 11.7616 52.5662C12.0531 52.7907 12.2464 53.118 12.3016 53.4803H11.8107C11.7551 53.0017 11.3197 52.7347 10.7361 52.7347C10.576 52.7204 10.4146 52.7395 10.2623 52.7906C10.11 52.8417 9.97001 52.9238 9.85135 53.0316C9.73269 53.1394 9.63792 53.2706 9.57308 53.4168C9.50825 53.563 9.47476 53.721 9.47476 53.8807C9.47476 54.0405 9.50825 54.1985 9.57308 54.3447C9.63792 54.4909 9.73269 54.6221 9.85135 54.7299C9.97001 54.8377 10.11 54.9198 10.2623 54.9709C10.4146 55.022 10.576 55.041 10.7361 55.0267C11.3197 55.0267 11.7551 54.7598 11.8107 54.2811H12.3016C12.2465 54.6441 12.0534 54.9724 11.7623 55.1984C11.4711 55.4243 11.1039 55.5309 10.7361 55.4962C10.3053 55.4962 9.89206 55.3268 9.58658 55.025C9.2811 54.7232 9.10825 54.3134 9.1058 53.8853Z" fill="black"/>
<path d="M15.5623 55.4044V53.904C15.5596 53.7035 15.5053 53.5071 15.4048 53.3333C15.2975 53.162 15.1481 53.0208 14.9706 52.9228C14.7932 52.8249 14.5935 52.7736 14.3905 52.7736C14.1875 52.7736 13.9879 52.8249 13.8104 52.9228C13.6329 53.0208 13.4835 53.162 13.3762 53.3333C13.2797 53.5082 13.2287 53.7044 13.228 53.904V55.4044H12.7556V51.0044H13.228V52.7257C13.3461 52.6383 13.4774 52.5699 13.617 52.5232C13.8669 52.41 14.1391 52.3534 14.4137 52.3575C14.632 52.3318 14.8534 52.355 15.0615 52.4254C15.2697 52.4957 15.4593 52.6115 15.6166 52.7642C15.7738 52.917 15.8946 53.1027 15.9702 53.3079C16.0458 53.5131 16.0742 53.7325 16.0533 53.95V55.4504L15.5623 55.4044Z" fill="black"/>
<path d="M16.711 51.6857C16.7133 51.6254 16.7384 51.5681 16.7813 51.5255C16.8243 51.4828 16.8819 51.4578 16.9426 51.4556C17.004 51.4556 17.0629 51.4798 17.1063 51.5229C17.1497 51.5661 17.1741 51.6247 17.1741 51.6857C17.1741 51.7467 17.1497 51.8052 17.1063 51.8484C17.0629 51.8915 17.004 51.9158 16.9426 51.9158C16.8819 51.9135 16.8243 51.8885 16.7813 51.8459C16.7384 51.8032 16.7133 51.746 16.711 51.6857ZM16.711 52.3852H17.1741V55.4044H16.711V52.3852Z" fill="black"/>
<path d="M17.6003 51.7223H18.0634V52.4311H18.6655V52.8913H18.0634V54.4377C18.0634 54.5842 18.122 54.7247 18.2262 54.8283C18.3304 54.9318 18.4718 54.99 18.6192 54.99V55.4503C18.349 55.4503 18.0898 55.3436 17.8987 55.1537C17.7076 54.9638 17.6003 54.7063 17.6003 54.4377V51.6763V51.7223Z" fill="black"/>
<path d="M19.5085 54.1157C19.5564 54.3757 19.6951 54.6105 19.9001 54.7789C20.1052 54.9473 20.3634 55.0384 20.6294 55.0362C21.1018 55.0362 21.4908 54.8981 21.5557 54.5852H22.0929C22.0188 55.1283 21.426 55.5057 20.6108 55.5057C20.1809 55.5057 19.7686 55.3359 19.4645 55.0338C19.1605 54.7318 18.9897 54.322 18.9897 53.8948C18.9897 53.4676 19.1605 53.0579 19.4645 52.7558C19.7686 52.4537 20.1809 52.284 20.6108 52.284C20.8461 52.2767 21.0801 52.3214 21.2959 52.4148C21.5117 52.5082 21.704 52.6478 21.8591 52.8239C22.0141 52.9999 22.1279 53.2079 22.1924 53.4328C22.2568 53.6578 22.2703 53.8942 22.2319 54.1249L19.5085 54.1157ZM19.5085 53.6555H21.7873C21.7175 53.4015 21.569 53.1759 21.3628 53.0107C21.1565 52.8454 20.9032 52.7489 20.6386 52.735C20.376 52.7485 20.1247 52.8452 19.9214 53.0108C19.7181 53.1764 19.5734 53.4023 19.5085 53.6555Z" fill="black"/>
<path d="M22.5283 53.8853C22.5308 53.4573 22.7036 53.0476 23.0091 52.7457C23.3146 52.4439 23.7279 52.2745 24.1587 52.2745C24.5255 52.2372 24.8927 52.3417 25.1842 52.5662C25.4756 52.7907 25.669 53.118 25.7242 53.4803H25.2332C25.1776 53.0017 24.7423 52.7347 24.1587 52.7347C23.9985 52.7204 23.8372 52.7395 23.6848 52.7906C23.5325 52.8417 23.3925 52.9238 23.2739 53.0316C23.1552 53.1394 23.0604 53.2706 22.9956 53.4168C22.9308 53.563 22.8973 53.721 22.8973 53.8807C22.8973 54.0405 22.9308 54.1985 22.9956 54.3447C23.0604 54.4909 23.1552 54.6221 23.2739 54.7299C23.3925 54.8377 23.5325 54.9198 23.6848 54.9709C23.8372 55.022 23.9985 55.041 24.1587 55.0267C24.7423 55.0267 25.1776 54.7598 25.2332 54.2811H25.7242C25.669 54.6441 25.476 54.9724 25.1848 55.1984C24.8937 55.4243 24.5265 55.5309 24.1587 55.4962C23.7279 55.4962 23.3146 55.3268 23.0091 55.025C22.7036 54.7232 22.5308 54.3134 22.5283 53.8853Z" fill="black"/>
<path d="M26.178 51.7223H26.6412V52.4311H27.2433V52.8913H26.6412V54.4377C26.6412 54.5842 26.6998 54.7247 26.804 54.8283C26.9082 54.9318 27.0496 54.99 27.197 54.99V55.4503C26.9268 55.4503 26.6676 55.3436 26.4765 55.1537C26.2854 54.9638 26.178 54.7063 26.178 54.4377V51.6763V51.7223Z" fill="black"/>
<path d="M28.7625 55.4961C28.5623 55.522 28.3589 55.4928 28.1743 55.4116C27.9897 55.3305 27.8311 55.2005 27.7157 55.0359C27.6595 54.9307 27.6278 54.8143 27.6231 54.6953H28.0863C28.1419 54.8978 28.2715 54.9346 28.4105 54.9807C28.5251 55.012 28.6436 55.0275 28.7625 55.0267C28.8784 55.0276 28.9938 55.0121 29.1052 54.9807C29.272 54.9254 29.485 54.8242 29.485 54.5849C29.4764 54.4839 29.4346 54.3886 29.3659 54.3137C29.2972 54.2388 29.2056 54.1885 29.1052 54.1706C28.9955 54.1309 28.8792 54.1122 28.7625 54.1154C28.5712 54.1343 28.3784 54.1005 28.2052 54.0177C28.032 53.9348 27.8851 53.8062 27.7806 53.646C27.696 53.5033 27.6483 53.342 27.6416 53.1765C27.6477 53.0168 27.6956 52.8613 27.7806 52.7255C27.8867 52.5678 28.0345 52.4423 28.2077 52.3628C28.3809 52.2832 28.5729 52.2526 28.7625 52.2744C28.952 52.2536 29.1436 52.2847 29.3166 52.3642C29.4897 52.4436 29.6376 52.5686 29.7444 52.7255C29.7972 52.8315 29.8256 52.9478 29.8278 53.0661H29.3646C29.3183 52.8728 29.2071 52.8359 29.0775 52.7899C28.9769 52.7521 28.87 52.7334 28.7625 52.7347C28.6552 52.7363 28.5489 52.755 28.4475 52.7899C28.3549 52.8064 28.2706 52.8536 28.2083 52.9238C28.1461 52.994 28.1096 53.0831 28.1048 53.1765C28.1079 53.2746 28.143 53.3689 28.2048 53.4453C28.2667 53.5217 28.3519 53.576 28.4475 53.5999C28.5477 53.6393 28.6548 53.6581 28.7625 53.6552C28.962 53.6331 29.1638 53.665 29.3464 53.7477C29.5291 53.8304 29.6858 53.9606 29.8 54.1246C29.893 54.2612 29.9474 54.4202 29.9575 54.5849C29.9458 54.7464 29.8915 54.9019 29.8 55.0359C29.6854 55.199 29.5283 55.328 29.3455 55.4091C29.1627 55.4902 28.9612 55.5203 28.7625 55.4961Z" fill="black"/>
<path d="M35.5525 49.6143V57.9999" stroke="black" stroke-width="0.5"/>
<path d="M40.3046 51.3354H39.7858V55.404H40.3046V51.3354Z" fill="black"/>
<path d="M43.5467 55.4043V53.8854C43.5472 53.6857 43.4961 53.4893 43.3985 53.3147C43.2934 53.1393 43.1443 52.994 42.9656 52.893C42.787 52.7921 42.585 52.739 42.3795 52.739C42.174 52.739 41.9721 52.7921 41.7934 52.893C41.6148 52.994 41.4657 53.1393 41.3606 53.3147C41.2672 53.4909 41.2164 53.6863 41.2124 53.8854V55.4043H40.7492V52.3667H41.2124V52.698C41.3222 52.5941 41.4471 52.5072 41.5829 52.4403C41.8322 52.3252 42.1047 52.2685 42.3795 52.2746C42.5989 52.2519 42.8205 52.2778 43.0286 52.3504C43.2366 52.4231 43.4259 52.5407 43.5827 52.6948C43.7395 52.8488 43.86 53.0355 43.9354 53.2414C44.0109 53.4473 44.0395 53.6672 44.0191 53.8854V55.4043H43.5467Z" fill="black"/>
<path d="M44.5008 51.7223H44.9733V52.4311H45.5661V52.8913H44.9733V54.4377C44.9732 54.5826 45.0305 54.7217 45.1328 54.8251C45.235 54.9284 45.374 54.9876 45.5198 54.99V55.4503C45.386 55.4503 45.2535 55.4241 45.1298 55.3732C45.0062 55.3223 44.8939 55.2477 44.7993 55.1537C44.7046 55.0596 44.6296 54.9481 44.5784 54.8252C44.5272 54.7024 44.5008 54.5707 44.5008 54.4377V51.6763V51.7223Z" fill="black"/>
<path d="M46.4183 54.1157C46.4628 54.3773 46.6005 54.6143 46.8063 54.7833C47.0121 54.9524 47.2723 55.0421 47.5392 55.0362C48.0116 55.0362 48.3914 54.8981 48.4655 54.5852H48.9935C48.9194 55.1283 48.3358 55.5057 47.5207 55.5057C47.0907 55.5057 46.6784 55.3359 46.3744 55.0338C46.0704 54.7318 45.8996 54.322 45.8996 53.8948C45.8996 53.4676 46.0704 53.0579 46.3744 52.7558C46.6784 52.4537 47.0907 52.284 47.5207 52.284C47.756 52.2767 47.9899 52.3214 48.2058 52.4148C48.4216 52.5082 48.6139 52.6478 48.7689 52.8239C48.9239 52.9999 49.0377 53.2079 49.1022 53.4328C49.1667 53.6578 49.1802 53.8942 49.1417 54.1249L46.4183 54.1157ZM46.4183 53.6555H48.7064C48.6354 53.4022 48.4865 53.1773 48.2805 53.0123C48.0746 52.8473 47.8219 52.7503 47.5577 52.735C47.2944 52.7494 47.0424 52.8462 46.8377 53.0116C46.6331 53.1769 46.4863 53.4023 46.4183 53.6555Z" fill="black"/>
<path d="M50.0866 53.8853V55.4041H49.6142V52.3665H50.0866V52.6979C50.1953 52.5968 50.3168 52.5101 50.4479 52.4401C50.6815 52.337 50.9334 52.2807 51.1889 52.2744V52.7439C51.0152 52.7453 50.8441 52.7863 50.6887 52.8635C50.4973 52.9548 50.3377 53.1009 50.2305 53.2829C50.1232 53.465 50.0731 53.6747 50.0866 53.8853Z" fill="black"/>
<path d="M51.8188 51.6852C51.8188 51.6397 51.8324 51.5952 51.8579 51.5574C51.8833 51.5195 51.9195 51.49 51.9618 51.4726C52.0041 51.4552 52.0507 51.4506 52.0956 51.4595C52.1405 51.4684 52.1818 51.4903 52.2142 51.5225C52.2466 51.5547 52.2686 51.5957 52.2775 51.6403C52.2865 51.6849 52.2819 51.7312 52.2644 51.7733C52.2468 51.8153 52.2172 51.8513 52.1791 51.8765C52.141 51.9018 52.0962 51.9154 52.0504 51.9154C51.9897 51.9131 51.9322 51.8881 51.8892 51.8454C51.8463 51.8027 51.8211 51.7455 51.8188 51.6852ZM51.8188 52.3848H52.282V55.404H51.8188V52.3848Z" fill="black"/>
<path d="M52.5692 53.8853C52.5716 53.4572 52.7444 53.0475 53.0499 52.7457C53.3554 52.4438 53.7687 52.2744 54.1995 52.2744C54.6294 52.2744 55.0418 52.4441 55.3458 52.7462C55.6498 53.0483 55.8206 53.458 55.8206 53.8853C55.8206 54.3125 55.6498 54.7222 55.3458 55.0243C55.0418 55.3264 54.6294 55.4961 54.1995 55.4961C53.7687 55.4961 53.3554 55.3268 53.0499 55.0249C52.7444 54.7231 52.5716 54.3133 52.5692 53.8853ZM53.0416 53.8853C53.0416 54.0359 53.0716 54.1851 53.1299 54.3242C53.1882 54.4633 53.2737 54.5895 53.3813 54.6956C53.4889 54.8018 53.6167 54.8856 53.7571 54.9424C53.8975 54.9993 54.0479 55.0279 54.1995 55.0267C54.4289 55.0267 54.6531 54.959 54.8438 54.8321C55.0344 54.7053 55.1828 54.5251 55.2701 54.3143C55.3575 54.1035 55.3799 53.8716 55.3344 53.6482C55.289 53.4247 55.1778 53.2198 55.0149 53.0592C54.8521 52.8987 54.6449 52.7898 54.4197 52.7465C54.1944 52.7031 53.9613 52.7272 53.7499 52.8157C53.5385 52.9042 53.3583 53.0531 53.2322 53.2436C53.1061 53.434 53.0398 53.6573 53.0416 53.8853Z" fill="black"/>
<path d="M56.8766 53.8853V55.4041H56.4042V52.3665H56.8766V52.6979C56.9836 52.5947 57.1053 52.5078 57.2379 52.4401C57.4715 52.337 57.7234 52.2807 57.9789 52.2744V52.7439C57.8052 52.7453 57.6341 52.7863 57.4787 52.8635C57.2873 52.9548 57.1277 53.1009 57.0204 53.2829C56.9132 53.465 56.8631 53.6747 56.8766 53.8853Z" fill="black"/>
<path d="M62.1659 55.4041H60.8598V51.3447H62.1844C62.5449 51.3475 62.8998 51.4326 63.2219 51.5933C63.5329 51.7767 63.7906 52.0373 63.9695 52.3496C64.1485 52.6619 64.2426 53.0151 64.2426 53.3744C64.2426 53.7338 64.1485 54.087 63.9695 54.3992C63.7906 54.7115 63.5329 54.9722 63.2219 55.1556C62.8998 55.3163 62.5449 55.4013 62.1844 55.4041M62.1844 51.851H61.3785V54.8979H62.1844C62.4526 54.8951 62.7161 54.8288 62.9533 54.7045C63.1879 54.5695 63.3827 54.3755 63.5181 54.142C63.6535 53.9086 63.7248 53.6439 63.7248 53.3744C63.7248 53.105 63.6535 52.8403 63.5181 52.6068C63.3827 52.3734 63.1879 52.1794 62.9533 52.0443C62.7161 51.92 62.4526 51.8538 62.1844 51.851Z" fill="black"/>
<path d="M65.0283 54.1156C65.0762 54.3756 65.2149 54.6104 65.4199 54.7788C65.625 54.9472 65.8831 55.0383 66.1491 55.0361C66.6215 55.0361 67.0106 54.898 67.0754 54.5851H67.6127C67.5386 55.1282 66.9458 55.5056 66.1306 55.5056C65.7007 55.5056 65.2883 55.3358 64.9843 55.0337C64.6803 54.7317 64.5095 54.3219 64.5095 53.8947C64.5095 53.4675 64.6803 53.0578 64.9843 52.7557C65.2883 52.4536 65.7007 52.2839 66.1306 52.2839C66.3664 52.2749 66.6011 52.3185 66.8178 52.4113C67.0345 52.5041 67.2275 52.6438 67.3829 52.8202C67.5383 52.9967 67.652 53.2054 67.7158 53.4311C67.7796 53.6568 67.7919 53.8938 67.7517 54.1248L65.0283 54.1156ZM65.0283 53.6554H67.3441C67.2743 53.4014 67.1258 53.1758 66.9196 53.0106C66.7134 52.8453 66.46 52.7488 66.1954 52.7349C65.9333 52.7498 65.6827 52.847 65.4796 53.0124C65.2766 53.1778 65.1315 53.4029 65.0653 53.6554" fill="black"/>
<path d="M69.1968 55.4963C68.9966 55.5222 68.7932 55.493 68.6086 55.4118C68.424 55.3307 68.2654 55.2007 68.15 55.0361C68.0937 54.9309 68.0621 54.8145 68.0574 54.6955H68.5205C68.5761 54.898 68.7058 54.9348 68.8355 54.9809C68.9534 55.0115 69.0749 55.0269 69.1968 55.0269C69.3126 55.027 69.4279 55.0116 69.5395 54.9809C69.7062 54.9256 69.9193 54.8244 69.9193 54.5851C69.9107 54.4841 69.8688 54.3888 69.8001 54.3139C69.7315 54.239 69.6399 54.1887 69.5395 54.1708C69.4295 54.1323 69.3134 54.1136 69.1968 54.1156C69.0043 54.1331 68.8107 54.0988 68.6363 54.0162C68.4618 53.9336 68.3131 53.8057 68.2056 53.6461C68.1281 53.5011 68.0838 53.3408 68.0759 53.1767C68.0837 53.0185 68.1281 52.8641 68.2056 52.7256C68.3273 52.5839 68.4786 52.4701 68.6489 52.392C68.8192 52.3139 69.0046 52.2734 69.1921 52.2734C69.3797 52.2734 69.565 52.3139 69.7354 52.392C69.9057 52.4701 70.0569 52.5839 70.1787 52.7256C70.2314 52.8317 70.2599 52.948 70.262 53.0663H69.7989C69.7526 52.873 69.6414 52.8361 69.5117 52.7901C69.4111 52.7523 69.3043 52.7336 69.1968 52.7349C69.0895 52.7365 68.9832 52.7552 68.8818 52.7901C68.7891 52.8066 68.7048 52.8538 68.6426 52.924C68.5804 52.9942 68.5439 53.0833 68.5391 53.1767C68.5421 53.2747 68.5772 53.3691 68.6391 53.4455C68.7009 53.5219 68.7861 53.5762 68.8818 53.6001C68.982 53.6395 69.0891 53.6583 69.1968 53.6554C69.3961 53.6342 69.5976 53.6667 69.78 53.7492C69.9625 53.8318 70.1194 53.9615 70.2343 54.1248C70.3223 54.2639 70.3762 54.4215 70.3917 54.5851C70.3762 54.7457 70.3222 54.9004 70.2343 55.0361C70.1197 55.1992 69.9626 55.3282 69.7798 55.4093C69.597 55.4904 69.3955 55.5204 69.1968 55.4963Z" fill="black"/>
<path d="M71.0494 51.6857C71.0517 51.6254 71.0769 51.5681 71.1198 51.5255C71.1627 51.4828 71.2203 51.4578 71.281 51.4556C71.3424 51.4556 71.4014 51.4798 71.4448 51.5229C71.4882 51.5661 71.5126 51.6247 71.5126 51.6857C71.5126 51.7467 71.4882 51.8052 71.4448 51.8484C71.4014 51.8915 71.3424 51.9158 71.281 51.9158C71.2203 51.9135 71.1627 51.8885 71.1198 51.8459C71.0769 51.8032 71.0517 51.746 71.0494 51.6857ZM71.0494 52.3852H71.5219V55.4044H71.0494V52.3852Z" fill="black"/>
<path d="M74.2175 56.5179C73.9509 56.6744 73.647 56.757 73.3375 56.7572C73.0639 56.7605 72.7925 56.7072 72.5408 56.6008C72.3224 56.5172 72.1283 56.3812 71.9757 56.205C71.8346 56.0152 71.7424 55.794 71.7071 55.5606H72.2166C72.3556 56.0853 72.7353 56.2694 73.3004 56.2694C73.5175 56.2725 73.7317 56.2185 73.921 56.1129C74.0687 56.0318 74.193 55.9146 74.2823 55.7724C74.4005 55.5786 74.4585 55.3544 74.4491 55.128V54.9715C74.299 55.1279 74.1175 55.2513 73.9165 55.3337C73.7155 55.4162 73.4993 55.4558 73.2819 55.4501C72.992 55.4524 72.7069 55.376 72.4574 55.2292C72.2112 55.0962 72.0062 54.8989 71.8646 54.6585C71.7232 54.4185 71.6496 54.145 71.6515 53.8669C71.6519 53.5862 71.7253 53.3104 71.8646 53.0661C72.0177 52.8237 72.2274 52.6216 72.476 52.477C72.7241 52.3455 73.0007 52.276 73.2819 52.2744C73.5001 52.2688 73.7171 52.3094 73.9183 52.3935C74.1196 52.4776 74.3005 52.6033 74.4491 52.7623V52.3573H74.9493V55.0359C74.9629 55.3551 74.8926 55.6723 74.7455 55.9564C74.6163 56.1985 74.4245 56.4019 74.1897 56.5455M73.8747 52.9464C73.7044 52.8437 73.5089 52.7895 73.3097 52.7899C73.1076 52.7906 72.9094 52.8446 72.7353 52.9464C72.5652 53.0527 72.4199 53.1939 72.3092 53.3606C72.2038 53.5295 72.1462 53.7235 72.1425 53.9222C72.1447 54.0673 72.1762 54.2104 72.2351 54.3432C72.294 54.476 72.379 54.5957 72.4852 54.6953C72.7035 54.9065 72.9957 55.0253 73.3004 55.0267C73.4516 55.028 73.6016 54.9994 73.7415 54.9425C73.8815 54.8856 74.0086 54.8016 74.1156 54.6953C74.2251 54.5964 74.3123 54.4755 74.3714 54.3407C74.4305 54.2058 74.4601 54.06 74.4583 53.9129C74.4587 53.7108 74.4008 53.5128 74.2916 53.3422C74.1861 53.1794 74.0432 53.0438 73.8747 52.9464Z" fill="black"/>
<path d="M78.2655 55.4044V53.8856C78.2627 53.6851 78.2085 53.4887 78.108 53.3149C78.0042 53.1393 77.856 52.9936 77.6781 52.8925C77.5001 52.7913 77.2987 52.7381 77.0937 52.7381C76.8887 52.7381 76.6873 52.7913 76.5093 52.8925C76.3314 52.9936 76.1832 53.1393 76.0794 53.3149C75.9817 53.4894 75.9307 53.6859 75.9311 53.8856V55.4044H75.4587V52.3668H75.9311V52.6982C76.0399 52.5971 76.1613 52.5105 76.2924 52.4404C76.5452 52.3258 76.8206 52.2692 77.0983 52.2747C77.3173 52.2518 77.5387 52.2776 77.7463 52.3503C77.954 52.423 78.1428 52.5408 78.2989 52.695C78.455 52.8493 78.5746 53.0362 78.649 53.2421C78.7233 53.4481 78.7505 53.6679 78.7287 53.8856V55.4044H78.2655Z" fill="black"/>
<path d="M79.5902 54.1157C79.6364 54.3765 79.7746 54.6124 79.98 54.7811C80.1854 54.9498 80.4446 55.0402 80.711 55.0362C81.1835 55.0362 81.5725 54.8981 81.6374 54.5852H82.1654C82.082 55.1283 81.4984 55.5057 80.6832 55.5057C80.2533 55.5057 79.841 55.3359 79.537 55.0338C79.233 54.7318 79.0622 54.322 79.0622 53.8948C79.0622 53.4676 79.233 53.0579 79.537 52.7558C79.841 52.4537 80.2533 52.284 80.6832 52.284C80.9185 52.2767 81.1525 52.3214 81.3683 52.4148C81.5841 52.5082 81.7765 52.6478 81.9315 52.8239C82.0865 52.9999 82.2003 53.2079 82.2648 53.4328C82.3293 53.6578 82.3427 53.8942 82.3043 54.1249L79.5902 54.1157ZM79.5902 53.6555H81.8689C81.7992 53.4015 81.6507 53.1759 81.4444 53.0107C81.2382 52.8454 80.9848 52.7489 80.7203 52.735C80.4577 52.7485 80.2064 52.8452 80.0031 53.0108C79.7997 53.1764 79.6551 53.4023 79.5902 53.6555Z" fill="black"/>
<path d="M83.2584 53.8853V55.4041H82.786V52.3665H83.2584V52.6979C83.3671 52.5968 83.4886 52.5101 83.6197 52.4401C83.8537 52.3381 84.1053 52.2819 84.3608 52.2744V52.7439C84.1873 52.7475 84.0166 52.7883 83.8605 52.8635C83.6699 52.9558 83.5111 53.1021 83.4039 53.2839C83.2968 53.4657 83.2461 53.6749 83.2584 53.8853Z" fill="black"/>
<path d="M85.8707 55.4961C85.6706 55.521 85.4675 55.4913 85.2831 55.4102C85.0987 55.3292 84.94 55.1997 84.8239 55.0359C84.7677 54.9307 84.736 54.8143 84.7313 54.6953H85.1945C85.25 54.8978 85.3797 54.9346 85.5187 54.9807C85.6333 55.012 85.7518 55.0275 85.8707 55.0267C85.9866 55.0276 86.1019 55.0121 86.2134 54.9807C86.3802 54.9254 86.5932 54.8242 86.5932 54.5849C86.5846 54.4839 86.5427 54.3886 86.4741 54.3137C86.4054 54.2388 86.3138 54.1885 86.2134 54.1706C86.1037 54.1309 85.9874 54.1122 85.8707 54.1154C85.6794 54.1343 85.4866 54.1005 85.3134 54.0177C85.1402 53.9348 84.9933 53.8062 84.8888 53.646C84.8042 53.5033 84.7565 53.342 84.7498 53.1765C84.7559 53.0168 84.8038 52.8613 84.8888 52.7255C84.9949 52.5678 85.1427 52.4423 85.3159 52.3628C85.4891 52.2832 85.6811 52.2526 85.8707 52.2744C86.0602 52.2536 86.2518 52.2847 86.4248 52.3642C86.5979 52.4436 86.7458 52.5686 86.8526 52.7255C86.9053 52.832 86.9367 52.9477 86.9452 53.0661H86.4728C86.4265 52.8728 86.3246 52.8359 86.1856 52.7899C86.085 52.7521 85.9782 52.7334 85.8707 52.7347C85.7634 52.7363 85.6571 52.755 85.5557 52.7899C85.4631 52.8064 85.3788 52.8536 85.3165 52.9238C85.2543 52.994 85.2178 53.0831 85.213 53.1765C85.2161 53.2746 85.2511 53.3689 85.313 53.4453C85.3748 53.5217 85.4601 53.576 85.5557 53.5999C85.6559 53.6393 85.763 53.6581 85.8707 53.6552C86.0702 53.6331 86.2719 53.665 86.4546 53.7477C86.6373 53.8304 86.794 53.9606 86.9082 54.1246C87.0012 54.2612 87.0556 54.4202 87.0657 54.5849C87.054 54.7464 86.9997 54.9019 86.9082 55.0359C86.7936 55.199 86.6365 55.328 86.4537 55.4091C86.2709 55.4902 86.0694 55.5203 85.8707 55.4961Z" fill="black"/>
<path d="M93.6982 49.6143V57.9999" stroke="black" stroke-width="0.5" stroke-miterlimit="10"/>
<path d="M99.0153 51.8509V55.404H98.4965V51.8509H97.2552V51.3354H100.257V51.8509H99.0153Z" fill="black"/>
<path d="M103.554 55.4042V55.0729C103.441 55.1696 103.316 55.2529 103.184 55.3214C102.937 55.4436 102.663 55.5037 102.387 55.4963C102.168 55.519 101.946 55.4931 101.738 55.4204C101.53 55.3478 101.341 55.2302 101.184 55.0761C101.027 54.9221 100.907 54.7354 100.831 54.5295C100.756 54.3236 100.727 54.1036 100.748 53.8854V52.3574H101.22V53.8854C101.224 54.0845 101.275 54.2799 101.368 54.4561C101.475 54.6294 101.625 54.7726 101.803 54.8719C101.982 54.9712 102.183 55.0233 102.387 55.0233C102.592 55.0233 102.793 54.9712 102.971 54.8719C103.149 54.7726 103.299 54.6294 103.406 54.4561C103.5 54.2799 103.55 54.0845 103.554 53.8854V52.3574H104.027V55.4042H103.554Z" fill="black"/>
<path d="M105.046 53.8853V55.4041H104.564V52.3665H105.046V52.6979C105.152 52.5976 105.27 52.511 105.398 52.4401C105.635 52.3372 105.89 52.2809 106.148 52.2744V52.7439C105.974 52.7453 105.803 52.7863 105.648 52.8635C105.456 52.9548 105.297 53.1009 105.19 53.2829C105.082 53.465 105.032 53.6747 105.046 53.8853Z" fill="black"/>
<path d="M109.381 55.4043V53.8854C109.381 53.6857 109.33 53.4893 109.233 53.3147C109.128 53.1393 108.978 52.994 108.8 52.893C108.621 52.7921 108.419 52.739 108.214 52.739C108.008 52.739 107.806 52.7921 107.628 52.893C107.449 52.994 107.3 53.1393 107.195 53.3147C107.101 53.4909 107.051 53.6863 107.047 53.8854V55.4043H106.583V52.3667H107.047V52.698C107.156 52.5941 107.281 52.5072 107.417 52.4403C107.666 52.3252 107.939 52.2685 108.214 52.2746C108.433 52.2519 108.655 52.2778 108.863 52.3504C109.071 52.4231 109.26 52.5407 109.417 52.6948C109.574 52.8488 109.694 53.0355 109.77 53.2414C109.845 53.4473 109.874 53.6672 109.853 53.8854V55.4043H109.381Z" fill="black"/>
<path d="M112.114 55.4043L110.965 54.2353L110.826 54.3918V55.4043H110.354V51.0044H110.826V53.7106L112.058 52.3943H112.688L111.289 53.8947L112.753 55.4043H112.114Z" fill="black"/>
<path d="M113.494 54.1156C113.542 54.3756 113.68 54.6104 113.885 54.7788C114.09 54.9472 114.349 55.0383 114.615 55.0361C115.087 55.0361 115.476 54.898 115.541 54.5851H116.078C116.004 55.1282 115.411 55.5056 114.596 55.5056C114.166 55.5056 113.754 55.3358 113.45 55.0337C113.146 54.7317 112.975 54.3219 112.975 53.8947C112.975 53.4675 113.146 53.0578 113.45 52.7557C113.754 52.4536 114.166 52.2839 114.596 52.2839C114.832 52.2749 115.067 52.3185 115.283 52.4113C115.5 52.5041 115.693 52.6438 115.848 52.8202C116.004 52.9967 116.118 53.2054 116.181 53.4311C116.245 53.6568 116.257 53.8938 116.217 54.1248L113.494 54.1156ZM113.494 53.6554H115.773C115.703 53.4014 115.554 53.1758 115.348 53.0106C115.142 52.8453 114.888 52.7488 114.624 52.7349C114.362 52.7498 114.111 52.847 113.908 53.0124C113.705 53.1778 113.56 53.4029 113.494 53.6554Z" fill="black"/>
<path d="M117.551 56.7574H116.995L117.468 55.4319L116.421 52.3574H116.921L117.746 54.6586L118.57 52.3574H119.07L117.551 56.7574Z" fill="black"/>
<path d="M123.146 55.4961C122.886 55.5246 122.623 55.4842 122.384 55.3792C122.145 55.2741 121.938 55.108 121.784 54.8978C121.699 54.762 121.652 54.6065 121.645 54.4468H122.164C122.183 54.5661 122.24 54.6762 122.327 54.7608C122.414 54.8453 122.526 54.8998 122.646 54.9162C122.809 54.9587 122.977 54.9804 123.146 54.9806C123.312 54.9804 123.477 54.9587 123.637 54.9162C123.785 54.893 123.92 54.8199 124.019 54.7092C124.119 54.5985 124.177 54.457 124.184 54.3087C124.177 54.1592 124.12 54.0165 124.02 53.9043C123.921 53.792 123.785 53.7171 123.637 53.692C123.476 53.6534 123.311 53.6348 123.146 53.6367C122.897 53.6624 122.646 53.6203 122.419 53.5149C122.192 53.4095 121.998 53.2448 121.859 53.0384C121.75 52.8562 121.687 52.6512 121.673 52.44C121.688 52.235 121.752 52.0363 121.859 51.8602C122.016 51.6727 122.213 51.5219 122.435 51.4184C122.658 51.3149 122.9 51.2612 123.146 51.2612C123.392 51.2612 123.634 51.3149 123.857 51.4184C124.08 51.5219 124.276 51.6727 124.434 51.8602C124.511 51.995 124.552 52.147 124.554 52.302H124.035C124.017 52.1919 123.966 52.0899 123.888 52.0094C123.81 51.9289 123.71 51.8737 123.6 51.851C123.455 51.7979 123.301 51.7699 123.146 51.7681C122.988 51.7701 122.832 51.7981 122.683 51.851C122.548 51.8828 122.427 51.9576 122.338 52.0638C122.25 52.1701 122.198 52.3022 122.192 52.44C122.195 52.58 122.245 52.7149 122.334 52.8234C122.423 52.9318 122.546 53.0075 122.683 53.0384C122.832 53.0882 122.989 53.1131 123.146 53.112C123.406 53.0892 123.668 53.133 123.907 53.2394C124.145 53.3458 124.352 53.511 124.508 53.7195C124.623 53.8957 124.69 54.0988 124.702 54.3087C124.687 54.5179 124.62 54.7202 124.508 54.8978C124.354 55.1073 124.147 55.2729 123.908 55.3779C123.669 55.4829 123.406 55.5236 123.146 55.4961Z" fill="black"/>
<path d="M125.064 53.8854C125.06 53.5624 125.153 53.2457 125.331 52.9753C125.509 52.705 125.764 52.4933 126.063 52.3672C126.362 52.241 126.692 52.2061 127.012 52.2669C127.331 52.3277 127.625 52.4814 127.856 52.7085C128.087 52.9356 128.245 53.2258 128.31 53.5423C128.375 53.8589 128.343 54.1874 128.22 54.4862C128.096 54.785 127.886 55.0405 127.616 55.2204C127.346 55.4002 127.028 55.4963 126.703 55.4963C126.272 55.4963 125.857 55.3272 125.55 55.0257C125.243 54.7241 125.069 54.3143 125.064 53.8854ZM125.536 53.8854C125.536 54.193 125.659 54.4881 125.878 54.7056C126.097 54.9231 126.394 55.0453 126.703 55.0453C127.013 55.0453 127.31 54.9231 127.529 54.7056C127.747 54.4881 127.87 54.193 127.87 53.8854C127.87 53.5778 127.747 53.2829 127.529 53.0653C127.31 52.8478 127.013 52.7256 126.703 52.7256C126.394 52.7256 126.097 52.8478 125.878 53.0653C125.659 53.2829 125.536 53.5778 125.536 53.8854Z" fill="black"/>
<path d="M129.399 51.0044H128.926V55.4043H129.399V51.0044Z" fill="black"/>
<path d="M132.613 55.4042V55.0729C132.5 55.1696 132.375 55.2529 132.243 55.3214C131.996 55.4436 131.722 55.5037 131.446 55.4963C131.226 55.5207 131.004 55.496 130.795 55.424C130.586 55.3519 130.396 55.2344 130.239 55.08C130.082 54.9255 129.961 54.7381 129.887 54.5314C129.812 54.3247 129.784 54.104 129.806 53.8854V52.3574H130.279V53.8854C130.283 54.0845 130.334 54.2799 130.427 54.4561C130.534 54.6294 130.684 54.7726 130.862 54.8719C131.041 54.9712 131.242 55.0233 131.446 55.0233C131.651 55.0233 131.852 54.9712 132.03 54.8719C132.208 54.7726 132.358 54.6294 132.465 54.4561C132.558 54.2799 132.609 54.0845 132.613 53.8854V52.3574H133.113V55.4042H132.613Z" fill="black"/>
<path d="M133.577 51.7223H134.04V52.4311H134.642V52.8913H134.04V54.4377C134.04 54.5103 134.054 54.5821 134.082 54.6491C134.11 54.7161 134.151 54.777 134.203 54.8283C134.254 54.8795 134.315 54.9202 134.383 54.948C134.45 54.9757 134.523 54.99 134.596 54.99V55.4503C134.325 55.4503 134.066 55.3436 133.875 55.1537C133.684 54.9638 133.577 54.7063 133.577 54.4377V51.6763V51.7223Z" fill="black"/>
<path d="M135.309 51.6857C135.311 51.6254 135.336 51.5681 135.379 51.5255C135.422 51.4828 135.48 51.4578 135.54 51.4556C135.602 51.4556 135.661 51.4798 135.704 51.5229C135.748 51.5661 135.772 51.6247 135.772 51.6857C135.772 51.7467 135.748 51.8052 135.704 51.8484C135.661 51.8915 135.602 51.9158 135.54 51.9158C135.48 51.9135 135.422 51.8885 135.379 51.8459C135.336 51.8032 135.311 51.746 135.309 51.6857ZM135.309 52.3852H135.781V55.4044H135.309V52.3852Z" fill="black"/>
<path d="M136.059 53.8854C136.055 53.5624 136.149 53.2457 136.326 52.9753C136.504 52.705 136.759 52.4933 137.058 52.3672C137.358 52.241 137.688 52.2061 138.007 52.2669C138.326 52.3277 138.62 52.4814 138.851 52.7085C139.083 52.9356 139.241 53.2258 139.305 53.5423C139.37 53.8589 139.339 54.1874 139.215 54.4862C139.092 54.785 138.882 55.0405 138.612 55.2204C138.342 55.4002 138.024 55.4963 137.699 55.4963C137.485 55.4975 137.272 55.4568 137.074 55.3765C136.876 55.2962 136.695 55.1779 136.543 55.0283C136.391 54.8787 136.27 54.7008 136.187 54.5047C136.104 54.3086 136.06 54.0982 136.059 53.8854ZM136.532 53.8854C136.532 54.193 136.655 54.4881 136.873 54.7056C137.092 54.9231 137.389 55.0453 137.699 55.0453C138.008 55.0453 138.305 54.9231 138.524 54.7056C138.743 54.4881 138.866 54.193 138.866 53.8854C138.866 53.5778 138.743 53.2829 138.524 53.0653C138.305 52.8478 138.008 52.7256 137.699 52.7256C137.389 52.7256 137.092 52.8478 136.873 53.0653C136.655 53.2829 136.532 53.5778 136.532 53.8854Z" fill="black"/>
<path d="M142.645 55.4043V53.8854C142.646 53.6857 142.595 53.4893 142.497 53.3147C142.392 53.1393 142.243 52.994 142.064 52.893C141.886 52.7921 141.684 52.739 141.478 52.739C141.273 52.739 141.071 52.7921 140.892 52.893C140.713 52.994 140.564 53.1393 140.459 53.3147C140.366 53.4909 140.315 53.6863 140.311 53.8854V55.4043H139.848V52.3667H140.311V52.698C140.421 52.5941 140.546 52.5072 140.682 52.4403C140.931 52.3252 141.203 52.2685 141.478 52.2746C141.698 52.2519 141.919 52.2778 142.127 52.3504C142.335 52.4231 142.525 52.5407 142.681 52.6948C142.838 52.8488 142.959 53.0355 143.034 53.2414C143.11 53.4473 143.138 53.6672 143.118 53.8854V55.4043H142.645Z" fill="black"/>
<path d="M144.646 55.4965C144.446 55.5203 144.244 55.4902 144.059 55.4092C143.875 55.3282 143.716 55.1994 143.6 55.0363C143.543 54.9311 143.512 54.8147 143.507 54.6957H143.979C143.979 54.8982 144.155 54.935 144.294 54.981C144.525 55.0424 144.768 55.0424 144.998 54.981C145.156 54.9258 145.369 54.8246 145.369 54.5852C145.361 54.4856 145.32 54.3912 145.253 54.3165C145.186 54.2418 145.097 54.1907 144.998 54.171C144.885 54.1318 144.766 54.1131 144.646 54.1158C144.455 54.1346 144.262 54.1008 144.089 54.018C143.916 53.9352 143.769 53.8066 143.664 53.6463C143.584 53.502 143.536 53.3417 143.525 53.1769C143.522 53.0379 143.551 52.9 143.609 52.7735C143.667 52.6471 143.754 52.5353 143.861 52.4468C143.969 52.3582 144.096 52.2951 144.232 52.2621C144.368 52.2291 144.509 52.2272 144.646 52.2564C144.837 52.2349 145.03 52.2655 145.205 52.345C145.38 52.4245 145.529 52.5498 145.637 52.7074C145.686 52.815 145.714 52.9304 145.721 53.048H145.258C145.211 52.8547 145.1 52.8179 144.961 52.7719C144.861 52.7335 144.754 52.7147 144.646 52.7167C144.539 52.72 144.433 52.7386 144.331 52.7719C144.24 52.7902 144.158 52.8382 144.098 52.9082C144.037 52.9783 144.002 53.0663 143.998 53.1585C143.999 53.2557 144.032 53.3499 144.092 53.4264C144.153 53.503 144.237 53.5576 144.331 53.5819C144.432 53.6197 144.539 53.6384 144.646 53.6372C144.847 53.6153 145.05 53.6473 145.234 53.7299C145.418 53.8125 145.577 53.9425 145.693 54.1066C145.783 54.2441 145.834 54.403 145.841 54.5668C145.832 54.7274 145.781 54.883 145.693 55.0179C145.575 55.1795 145.416 55.3072 145.232 55.3881C145.048 55.4689 144.846 55.5 144.646 55.4781" fill="black"/>
</g>
<defs>
<clipPath id="clip0_8_11500">
<rect width="149" height="58" fill="white"/>
</clipPath>
</defs>
</svg>
