<svg width="93" height="90" viewBox="0 0 93 90" fill="none" xmlns="http://www.w3.org/2000/svg">
<g clip-path="url(#clip0_8_11311)">
<path d="M83.9318 56.1021H8.86505V81.2551H83.9318V56.1021Z" fill="url(#paint0_linear_8_11311)"/>
<path d="M92.9077 28.2036H0.0923462V53.3567H92.9077V28.2036Z" fill="#303992"/>
<path d="M92.9077 28.2036H0.0923462V53.3567H92.9077V28.2036Z" stroke="#303992" stroke-width="0.2" stroke-miterlimit="10"/>
<path d="M92.7876 28.2036H43.6143V53.3567H92.7876V28.2036Z" fill="url(#paint1_linear_8_11311)"/>
<path d="M41.2225 56.1021C31.3824 65.6238 20.5464 74.0568 8.90198 81.2551V56.1021H41.2225Z" fill="#EA2227"/>
<path d="M8.91122 0.378906H8.86505V25.5227H8.91122V0.378906Z" fill="url(#paint2_linear_8_11311)"/>
<path d="M8.86505 25.5227H8.91122L8.86505 0.378906V25.5227Z" stroke="#EA2227" stroke-width="0.2" stroke-miterlimit="10"/>
<path d="M25.0623 0.378906H8.86505V25.5227H25.0623V0.378906Z" fill="url(#paint3_linear_8_11311)"/>
<path d="M8.86505 0.378906L8.91121 25.5227H25.053C19.0507 17.5485 13.6402 9.14477 8.86505 0.378906Z" stroke="#EA2227" stroke-width="0.2" stroke-miterlimit="10"/>
<path d="M83.9502 0.378906H8.86505V25.5227H83.9502V0.378906Z" fill="url(#paint4_linear_8_11311)"/>
<path d="M16.308 40.5998L14.1194 42.2545V46.8673H11.5061V33.4819H14.1194V39.1948L21.193 33.4819H24.6467L18.2103 38.8989L24.6467 46.8673H21.4516L16.308 40.5998Z" fill="white"/>
<path d="M30.2059 40.9973V44.6672H39.8281V46.8673H27.6017V33.4819H39.5973V35.682H30.2059V38.8527H36.6607V40.9973H30.2059Z" fill="white"/>
<path d="M50.3 46.6824L45.221 37.6233V46.8673H42.8478V33.4819H46.1075L50.5585 41.5058L55.2404 33.4819H58.2785V46.8673H55.6744V37.6233L50.3 46.6824Z" fill="white"/>
<path d="M64.8442 33.4819H62.2401V46.8673H64.8442V33.4819Z" fill="white"/>
<path d="M77.994 43.447H71.7239L70.0154 46.8673H67.6699L73.8662 33.4819H76.1749L82.445 46.8673H79.6747L77.994 43.447ZM77.2922 41.5982L74.9005 36.8283L72.4626 41.5982H77.2922Z" fill="white"/>
<path d="M29.384 69.8757H26.9091V68.8034H30.6029V71.7245C29.4619 72.4081 28.1558 72.7662 26.826 72.7598C25.7619 72.807 24.7124 72.498 23.8433 71.8816C23.4045 71.5162 23.0485 71.0614 22.7991 70.5474C22.5497 70.0335 22.4125 69.4722 22.3968 68.9011C22.3811 68.3299 22.4871 67.7619 22.7079 67.235C22.9286 66.7081 23.259 66.2343 23.6771 65.8453C24.6047 65.1205 25.7615 64.7531 26.9368 64.8099C27.3461 64.8105 27.7543 64.8508 28.1558 64.9301C28.6033 65.0292 29.0419 65.1653 29.4671 65.3368C29.7094 65.4367 29.9364 65.5706 30.1412 65.7343L29.661 66.9545C29.2317 66.6574 28.7534 66.4384 28.2481 66.3075C27.8102 66.1781 27.3565 66.1097 26.8999 66.1041C26.1585 66.0803 25.4325 66.3193 24.8499 66.7789C24.5511 67.0228 24.3123 67.3322 24.1522 67.6833C23.9921 68.0344 23.9148 68.4176 23.9264 68.8034C23.9156 69.1797 23.9935 69.5533 24.154 69.8938C24.3144 70.2343 24.5528 70.5321 24.8499 70.7631C25.4628 71.248 26.2304 71.4943 27.0107 71.4564C27.4365 71.4534 27.8608 71.4038 28.2758 71.3085C28.6683 71.2197 29.0494 71.0864 29.4117 70.911L29.384 69.8757Z" fill="white"/>
<path d="M34.2874 69.5058V72.6488H32.7914V64.9762H37.1409C37.6017 64.9684 38.0622 65.0024 38.5168 65.0779C38.8456 65.1296 39.1601 65.2493 39.4402 65.4292C39.7216 65.6282 39.9396 65.9042 40.0682 66.2241C40.1983 66.5537 40.2642 66.9051 40.2621 67.2595C40.2621 68.5167 39.5418 69.2469 38.1105 69.4503L40.3083 72.6488H38.6738L36.5129 69.5243L34.2874 69.5058ZM34.2874 68.2301H36.9654C37.2392 68.2438 37.5135 68.2438 37.7873 68.2301C37.9494 68.2036 38.1076 68.157 38.2583 68.0914C38.411 68.016 38.5376 67.8964 38.6216 67.748C38.7056 67.5996 38.743 67.4294 38.7292 67.2595C38.7457 67.0892 38.7094 66.9179 38.6251 66.769C38.5408 66.6201 38.4127 66.5009 38.2583 66.4275C38.1178 66.3508 37.9644 66.3007 37.8057 66.2796C37.526 66.2599 37.2452 66.2599 36.9654 66.2796H34.2874V68.2301Z" fill="white"/>
<path d="M45.8675 64.8191C47.012 64.7563 48.1357 65.1445 48.9979 65.9006C49.3963 66.2767 49.7102 66.7333 49.9188 67.2401C50.1274 67.747 50.2258 68.2924 50.2077 68.8403C50.2092 69.5682 50.0077 70.2821 49.6259 70.9017C49.2276 71.5216 48.6681 72.0213 48.0076 72.347C47.3471 72.6727 46.6104 72.8122 45.8767 72.7505C44.7361 72.835 43.6081 72.4664 42.737 71.7244C42.3494 71.3498 42.0422 70.9 41.8342 70.4025C41.6262 69.905 41.5218 69.3703 41.5273 68.831C41.5193 68.0848 41.7209 67.3513 42.109 66.7141C42.5042 66.1043 43.055 65.6113 43.7044 65.2862C44.3539 64.9612 45.0784 64.8158 45.8028 64.8653M45.8028 66.1595C45.1279 66.1457 44.4711 66.3791 43.9559 66.8158C43.6592 67.0615 43.422 67.3713 43.262 67.7219C43.1021 68.0725 43.0236 68.4549 43.0325 68.8403C43.0223 69.2245 43.1003 69.6059 43.2604 69.9552C43.4204 70.3046 43.6584 70.6125 43.9559 70.8554C44.4854 71.3052 45.1644 71.5394 45.8582 71.5118C46.5332 71.5256 47.1899 71.2922 47.7051 70.8554C48.0022 70.6052 48.2362 70.2886 48.3884 69.931C48.5331 69.605 48.6085 69.2525 48.6101 68.8957C48.6246 68.5042 48.5489 68.1146 48.3887 67.7571C48.2286 67.3996 47.9883 67.0839 47.6866 66.8343C47.1499 66.3974 46.476 66.1649 45.7843 66.178" fill="white"/>
<path d="M59.2204 69.8756C59.2694 70.5207 59.1213 71.1655 58.7957 71.7244C58.2693 72.4454 57.1796 72.8152 55.5174 72.8152C54.5585 72.8737 53.6015 72.6726 52.7471 72.2328C52.4063 72.0141 52.1467 71.6893 52.0083 71.3084C51.8582 70.8587 51.7864 70.3866 51.7959 69.9126V65.0225H53.2919V69.4411C53.2834 69.7694 53.3082 70.0977 53.3658 70.421C53.4172 70.6219 53.5189 70.8065 53.6613 70.9571C54.2291 71.3305 54.8935 71.5295 55.5729 71.5295C56.2522 71.5295 56.9166 71.3305 57.4843 70.9571C57.6268 70.8065 57.7285 70.6219 57.7798 70.421C57.8375 70.0977 57.8622 69.7694 57.8537 69.4411V65.0225H59.2112L59.2204 69.8756Z" fill="white"/>
<path d="M62.8311 69.5153V72.649H61.3351V64.9764H65.6753C66.1152 64.9656 66.5548 65.0028 66.9866 65.0874C67.2898 65.1544 67.5759 65.2834 67.8269 65.4664C68.0775 65.6699 68.2768 65.9296 68.4087 66.2244C68.546 66.5489 68.6152 66.8981 68.6119 67.2505C68.6202 67.7346 68.4783 68.2094 68.2056 68.6093C67.9872 68.9445 67.6616 69.1955 67.2821 69.3211C66.7562 69.483 66.2067 69.5548 65.6569 69.5338L62.8311 69.5153ZM62.8311 68.2581H65.4906C65.8686 68.2855 66.2478 68.2254 66.5988 68.0824C66.7516 68.0134 66.8779 67.8966 66.9589 67.7496C67.0438 67.5903 67.0882 67.4125 67.0882 67.232C67.0882 67.0544 67.0437 66.8796 66.9589 66.7236C66.8755 66.5762 66.7502 66.4571 66.5988 66.3815C66.2455 66.2474 65.8677 66.1906 65.4906 66.2151H62.8311V68.2581Z" fill="white"/>
<path d="M9.336 83.2886H10.1486V84.213H9.336V83.2886ZM9.336 85.1374H10.1486V89.9258H9.336V85.1374Z" fill="#303992"/>
<path d="M11.386 89.8981V85.1097H12.1156V85.7845C12.2771 85.5322 12.502 85.3268 12.7678 85.1889C13.0336 85.051 13.331 84.9854 13.63 84.9988C13.9056 84.9973 14.1787 85.0507 14.4334 85.1559C14.646 85.2394 14.8314 85.3802 14.969 85.5627C15.0971 85.7421 15.1853 85.947 15.2276 86.1635C15.2642 86.4237 15.2796 86.6865 15.2738 86.9493V89.8981H14.4611V86.9862C14.4714 86.7326 14.437 86.4792 14.3595 86.2375C14.2977 86.073 14.18 85.9356 14.0271 85.8492C13.8576 85.7464 13.6619 85.6951 13.4638 85.7013C13.1246 85.6884 12.7935 85.8077 12.5404 86.0341C12.3937 86.2041 12.2842 86.403 12.219 86.6179C12.1538 86.8329 12.1343 87.0591 12.1618 87.282V89.8981H11.386Z" fill="#303992"/>
<path d="M16.7051 89.8982V85.7384H15.9571V85.1098H16.6681V84.6013C16.6579 84.3581 16.6859 84.1148 16.7512 83.8803C16.8327 83.6712 16.9781 83.4932 17.1668 83.3719C17.4179 83.2241 17.7069 83.1533 17.9979 83.1685C18.2524 83.1717 18.506 83.1996 18.7551 83.2517L18.6259 83.9635C18.4704 83.9353 18.3129 83.9198 18.1549 83.9173C17.9657 83.899 17.7768 83.9554 17.6285 84.0744C17.5087 84.2469 17.4561 84.4574 17.4808 84.6661V85.1098H18.4042V85.7384H17.4808V89.8982H16.7051Z" fill="#303992"/>
<path d="M19.0784 83.2886H19.891V84.213H19.0784V83.2886ZM19.0784 85.1374H19.891V89.9258H19.0784V85.1374Z" fill="#303992"/>
<path d="M21.1284 89.8983V85.1099H21.8579V85.7847C22.021 85.5316 22.2475 85.3259 22.5149 85.188C22.7823 85.0501 23.0812 84.9849 23.3816 84.9989C23.6542 84.9975 23.9243 85.0509 24.1758 85.1561C24.391 85.2394 24.5794 85.38 24.7206 85.5628C24.8457 85.743 24.9307 85.9479 24.9699 86.1637C25.0065 86.4239 25.022 86.6867 25.0161 86.9494V89.8983H24.2035V86.9864C24.216 86.7334 24.1847 86.48 24.1111 86.2376C24.0432 86.0768 23.9271 85.9411 23.7787 85.8494C23.6057 85.7468 23.4072 85.6955 23.2062 85.7015C22.8672 85.6905 22.5369 85.8095 22.2827 86.0343C22.1377 86.205 22.0299 86.4043 21.9663 86.6192C21.9027 86.8341 21.8847 87.0599 21.9134 87.2822V89.8983H21.1284Z" fill="#303992"/>
<path d="M26.2627 83.2886H27.0384V84.213H26.2258L26.2627 83.2886ZM26.2627 85.1374H27.0384V89.9258H26.2258L26.2627 85.1374Z" fill="#303992"/>
<path d="M30.0765 89.1679L30.1966 89.8889C29.9963 89.9331 29.7922 89.9579 29.5871 89.9629C29.3483 89.9749 29.1103 89.9273 28.8945 89.8242C28.7448 89.7398 28.6253 89.6104 28.5529 89.4545C28.475 89.1529 28.4438 88.8411 28.4605 88.53V85.7568H27.8603V85.1282H28.4605V83.9358L29.2639 83.4551V85.1282H30.0765V85.7568H29.2639V88.53C29.235 88.6765 29.235 88.8273 29.2639 88.9738C29.2914 89.0401 29.3401 89.0954 29.4024 89.1309C29.4859 89.1806 29.5826 89.2032 29.6794 89.1956C29.7962 89.2061 29.9136 89.2061 30.0304 89.1956" fill="#303992"/>
<path d="M34.1489 88.3634L34.9893 88.4651C34.8767 88.9186 34.6169 89.3218 34.2505 89.6114C33.8518 89.8933 33.3716 90.0362 32.8838 90.0181C32.577 90.0325 32.2705 89.9824 31.9842 89.8709C31.6979 89.7595 31.4382 89.5892 31.2216 89.371C31.0016 89.1191 30.8336 88.8259 30.7274 88.5086C30.6212 88.1913 30.5789 87.856 30.6029 87.5222C30.5663 86.8495 30.7876 86.1883 31.2216 85.6734C31.4277 85.4531 31.6786 85.2797 31.9574 85.1649C32.2362 85.05 32.5364 84.9965 32.8377 85.0078C33.1309 84.999 33.4227 85.0529 33.6934 85.1661C33.9642 85.2793 34.2076 85.4491 34.4075 85.6642C34.8433 86.1776 35.0619 86.8408 35.017 87.513C35.017 87.5592 35.017 87.6331 35.017 87.7256H31.4525C31.4503 88.1694 31.6076 88.5992 31.8957 88.9366C32.0236 89.0719 32.1785 89.1789 32.3503 89.2505C32.5221 89.3222 32.707 89.3569 32.8931 89.3525C33.1669 89.3613 33.436 89.2801 33.6595 89.1214C33.8913 88.9224 34.0638 88.6634 34.1582 88.3727M31.4987 87.06H34.1674C34.1618 86.7281 34.0556 86.4057 33.8627 86.1356C33.7423 85.985 33.5889 85.8641 33.4143 85.7824C33.2398 85.7006 33.0488 85.6602 32.8561 85.6642C32.5104 85.6637 32.1785 85.7999 31.9327 86.0432C31.6708 86.3099 31.5219 86.6676 31.5171 87.0415" fill="#303992"/>
<path d="M38.2398 88.4652L39.0432 88.3635C39.0743 88.6483 39.2091 88.9115 39.4218 89.1031C39.6704 89.2837 39.9741 89.372 40.2807 89.3527C40.575 89.3774 40.8688 89.2989 41.1117 89.1308C41.1946 89.0681 41.2619 88.9871 41.3084 88.8941C41.3548 88.8011 41.3792 88.6986 41.3796 88.5946C41.3828 88.5083 41.3631 88.4226 41.3225 88.3463C41.282 88.27 41.222 88.2058 41.1487 88.1602C40.8842 88.0336 40.605 87.9405 40.3176 87.8829C39.8798 87.7756 39.4531 87.627 39.0432 87.4391C38.8273 87.3429 38.6443 87.1854 38.5169 86.9862C38.4109 86.797 38.3553 86.5837 38.3553 86.3668C38.3553 86.1499 38.4109 85.9367 38.5169 85.7475C38.6103 85.5663 38.7466 85.4108 38.9139 85.2945C39.0735 85.1893 39.2478 85.1083 39.4311 85.0542C39.6601 84.9934 39.896 84.9624 40.1329 84.9617C40.4696 84.9566 40.8045 85.013 41.121 85.1281C41.3692 85.2064 41.588 85.3578 41.7489 85.5626C41.9005 85.7826 41.9957 86.0366 42.0259 86.3021L41.2318 86.4131C41.2198 86.3015 41.1859 86.1935 41.132 86.0951C41.0781 85.9967 41.0054 85.91 40.9178 85.8399C40.7066 85.6866 40.4487 85.6115 40.1883 85.6273C39.9108 85.6048 39.6332 85.6694 39.3941 85.8122C39.3215 85.8593 39.2616 85.9236 39.2198 85.9993C39.1779 86.0751 39.1553 86.1601 39.154 86.2467C39.1506 86.3516 39.1868 86.454 39.2556 86.5332C39.3366 86.6299 39.4417 86.7032 39.5604 86.7458L40.2807 86.9584C40.6878 87.0579 41.0886 87.1813 41.4811 87.3282C41.6969 87.4198 41.8825 87.5703 42.0167 87.7627C42.1517 87.968 42.2195 88.2103 42.2106 88.456C42.209 88.7272 42.1253 88.9915 41.9705 89.214C41.8022 89.4621 41.5645 89.655 41.2872 89.7686C40.9709 89.9103 40.6271 89.9798 40.2807 89.972C39.7766 90.0059 39.2757 89.8691 38.8585 89.5838C38.5148 89.2887 38.2913 88.8775 38.2306 88.4283" fill="#303992"/>
<path d="M42.8755 87.5039C42.8461 87.1415 42.8971 86.7771 43.0248 86.4367C43.1525 86.0963 43.3538 85.7884 43.6142 85.5349C44.0315 85.1743 44.5684 84.983 45.1194 84.9988C45.4191 84.9868 45.7179 85.0383 45.9964 85.1498C46.2748 85.2613 46.5267 85.4303 46.7355 85.6458C46.9517 85.8891 47.1176 86.1728 47.2238 86.4806C47.33 86.7884 47.3743 87.1142 47.3542 87.4392C47.3784 87.9411 47.2835 88.4416 47.0771 88.8997C46.8971 89.2479 46.6174 89.5344 46.2737 89.7225C45.9173 89.9185 45.5169 90.0203 45.1102 90.0183C44.8107 90.029 44.5122 89.977 44.2339 89.8656C43.9556 89.7542 43.7037 89.5858 43.4942 89.3712C43.0509 88.8611 42.8254 88.1972 42.8662 87.5224M43.7065 87.5224C43.6684 88.0144 43.8094 88.5037 44.1036 88.8997C44.2301 89.0418 44.3852 89.1555 44.5586 89.2334C44.7321 89.3112 44.9201 89.3515 45.1102 89.3515C45.3003 89.3515 45.4882 89.3112 45.6617 89.2334C45.8352 89.1555 45.9902 89.0418 46.1167 88.8997C46.4154 88.495 46.5595 87.9965 46.523 87.4946C46.556 87.0103 46.4116 86.5305 46.1167 86.145C45.9902 86.0029 45.8352 85.8892 45.6617 85.8114C45.4882 85.7335 45.3003 85.6933 45.1102 85.6933C44.9201 85.6933 44.7321 85.7335 44.5586 85.8114C44.3852 85.8892 44.2301 86.0029 44.1036 86.145C43.8079 86.5403 43.6666 87.0301 43.7065 87.5224Z" fill="#303992"/>
<path d="M49.1087 83.2793H48.2961V89.8888H49.1087V83.2793Z" fill="#303992"/>
<path d="M53.4951 89.8983V89.1957C53.3336 89.45 53.1094 89.6584 52.8442 89.8008C52.579 89.9433 52.2816 90.015 51.9807 90.0092C51.7071 90.0113 51.4363 89.9545 51.1865 89.8428C50.973 89.7564 50.7853 89.6163 50.6417 89.4361C50.5166 89.2559 50.4316 89.051 50.3923 88.8352C50.3723 88.5829 50.3723 88.3295 50.3923 88.0772V85.1099H51.205V87.7629C51.1776 88.0488 51.1776 88.3367 51.205 88.6226C51.2492 88.8225 51.364 88.9998 51.5282 89.1218C51.7092 89.2485 51.9261 89.3134 52.1469 89.3067C52.3869 89.3058 52.6225 89.242 52.8302 89.1218C53.0314 89.005 53.1899 88.8268 53.2827 88.6134C53.3777 88.3148 53.4214 88.0022 53.412 87.689V85.1284H54.2246V89.9168L53.4951 89.8983Z" fill="#303992"/>
<path d="M57.2627 89.1679L57.3828 89.8889C57.1825 89.9331 56.9784 89.9579 56.7733 89.9629C56.5346 89.9749 56.2966 89.9273 56.0808 89.8242C55.9311 89.7398 55.8116 89.6104 55.7391 89.4545C55.6612 89.1529 55.63 88.8411 55.6467 88.53V85.7568H55.0465V85.1282H55.6652V83.9358L56.4686 83.4551V85.1282H57.2812V85.7568H56.4686V88.53C56.4397 88.6765 56.4397 88.8273 56.4686 88.9738C56.4961 89.0401 56.5448 89.0954 56.6071 89.1309C56.6906 89.1806 56.7874 89.2032 56.8842 89.1956C57.0009 89.2061 57.1183 89.2061 57.2351 89.1956" fill="#303992"/>
<path d="M58.0661 83.2886H58.8695V84.213H58.0661V83.2886ZM58.0661 85.1374H58.8695V89.9258H58.0661V85.1374Z" fill="#303992"/>
<path d="M59.8022 87.5039C59.7728 87.1415 59.8239 86.7771 59.9516 86.4367C60.0793 86.0963 60.2806 85.7884 60.541 85.5349C60.9582 85.1743 61.4951 84.983 62.0461 84.9988C62.3458 84.9868 62.6446 85.0383 62.9231 85.1498C63.2015 85.2613 63.4534 85.4303 63.6622 85.6458C63.8789 85.8873 64.046 86.1691 64.1537 86.4753C64.2615 86.7814 64.3078 87.1058 64.2902 87.4299C64.3144 87.9319 64.2194 88.4324 64.0131 88.8905C63.8331 89.2387 63.5533 89.5252 63.2097 89.7132C62.8533 89.9092 62.4528 90.011 62.0461 90.009C61.7453 90.0194 61.4455 89.9672 61.1658 89.8559C60.8861 89.7445 60.6325 89.5763 60.4209 89.3619C59.9844 88.8485 59.7627 88.1862 59.8022 87.5131M60.6425 87.5131C60.6044 88.0052 60.7454 88.4945 61.0396 88.8905C61.1661 89.0326 61.3212 89.1463 61.4946 89.2241C61.6681 89.302 61.856 89.3422 62.0461 89.3422C62.2363 89.3422 62.4242 89.302 62.5977 89.2241C62.7712 89.1463 62.9262 89.0326 63.0527 88.8905C63.3514 88.4857 63.4955 87.9873 63.459 87.4854C63.492 87.001 63.3476 86.5212 63.0527 86.1358C62.9262 85.9937 62.7712 85.88 62.5977 85.8021C62.4242 85.7243 62.2363 85.684 62.0461 85.684C61.856 85.684 61.6681 85.7243 61.4946 85.8021C61.3212 85.88 61.1661 85.9937 61.0396 86.1358C60.7439 86.531 60.6027 87.0209 60.6425 87.5131Z" fill="#303992"/>
<path d="M65.2413 89.8983V85.1099H65.9708V85.7847C66.1338 85.5316 66.3603 85.3259 66.6277 85.188C66.8951 85.0501 67.194 84.9849 67.4945 84.9989C67.767 84.9975 68.0371 85.0509 68.2886 85.1561C68.5039 85.2394 68.6923 85.38 68.8335 85.5628C68.9585 85.743 69.0436 85.9479 69.0828 86.1637C69.1194 86.4239 69.1348 86.6867 69.129 86.9494V89.8983H68.3164V86.9864C68.3289 86.7334 68.2976 86.48 68.224 86.2376C68.1553 86.0744 68.0354 85.9381 67.8823 85.8494C67.7132 85.7456 67.5172 85.6941 67.319 85.7015C66.9798 85.6886 66.6488 85.8079 66.3956 86.0343C66.2505 86.205 66.1428 86.4043 66.0792 86.6192C66.0155 86.8341 65.9975 87.0599 66.0262 87.2822V89.8983H65.2413Z" fill="#303992"/>
<path d="M70.0432 88.4654L70.8466 88.3452C70.8777 88.6299 71.0124 88.8932 71.2252 89.0847C71.4737 89.2654 71.7775 89.3536 72.084 89.3343C72.3784 89.359 72.6721 89.2806 72.9151 89.1125C72.998 89.0498 73.0653 88.9688 73.1118 88.8758C73.1582 88.7828 73.1825 88.6803 73.1829 88.5763C73.1861 88.4899 73.1665 88.4042 73.1259 88.3279C73.0854 88.2516 73.0254 88.1874 72.952 88.1418C72.6875 88.0153 72.4084 87.9221 72.121 87.8645C71.6976 87.7729 71.2834 87.643 70.8835 87.4763C70.6676 87.38 70.4846 87.2225 70.3572 87.0233C70.2512 86.8341 70.1956 86.6209 70.1956 86.404C70.1956 86.1871 70.2512 85.9738 70.3572 85.7846C70.4506 85.6034 70.5869 85.4479 70.7543 85.3316C70.9139 85.2265 71.0881 85.1455 71.2714 85.0913C71.5004 85.0306 71.7363 84.9995 71.9732 84.9989C72.3099 84.9937 72.6447 85.0501 72.9613 85.1652C73.2095 85.2435 73.4283 85.3949 73.5892 85.5997C73.7408 85.8197 73.836 86.0737 73.8663 86.3392L73.0721 86.4502C73.0601 86.3386 73.0262 86.2306 72.9723 86.1322C72.9184 86.0338 72.8456 85.9471 72.7581 85.877C72.5469 85.7237 72.289 85.6486 72.0286 85.6644C71.7511 85.6419 71.4735 85.7065 71.2344 85.8493C71.1618 85.8964 71.1019 85.9607 71.06 86.0365C71.0182 86.1122 70.9956 86.1972 70.9943 86.2838C70.9909 86.3887 71.0272 86.4911 71.096 86.5703C71.1769 86.667 71.282 86.7404 71.4006 86.7829L72.121 86.9956C72.5281 87.095 72.9289 87.2185 73.3214 87.3653C73.5372 87.4569 73.7229 87.6075 73.857 87.7998C73.9921 88.0051 74.0598 88.2474 74.0509 88.4931C74.0493 88.7643 73.9657 89.0286 73.8109 89.2511C73.6425 89.4992 73.4048 89.6922 73.1275 89.8058C72.8109 89.9466 72.4673 90.016 72.121 90.0091C71.6168 90.043 71.116 89.9062 70.6989 89.6209C70.3551 89.3258 70.1316 88.9146 70.0709 88.4654" fill="#303992"/>
<path d="M76.1379 88.9736H75.2145V89.898H76.1379V88.9736Z" fill="#303992"/>
<path d="M78.7051 88.9736H77.7817V89.898H78.7051V88.9736Z" fill="#303992"/>
<path d="M81.2723 88.9736H80.3488V89.898H81.2723V88.9736Z" fill="#303992"/>
<g style="mix-blend-mode:screen" opacity="0.76">
<path d="M83.9318 56.1021H9.19751V70.6152H83.9318V56.1021Z" fill="url(#paint5_linear_8_11311)"/>
<path d="M83.9318 56.1021H9.19751V70.6152H83.9318V56.1021Z" fill="url(#paint6_linear_8_11311)"/>
<path d="M83.9318 56.1021H9.19751V70.6152H83.9318V56.1021Z" fill="url(#paint7_linear_8_11311)"/>
</g>
<g style="mix-blend-mode:screen">
<path d="M83.4331 1.26611H9.77002V15.7146H83.4331V1.26611Z" fill="url(#paint8_linear_8_11311)"/>
</g>
</g>
<defs>
<linearGradient id="paint0_linear_8_11311" x1="46.403" y1="81.2551" x2="46.403" y2="56.1021" gradientUnits="userSpaceOnUse">
<stop stop-color="#EA292A"/>
<stop offset="0.26" stop-color="#C52020"/>
<stop offset="0.52" stop-color="#A51818"/>
<stop offset="1" stop-color="#EA2925"/>
</linearGradient>
<linearGradient id="paint1_linear_8_11311" x1="70.7591" y1="76.3489" x2="70.7591" y2="-4.50819" gradientUnits="userSpaceOnUse">
<stop stop-color="#303A92"/>
<stop offset="0.33" stop-color="#0058A4"/>
<stop offset="0.44" stop-color="#0E4F9F"/>
<stop offset="0.62" stop-color="#214398"/>
<stop offset="0.8" stop-color="#2C3C93"/>
<stop offset="1" stop-color="#303A92"/>
</linearGradient>
<linearGradient id="paint2_linear_8_11311" x1="14.5995" y1="10.4642" x2="90.0785" y2="10.4642" gradientUnits="userSpaceOnUse">
<stop stop-color="#9B1514"/>
<stop offset="0.52" stop-color="#EA292A"/>
<stop offset="1" stop-color="#EA2925"/>
</linearGradient>
<linearGradient id="paint3_linear_8_11311" x1="3.47288" y1="15.6408" x2="78.6803" y2="15.6408" gradientUnits="userSpaceOnUse">
<stop stop-color="#9B1514"/>
<stop offset="0.52" stop-color="#EA292A"/>
<stop offset="1" stop-color="#EA2925"/>
</linearGradient>
<linearGradient id="paint4_linear_8_11311" x1="87.6392" y1="14.9013" x2="12.4318" y2="14.9013" gradientUnits="userSpaceOnUse">
<stop stop-color="#9B1514"/>
<stop offset="0.52" stop-color="#EA292A"/>
<stop offset="1" stop-color="#EA2925"/>
</linearGradient>
<linearGradient id="paint5_linear_8_11311" x1="47.1787" y1="69.6483" x2="47.1787" y2="55.1096" gradientUnits="userSpaceOnUse">
<stop/>
<stop offset="0.09" stop-color="#0D0D0D"/>
<stop offset="0.26" stop-color="#2F2F2F"/>
<stop offset="0.48" stop-color="#676767"/>
<stop offset="0.75" stop-color="#B3B3B3"/>
<stop offset="1" stop-color="white"/>
</linearGradient>
<linearGradient id="paint6_linear_8_11311" x1="46.5693" y1="70.6152" x2="46.5693" y2="56.1021" gradientUnits="userSpaceOnUse">
<stop/>
<stop offset="0.09" stop-color="#0D0D0D"/>
<stop offset="0.26" stop-color="#2F2F2F"/>
<stop offset="0.48" stop-color="#676767"/>
<stop offset="0.75" stop-color="#B3B3B3"/>
<stop offset="1" stop-color="white"/>
</linearGradient>
<linearGradient id="paint7_linear_8_11311" x1="46.5693" y1="70.6152" x2="46.5693" y2="56.1021" gradientUnits="userSpaceOnUse">
<stop/>
<stop offset="0.09" stop-color="#0D0D0D"/>
<stop offset="0.26" stop-color="#2F2F2F"/>
<stop offset="0.48" stop-color="#676767"/>
<stop offset="0.75" stop-color="#B3B3B3"/>
<stop offset="1" stop-color="white"/>
</linearGradient>
<linearGradient id="paint8_linear_8_11311" x1="46.3982" y1="10.3253" x2="46.3982" y2="-4.15274" gradientUnits="userSpaceOnUse">
<stop/>
<stop offset="0.09" stop-color="#0D0D0D"/>
<stop offset="0.26" stop-color="#2F2F2F"/>
<stop offset="0.48" stop-color="#676767"/>
<stop offset="0.75" stop-color="#B3B3B3"/>
<stop offset="1" stop-color="white"/>
</linearGradient>
<clipPath id="clip0_8_11311">
<rect width="93" height="90" fill="white"/>
</clipPath>
</defs>
</svg>
