<svg width="152" height="58" viewBox="0 0 152 58" fill="none" xmlns="http://www.w3.org/2000/svg">
<g clip-path="url(#clip0_8_11566)">
<path d="M40.4715 8.50344C39.0727 6.75099 37.4088 5.22697 35.5398 3.98631C32.8592 2.13135 29.8071 0.879853 26.5944 0.318306C23.3817 -0.243241 20.0852 -0.101405 16.9328 0.733999L16.2881 0.903384L15.8583 1.01632L14.4218 1.51317H14.3652H14.2974H14.2295L13.4716 1.86328C12.94 2.10043 12.3405 2.33756 11.8767 2.61988C8.37145 4.46163 5.43477 7.22176 3.38201 10.6039C1.79488 13.1226 0.727249 15.9321 0.241675 18.868C-0.2439 21.8038 -0.137652 24.8069 0.55421 27.7013C1.13819 30.2678 2.18037 32.7084 3.63086 34.9061C6.1091 38.7161 9.68056 41.6914 13.8788 43.4435C14.207 43.5922 14.5529 43.6985 14.9081 43.7597L15.0099 43.8387C15.0474 43.8791 15.094 43.91 15.1457 43.9291C16.9444 44.5548 18.8135 44.9568 20.7108 45.1261H20.8013C20.936 45.1247 21.0696 45.1018 21.1972 45.0584L21.8419 44.8212C22.464 44.5953 23.0975 44.3695 23.7196 44.1097C25.6693 43.299 27.4788 42.1861 29.0811 40.8123C29.8636 40.1426 30.5658 39.3847 31.1737 38.5537L32.5084 36.7581L29.9747 38.9376C27.4857 40.8326 24.6082 42.1552 21.5478 42.8111C23.0929 42.1973 24.6033 41.4998 26.0723 40.7219C26.3175 40.5961 26.5554 40.4566 26.7849 40.3041L27.0903 40.1347L28.7191 39.1748L26.8641 39.5475C26.5474 39.6039 26.2194 39.683 25.9253 39.7507C25.6312 39.8185 25.3031 39.8975 24.9977 39.954C21.7791 40.578 18.4456 40.1832 15.4624 38.8247C12.9309 37.7159 10.6928 36.0338 8.92539 33.9116C7.15799 31.7894 5.90986 29.2855 5.27987 26.5982C4.64988 23.9109 4.65534 21.114 5.29582 18.4292C5.9363 15.7444 7.19418 13.2453 8.96985 11.13C10.7455 9.01475 12.9902 7.34132 15.526 6.24236C18.0618 5.14339 20.8191 4.64909 23.5795 4.79856C26.3398 4.94804 29.0274 5.73721 31.4293 7.10355C33.8312 8.4699 35.8813 10.3759 37.4174 12.6705L37.5758 12.8851L38.017 13.5062L38.2658 12.8173C38.2704 12.776 38.2704 12.7344 38.2658 12.6931C38.8077 11.4614 39.4991 10.3009 40.3244 9.2375C40.4432 9.11708 40.5099 8.9548 40.5099 8.78576C40.5099 8.61672 40.4432 8.45448 40.3244 8.33405" fill="#E7262D"/>
<path d="M43.8423 29.8695C43.7623 29.5298 43.5849 29.2207 43.3318 28.98C43.0787 28.7393 42.7608 28.5775 42.4171 28.5143L42.6206 28.4466L42.5188 28.3224L42.4171 28.1869C42.3551 28.0927 42.283 28.0056 42.2021 27.9271C41.94 27.6938 41.6166 27.5402 41.2699 27.4841C40.9233 27.4281 40.5678 27.4721 40.2453 27.6109C39.3404 27.9384 38.4694 28.3111 37.655 28.6725C37.2913 28.8597 36.8879 28.9573 36.4787 28.9573C36.0694 28.9573 35.6661 28.8597 35.3023 28.6725C35.0015 28.5133 34.7106 28.3361 34.4313 28.1417L33.5491 27.498C32.6114 26.789 31.6373 26.1294 30.6308 25.5217C28.7799 24.392 26.7163 23.6541 24.568 23.3535C22.5272 23.1142 20.4593 23.2793 18.4825 23.8391C18.1319 23.9408 17.7925 24.065 17.4532 24.1892L16.9894 24.3586L16.0959 24.6748L17.046 24.5732C20.2964 24.2572 23.5743 24.758 26.5814 26.0299C25.5895 25.8155 24.576 25.7169 23.5613 25.7363C22.1158 25.7526 20.6885 26.0598 19.3648 26.6397L19.082 26.764L19.3761 26.8543H19.6702C21.9112 26.9836 24.1306 27.3624 26.2873 27.9836C27.0774 28.2162 27.8369 28.5422 28.5495 28.9548L28.1536 28.8531C27.5655 28.695 26.9546 28.537 26.3551 28.4014C25.5755 28.2249 24.7694 28.198 23.9798 28.3224C23.6758 28.3659 23.3857 28.4779 23.1315 28.6499L22.9165 28.7967L23.3011 28.887H23.4708C25.5826 29.3698 27.6212 30.1293 29.5336 31.1456C30.6294 31.7147 31.611 32.4803 32.4293 33.4042C32.9306 33.937 33.2675 34.6026 33.3999 35.3216C33.5323 36.0405 33.4545 36.7823 33.1758 37.4583C32.9372 38.1212 32.6018 38.7453 32.1804 39.3103C30.4336 41.6126 28.0855 43.3903 25.3937 44.4485C25.1222 44.5615 24.8394 44.6518 24.568 44.7421L24.1834 44.8777L23.7196 45.0471H24.206H24.7263H25.1449C26.6022 44.9523 28.0461 44.7101 29.4544 44.3243L30.857 43.8274L31.5131 43.5225C31.8524 43.3757 32.1917 43.2176 32.5197 43.0482C33.075 42.7684 33.6149 42.4593 34.1372 42.1222C36.0198 40.9508 37.527 39.2658 38.4807 37.2663C39.0395 36.0022 39.4421 34.675 39.6797 33.3138C39.8607 32.4104 40.053 31.6086 40.2679 30.8633C40.3125 30.649 40.4021 30.4466 40.5308 30.2695C40.6594 30.0923 40.8243 29.9445 41.0145 29.8356C41.4118 29.613 41.8597 29.4961 42.3153 29.4961C42.7708 29.4961 43.2187 29.613 43.616 29.8356L43.8536 29.9711L43.8423 29.8695Z" fill="#E7262D"/>
<path d="M84.6983 35.3014C83.0163 36.947 81.0251 38.2442 78.8391 39.1184C76.681 39.9826 74.3775 40.4272 72.0524 40.4284C69.4119 40.4696 66.7895 39.9859 64.3381 39.0055C62.2237 38.1603 60.3287 36.8476 58.7957 35.1659C57.342 33.5088 56.2139 31.5933 55.4702 29.5195C54.6855 27.3453 54.2725 25.0548 54.2485 22.7438V22.5067C54.2406 20.6782 54.4688 18.8563 54.9272 17.0861C55.3877 15.3447 56.1206 13.6868 57.099 12.1737C58.0614 10.6833 59.2611 9.35965 60.6507 8.25509C62.1491 7.10182 63.8424 6.22598 65.6502 5.66906C67.7213 5.01966 69.8817 4.69955 72.0524 4.72046C74.3776 4.72026 76.6814 5.16491 78.8391 6.0304C81.0134 6.90548 82.9874 8.21168 84.6417 9.86999L85.1621 10.4008L88.5554 7.40813L87.9559 6.80961C85.8419 4.72218 83.3304 3.07873 80.5697 1.97628C77.8485 0.879917 74.9415 0.31633 72.0071 0.31623C69.2625 0.288636 66.5314 0.704303 63.9196 1.54715C61.606 2.28356 59.4449 3.43128 57.5401 4.935C55.7852 6.36244 54.2594 8.04956 53.0156 9.93775C51.7731 11.8346 50.8485 13.9211 50.2783 16.1149C49.7105 18.2553 49.4328 20.462 49.4526 22.6761V22.8793C49.4687 25.1698 49.7881 27.4482 50.4027 29.655C51.6044 33.9825 54.1608 37.8129 57.6984 40.5865C59.6082 42.0318 61.7609 43.1255 64.0553 43.8162C66.6215 44.5933 69.2917 44.9742 71.9732 44.9455C74.9102 44.9392 77.8182 44.3639 80.5358 43.2516C83.3057 42.1357 85.8189 40.4681 87.922 38.3505L88.4989 37.7746L85.1055 34.669L84.6983 35.3014Z" fill="#1C1C1C"/>
<path d="M103.407 0.790527H98.5546V44.5616H103.407V0.790527Z" fill="#1C1C1C"/>
<path d="M152 22.2017C151.967 20.0563 151.643 17.9253 151.039 15.8664C150.427 13.7952 149.508 11.8272 148.313 10.028C147.114 8.20966 145.636 6.5902 143.935 5.22852C142.067 3.77803 139.952 2.67623 137.691 1.97618C135.132 1.16158 132.46 0.757545 129.773 0.779142H114.673V44.5615H129.762C132.538 44.5898 135.3 44.1664 137.94 43.308C140.252 42.5827 142.407 41.4338 144.297 39.9201C146.013 38.4907 147.49 36.7982 148.674 34.9061C149.863 33.0257 150.742 30.9667 151.276 28.808C151.756 26.8106 151.999 24.7639 152 22.7098V22.2355V22.2017ZM147.147 22.2017V22.5405C147.154 24.6241 146.821 26.695 146.163 28.6725C145.468 30.7253 144.411 32.6375 143.042 34.3189C141.562 36.0742 139.691 37.4588 137.578 38.3617C135.116 39.4248 132.456 39.9522 129.773 39.9088H119.526V5.35276H129.773C131.907 5.33159 134.03 5.65184 136.063 6.30135C137.818 6.84729 139.458 7.70835 140.904 8.84224C142.226 9.90947 143.371 11.1786 144.297 12.6027C145.209 14.0001 145.913 15.5215 146.39 17.1199C146.85 18.753 147.1 20.4378 147.136 22.1339" fill="#1C1C1C"/>
<path d="M49.6675 54.4429H49.5092V57.9437H49.6675V54.4429Z" fill="#1C1C1C"/>
<path d="M55.7869 54.4429V57.9437H55.6398L53.2984 54.7365V57.9437H53.1287V54.4429H53.2758L55.6172 57.65V54.4429H55.7869Z" fill="#1C1C1C"/>
<path d="M61.7026 54.601H60.5489V57.9437H60.3905V54.601H59.2481V54.4429H61.7026V54.601Z" fill="#1C1C1C"/>
<path d="M67.0981 57.7855V57.9437H65.1639V54.4429H67.0415V54.601H65.3222V56.0352H66.9171V56.1933H65.3222V57.7855H67.0981Z" fill="#1C1C1C"/>
<path d="M72.437 57.7855V57.9437H70.5593V54.4429H70.729V57.7855H72.437Z" fill="#1C1C1C"/>
<path d="M77.7871 57.7855V57.9437H75.9095V54.4429H76.0678V57.7855H77.7871Z" fill="#1C1C1C"/>
<path d="M81.4068 54.4429H81.2484V57.9437H81.4068V54.4429Z" fill="#1C1C1C"/>
<path d="M88.3405 56.3059C88.3421 56.5302 88.2985 56.7525 88.2123 56.9596C88.126 57.1667 87.9988 57.3544 87.8384 57.5114C87.678 57.6684 87.4875 57.7915 87.2784 57.8735C87.0693 57.9555 86.8458 57.9946 86.6212 57.9885C86.3853 57.9951 86.1506 57.9528 85.9319 57.8643C85.7132 57.7758 85.5153 57.643 85.3506 57.4743C85.1858 57.3056 85.0578 57.1046 84.9748 56.8841C84.8917 56.6636 84.8554 56.4283 84.868 56.193C84.8587 55.9585 84.8974 55.7247 84.9817 55.5056C85.0659 55.2866 85.194 55.087 85.358 54.919C85.5221 54.751 85.7187 54.6181 85.9359 54.5284C86.153 54.4388 86.3862 54.3942 86.6212 54.3974C86.9969 54.3847 87.3658 54.4995 87.6678 54.7231C87.9698 54.9466 88.187 55.2657 88.284 55.6284H88.1143C88.0211 55.3088 87.8235 55.0295 87.5529 54.8351C87.2823 54.6407 86.9543 54.5423 86.6212 54.5555C86.4079 54.5538 86.1966 54.5954 85.9999 54.6778C85.8033 54.7602 85.6255 54.8817 85.4774 55.0349C85.3292 55.188 85.2139 55.3697 85.1383 55.5688C85.0627 55.7679 85.0285 55.9803 85.0377 56.193C85.0251 56.4065 85.057 56.6203 85.1314 56.8209C85.2057 57.0215 85.321 57.2045 85.4698 57.3584C85.6186 57.5123 85.7977 57.6337 85.9959 57.7149C86.1941 57.7962 86.407 57.8355 86.6212 57.8305C87.005 57.8462 87.3799 57.7125 87.6669 57.4576C87.9539 57.2027 88.1305 56.8464 88.1595 56.464H86.4516V56.3059H88.3405Z" fill="#1C1C1C"/>
<path d="M93.7473 57.7855V57.9437H91.8018V54.4429H93.6907V54.601H91.9714V56.0352H93.5663V56.1933H91.9714V57.7855H93.7473Z" fill="#1C1C1C"/>
<path d="M99.8666 54.4429V57.9437H99.7196L97.3669 54.7365V57.9437H97.2085V54.4429H97.3555L99.697 57.65V54.4429H99.8666Z" fill="#1C1C1C"/>
<path d="M105.771 54.601H104.629V57.9437H104.47V54.601H103.328V54.4429H105.771V54.601Z" fill="#1C1C1C"/>
<path d="M113.746 54.601V56.1029H115.318V56.261H113.746V57.9437H113.587V54.4429H115.454V54.601H113.746Z" fill="#1C1C1C"/>
<path d="M117.342 56.1931C117.342 55.8357 117.449 55.4864 117.647 55.1892C117.846 54.8921 118.129 54.6605 118.46 54.5238C118.79 54.387 119.154 54.3512 119.505 54.421C119.856 54.4907 120.179 54.6627 120.432 54.9154C120.685 55.1681 120.857 55.4901 120.927 55.8406C120.997 56.1911 120.961 56.5544 120.824 56.8845C120.687 57.2147 120.455 57.4969 120.158 57.6954C119.86 57.894 119.51 57.9999 119.152 57.9999C118.913 58.0061 118.675 57.9636 118.452 57.875C118.23 57.7864 118.028 57.6536 117.859 57.4845C117.689 57.3155 117.556 57.1138 117.468 56.8918C117.379 56.6698 117.336 56.432 117.342 56.1931ZM120.792 56.1931C120.792 55.8692 120.696 55.5526 120.516 55.2834C120.336 55.0141 120.08 54.8042 119.78 54.6803C119.48 54.5563 119.15 54.5239 118.832 54.5871C118.514 54.6502 118.222 54.8062 117.992 55.0352C117.763 55.2642 117.607 55.556 117.544 55.8736C117.48 56.1913 117.513 56.5205 117.637 56.8197C117.761 57.1189 117.971 57.3746 118.241 57.5546C118.511 57.7345 118.828 57.8306 119.152 57.8306C119.369 57.8368 119.585 57.7987 119.787 57.7186C119.989 57.6385 120.172 57.5181 120.326 57.3648C120.479 57.2115 120.6 57.0285 120.68 56.827C120.76 56.6255 120.799 56.4098 120.792 56.1931Z" fill="#1C1C1C"/>
<path d="M124.695 56.4192L125.611 57.9437H125.43L124.514 56.4192H123.383V57.9437H123.258V54.4994H124.525C124.661 54.4901 124.798 54.5089 124.927 54.5547C125.056 54.6004 125.174 54.6721 125.273 54.7654C125.373 54.8586 125.452 54.9713 125.507 55.0965C125.561 55.2217 125.589 55.3568 125.588 55.4932C125.592 55.7432 125.498 55.9849 125.328 56.1679C125.157 56.3509 124.922 56.4611 124.672 56.4756M123.417 56.3288H124.548C124.77 56.3288 124.983 56.2408 125.14 56.0841C125.297 55.9273 125.385 55.7148 125.385 55.4932C125.385 55.2715 125.297 55.059 125.14 54.9023C124.983 54.7455 124.77 54.6575 124.548 54.6575H123.417V56.3288Z" fill="#1C1C1C"/>
<path d="M129.887 57.7855V57.9437H127.952V54.4429H129.83V54.601H128.111V56.0352H129.706V56.1933H128.111V57.7855H129.887Z" fill="#1C1C1C"/>
<path d="M131.889 56.9161H132.058C132.058 57.4694 132.477 57.8195 133.122 57.8195C133.241 57.8353 133.363 57.826 133.479 57.7923C133.595 57.7585 133.703 57.7011 133.795 57.6235C133.888 57.546 133.963 57.4501 134.017 57.3419C134.07 57.2337 134.1 57.1156 134.106 56.9951C134.106 56.4418 133.619 56.3401 133.088 56.2272C132.556 56.1143 131.957 55.9788 131.957 55.3238C131.957 54.6688 132.398 54.3978 133.088 54.3978C133.229 54.3765 133.373 54.386 133.51 54.4258C133.646 54.4655 133.773 54.5345 133.881 54.628C133.988 54.7214 134.074 54.8371 134.133 54.967C134.191 55.0969 134.22 55.2379 134.219 55.3802H134.049C134.048 55.2638 134.023 55.1489 133.975 55.0429C133.926 54.937 133.856 54.8426 133.768 54.7658C133.681 54.6889 133.578 54.6315 133.466 54.5973C133.355 54.5631 133.237 54.5528 133.122 54.5671C132.545 54.5671 132.16 54.8608 132.16 55.3238C132.16 55.7868 132.658 55.9562 133.178 56.0691C133.698 56.182 134.309 56.3288 134.309 56.9951C134.305 57.1362 134.272 57.2749 134.212 57.4027C134.152 57.5305 134.066 57.6445 133.96 57.7378C133.854 57.831 133.73 57.9014 133.595 57.9446C133.461 57.9878 133.319 58.0029 133.178 57.9889C133.026 58.0028 132.872 57.9857 132.727 57.9388C132.582 57.8918 132.447 57.8159 132.332 57.7156C132.217 57.6154 132.123 57.4928 132.057 57.3554C131.99 57.218 131.952 57.0685 131.945 56.9161" fill="#1C1C1C"/>
<path d="M136.741 54.4429H136.583V57.9437H136.741V54.4429Z" fill="#1C1C1C"/>
<path d="M142.544 56.3061C142.545 56.5304 142.502 56.7527 142.416 56.9598C142.329 57.1669 142.202 57.3546 142.042 57.5116C141.881 57.6686 141.691 57.7917 141.482 57.8737C141.273 57.9557 141.049 57.9948 140.825 57.9888C140.348 57.9888 139.89 57.7996 139.553 57.4629C139.216 57.1261 139.026 56.6694 139.026 56.1932C139.026 55.717 139.216 55.2603 139.553 54.9235C139.89 54.5868 140.348 54.3976 140.825 54.3976C141.201 54.3808 141.572 54.494 141.875 54.7182C142.178 54.9423 142.394 55.2638 142.487 55.6286H142.318C142.227 55.3099 142.031 55.031 141.763 54.8364C141.494 54.6419 141.167 54.543 140.836 54.5557C140.623 54.554 140.411 54.5956 140.215 54.678C140.018 54.7604 139.84 54.8819 139.692 55.0351C139.544 55.1882 139.428 55.3699 139.353 55.569C139.277 55.7681 139.243 55.9805 139.252 56.1932C139.238 56.4071 139.269 56.6217 139.342 56.823C139.416 57.0244 139.531 57.2081 139.681 57.3624C139.83 57.5166 140.01 57.638 140.209 57.7186C140.408 57.7993 140.621 57.8375 140.836 57.8307C141.22 57.8464 141.595 57.7127 141.882 57.4578C142.169 57.2029 142.345 56.8466 142.374 56.4642H140.666V56.3061H142.544Z" fill="#1C1C1C"/>
<path d="M147.408 54.4429V57.9437H147.249V56.2046H144.998V57.9437H144.84V54.4429H144.998V56.0465H147.249V54.4429H147.408Z" fill="#1C1C1C"/>
<path d="M152 54.601H150.869V57.9437H150.699V54.601H149.557V54.4429H152V54.601Z" fill="#1C1C1C"/>
</g>
<defs>
<clipPath id="clip0_8_11566">
<rect width="152" height="58" fill="white"/>
</clipPath>
</defs>
</svg>
