<svg width="107" height="107" viewBox="0 0 107 107" fill="none" xmlns="http://www.w3.org/2000/svg">
<g clip-path="url(#clip0_8_11475)">
<path d="M106.148 53.506C106.145 63.917 103.056 74.0935 97.27 82.7488C91.4843 91.4041 83.262 98.1495 73.6428 102.132C64.0236 106.114 53.4395 107.155 43.2288 105.123C33.0181 103.09 23.6394 98.0757 16.2785 90.7131C8.91765 83.3506 3.90519 73.9708 1.87496 63.7596C-0.155264 53.5485 0.887931 42.9646 4.8726 33.3463C8.85726 23.728 15.6044 15.5072 24.2611 9.72341C32.9177 3.9396 43.0949 0.852539 53.5059 0.852539C60.4199 0.852539 67.2662 2.21452 73.6537 4.86075C80.0413 7.50698 85.8449 11.3856 90.7333 16.2751C95.6217 21.1645 99.499 26.9691 102.144 33.3573C104.789 39.7454 106.149 46.592 106.148 53.506Z" fill="#FAAB1A"/>
<path d="M53.5059 107C42.9229 107 32.5776 103.861 23.7784 97.9815C14.9791 92.1016 8.12112 83.7444 4.07173 73.9668C0.0223403 64.1892 -1.03657 53.4303 1.02893 43.0509C3.09443 32.6714 8.19154 23.1376 15.6757 15.6551C23.1598 8.17268 32.6947 3.07768 43.0746 1.01448C53.4546 -1.04872 64.2132 0.0125531 73.9899 4.06411C83.7667 8.11566 92.1223 14.9755 98.0002 23.7761C103.878 32.5766 107.014 42.9226 107.012 53.5056C106.993 67.6894 101.349 81.2867 91.3188 91.315C81.2882 101.343 67.6897 106.984 53.5059 107ZM53.5059 1.71648C43.263 1.71648 33.2501 4.75386 24.7334 10.4445C16.2167 16.1352 9.57879 24.2235 5.659 33.6867C1.73921 43.15 0.713625 53.563 2.71192 63.6091C4.71021 73.6552 9.64265 82.8832 16.8855 90.126C24.1283 97.3688 33.3562 102.301 43.4023 104.3C53.4484 106.298 63.8615 105.272 73.3247 101.352C82.7879 97.4327 90.8763 90.7947 96.5669 82.2781C102.258 73.7614 105.295 63.7485 105.295 53.5056C105.279 39.7751 99.8179 26.6114 90.109 16.9025C80.4001 7.19353 67.2364 1.73215 53.5059 1.71648Z" fill="black"/>
<path d="M24.9 59.6391H23.5028C22.54 59.589 21.5979 59.3401 20.736 58.9081C19.874 58.4761 19.1108 57.8704 18.4944 57.129C17.1903 55.3737 16.5487 53.2139 16.6828 51.0313V50.3091C16.6828 49.7052 16.6828 49.125 16.6828 48.6869C16.6828 48.2489 16.6828 47.7989 16.6828 47.4082C16.6828 47.0175 16.6829 46.532 16.6237 46.0703C16.5645 45.6085 16.6237 45.1112 16.6237 44.4955L16.8841 35.3549C16.8725 35.2367 16.8725 35.1178 16.8841 34.9997V34.1235C16.879 34.0565 16.879 33.9892 16.8841 33.9222C17.0444 32.5547 17.6967 31.2921 18.7194 30.3701C19.7387 29.5261 21.0316 29.0839 22.3543 29.1269C23.3907 29.1133 24.4161 29.3403 25.3499 29.79C26.4453 30.3149 27.4024 31.0895 28.1442 32.0514C28.9715 33.152 29.5676 34.4086 29.8965 35.7456C29.9088 35.8558 29.9088 35.967 29.8965 36.0771C29.8942 36.3879 29.8585 36.6975 29.79 37.0007C29.7245 37.2896 29.6414 37.5743 29.5413 37.8532C29.4238 38.1848 29.2428 38.4905 29.0085 38.753C28.8417 38.9475 28.6346 39.1033 28.4015 39.2096C28.1684 39.3159 27.9149 39.3702 27.6587 39.3687C27.3092 39.3688 26.9634 39.2962 26.6434 39.1556C26.3234 39.0149 26.0361 38.8093 25.7998 38.5517C25.2711 37.9531 24.999 37.1706 25.0421 36.3731V36.0653C24.951 35.7535 24.8197 35.455 24.6513 35.1773L24.3672 34.8931C24.3151 34.8211 24.2751 34.7411 24.2488 34.6563C24.0413 34.377 23.794 34.1296 23.5147 33.9222C23.2653 33.7851 22.9815 33.7234 22.6977 33.7446C22.5306 33.7283 22.3625 33.7638 22.2163 33.8465C22.0701 33.9291 21.9529 34.0548 21.8807 34.2064C21.5402 34.7949 21.3759 35.4689 21.4071 36.1482C21.4071 36.5507 21.4071 37.0243 21.4071 37.5216C21.4071 38.0189 21.4071 38.6109 21.4071 39.1082C21.4071 39.6055 21.4071 39.7831 21.4071 40.1028C21.4071 40.4225 21.4071 40.7777 21.4071 41.1803C21.4071 41.5828 21.4071 42.0209 21.3479 42.5774C21.2887 43.1339 21.3479 43.7614 21.3479 44.5665C21.603 44.2377 21.9487 43.9907 22.3425 43.8561H22.4964C23.0568 43.7456 23.7673 43.6509 24.6277 43.572C25.4802 43.4891 26.2616 43.4536 26.9957 43.4536C27.6939 43.4338 28.3795 43.6416 28.9493 44.0456C29.443 44.4286 29.8269 44.935 30.0623 45.5138C30.2872 46.0664 30.4308 46.6486 30.4885 47.2424C30.5615 47.8594 30.5971 48.4801 30.5951 49.1014C30.5921 49.774 30.5526 50.4459 30.4767 51.1142C30.3938 51.6825 30.3346 52.2982 30.2873 52.8902L30.2162 53.873C30.133 54.9526 29.8308 56.0041 29.3282 56.9632C28.6811 58.0648 27.6666 58.9033 26.4629 59.3313L26.2498 59.3905L25.2315 59.6154H24.9473M21.8571 53.1744C21.9262 53.2646 21.982 53.3643 22.0228 53.4704C22.1729 53.9137 22.4196 54.3181 22.7451 54.6544C22.8628 54.7621 23.0011 54.8449 23.1517 54.8978C23.3023 54.9507 23.462 54.9726 23.6212 54.9622H23.8817H23.9646H24.2488L24.5566 54.8912L25.1368 54.761C25.3359 54.3705 25.4717 53.9508 25.5393 53.5177C25.7087 52.449 25.78 51.3671 25.7525 50.2854C25.7525 49.6223 25.7525 48.9829 25.6814 48.4028C25.6814 48.3199 25.6814 48.2489 25.6814 48.1778L25.0894 48.3081C24.9611 48.3607 24.8252 48.3926 24.6868 48.4028L23.6212 48.6277H23.3726C22.7402 48.6224 22.1324 48.3818 21.6676 47.9529C21.5748 47.868 21.4878 47.777 21.4071 47.6805C21.4071 48.6869 21.4663 49.6105 21.5255 50.4393C21.5847 51.2681 21.6558 51.9667 21.7386 52.5468C21.7656 52.7552 21.8092 52.9611 21.8689 53.1625" fill="white"/>
<path d="M34.5734 59.5206C34.0968 59.5184 33.6227 59.4506 33.1644 59.3193C32.7953 59.2269 32.4568 59.0396 32.1826 58.7757C31.9084 58.5119 31.708 58.1809 31.6015 57.8156C31.5892 57.7054 31.5892 57.5942 31.6015 57.484C31.6015 56.7973 31.6015 56.0159 31.6015 55.116V52.1559C31.6015 51.706 31.6015 51.2679 31.6015 50.8417C31.6015 50.4036 31.5423 49.9774 31.5068 49.5393C31.4713 49.1012 31.4358 48.592 31.4121 48.0948C31.3884 47.5975 31.4121 47.0173 31.4121 46.4134V43.5244C31.4121 42.9679 31.4121 42.4588 31.4121 41.9734C31.4121 41.4879 31.4121 41.0261 31.4121 40.5288V36.1361C31.4121 35.698 31.4121 35.2363 31.4121 34.739L31.2937 32.075C31.2821 31.9845 31.2821 31.893 31.2937 31.8026C31.6726 29.5767 33.2473 29.4346 33.7328 29.4346H35.1891L36.6336 29.4938L38.7649 29.5648C38.8951 29.5648 39.0727 29.5648 39.5108 29.6595L40.4935 29.8371C40.8606 29.9082 41.2158 30.0029 41.5592 30.0976C41.9209 30.1884 42.2596 30.3537 42.5537 30.5831C42.8301 30.7522 43.0812 30.9595 43.2997 31.1988L43.8088 31.7671C44.3095 32.2402 44.7119 32.8076 44.9928 33.4366C45.1941 33.9102 45.3717 34.3719 45.5256 34.8337C45.5619 34.9289 45.5858 35.0284 45.5967 35.1297L45.7151 35.4731C45.7203 35.5282 45.7203 35.5837 45.7151 35.6388C45.8137 36.0827 45.8732 36.5344 45.8927 36.9886C45.8927 37.4386 45.8927 37.9477 45.8927 38.5278V41.0735C45.8863 41.4183 45.8586 41.7623 45.8098 42.1036V42.2102C45.8044 42.8411 45.7046 43.4677 45.5138 44.0691C45.3125 44.7025 45.0383 45.3105 44.6968 45.8806C44.347 46.4562 43.9164 46.9786 43.4181 47.4317C43.2511 47.5866 43.073 47.7291 42.8852 47.8579L43.0155 48.1066C43.2523 48.5328 43.501 48.9709 43.7614 49.409L44.8389 51.2443V51.339L45.9045 53.5176C46.2597 54.2635 46.6386 55.1042 47.0057 56.0159C47.0005 56.0393 47.0005 56.0635 47.0057 56.0869C47.0873 56.3135 47.1467 56.5474 47.1833 56.7855C47.1927 56.9037 47.1927 57.0224 47.1833 57.1407C47.2002 57.4972 47.1253 57.8522 46.9656 58.1715C46.806 58.4908 46.567 58.7637 46.2716 58.9641C45.8504 59.2554 45.351 59.4122 44.8389 59.414C44.2447 59.4204 43.6611 59.256 43.1576 58.9404C42.9423 58.8041 42.7731 58.606 42.6721 58.3721C41.9181 56.6275 41.0723 54.9241 40.1383 53.2689C39.3451 51.8718 38.5754 50.4273 37.8413 48.9591H36.8349H36.2192L36.4087 52.9255V52.9966C36.4087 53.5886 36.4087 54.1806 36.4087 54.6661C36.4087 55.1515 36.4678 55.708 36.5152 56.2171V56.6789C36.5473 57.1935 36.4466 57.7077 36.2226 58.1722C35.9987 58.6367 35.6591 59.0357 35.2365 59.3311C35.0268 59.4831 34.7731 59.5621 34.5142 59.5561M36.089 44.0454C36.321 44.104 36.5604 44.1279 36.7994 44.1164H37.7466C37.9834 44.1164 38.2676 44.1164 38.5872 44.1164L39.5819 43.9862C39.7901 43.9635 39.9833 43.8668 40.1265 43.7139C40.3289 43.4987 40.4859 43.245 40.5882 42.9679C40.7085 42.6144 40.7918 42.2494 40.8369 41.8786C40.8369 41.4287 40.908 41.038 40.908 40.6946C40.908 40.3513 40.908 39.925 40.908 39.5106C40.908 39.0962 40.908 38.67 40.908 38.2555C40.908 37.8411 40.8487 37.5333 40.8132 37.2373C40.7777 36.9413 40.7185 36.6926 40.683 36.5387C40.6475 36.3848 40.683 36.4795 40.683 36.4558V36.148C40.5291 35.7573 40.3988 35.4257 40.2686 35.1652C40.2047 35.0316 40.1164 34.9111 40.0081 34.81C39.8764 34.7178 39.7274 34.6533 39.57 34.6206C39.1376 34.5228 38.6981 34.4595 38.2557 34.4311C37.8616 34.4022 37.4658 34.4022 37.0717 34.4311H36.089C36.089 34.6798 36.089 34.9284 36.089 35.1534C36.089 35.6033 36.089 36.0532 36.089 36.4913V38.2082C36.089 38.9541 36.089 39.6882 36.089 40.3868C36.089 41.0853 36.089 41.8786 36.089 42.6127V43.4771C36.089 43.6665 36.089 43.8323 36.089 43.9981" fill="white"/>
<path d="M48.7225 59.7932H48.6159C48.0469 59.75 47.5032 59.54 47.053 59.1894C46.7556 58.9579 46.5177 58.6588 46.3592 58.317C46.2006 57.9751 46.1259 57.6004 46.1413 57.2239C46.129 57.1216 46.129 57.0183 46.1413 56.916L46.2242 56.6082C46.8636 54.3941 47.4082 52.097 47.8581 49.7764C48.3081 47.4557 48.7343 45.0403 49.1132 42.5657C49.1132 42.2105 49.2316 41.8079 49.3026 41.3817C49.3934 40.9377 49.508 40.499 49.646 40.0674C49.8473 39.2031 50.0486 38.3979 50.2262 37.6994C50.4038 37.0008 50.6051 36.1246 50.7945 35.3905C50.984 34.6564 51.1971 33.9223 51.4221 33.2001C51.647 32.4778 51.8483 31.8621 52.1206 31.1399V31.0688C52.1904 30.7896 52.3196 30.5287 52.4994 30.3039C52.6792 30.0791 52.9054 29.8958 53.1626 29.7664C53.5638 29.5543 54.0111 29.4446 54.465 29.4467C55.11 29.4288 55.7359 29.6672 56.2055 30.1098C56.2847 30.1631 56.3564 30.2268 56.4186 30.2992C57.0728 31.0866 57.5638 31.9962 57.8631 32.9751C58.1591 33.875 58.4433 34.7748 58.7274 35.6629L59.0827 36.8469C59.0874 36.8862 59.0874 36.926 59.0827 36.9653C59.3618 37.8195 59.5911 38.6893 59.7694 39.5701C59.947 40.47 60.1246 41.429 60.2785 42.4236C60.4324 43.4182 60.5982 44.4601 60.7876 45.5494C60.9771 46.6387 61.2257 47.7991 61.5336 49.0186L63.5819 56.9989C63.5992 57.1048 63.5992 57.2127 63.5819 57.3186C63.5939 57.7075 63.4986 58.0922 63.3065 58.4305C63.1144 58.7689 62.8328 59.0478 62.4926 59.2367C62.1152 59.4736 61.6827 59.6082 61.2376 59.6274C60.976 59.6421 60.7146 59.5976 60.4727 59.4971C60.2308 59.3966 60.0146 59.2429 59.8404 59.0473H59.7694L59.4615 58.7868C59.2842 58.632 59.1532 58.4312 59.0827 58.2066C58.5735 56.6437 58.0999 55.0453 57.6618 53.4705C57.3066 52.18 56.9514 50.771 56.5962 49.2791H52.7008C52.535 50.1237 52.3574 50.9407 52.168 51.73C51.9193 52.772 51.6944 53.8849 51.5286 55.0334C51.5275 55.0531 51.5275 55.0729 51.5286 55.0926C51.4526 55.4602 51.3972 55.8318 51.3628 56.2056C51.3051 56.6772 51.2142 57.1441 51.0905 57.6028C50.9706 58.0942 50.7619 58.5597 50.4748 58.9762C50.2812 59.2702 50.0246 59.5173 49.7235 59.6996C49.4224 59.8819 49.0845 59.9947 48.7343 60.03H48.5686M53.8493 44.1878H54.3347C54.8439 44.1878 55.353 44.1878 55.8266 44.1878H55.9213C55.6727 42.7314 55.4122 41.287 55.128 39.8543C55.0688 39.5465 54.9978 39.2504 54.9267 38.9544C54.7728 39.6885 54.6307 40.4108 54.4768 41.133C54.2755 42.1513 54.0624 43.1932 53.8493 44.2233" fill="white"/>
<path d="M65.9736 59.5209C65.5469 59.5019 65.1351 59.3577 64.7896 59.1065C64.3342 58.8055 63.9828 58.3714 63.7832 57.8633C63.7392 57.7445 63.7075 57.6215 63.6885 57.4963C63.6885 56.9871 63.5938 56.4306 63.5582 55.8386C63.5227 55.2466 63.499 54.5954 63.499 53.9087C63.499 52.4878 63.499 51.2683 63.6174 50.2737C63.6174 49.7883 63.6885 49.3265 63.6885 48.8766V39.9727C63.6885 39.4044 63.6885 38.8479 63.6174 38.2914C63.5582 37.4153 63.499 36.5627 63.428 35.7576C63.3569 34.9525 63.2504 34.171 63.132 33.3896C63.1017 33.2371 63.1017 33.0802 63.132 32.9278C63.1377 32.845 63.1377 32.7619 63.132 32.6791C63.1415 32.5807 63.1415 32.4816 63.132 32.3831C63.132 32.3831 63.132 32.2884 63.132 32.2411C63.1437 32.0913 63.1437 31.9409 63.132 31.7911C63.0926 31.2936 63.2499 30.8005 63.5701 30.4177C63.6901 30.2379 63.8454 30.0844 64.0266 29.9663C64.2077 29.8483 64.4109 29.7682 64.6239 29.7309H64.8015H64.9199C65.3276 29.4 65.8393 29.2238 66.3644 29.2337C66.7382 29.2508 67.1027 29.3563 67.4279 29.5416C67.753 29.7268 68.0297 29.9865 68.2351 30.2993C68.6456 30.873 68.9873 31.493 69.2534 32.1464C69.2534 32.1464 69.2534 32.1463 69.2534 32.2055C69.3363 32.4423 69.4547 32.7147 69.5849 33.0225C69.7179 33.3137 69.8722 33.5947 70.0467 33.8632V33.9342C70.2361 34.2894 70.4019 34.621 70.544 34.917C70.7025 35.2463 70.837 35.5865 70.9465 35.9352C71.0337 36.1223 71.1049 36.3164 71.1596 36.5154L71.8819 38.2204L72.4384 39.4636L72.8055 38.5756C73.137 37.7231 73.4211 36.9772 73.6342 36.3615V36.0891C73.7357 35.9897 73.8515 35.9059 73.9776 35.8405C74.2736 35.1419 74.546 34.5026 74.8064 33.9579C75.0669 33.4133 75.3392 32.8923 75.5879 32.4779C75.6155 32.4317 75.6472 32.3881 75.6826 32.3476C75.8437 32.1526 75.979 31.9378 76.0852 31.7083C76.1388 31.5909 76.1785 31.4678 76.2036 31.3412C76.1858 31.0625 76.2253 30.783 76.3195 30.5201C76.4137 30.2571 76.5607 30.0162 76.7514 29.8122C76.9421 29.6081 77.1726 29.4452 77.4286 29.3335C77.6846 29.2218 77.9608 29.1636 78.2401 29.1626C78.566 29.1638 78.891 29.1955 79.211 29.2573C79.6306 29.3241 80.033 29.473 80.395 29.6954C80.5614 29.7982 80.6997 29.9406 80.7976 30.1098L80.987 30.4058C81.0899 30.5667 81.1547 30.7489 81.1765 30.9386C81.283 31.8503 81.3541 32.7502 81.4133 33.5909C81.4725 34.4315 81.4843 35.3314 81.4843 36.2194C81.4843 36.6575 81.4843 37.0956 81.4843 37.5218C81.4843 37.9481 81.4843 38.398 81.4251 38.8361C81.3541 39.6767 81.3067 40.4819 81.3067 41.2041V41.9264C81.3009 42.0092 81.3009 42.0922 81.3067 42.175C81.3067 42.3526 81.3067 42.5421 81.3067 42.7315C81.3067 42.9209 81.3067 43.1341 81.3067 43.3117C81.3067 43.4893 81.3067 43.7616 81.3067 43.9747C81.3067 44.1878 81.3067 44.7917 81.3659 45.2535C81.4251 45.7152 81.3659 46.2007 81.3659 46.6388V51.5406C81.3489 52.8893 81.4161 54.2378 81.5672 55.5781C81.6599 56.0021 81.7075 56.4347 81.7093 56.8687C81.7433 57.2945 81.6727 57.7221 81.5034 58.1142C81.3342 58.5063 81.0715 58.8511 80.7384 59.1184C80.3568 59.3813 79.8987 59.5104 79.4359 59.4854C79.0525 59.471 78.6733 59.3992 78.3111 59.2723C77.9932 59.1779 77.6994 59.0158 77.45 58.7971C77.2007 58.5784 77.0017 58.3083 76.8666 58.0054C76.8089 57.8822 76.7729 57.7501 76.7601 57.6147C76.7009 57.07 76.6654 56.5253 76.6535 55.957C76.6417 55.3887 76.6535 54.9151 76.6535 54.3823C76.6535 53.589 76.5588 52.7602 76.5114 51.8603C76.4641 50.9604 76.4404 50.1435 76.3812 49.2318V42.9446C76.1681 43.5603 75.9431 44.1286 75.7063 44.7088C75.2989 45.6669 74.6503 46.5032 73.8237 47.1361C73.7593 47.1927 73.6877 47.2405 73.6106 47.2781C73.4519 47.3528 73.285 47.4084 73.1133 47.4439C72.8018 47.5036 72.4794 47.4664 72.1897 47.3373C71.4329 47.0257 70.7974 46.4774 70.3782 45.7744C70.0118 45.1815 69.7026 44.5551 69.4547 43.9037C69.0284 43.1696 68.6377 42.4592 68.2706 41.7961V46.3191C68.2706 46.5796 68.2706 46.8637 68.2706 47.1716C68.2706 47.4794 68.2706 47.9294 68.2706 48.3556V49.0778C68.2706 49.6699 68.2706 50.2619 68.2706 50.6999C68.2706 51.138 68.1996 51.6827 68.1522 52.2037C68.1522 52.551 68.1522 52.8943 68.1522 53.2338V54.5599C68.1522 55.0453 68.1523 55.4597 68.2233 55.7439C68.2943 56.0281 68.2825 56.3004 68.318 56.5017C68.3297 56.5841 68.3297 56.6678 68.318 56.7503V56.8095C68.3295 56.9158 68.3295 57.023 68.318 57.1292C68.3365 57.6616 68.1604 58.1824 67.8226 58.5943C67.4848 59.0062 67.0085 59.2809 66.4828 59.367H66.3289C66.1834 59.3851 66.0362 59.3851 65.8908 59.367" fill="white"/>
<path d="M86.5283 59.6036C85.95 59.5744 85.4024 59.3343 84.9891 58.9287C84.6895 58.6171 84.4621 58.2435 84.3229 57.8343C84.1838 57.425 84.1363 56.9902 84.1839 56.5606C84.1839 55.5069 84.1839 54.5004 84.1839 53.5532C84.1839 52.606 84.1839 51.6233 84.1839 50.6642V40.2803C84.195 40.0753 84.195 39.8697 84.1839 39.6647C84.1839 39.3568 84.1839 39.049 84.1247 38.7174C84.0655 38.3859 84.1247 38.0899 84.1247 37.7584V37.415C84.1247 37.2966 84.1247 37.0835 84.1247 36.7757L84.0655 35.3548C84.0655 34.7391 84.0063 33.8866 83.9471 32.7973V32.7381C83.9496 32.2168 84.0051 31.6971 84.1129 31.1871C84.1929 30.7095 84.4433 30.2771 84.8178 29.9701C85.1923 29.6631 85.6654 29.5023 86.1494 29.5176C86.5129 29.5286 86.8725 29.5965 87.215 29.7189C87.6611 29.8569 88.0673 30.1006 88.399 30.4293C88.4787 30.5012 88.5466 30.5851 88.6003 30.6779L88.7069 30.8674C88.8006 31.023 88.8611 31.1964 88.8845 31.3765C89.0147 32.4777 89.0976 33.5551 89.1213 34.6089C89.145 35.6627 89.1213 36.6572 89.1213 37.6044C89.1213 38.1412 89.1213 38.7214 89.1213 39.345C89.1213 39.9685 89.0976 40.5961 89.0503 41.2275C88.9674 42.7076 88.9319 44.235 88.9319 45.7742C88.9319 46.7096 88.9318 47.6094 88.991 48.4501C89.0503 49.2907 89.0739 50.1551 89.1213 51.0312C89.1213 51.6588 89.2042 52.3574 89.216 53.0915C89.2279 53.8256 89.216 54.5004 89.2752 55.1398V55.3766C89.2752 55.6726 89.2752 55.9923 89.2752 56.3593C89.264 56.7925 89.1963 57.2224 89.0739 57.6381C88.9297 58.1076 88.6784 58.5373 88.3399 58.8932C88.111 59.1141 87.84 59.2867 87.543 59.4006C87.246 59.5145 86.9291 59.5675 86.6112 59.5562" fill="white"/>
<path d="M24.7461 30.8555C25.6767 31.2868 26.4891 31.9368 27.1141 32.75C27.8321 33.7143 28.3476 34.8137 28.6297 35.9823C28.6276 36.2051 28.6038 36.4272 28.5586 36.6454C28.4994 36.8822 28.4402 37.1072 28.3692 37.3084C28.2992 37.4872 28.2035 37.6547 28.085 37.8057C28.0345 37.8633 27.9728 37.9098 27.9035 37.9424C27.8342 37.975 27.7589 37.993 27.6824 37.9952C27.5065 37.9972 27.3323 37.96 27.1725 37.8863C27.0128 37.8126 26.8715 37.7041 26.7589 37.5689C26.6097 37.3912 26.4973 37.1856 26.4282 36.964C26.3591 36.7425 26.3346 36.5094 26.3563 36.2783V35.8995C26.2477 35.3323 26.0263 34.7928 25.7051 34.3129L25.2907 33.8866C25.0106 33.5 24.6709 33.1603 24.2843 32.8802C23.8196 32.5698 23.2678 32.4163 22.7096 32.4421C22.3248 32.4287 21.9437 32.5209 21.6076 32.7088C21.2716 32.8966 20.9934 33.1729 20.8033 33.5077C20.3353 34.3024 20.1052 35.2147 20.1402 36.1363C20.1402 36.5625 20.1402 37.048 20.1402 37.5689C20.1402 38.0899 20.1402 38.6109 20.1402 39.0963C20.1402 39.5818 20.1402 39.7357 20.1402 40.0435C20.1402 40.3514 20.1402 40.6947 20.1402 41.0855C20.1402 41.4762 20.1402 41.9616 20.1402 42.53C20.1402 43.0983 20.1402 43.8206 20.1402 44.6731C20.1402 45.5255 20.1402 46.7096 20.1402 47.7397C20.1402 48.7698 20.1402 49.7052 20.2468 50.5695C20.3533 51.4338 20.3889 52.1561 20.4836 52.7718C20.5009 53.19 20.6231 53.5971 20.8388 53.9558C21.062 54.5571 21.4135 55.1025 21.8689 55.5542C22.1013 55.7854 22.3791 55.9658 22.6848 56.084C22.9906 56.2022 23.3175 56.2556 23.6449 56.241H23.9883C24.1749 56.2871 24.37 56.2871 24.5566 56.241L24.9 56.1581C25.1103 56.102 25.3238 56.0585 25.5393 56.0278C25.6936 55.9907 25.838 55.9207 25.9626 55.8226C26.0873 55.7245 26.1893 55.6007 26.2616 55.4595C26.5567 54.9342 26.7571 54.3611 26.8536 53.7664C27.0528 52.5934 27.1361 51.4036 27.1023 50.2143C27.1023 49.5039 27.1023 48.8408 27.0194 48.2251C26.9365 47.6094 26.9483 47.2424 26.9483 47.1358C26.9483 47.0293 26.9483 46.9819 26.9483 46.9819L26.7589 46.7569C26.7589 46.7569 26.6642 46.8398 26.4866 46.8398C26.3772 46.8625 26.2644 46.8625 26.155 46.8398H26.0367C25.6127 46.8578 25.1919 46.9213 24.7816 47.0293C24.6773 47.0936 24.56 47.1341 24.4382 47.1477L23.2542 47.3726C23.0984 47.3735 22.9439 47.3437 22.7996 47.2847C22.6554 47.2258 22.5242 47.139 22.4136 47.0293C22.2937 46.9272 22.1976 46.8001 22.1321 46.6569C22.0667 46.5137 22.0334 46.3579 22.0347 46.2005C22.0139 45.9158 22.0889 45.6324 22.2478 45.3953C22.36 45.2433 22.5114 45.1246 22.6859 45.0519C23.3441 44.9317 24.008 44.8448 24.675 44.7915C25.492 44.7204 26.2379 44.6731 26.8891 44.6731C27.3111 44.6523 27.7278 44.7732 28.0732 45.0164C28.3907 45.2577 28.6363 45.5812 28.7836 45.9518C28.9589 46.3963 29.0744 46.8621 29.1269 47.3371C29.2686 48.5169 29.2686 49.7094 29.1269 50.8892C29.0559 51.4812 28.9848 52.0732 28.9375 52.7244L28.8546 53.719C28.7918 54.621 28.5417 55.5001 28.1205 56.3001C27.6238 57.1528 26.8385 57.7996 25.9064 58.1236L24.8763 58.3485H23.5857C22.7934 58.3084 22.0177 58.1059 21.3069 57.7535C20.596 57.4012 19.9652 56.9065 19.4535 56.3001C18.3476 54.7707 17.8114 52.9026 17.938 51.0194V50.2972C17.938 49.6696 17.938 49.1132 17.938 48.6514C17.938 48.1896 17.938 47.7397 17.938 47.3134C17.938 46.8872 17.9379 46.4728 17.8787 46.0229C17.8195 45.5729 17.8787 45.0756 17.8787 44.4836L18.1511 35.3311C18.1457 35.28 18.1457 35.2284 18.1511 35.1772C18.1568 35.13 18.1568 35.0823 18.1511 35.0351V34.0761C18.2577 32.9945 18.7543 31.9886 19.5482 31.2463C20.3415 30.61 21.3382 30.282 22.3543 30.3227C23.1942 30.3056 24.0261 30.4883 24.7816 30.8555" fill="#231F20"/>
<path d="M42.7313 32.6791C43.1107 33.0455 43.4126 33.4844 43.6193 33.9697C43.8088 34.4196 43.9746 34.8695 44.1285 35.2958L44.3535 35.947C44.4397 36.3363 44.4912 36.7326 44.5074 37.131C44.5074 37.5573 44.5074 38.0427 44.5074 38.5992V41.1449C44.5043 41.4618 44.4805 41.7782 44.4363 42.0921V42.2815C44.429 42.7846 44.3451 43.2837 44.1877 43.7615C44.0227 44.2971 43.7921 44.8101 43.501 45.2889C43.2169 45.7595 42.8659 46.1862 42.459 46.5558C42.0809 46.9135 41.6085 47.1559 41.0974 47.2544L41.1684 47.4912C41.3485 47.9541 41.5582 48.405 41.796 48.841C42.0328 49.2909 42.2933 49.7408 42.5774 50.1908L43.6312 52.0142C43.9864 52.7483 44.3416 53.4823 44.6968 54.1928C45.052 54.9032 45.4072 55.7201 45.7625 56.5608C45.8142 56.7163 45.8577 56.8743 45.8927 57.0344C45.8927 57.1291 45.8927 57.1883 45.8927 57.212C45.9049 57.3571 45.8798 57.503 45.8197 57.6356C45.7596 57.7683 45.6665 57.8833 45.5493 57.9698C45.3371 58.1166 45.0851 58.1951 44.8271 58.1948C44.481 58.2062 44.1392 58.1157 43.8443 57.9343C43.055 56.0872 42.1867 54.3467 41.2395 52.7127C40.2923 51.0788 39.424 49.4014 38.6346 47.6806H38.457C38.4063 47.6919 38.3538 47.6919 38.3031 47.6806H36.8823C36.3613 47.6806 35.6982 47.5978 34.8576 47.5267L35.1181 52.9614C35.1181 53.5652 35.1181 54.1454 35.1181 54.6901C35.1181 55.2347 35.1181 55.7675 35.2365 56.3003V56.6437C35.2602 56.9494 35.2064 57.2561 35.0802 57.5355C34.9539 57.8149 34.7593 58.0579 34.5143 58.2421C34.1539 58.2374 33.7956 58.1856 33.4486 58.0882C33.2882 58.0498 33.1411 57.9692 33.0224 57.8546C32.9037 57.7401 32.8178 57.5959 32.7737 57.437C32.7737 56.7621 32.7737 55.9925 32.7737 55.1637V52.2036C32.7737 51.7182 32.7737 51.2564 32.7737 50.8065C32.7737 50.3566 32.7145 49.9303 32.679 49.4803C32.6435 49.0304 32.608 48.5687 32.5843 48.0832C32.5606 47.5978 32.5843 47.0413 32.5843 46.4611V43.5721C32.5843 43.0393 32.5843 42.542 32.5843 42.0565C32.5843 41.5711 32.5843 41.0856 32.5843 40.5765V36.1838C32.5843 35.7181 32.5843 35.2326 32.5843 34.7275L32.4659 32.0634C32.6198 31.1754 33.0105 30.7373 33.6499 30.7373H35.0707H36.4915L38.6465 30.8202L39.2266 30.8912L40.1739 31.0688C40.4937 31.1256 40.8099 31.2007 41.1211 31.2938C41.3303 31.3424 41.525 31.4397 41.6894 31.5779C41.9017 31.7019 42.0967 31.8531 42.2696 32.0279L42.7905 32.608M41.8789 35.6865C41.7052 35.1971 41.5394 34.8024 41.3816 34.5025C41.243 34.2089 41.0455 33.9469 40.8014 33.7329C40.5171 33.5143 40.1905 33.357 39.8423 33.2711C39.34 33.1555 38.8293 33.0803 38.3149 33.0462C37.8589 32.9969 37.4001 32.9771 36.9415 32.9869H35.5799H35.201H34.8221V33.4487C34.8221 33.946 34.8221 34.4315 34.8221 34.8814C34.8221 35.3313 34.8221 35.8049 34.8221 36.2548V38.2085C34.8221 38.9662 34.8221 39.7122 34.8221 40.4344C34.8221 41.1567 34.8221 41.8789 34.8221 42.613V43.5247C34.8221 43.8326 34.8221 44.1049 34.905 44.3417L34.976 45.1232C35.2441 45.1033 35.5135 45.1355 35.7693 45.2179C36.1273 45.3187 36.4988 45.3626 36.8704 45.3481H37.8176C38.1422 45.3496 38.4666 45.3298 38.7886 45.2889C39.1556 45.2889 39.5108 45.2179 39.866 45.1587C40.3515 45.0883 40.7984 44.8544 41.1329 44.4956C41.4491 44.1522 41.6945 43.7499 41.8552 43.3116C42.0226 42.8579 42.1301 42.3842 42.1749 41.9026C42.2284 41.4665 42.256 41.0277 42.2577 40.5884C42.2577 40.2095 42.2577 39.8069 42.2577 39.4043C42.2577 39.0018 42.2577 38.5282 42.1985 38.1138C42.1393 37.6994 42.1393 37.3205 42.092 36.9297C42.0446 36.539 41.9854 36.3141 41.9381 36.1128L41.8789 35.6865ZM41.8789 35.6865C41.8707 35.7095 41.8707 35.7346 41.8789 35.7575V35.6865Z" fill="#231F20"/>
<path d="M53.4585 31.2345C53.4837 31.1295 53.5332 31.0319 53.6032 30.9496C53.6731 30.8673 53.7615 30.8027 53.8611 30.7609C54.0748 30.6427 54.3154 30.5815 54.5597 30.5833C54.7484 30.5763 54.9361 30.6146 55.1071 30.6949C55.2781 30.7752 55.4273 30.8953 55.5424 31.0451C56.0801 31.7017 56.4825 32.4582 56.7264 33.271C57.0224 34.1709 57.3066 35.0589 57.5789 35.9469L57.9933 37.3204C58.2636 38.1223 58.4811 38.9411 58.6445 39.7713C58.8221 40.6357 58.9879 41.5711 59.13 42.5538C59.2721 43.5365 59.4615 44.5903 59.651 45.7151C59.8404 46.8399 60.089 48.0121 60.4206 49.2672L62.4689 57.2475C62.4816 57.4053 62.4494 57.5635 62.3761 57.7039C62.3028 57.8442 62.1913 57.961 62.0545 58.0408C61.8611 58.1631 61.6425 58.24 61.4152 58.2658C61.2722 58.285 61.1273 58.2466 61.0126 58.1592C60.9441 58.0697 60.8598 57.9934 60.7639 57.9342L60.4679 57.6619C59.9588 56.099 59.4852 54.5242 59.0589 52.9258C58.6327 51.3274 58.1946 49.6697 57.7684 47.8108H56.8567H56.4423H52.6652C52.3936 47.7833 52.1199 47.7833 51.8483 47.8108C51.647 48.9949 51.4102 50.1078 51.1497 51.1971C50.8892 52.2864 50.6642 53.4231 50.4866 54.6189C50.4034 55.0101 50.3401 55.4053 50.2972 55.803C50.2435 56.2014 50.1684 56.5966 50.0722 56.987C49.9817 57.3366 49.8337 57.6687 49.6341 57.9697C49.5362 58.1091 49.4093 58.2256 49.2622 58.3115C49.1151 58.3973 48.9512 58.4503 48.7816 58.467C48.4548 58.4421 48.1422 58.3228 47.8818 58.1237C47.7499 58.0051 47.6463 57.8585 47.5787 57.6945C47.511 57.5306 47.4811 57.3535 47.4911 57.1764L47.5621 56.8686C48.2252 54.619 48.7817 52.3022 49.2316 49.9184C49.6815 47.5504 50.1078 45.1231 50.4866 42.6722C50.4866 42.317 50.5932 41.9381 50.6761 41.5474C50.7501 41.1469 50.8489 40.7515 50.9721 40.3634C51.2089 39.428 51.4102 38.5636 51.5996 37.7704C51.7891 36.9771 51.9785 36.2075 52.1679 35.4852C52.3574 34.7629 52.5587 34.0525 52.7718 33.3421C52.9849 32.6317 53.2572 31.8858 53.5533 31.1043L53.4585 31.2345ZM54.0979 36.5153C53.7782 37.9598 53.4585 39.3925 53.1744 40.837C52.8902 42.2815 52.5823 43.7378 52.2863 45.206V45.431C52.5387 45.4472 52.7918 45.4472 53.0441 45.431H54.2873C54.8201 45.431 55.3411 45.431 55.8503 45.431L57.4013 45.3126C57.0935 43.3866 56.7501 41.4685 56.3712 39.5582C56.0359 37.7834 55.4914 36.0545 54.7491 34.4077C54.4632 35.08 54.2565 35.7833 54.1334 36.5034" fill="#231F20"/>
<path d="M79.8978 31.1043C80.0043 31.9923 80.0754 32.8448 80.1346 33.6855C80.1938 34.5261 80.2056 35.3668 80.2056 36.2311C80.2056 36.6574 80.2056 37.0836 80.2056 37.498C80.2056 37.9124 80.2056 38.3387 80.2056 38.7768C80.1228 39.6648 80.0872 40.4936 80.0872 41.2751V41.9973C80.0872 42.1276 80.0872 42.2578 80.0872 42.3762C80.0872 42.4946 80.0872 42.6485 80.0872 42.8025C80.0872 42.9564 80.0872 43.2524 80.0872 43.4655C80.0872 43.6786 80.0872 43.8918 80.0872 44.093C80.0872 44.2943 80.0872 44.8982 80.1464 45.3599C80.2056 45.8217 80.1464 46.2835 80.1464 46.7097V51.6116C80.1228 53.0713 80.1979 54.531 80.3714 55.9806C80.4438 56.3154 80.4834 56.6564 80.4898 56.9989C80.511 57.2186 80.4802 57.4402 80.4 57.6459C80.3198 57.8516 80.1923 58.0355 80.028 58.1829C79.8664 58.2751 79.6807 58.3164 79.4952 58.3013C79.2449 58.2821 78.9981 58.2304 78.7611 58.1474C78.6167 58.1048 78.483 58.0322 78.3687 57.9342C78.2544 57.8363 78.1622 57.7152 78.0981 57.579C78.0981 57.0699 78.0152 56.5489 78.0033 56.0161C77.9915 55.4833 78.0033 54.9505 77.9441 54.4177C77.9441 53.5889 77.8494 52.7482 77.8139 51.8957C77.7784 51.0432 77.731 50.167 77.6837 49.2554V42.2341C77.6837 41.9736 77.6837 41.725 77.6837 41.4764C77.6837 41.2277 77.6837 40.9672 77.6837 40.7067C77.6837 40.4462 77.6837 40.2568 77.6837 40.0437C77.6837 39.8305 77.6837 39.6174 77.6837 39.4161C77.6958 39.1834 77.6958 38.9503 77.6837 38.7176V36.0062C77.3995 36.5864 77.1272 37.1902 76.8667 37.8414C76.6062 38.4926 76.3694 39.1201 76.1681 39.724C75.9942 40.0589 75.8477 40.4074 75.73 40.7659L75.363 41.8552C75.0788 42.7077 74.771 43.5247 74.4513 44.2943C74.1343 45.0555 73.6242 45.7207 72.9712 46.2243H72.7936C72.7399 46.2423 72.6816 46.2423 72.6279 46.2243C72.1294 46.0049 71.7144 45.6314 71.4438 45.1586C71.0853 44.5709 70.7878 43.948 70.5558 43.2997C69.9165 42.2104 69.3718 41.204 68.9456 40.2805C68.4782 39.2919 68.0825 38.271 67.7616 37.2257L66.9564 35.4734L66.8854 35.1774C66.9564 37.5454 67.0038 39.6885 67.0038 41.4408V46.3072C67.0038 46.5795 67.0038 46.8873 67.0038 47.2188C67.0038 47.5504 67.0038 47.9174 67.0038 48.4029V49.1251C67.0038 49.7053 67.0038 50.2263 67.0038 50.6762C67.0038 51.1261 66.9328 51.6116 66.8854 52.1207C66.8854 52.5233 66.8854 52.9258 66.8854 53.3047V54.6663C66.8854 55.1755 66.8854 55.6017 66.9564 55.9569C66.9714 56.2635 67.011 56.5684 67.0748 56.8686V57.1528C67.0683 57.18 67.0683 57.2084 67.0748 57.2357C67.08 57.2591 67.08 57.2833 67.0748 57.3067C67.0887 57.5467 67.0108 57.783 66.8568 57.9677C66.7029 58.1524 66.4846 58.2716 66.246 58.3013C66.1409 58.3589 66.0224 58.3875 65.9026 58.3842C65.7164 58.362 65.54 58.2881 65.3935 58.171C65.1546 58.0101 64.9724 57.7782 64.8725 57.508C64.8725 56.9989 64.7778 56.4661 64.7423 55.8977C64.7068 55.3294 64.6831 54.7137 64.6831 54.0507C64.6831 52.6654 64.6831 51.4813 64.8015 50.4986C64.8015 49.9895 64.8725 49.4922 64.8725 48.9949V40.091C64.8725 39.4753 64.8725 38.907 64.8015 38.3032C64.8015 37.4151 64.6831 36.5508 64.6121 35.722C64.541 34.8932 64.4344 34.0762 64.3042 33.2948C64.3345 33.1744 64.3544 33.0516 64.3634 32.9277C64.371 32.7818 64.371 32.6356 64.3634 32.4896C64.3811 32.269 64.3811 32.0472 64.3634 31.8266C64.3525 31.7338 64.3628 31.6398 64.3935 31.5515C64.4243 31.4633 64.4747 31.3833 64.541 31.3174C64.5623 31.2646 64.596 31.2176 64.6393 31.1805C64.6826 31.1434 64.7341 31.1173 64.7897 31.1043C64.8989 31.0828 65.006 31.0511 65.1094 31.0096L65.3935 30.9385C65.5094 30.8926 65.6173 30.8287 65.7132 30.7491C65.8932 30.5918 66.1254 30.5073 66.3644 30.5123C66.54 30.5372 66.7078 30.6011 66.8553 30.6995C67.0029 30.7979 67.1265 30.9281 67.2169 31.0807C67.5581 31.5685 67.844 32.0926 68.0694 32.6435C68.1787 32.9542 68.3052 33.2586 68.4483 33.5553C68.5956 33.8984 68.7739 34.2273 68.9811 34.538C69.1469 34.8695 69.3126 35.1774 69.4547 35.4734C69.6025 35.8139 69.7329 36.1616 69.8454 36.5153V36.4088C69.9288 36.5744 69.9924 36.7492 70.0349 36.9297L70.7926 38.7176L72.5332 42.6012L72.77 42.1749C73.2909 40.9909 73.7409 39.9371 74.0961 39.0491C74.4513 38.1611 74.7354 37.3678 74.9604 36.6811L75.0433 36.3377C75.3156 35.6628 75.5879 35.0471 75.8366 34.5143C76.0852 33.9815 76.3339 33.5316 76.5588 33.1527C76.7936 32.8643 76.9888 32.5457 77.139 32.2055C77.2425 31.9755 77.3142 31.7325 77.3521 31.4832C77.3521 30.7965 77.6363 30.4531 78.1099 30.4531C78.3646 30.4563 78.6183 30.484 78.8677 30.536C79.1359 30.5681 79.3942 30.6569 79.6254 30.7965L79.8978 31.1043Z" fill="#231F20"/>
<path d="M87.5465 31.5781C87.6767 32.6319 87.7478 33.6738 87.7833 34.6921C87.8188 35.7103 87.7833 36.6931 87.7833 37.6521C87.7833 38.1849 87.7833 38.7414 87.7833 39.3453C87.7833 39.9491 87.7241 40.5293 87.7004 41.216C87.6294 42.7197 87.5939 44.2471 87.5939 45.8218C87.5939 46.7809 87.5939 47.6926 87.5939 48.5569C87.5939 49.4213 87.6767 50.2856 87.7359 51.1737C87.7359 51.7775 87.807 52.4405 87.8307 53.1628C87.8544 53.885 87.8307 54.5836 87.8307 55.2348V55.4243C87.8307 55.7084 87.8307 56.0163 87.8307 56.3596C87.8179 56.6804 87.7662 56.9985 87.6768 57.3069C87.5995 57.5778 87.4573 57.8257 87.2623 58.0291C87.1524 58.1292 87.0234 58.206 86.8829 58.2548C86.7425 58.3036 86.5937 58.3235 86.4454 58.3133C86.1847 58.2783 85.9431 58.1575 85.7587 57.9699C85.4568 57.5842 85.3205 57.0945 85.3798 56.6083C85.3798 55.59 85.3798 54.5954 85.3798 53.6245C85.3798 52.6536 85.3798 51.6828 85.3798 50.7119V40.328C85.3798 40.0912 85.3798 39.8426 85.3798 39.5939C85.3798 39.3453 85.3797 39.0137 85.3205 38.7177C85.2613 38.4217 85.3205 38.102 85.3205 37.806V37.4627C85.3205 37.3324 85.3205 37.1075 85.3205 36.7759C85.3205 36.4444 85.3206 35.9708 85.2613 35.3551C85.2021 34.7394 85.2022 33.8751 85.1548 32.7858C85.1508 32.3521 85.1945 31.9193 85.285 31.4952C85.3059 31.3077 85.3994 31.1358 85.5455 31.0163C85.6915 30.8968 85.8785 30.8392 86.0665 30.8558C86.2932 30.8618 86.5174 30.9058 86.7295 30.9861C86.9795 31.0655 87.2068 31.2035 87.3926 31.3886L87.5465 31.5781Z" fill="#231F20"/>
<path d="M25.9064 65.4408C26.2928 65.5072 26.6628 65.6479 26.9957 65.8552C27.2207 65.9878 27.4076 66.1763 27.5383 66.4024C27.6689 66.6286 27.739 66.8846 27.7416 67.1458C27.8245 67.1458 27.86 67.1458 27.86 67.2287L27.8008 67.2879L27.9429 68.0693C27.9429 68.2114 27.9429 68.3772 27.9429 68.5548C27.9313 68.7361 27.9313 68.918 27.9429 69.0994C27.789 69.3007 27.6824 69.4073 27.635 69.4073H27.3864C27.2221 69.3703 27.0732 69.2835 26.9602 69.1586C26.9602 68.9692 26.9602 68.8153 26.9602 68.6732C26.9768 68.5525 27.0045 68.4335 27.043 68.318C26.9483 67.2287 26.6878 66.6722 26.2616 66.6722C26.2616 66.613 26.1195 66.5656 25.8472 66.5301C25.6423 66.7226 25.4877 66.9625 25.3972 67.2287C25.3972 67.2287 25.3972 67.2287 25.4564 67.2287C25.4182 67.4124 25.3906 67.5982 25.3736 67.7852V67.8443V68.093C25.4049 68.5977 25.4682 69.1 25.563 69.5967C25.6735 70.2361 25.8511 71.0254 26.0958 71.9648C26.1647 72.1269 26.224 72.2929 26.2734 72.462C26.3563 72.7225 26.4392 73.0896 26.5339 73.5513C26.7732 74.1098 26.948 74.6937 27.0549 75.2919C27.3035 76.1088 27.7179 77.7783 28.3218 80.3121V80.4186C28.3218 80.5371 28.3928 80.691 28.4402 80.8804C28.4875 81.0699 28.5112 81.3067 28.5467 81.5672V81.65V81.7092C28.6523 82.38 28.5374 83.067 28.2193 83.6669C27.9012 84.2668 27.397 84.7473 26.7826 85.0363H26.3089H26.1195C25.4446 84.7995 25.1131 84.5982 25.1131 84.4562C24.6482 83.7713 24.3594 82.9823 24.2724 82.1592V81.579V81.2711V81.1054C24.3671 80.62 24.5329 80.3713 24.7697 80.3713C24.7697 80.3713 24.7697 80.4305 24.8289 80.4305C24.8881 80.4305 24.8289 80.3713 24.8289 80.3713C25.0624 80.5639 25.2215 80.8319 25.2788 81.1291L25.2196 81.4132L25.3025 81.6619V81.9105C25.3166 81.9769 25.3166 82.0454 25.3025 82.1118C25.5275 83.2248 25.8709 83.7931 26.3326 83.7931C26.4037 83.7931 26.4392 83.7931 26.4392 83.7931C26.8891 83.7931 27.2443 83.4142 27.5048 82.6091C27.5048 82.467 27.5758 82.3131 27.5995 82.171C27.6296 82.0026 27.6296 81.8303 27.5995 81.6619C27.541 80.9436 27.4263 80.231 27.2562 79.5306C27.043 78.5361 26.7233 77.2455 26.2971 75.6589C26.1432 75.0314 25.9893 74.4038 25.8116 73.7763C25.634 73.1488 25.4683 72.5212 25.2552 71.8937C24.9067 70.7007 24.6845 69.4744 24.5921 68.2351V67.9746V67.6786C24.5486 67.2496 24.61 66.8164 24.7708 66.4163C24.9317 66.0162 25.1873 65.6611 25.5156 65.3816C25.5156 65.3816 25.7406 65.275 26.1313 65.2158" fill="#231F20"/>
<path d="M30.1689 65.4408C30.5241 65.571 30.7017 65.7486 30.7017 65.9973C30.7036 66.0117 30.7022 66.0265 30.6976 66.0403C30.6929 66.0541 30.6851 66.0666 30.6748 66.077C30.6644 66.0873 30.6519 66.0951 30.6381 66.0997C30.6243 66.1044 30.6095 66.1058 30.5951 66.1038V66.459V67.051C30.59 67.1141 30.59 67.1774 30.5951 67.2405V67.501C30.5277 67.5758 30.4898 67.6726 30.4885 67.7733V67.8562C30.4759 67.9307 30.4759 68.0067 30.4885 68.0812C30.4953 68.1283 30.4953 68.1761 30.4885 68.2232V68.2824V68.5311C30.4684 68.6047 30.4684 68.6824 30.4885 68.756V69.0165V70.4137C30.4747 70.4761 30.4747 70.5407 30.4885 70.6031V70.6623L30.5951 71.4911C30.5723 71.5371 30.5525 71.5846 30.5359 71.6332L30.5951 71.7516C30.5611 71.8094 30.5409 71.8742 30.5359 71.9411L30.5951 72.1068H30.5359L30.5951 72.2252V72.5449C30.5951 72.9593 30.5951 73.1606 30.678 73.1606L30.6188 73.4684C30.6188 73.6224 30.6188 73.7289 30.6188 73.8236C30.6232 73.8828 30.6232 73.9422 30.6188 74.0013H30.5596C30.5915 74.0599 30.6117 74.1243 30.6188 74.1907C30.6188 74.2854 30.6188 74.4157 30.678 74.5578H30.6188L30.678 74.6761V74.913C30.678 74.913 30.678 74.913 30.6188 74.913L30.678 75.0314V75.3984C30.6642 75.4608 30.6642 75.5255 30.678 75.5879V75.647C30.678 75.8838 30.678 76.097 30.678 76.2628C30.678 76.4285 30.678 76.5706 30.678 76.6771V77.281V77.3402V77.4468C30.8395 78.3889 30.903 79.3451 30.8674 80.3002C30.9124 80.4546 30.9402 80.6134 30.9503 80.7739L30.8911 80.8567C30.9407 81.6887 31.1205 82.5078 31.4239 83.284C31.6107 83.7132 31.9358 84.0675 32.3474 84.2904C32.9039 84.2904 33.342 83.7931 33.6617 82.7867C33.6617 82.3368 33.7328 81.9816 33.7564 81.7211C33.7801 81.4606 33.7564 81.283 33.7564 81.2001C33.7802 80.6085 33.7325 80.0161 33.6144 79.4359V79.1281V78.6545L33.6735 78.5952L33.6144 78.4887V77.6244V77.3165C33.6193 77.2614 33.6193 77.2059 33.6144 77.1508C33.6153 76.9776 33.5873 76.8055 33.5315 76.6416L33.5907 76.393V75.209L33.5315 74.9603H33.5907L33.7209 74.913H33.7801C33.7801 74.5459 33.6973 74.3565 33.6617 74.3565L33.7209 74.1078V73.7408C33.7082 73.6641 33.6884 73.5888 33.6617 73.5158L33.7209 73.4566L33.6617 73.1014C33.655 72.995 33.655 72.8882 33.6617 72.7817C33.6493 72.6835 33.6493 72.584 33.6617 72.4857C33.6503 72.3913 33.6503 72.2959 33.6617 72.2015C33.6546 72.0911 33.6546 71.9804 33.6617 71.87H33.7209L33.6617 71.7871C33.6617 71.5503 33.6617 71.3254 33.6617 71.1241C33.6617 70.9228 33.6617 70.7215 33.6617 70.5321L33.7209 70.1769L33.6617 69.9993C33.6617 69.9993 33.6617 69.9993 33.7209 69.9993L33.6617 69.7388V69.6322C33.6617 69.6322 33.6617 69.6322 33.7209 69.6322L33.6617 69.573L33.7209 68.9929V68.8034C33.711 68.7262 33.6911 68.6505 33.6617 68.5784C33.6617 68.5784 33.6617 68.5784 33.7209 68.5784C33.7209 68.3416 33.6854 68.2232 33.6144 68.2232V67.9391V67.6904C33.6284 67.6241 33.6284 67.5555 33.6144 67.4892V67.3826V67.2168V67.1339V66.3998V66.2814C33.6211 66.1795 33.6514 66.0805 33.7027 65.9922C33.7541 65.9039 33.8251 65.8286 33.9104 65.7723H34.0169L34.0998 65.8315L34.159 65.7131C34.3348 65.7477 34.4911 65.8474 34.5965 65.9923C34.7019 66.1372 34.7486 66.3167 34.7273 66.4946C34.6945 66.5571 34.6743 66.6255 34.6681 66.6958L34.7273 66.98H34.6681L34.7273 67.0629V67.4181H34.6681L34.7273 67.5247V67.8088C34.7273 67.8088 34.7273 67.8088 34.6681 67.8088L34.7273 67.9272C34.7273 67.9272 34.7273 67.9864 34.6681 67.9864C34.7326 68.1162 34.7727 68.2566 34.7865 68.4008C34.7781 68.4478 34.7781 68.4959 34.7865 68.5429C34.8025 68.6171 34.8025 68.6938 34.7865 68.7679V68.8508V68.9692V69.0284V69.3954C34.7865 69.5967 34.7865 69.7862 34.7865 69.9638C34.7865 70.1414 34.7865 70.3071 34.7865 70.4492C34.7865 70.5913 34.7865 70.8163 34.7865 71.0412C34.7865 71.2662 34.7865 71.5148 34.7865 71.7871V72.1542V72.2726V72.3791C34.7865 72.4739 34.7865 72.5568 34.7865 72.6278C34.7821 72.683 34.7821 72.7384 34.7865 72.7935V73.0659C34.7865 73.9065 34.7865 74.6998 34.8694 75.4339V75.6826C34.8753 75.7772 34.8753 75.8721 34.8694 75.9668V76.2391V76.3575C34.8694 76.8311 34.8694 77.2692 34.8694 77.6599C34.8694 78.0506 34.8694 78.4058 34.8694 78.7255V78.8439C34.8629 78.9105 34.8428 78.975 34.8102 79.0334L34.8694 79.1517L34.8102 79.3175C34.806 79.695 34.8619 80.0707 34.976 80.4305V80.9633C34.972 80.9947 34.972 81.0266 34.976 81.058C34.976 81.058 34.976 81.1764 34.976 81.2711C34.976 81.3659 34.9049 81.579 34.8694 81.579C34.6918 82.9643 34.5142 83.651 34.3129 83.651C34.1926 83.8826 34.0322 84.091 33.8393 84.2667C33.4137 84.6445 32.8786 84.8768 32.3119 84.9298C31.6998 84.8194 31.1463 84.4966 30.749 84.0181C30.3012 83.261 30.0376 82.4093 29.9794 81.5316V81.4132C29.8254 80.633 29.7422 79.8404 29.7308 79.0452V78.7965C29.73 78.2869 29.6745 77.7788 29.565 77.281L29.6242 77.1981L29.565 77.0324H29.6242C29.6242 77.0324 29.6242 77.0324 29.565 77.0324L29.6242 76.6653V76.4167C29.6242 76.3219 29.6242 76.2035 29.6242 76.0615C29.6242 75.9194 29.6242 75.7536 29.6242 75.5405H29.6834L29.6242 75.4339V75.3274C29.6242 74.4117 29.5887 73.6224 29.5177 72.9593C29.5177 72.3318 29.4584 71.8463 29.4229 71.4911H29.4821L29.4229 71.4083V70.4018V69.7862C29.4162 69.743 29.4162 69.6991 29.4229 69.6559C29.402 69.5623 29.402 69.4653 29.4229 69.3717C29.438 69.3095 29.438 69.2445 29.4229 69.1823C29.4229 67.8917 29.5058 66.8143 29.5887 65.9618L29.5295 65.8315H29.5887L29.5295 65.7131V65.6539C29.5295 65.6539 29.6834 65.4526 29.9794 65.2158L30.1689 65.4408Z" fill="#231F20"/>
<path d="M36.9651 65.4409H36.7994L36.3021 65.5948L35.9232 66.0921L36.0061 66.2342V66.7315V66.992V67.1933V67.5011L35.8995 67.8326C35.9351 68.6733 35.9943 69.3837 35.9943 69.9639C36.0234 70.445 36.0234 70.9273 35.9943 71.4084L36.0535 71.657L35.9943 71.7162L36.0771 72.1662C36.0672 72.2368 36.0672 72.3086 36.0771 72.3793C36.0864 72.4262 36.0864 72.4745 36.0771 72.5214C36.0864 72.7953 36.1141 73.0682 36.16 73.3384H36.1008V73.5396C36.0961 73.6224 36.0961 73.7054 36.1008 73.7883V73.8711V73.9896V74.0961V74.179V74.4869C36.0877 74.5333 36.0877 74.5825 36.1008 74.6289C36.0917 74.7353 36.0917 74.8422 36.1008 74.9486C36.0956 75.0275 36.0956 75.1066 36.1008 75.1854V75.2446C36.1073 75.3112 36.1275 75.3757 36.16 75.4341C36.1271 75.4966 36.107 75.565 36.1008 75.6353V77.0562V77.6482V77.7547C36.2307 78.7556 36.2664 79.7665 36.2074 80.774L36.2666 80.8806H36.2074L36.2666 81.2121V81.6383L36.3258 81.7212H36.2666L36.3258 82.0883V82.8342L36.2666 83.0828L36.4087 84.0893C36.3495 84.0893 36.3495 84.1248 36.3495 84.2076V84.2077V84.4563C36.3495 84.6457 36.4679 84.7997 36.7047 84.9299H36.7757H36.8941H36.977C37.0836 84.9299 36.9178 84.847 37.0836 84.847C37.2493 84.847 37.3559 84.6457 37.3559 84.2313C37.317 84.0557 37.2893 83.8777 37.273 83.6985V82.9289C37.2789 82.8817 37.2789 82.834 37.273 82.7868V82.7276V82.6447V82.5382V80.9753C37.2823 80.9284 37.2823 80.8801 37.273 80.8332L37.2138 78.8796H37.273C37.2592 78.8332 37.2592 78.7838 37.273 78.7375V78.1928V77.2811C37.8343 77.101 38.3371 76.7739 38.7294 76.3339C39.337 75.499 39.7423 74.5343 39.9134 73.516V73.4567V73.3739H40.0199L39.9607 73.066C40.0286 72.9767 40.0696 72.8699 40.0791 72.7582L40.0199 72.6753H40.0791L40.162 71.953V71.5505C40.1504 71.4047 40.1504 71.2582 40.162 71.1124V70.698V70.6151C40.1147 70.1415 40.0436 69.881 39.9726 69.881H40.0318C40.0191 69.6521 39.9794 69.4256 39.9134 69.2061L39.7002 68.2115L39.5226 67.513C39.311 66.8662 38.8956 66.3054 38.3386 65.9145C38.3386 65.808 37.9834 65.6422 37.273 65.4409L37.1546 65.5475H37.048C36.9652 65.5475 36.9651 65.512 36.9651 65.4409Z" fill="#231F20"/>
<path d="M43.0155 65.5949C43.078 65.562 43.1464 65.5418 43.2168 65.5356C43.2168 65.5356 43.3115 65.5949 43.501 65.5949H43.6075C43.7499 65.654 43.9033 65.6823 44.0575 65.6778H44.3179C44.3179 65.6558 44.3266 65.6347 44.3422 65.6191C44.3577 65.6036 44.3788 65.5949 44.4008 65.5949L44.5784 65.6778H44.6613C44.7739 65.7871 44.8769 65.906 44.9691 66.0329C44.9691 66.3882 44.8152 66.6013 44.5192 66.6486H44.4008H44.093C44.0309 66.6326 43.9657 66.6326 43.9035 66.6486H42.7195C42.7195 66.6486 42.7195 66.6486 42.6603 66.6486C42.6011 66.6486 42.6603 66.7079 42.7195 66.7079L42.6603 67.0749V67.6551V67.7143C42.7112 67.9241 42.743 68.1381 42.755 68.3536C42.755 68.3536 42.755 68.4247 42.755 68.5075C42.755 68.5904 42.755 68.7207 42.755 68.8864C42.7613 68.9384 42.7818 68.9875 42.8142 69.0285C42.755 69.6205 42.7195 70.106 42.7195 70.473V70.5322V70.7809V71.6571C42.7195 71.6571 42.7195 71.6571 42.6603 71.6571L42.7195 71.7399C42.7195 71.8702 42.7195 71.9767 42.7195 72.0359C42.7155 72.0793 42.7155 72.1229 42.7195 72.1662L42.7787 72.4148L42.7195 72.4977L42.7787 72.6043C42.7787 72.699 42.7787 72.7819 42.7787 72.8529C42.7737 72.9002 42.7737 72.9478 42.7787 72.995L42.8379 73.1963H42.7787L42.8379 73.3029C42.8379 73.3029 42.8379 73.362 42.7787 73.362L42.8379 73.4449V74.7C42.9649 74.6589 43.0959 74.6311 43.2286 74.6171H43.3944H43.6312H43.8443H43.9272H43.9864H44.0456H44.1877C44.3179 74.6171 44.4482 74.7829 44.6021 75.1262C44.756 75.4696 44.3534 75.4577 43.8443 75.5643H43.5957H42.8379C42.8379 75.9906 42.8379 76.3576 42.8379 76.6773C42.8468 76.9586 42.8705 77.2392 42.909 77.518C42.8809 77.5905 42.861 77.666 42.8497 77.7429V77.8258C42.8497 77.8258 42.8497 77.9205 42.8497 78.0152C42.8497 78.11 42.8497 78.0745 42.7905 78.0745L42.8497 78.2402V81.1174C42.8493 81.1887 42.8288 81.2585 42.7905 81.3187L42.8497 81.4844L42.7905 81.5673L42.8497 81.6739C42.8497 81.9935 42.8497 82.1475 42.7905 82.1475L42.8497 82.2659V82.3488C42.8497 82.3488 42.8497 82.4079 42.7905 82.4079L42.8497 82.5145C42.8497 82.8342 42.8497 83.1065 42.8497 83.3315C42.8497 83.5564 42.8497 83.7578 42.8497 83.9117C42.8497 84.0656 42.909 83.9117 42.909 83.9117H43.1576H43.9153H44.0219H44.7797C44.7797 83.9117 44.9218 84.0301 45.1112 84.2787C45.1248 84.4303 45.0795 84.5813 44.9847 84.7004C44.8899 84.8194 44.7529 84.8974 44.6021 84.9181C44.264 85.0028 43.9101 85.0028 43.572 84.9181L42.6485 84.8589V84.9181L42.5656 84.8589L42.3998 84.9418H42.2104C42.0543 84.8751 41.9102 84.7831 41.7841 84.6694V84.1011C41.7703 84.0387 41.7703 83.9741 41.7841 83.9117V83.7459V83.4973V82.775L41.7249 82.5145H41.7841C41.7841 82.5145 41.7841 82.5145 41.7249 82.5145C41.7138 81.8774 41.7494 81.2402 41.8315 80.6082V80.5254V80.4188C41.8174 80.3524 41.8174 80.2839 41.8315 80.2175V80.111V79.9689V79.9097V79.8268V79.661C41.8315 79.2111 41.8315 78.8322 41.8315 78.477C41.824 78.2153 41.8003 77.9543 41.7605 77.6956C41.7651 77.6325 41.7651 77.5692 41.7605 77.5061C41.7677 77.4392 41.7677 77.3717 41.7605 77.3048L41.7012 77.0799H41.7605C41.7311 77.0415 41.7109 76.997 41.7012 76.9496C41.7225 76.0639 41.683 75.1777 41.5829 74.2974V74.0369V73.0305C41.5963 72.9601 41.5963 72.8878 41.5829 72.8174V72.7227V72.5569C41.5626 72.2093 41.6027 71.8608 41.7012 71.5268L41.642 71.4676C41.642 70.5796 41.7131 69.8692 41.7368 69.3482C41.7604 68.8272 41.7368 68.472 41.7368 68.2826V68.1524C41.73 67.9915 41.7022 67.8323 41.6539 67.6788V67.4183V66.921C41.6539 66.1158 41.7604 65.7369 41.9617 65.7369C42.163 65.7369 42.1156 65.7369 42.1156 65.7369L43.0155 65.5949Z" fill="#231F20"/>
<path d="M47.9292 65.4409C47.994 65.4908 48.0725 65.5197 48.1542 65.5238L48.2607 65.4646C48.6529 65.6725 49.0187 65.927 49.35 66.2224C49.791 66.7678 50.099 67.4082 50.2499 68.0931C50.5973 69.4753 50.8192 70.8861 50.9129 72.3082C50.9129 72.4385 50.9129 72.5332 50.9129 72.6161C50.9129 72.699 50.9129 72.7345 50.9129 72.7582C50.9129 72.7818 50.9129 72.7582 50.9721 72.7582L50.9129 73.0424V73.7291V73.8356C50.7623 74.9599 50.2753 76.0124 49.5158 76.8549C49.2654 77.1218 48.9519 77.3213 48.6041 77.4351C50.0131 80.4425 50.8537 82.2895 51.1142 82.9999C51.3028 83.4752 51.5367 83.9312 51.8128 84.3616V84.5392C51.7417 84.5392 51.6352 84.6457 51.5049 84.8707C51.4189 84.8757 51.3383 84.9139 51.28 84.9773H51.1734C50.8774 84.9773 50.3446 83.8761 49.6105 81.8514C49.5513 81.8514 48.9119 80.4425 47.6806 77.7784H47.6213V79.0335C47.6213 79.9807 47.6213 80.774 47.6213 81.4015C47.6213 82.0291 47.6213 82.5145 47.6213 82.8697V83.0355C47.5415 83.3774 47.5621 83.7351 47.6806 84.0656H47.6213L47.6806 84.184C47.6806 84.184 47.6805 84.2432 47.6213 84.2432L47.6806 84.3261V84.6694C47.574 84.8343 47.4157 84.9592 47.2306 85.0246C46.8991 84.9536 46.6978 84.5865 46.6386 83.9353C46.6386 83.9353 46.6386 83.9353 46.6978 83.9353C46.6978 83.5209 46.6978 83.3196 46.6386 83.3196C46.6508 83.2695 46.6708 83.2216 46.6978 83.1776C46.6989 83.0797 46.6787 82.9827 46.6386 82.8934C46.6386 82.6921 46.6386 82.5145 46.6386 82.3487V80.8924C46.6556 80.7231 46.6556 80.5525 46.6386 80.3833C46.6386 80.253 46.6386 80.1464 46.6386 80.0754V79.9688C46.5947 79.5516 46.5947 79.131 46.6386 78.7138C46.6386 77.0325 46.6386 76.0971 46.6386 75.884V75.2683V74.7355C46.6451 74.6527 46.6451 74.5696 46.6386 74.4869V74.2619V73.9896C46.6448 73.9028 46.6448 73.8158 46.6386 73.7291V73.1489C46.6386 73.0305 46.6386 72.9713 46.6386 72.9713V72.7226V67.5366C46.6386 67.5366 46.6386 67.4774 46.6978 67.4774L46.6386 67.359V67.0275V66.7196C46.6995 66.6501 46.7368 66.5631 46.7452 66.471L46.6386 66.4118C46.6386 65.8317 47.0293 65.512 47.8226 65.4409H47.9292ZM47.6806 66.9209L47.6213 70.5796C47.6213 70.7808 47.6214 70.8993 47.6806 70.9348C47.7398 70.9703 47.6806 71.1124 47.6806 71.1834C47.675 71.2583 47.675 71.3335 47.6806 71.4084V74.6526C47.6806 74.7236 47.6806 74.8065 47.6806 74.8776C47.6806 74.9486 47.6806 75.0315 47.6806 75.1262L47.7397 75.2328L47.6806 75.3749L47.7397 75.5406H47.6806C47.6806 75.5406 47.6805 75.5998 47.7397 75.5998L47.6806 75.884V76.547C47.6806 76.6299 47.7398 76.6655 47.799 76.6655C47.8582 76.6655 47.9292 76.5352 48.2133 76.4997C48.4494 76.3562 48.6645 76.1809 48.8527 75.9787C49.0411 75.7681 49.2004 75.5331 49.3263 75.2801C49.6451 74.7324 49.8429 74.1228 49.9065 73.4922V73.2673V73.2081V72.8411V72.3674C49.9065 72.3674 49.9065 72.3674 49.9657 72.3674L49.9065 72.249L49.8236 71.065L49.5513 69.2771C49.4448 68.4668 49.1262 67.6989 48.6278 67.0512C48.3897 66.859 48.1268 66.6997 47.8463 66.5776H47.7397L47.6806 66.9209Z" fill="#231F20"/>
<path d="M55.3056 65.6187H55.6727C55.874 65.6187 56.0279 65.8199 56.1108 66.2107C56.1108 66.4475 55.7437 66.5659 54.9978 66.5659H54.9149C54.7157 66.63 54.5084 66.6659 54.2992 66.6724V66.6251C54.2582 66.6575 54.209 66.678 54.1571 66.6843L53.8493 66.6251C53.8081 66.8199 53.7844 67.018 53.7782 67.2171C53.7782 67.4539 53.7782 67.738 53.7782 68.0577V68.4248V69.2299V69.3365V70.852C53.7921 70.9144 53.7921 70.9791 53.7782 71.0415V71.1007L53.6717 71.9887C53.6717 71.9887 53.6717 72.0479 53.7309 72.0479L53.6717 72.2965V72.3557C53.6662 72.4188 53.6662 72.4822 53.6717 72.5452C53.6671 72.632 53.6671 72.7189 53.6717 72.8057L53.6125 72.9714L53.7546 73.2201H53.8611H54.2282L55.4122 73.1372C55.8029 73.2911 56.0042 73.4569 56.0042 73.6463C56.0042 73.8358 55.7437 74.1791 55.2228 74.262V74.2028C55.0846 74.2476 54.9414 74.2755 54.7965 74.2857C54.5521 74.2265 54.302 74.1948 54.0506 74.191H53.7427C53.6835 74.191 53.6598 74.2738 53.6598 74.3094V74.6409C53.6598 74.7119 53.6598 74.7593 53.7427 74.7593C53.7306 74.8019 53.7306 74.847 53.7427 74.8896C53.7427 75.0435 53.7427 75.2448 53.7427 75.4816V76.3696C53.7488 76.48 53.7488 76.5907 53.7427 76.7011C53.7362 76.8155 53.7362 76.9301 53.7427 77.0444C53.7427 77.1747 53.7427 77.3286 53.7427 77.5181C53.7427 77.7075 53.7427 77.9443 53.7427 78.2167V79.5309C53.7289 79.5933 53.7289 79.658 53.7427 79.7203V79.8388C53.7327 80.1841 53.7605 80.5295 53.8256 80.8689C53.8179 80.9436 53.8179 81.019 53.8256 81.0938V81.1767V81.2833V81.3425V81.5438C53.8848 82.3607 53.9085 82.9291 53.9085 83.2487V83.379L53.9914 84.7524C53.8354 84.9011 53.6437 85.0072 53.4349 85.0603H53.3757C53.3757 85.0603 53.3757 85.0603 53.3757 85.0011L53.2809 85.0603C53.2809 85.0603 53.127 84.93 52.9258 84.6695C52.9258 84.4564 52.9258 84.338 52.9258 84.3025C52.9684 83.6769 52.9326 83.0485 52.8192 82.4318V82.1239V80.9399C52.8192 80.4426 52.8192 79.8506 52.8192 79.152L52.76 79.0692L52.8192 78.9626C52.8192 78.7968 52.8192 78.6429 52.8192 78.5008C52.8192 78.3587 52.8192 78.2403 52.8192 78.1456H52.6653L52.6061 78.0627V77.6483C52.6117 77.5695 52.6117 77.4903 52.6061 77.4115C52.6061 77.3326 52.6061 77.226 52.6061 77.0918V77.0089C52.6061 76.0025 52.6061 75.2329 52.6061 74.7119C52.6288 74.4045 52.6288 74.0958 52.6061 73.7884L52.6653 73.6818L52.6061 73.6226L52.6653 73.374V72.7938C52.6653 72.6754 52.6653 72.6162 52.6061 72.6162L52.6653 72.3676C52.6653 71.7756 52.6653 71.1836 52.7482 70.4731C52.7345 70.3631 52.7345 70.2517 52.7482 70.1416V69.7154V69.6088V68.5195C52.7338 68.4452 52.7338 68.3689 52.7482 68.2946C52.7343 68.2482 52.7343 68.1988 52.7482 68.1525V68.0459V67.7972V67.2408C52.7482 66.2107 52.9376 65.7015 53.3165 65.7015H53.4231H53.4822H53.7309H54.0979H54.3466L55.1635 65.6187C55.2252 65.6378 55.2913 65.6378 55.353 65.6187" fill="#231F20"/>
<path d="M59.7694 65.2275L59.8286 65.2867L59.9351 65.2275C60.3176 65.2646 60.6841 65.3995 60.9993 65.6194C61.3146 65.8392 61.5679 66.1365 61.7348 66.4826C62.047 67.4105 62.2147 68.3809 62.2321 69.3598C62.2321 69.7465 62.2321 70.1412 62.2321 70.5438C62.2321 70.899 62.2321 71.266 62.315 71.6094V71.6686C62.3066 72.2303 62.3343 72.7918 62.3979 73.3499C62.3979 73.3499 62.3979 73.4091 62.3979 73.3499V73.717V74.1906C62.3901 74.2654 62.3901 74.3407 62.3979 74.4155C62.3828 74.4778 62.3828 74.5427 62.3979 74.605V74.7234C62.3828 74.7856 62.3828 74.8506 62.3979 74.9128V75.0312V75.2917V75.789V75.8482C62.4101 75.9028 62.4101 75.9594 62.3979 76.014L62.3387 76.0968L62.3979 76.156L62.315 76.677V77.2809C62.3039 77.4148 62.3039 77.5495 62.315 77.6834V77.8018C62.3374 78.1132 62.3374 78.4258 62.315 78.7372C62.315 79.1161 62.315 79.5779 62.315 80.1107V80.4777C62.3252 80.5524 62.3252 80.6281 62.315 80.7027C62.3302 80.7689 62.3302 80.8377 62.315 80.904V81.0934V81.2C62.09 83.568 61.7704 84.752 61.3678 84.752C61.2234 84.9243 61.0418 85.0618 60.8368 85.154C60.6318 85.2463 60.4085 85.291 60.1838 85.2849C59.8206 85.271 59.4692 85.1516 59.1728 84.9414C58.8763 84.7311 58.6475 84.439 58.5143 84.1008C58.4433 84.1008 58.3722 83.8048 58.3012 83.2128C58.1354 83.2128 57.9341 82.1472 57.7092 80.087L57.4605 78.4649V76.6533L57.5434 76.3455C57.5255 76.2596 57.5255 76.1709 57.5434 76.085V75.8364V75.7179V75.6114C57.5434 75.6114 57.5434 75.6114 57.6026 75.6114C57.501 74.5245 57.501 73.4304 57.6026 72.3435C57.6066 72.312 57.6066 72.2802 57.6026 72.2488C57.5987 72.1778 57.5987 72.1066 57.6026 72.0357V71.8699C57.6026 71.7278 57.6026 71.5857 57.6026 71.4555V71.0884L57.6855 70.8279V70.0228V69.9636V69.8571V69.3834V69.2769C57.6855 69.2769 57.6855 69.2769 57.7447 69.2769L57.6855 69.1703L57.792 68.5546C57.7843 68.5076 57.7843 68.4596 57.792 68.4126C57.8019 68.2842 57.8382 68.1592 57.8986 68.0455L57.8394 67.9389C57.9188 67.4284 58.1131 66.9426 58.4077 66.5181C58.5353 66.2969 58.7057 66.1033 58.909 65.9488C59.1123 65.7942 59.3444 65.6819 59.5918 65.6183C59.6849 65.6168 59.7755 65.588 59.8523 65.5354M58.8695 68.2468V68.306L58.7866 68.8033V69.0519V69.1111L58.7038 69.3598V69.7268C58.7038 69.7268 58.7037 69.7268 58.6445 69.7268L58.7038 69.8452L58.6209 70.8279C58.634 70.8744 58.634 70.9236 58.6209 70.97V71.3252V71.5739V72.971V73.0894V73.7051C58.6092 73.7757 58.6092 73.8477 58.6209 73.9183C58.6162 74.005 58.6162 74.092 58.6209 74.1787C58.6209 74.1787 58.6209 74.1787 58.5617 74.1787C58.5617 74.7826 58.5617 75.5522 58.5617 76.5468L58.5025 76.9138L58.5617 76.973L58.5025 77.2217L58.4433 78.5596C58.5025 78.9503 58.5735 79.1516 58.6445 79.1516L58.5617 79.3411C58.6327 79.7081 58.7156 80.1462 58.7866 80.6435C58.8577 81.1408 58.9406 81.6854 59.0353 82.3011L59.5444 83.7219C59.7575 84.0061 59.9233 84.16 60.0535 84.1955C60.2367 84.2187 60.4224 84.1801 60.5812 84.0857C60.7399 83.9913 60.8626 83.8466 60.9297 83.6746L60.8705 83.6154C60.9889 83.6154 61.0836 83.201 61.1784 82.4314V82.3721C61.2139 82.2357 61.2416 82.0974 61.2612 81.9578C61.2612 81.8038 61.2612 81.6618 61.2612 81.5078V80.9869V80.9276V80.5724V79.3884C61.2763 79.3262 61.2763 79.2612 61.2612 79.199V79.0806C61.223 78.8298 61.2032 78.5765 61.202 78.3228C61.1845 78.0468 61.1845 77.77 61.202 77.494V76.31C61.1973 76.2271 61.1973 76.1441 61.202 76.0613C61.1911 75.959 61.1911 75.8558 61.202 75.7535C61.1912 75.6987 61.1912 75.6424 61.202 75.5877V75.4693V74.3563V73.9893V73.8827V73.2078C61.2098 73.133 61.2098 73.0577 61.202 72.9829L61.1428 72.0357H61.202L61.1192 71.4792C61.1192 71.4792 61.1192 71.4199 61.1784 71.4199C61.1784 71.0647 61.1073 70.8398 61.0955 70.7451C61.0971 70.5796 61.069 70.4152 61.0126 70.2596L61.0718 70.1531C61.0718 69.9873 61.0126 69.5255 60.906 68.7559C60.7774 68.3733 60.7017 67.975 60.681 67.5719C60.5455 67.0757 60.223 66.6513 59.7812 66.3879H59.6983C59.0353 66.3879 58.6209 66.9325 58.4314 68.0692" fill="#231F20"/>
<path d="M78.2283 65.4408C78.6154 65.5051 78.9857 65.646 79.3176 65.8552C79.5456 65.9854 79.7355 66.1731 79.8685 66.3995C80.0014 66.6259 80.0727 66.8832 80.0754 67.1458C80.1464 67.1458 80.1819 67.1458 80.1819 67.2287C80.1819 67.3116 80.1819 67.2879 80.1819 67.2879L80.324 68.0693C80.324 68.2114 80.324 68.3772 80.324 68.5548C80.3063 68.7359 80.3063 68.9183 80.324 69.0994C80.1701 69.3007 80.0754 69.4073 80.0162 69.4073H79.7676C79.606 69.3718 79.4604 69.2845 79.3531 69.1586C79.3641 68.9959 79.3839 68.8338 79.4123 68.6732C79.4175 68.5506 79.4457 68.4301 79.4952 68.318C79.4005 67.2287 79.14 66.6722 78.7138 66.6722C78.7138 66.6169 78.5717 66.5696 78.2875 66.5301C78.0864 66.7258 77.9326 66.9647 77.8376 67.2287C77.8376 67.2287 77.8376 67.2287 77.8968 67.2287C77.8586 67.4124 77.8309 67.5982 77.8139 67.7852L77.8731 67.8443L77.8139 68.093C77.8503 68.5979 77.9175 69.1001 78.0152 69.5967C78.1218 70.2361 78.2994 71.0294 78.5362 71.9648C78.605 72.1269 78.6643 72.2929 78.7138 72.462C78.8229 72.8203 78.9138 73.1839 78.9861 73.5513C79.224 74.1113 79.4025 74.6947 79.5189 75.2919C79.7557 76.1088 80.1819 77.7783 80.7739 80.3121V80.4186C80.8173 80.5707 80.8529 80.7248 80.8805 80.8804C80.8805 81.0817 80.9515 81.3067 80.9989 81.5672L80.9397 81.65L80.9989 81.7092C81.1025 82.3798 80.9868 83.066 80.6689 83.6655C80.351 84.265 79.848 84.7458 79.2347 85.0363H78.7611H78.5598C77.8968 84.7995 77.5653 84.5982 77.5653 84.4562C77.1004 83.7713 76.8116 82.9823 76.7246 82.1592V81.579L76.7838 81.2711L76.7246 81.1054C76.8193 80.62 76.9851 80.3713 77.2337 80.3713C77.4636 80.567 77.6218 80.8336 77.6837 81.1291V81.4132L77.7666 81.6619L77.7073 81.9105C77.7402 81.973 77.7604 82.0414 77.7666 82.1118H77.7073C77.9323 83.2248 78.2757 83.7931 78.7493 83.7931C78.8203 83.7931 78.8558 83.7931 78.8558 83.7931C79.3058 83.7931 79.6491 83.4142 79.9214 82.6091C79.9214 82.467 79.9807 82.3131 80.0162 82.171C80.0345 82.0018 80.0345 81.8311 80.0162 81.6619C79.9518 80.9443 79.837 80.2321 79.6728 79.5306C79.4478 78.5361 79.1282 77.2455 78.7019 75.6589C78.5598 75.0314 78.3941 74.4038 78.2283 73.7763C78.0625 73.1488 77.8731 72.5212 77.6718 71.8937C77.3266 70.6995 77.1005 69.4739 76.9969 68.2351V67.9746V67.6786C76.954 67.2507 77.0145 66.8188 77.1731 66.4191C77.3317 66.0194 77.584 65.6636 77.9086 65.3816C77.9086 65.3816 78.1336 65.275 78.5243 65.2158" fill="#231F20"/>
<path d="M92.3181 32.4068H91.9393V30.0388H92.922C93.1513 30.0345 93.3758 30.1051 93.5614 30.24C93.6426 30.2957 93.7096 30.3698 93.7569 30.4562C93.8042 30.5426 93.8305 30.6389 93.8337 30.7373C93.832 30.8203 93.8133 30.902 93.7787 30.9773C93.744 31.0527 93.6943 31.1201 93.6324 31.1754C93.4991 31.3095 93.3233 31.3932 93.1351 31.4122L93.9521 32.3713H93.5022L92.7207 31.424H92.3063L92.3181 32.4068ZM92.3181 30.3466V31.1754H92.922C93.0575 31.1763 93.19 31.1349 93.3009 31.057C93.3497 31.0246 93.3898 30.9806 93.4175 30.929C93.4452 30.8773 93.4597 30.8196 93.4597 30.761C93.4597 30.7024 93.4452 30.6447 93.4175 30.593C93.3898 30.5414 93.3497 30.4974 93.3009 30.465C93.1971 30.3821 93.0665 30.34 92.9338 30.3466H92.3181Z" fill="#231F20"/>
<path d="M92.8155 33.5552C92.3916 33.5552 91.9772 33.4295 91.6248 33.194C91.2724 32.9585 90.9977 32.6239 90.8355 32.2323C90.6733 31.8407 90.6308 31.4098 90.7135 30.994C90.7962 30.5783 91.0003 30.1965 91.3001 29.8967C91.5998 29.597 91.9816 29.3929 92.3974 29.3102C92.8131 29.2275 93.244 29.27 93.6356 29.4322C94.0272 29.5944 94.3619 29.8691 94.5973 30.2215C94.8328 30.5739 94.9585 30.9883 94.9585 31.4121C94.9585 31.9805 94.7327 32.5256 94.3308 32.9275C93.9289 33.3294 93.3838 33.5552 92.8155 33.5552ZM92.8155 29.423C92.422 29.423 92.0375 29.5396 91.7103 29.7582C91.3832 29.9768 91.1283 30.2874 90.9777 30.6509C90.8272 31.0144 90.7877 31.4143 90.8645 31.8002C90.9413 32.186 91.1307 32.5405 91.4089 32.8187C91.6871 33.0969 92.0415 33.2863 92.4274 33.3631C92.8132 33.4398 93.2132 33.4004 93.5767 33.2499C93.9401 33.0993 94.2508 32.8444 94.4694 32.5172C94.6879 32.1901 94.8046 31.8056 94.8046 31.4121C94.8046 30.8846 94.595 30.3786 94.222 30.0056C93.8489 29.6325 93.343 29.423 92.8155 29.423Z" fill="#231F20"/>
</g>
<defs>
<clipPath id="clip0_8_11475">
<rect width="107" height="107" fill="white"/>
</clipPath>
</defs>
</svg>
