<svg width="158" height="61" viewBox="0 0 158 61" fill="none" xmlns="http://www.w3.org/2000/svg">
<g clip-path="url(#clip0_8_9961)">
<path d="M16.1415 50.765V57.0807C16.0936 57.7395 16.1566 58.4016 16.328 59.0402C16.4759 59.3339 16.7178 59.5716 17.0167 59.7169C17.4572 59.946 17.9544 60.0486 18.4515 60.013H19.1402V60.5769H8.23574V60.013H8.92444C9.422 60.0337 9.91647 59.9268 10.3592 59.7028C10.6426 59.5396 10.8604 59.2858 10.9762 58.9838C11.1349 58.3623 11.193 57.72 11.1484 57.0807V43.6739C11.1914 43.0159 11.1334 42.3554 10.9762 41.7144C10.83 41.4161 10.588 41.1734 10.2875 41.0236C9.84207 40.8094 9.34773 40.7122 8.8527 40.7416H8.164V40.1777H19.0828V40.7416H18.3941C17.8966 40.7209 17.4021 40.8278 16.9593 41.0518C16.6706 41.2125 16.4475 41.4666 16.328 41.7708C16.1693 42.3923 16.1112 43.0346 16.1558 43.6739V49.4398H23.4876V43.6739C23.5307 43.0159 23.4726 42.3554 23.3155 41.7144C23.1796 41.4139 22.941 41.1695 22.6411 41.0236C22.1937 40.8152 21.7009 40.7183 21.2063 40.7416H20.532V40.1777H31.379V40.7416H30.7047C30.2071 40.7209 29.7127 40.8278 29.2699 41.0518C28.9865 41.215 28.7688 41.4688 28.6529 41.7708C28.4942 42.3923 28.4361 43.0346 28.4807 43.6739V57.0807C28.4386 57.7386 28.4966 58.3991 28.6529 59.0402C28.8008 59.3339 29.0428 59.5716 29.3416 59.7169C29.7836 59.9418 30.2797 60.0441 30.7764 60.013H31.4508V60.5769H20.5463V60.013H21.2207C21.7182 60.0337 22.2127 59.9268 22.6555 59.7028C22.9388 59.5396 23.1566 59.2858 23.2724 58.9838C23.4311 58.3623 23.4892 57.72 23.4446 57.0807V50.765H16.1415Z" fill="#54AF5F"/>
<path d="M43.6466 46.0846C44.8766 46.0815 46.0834 46.4134 47.1331 47.0432C48.2064 47.6756 49.0575 48.6151 49.5723 49.7359C50.1321 50.9337 50.4163 52.2382 50.4045 53.5563C50.4683 55.3473 49.9231 57.1082 48.8549 58.5609C48.2615 59.3503 47.4806 59.9852 46.5804 60.4103C45.6801 60.8354 44.6877 61.0377 43.6896 60.9998C42.7407 61.049 41.7937 60.8721 40.9294 60.4843C40.065 60.0965 39.3088 59.5092 38.7252 58.7724C37.5667 57.2954 36.9499 55.4772 36.9747 53.6127C36.9468 51.7085 37.5737 49.8508 38.7539 48.3402C39.3274 47.6083 40.0707 47.0216 40.9218 46.6293C41.7728 46.2369 42.7071 46.0502 43.6466 46.0846ZM43.7183 47.156C43.4648 47.154 43.2137 47.2045 42.9814 47.3041C42.749 47.4036 42.5406 47.5501 42.3696 47.734C41.8984 48.4061 41.6434 49.2017 41.6378 50.0178C41.5231 51.1597 41.4657 52.7386 41.4657 54.7687C41.4608 55.7735 41.5328 56.7772 41.6809 57.7714C41.7369 58.3734 41.9884 58.9418 42.3983 59.3927C42.5535 59.5685 42.7452 59.7098 42.9604 59.8071C43.1757 59.9043 43.4096 59.9553 43.6466 59.9566C44.0637 59.9718 44.472 59.8364 44.7944 59.5759C45.2098 59.2033 45.4916 58.7089 45.5979 58.1662C45.859 56.2509 45.9597 54.3177 45.8992 52.3862C45.9473 51.209 45.8509 50.0304 45.6122 48.8759C45.481 48.3296 45.1801 47.837 44.7513 47.4661C44.4562 47.2426 44.0907 47.1279 43.7183 47.1419" fill="#54AF5F"/>
<path d="M62.3994 46.5077V48.3686C63.0161 47.6568 63.754 47.0557 64.5803 46.5923C65.2601 46.253 66.013 46.0789 66.7755 46.0848C67.6023 46.0372 68.4213 46.2643 69.1006 46.7298C69.78 47.1952 70.2801 47.8719 70.5203 48.6506C71.1895 47.8745 71.9846 47.2124 72.8734 46.691C73.5945 46.3003 74.4031 46.092 75.2265 46.0848C76.0707 46.0414 76.9051 46.2798 77.5939 46.7615C78.1645 47.1919 78.5896 47.7815 78.8135 48.4532C79.0886 49.5309 79.2046 50.6419 79.1578 51.752V57.5038C79.0829 58.1901 79.1865 58.8837 79.4591 59.5198C79.6226 59.6814 79.8171 59.8095 80.0314 59.8966C80.2457 59.9837 80.4755 60.0281 80.7074 60.0273V60.5771H73.3182V60.0273C73.5689 60.0224 73.815 59.9599 74.0367 59.8449C74.2584 59.7298 74.4497 59.5654 74.5952 59.3647C74.8372 58.775 74.9308 58.1367 74.8678 57.5038V51.456C74.9045 50.6591 74.8564 49.8606 74.7243 49.0735C74.6507 48.7742 74.4793 48.5068 74.2365 48.3122C74.0161 48.1416 73.7421 48.0519 73.4617 48.0585C72.9763 48.0746 72.5088 48.2425 72.1273 48.5378C71.6028 48.9326 71.1473 49.4088 70.7786 49.9475V57.4897C70.7184 58.1397 70.8066 58.7947 71.0369 59.407C71.1939 59.6089 71.3991 59.7697 71.6342 59.8754C71.8694 59.9811 72.1274 60.0285 72.3856 60.0132V60.563H64.9677V60.0132C65.3078 60.0193 65.6406 59.9153 65.9146 59.7171C66.1285 59.5612 66.2887 59.3448 66.3738 59.0968C66.4717 58.5668 66.5101 58.0279 66.4885 57.4897V51.4419C66.5257 50.6444 66.4728 49.8454 66.3307 49.0594C66.2495 48.7563 66.0677 48.4884 65.8142 48.2982C65.5964 48.1214 65.3218 48.0265 65.0394 48.0303C64.6467 48.0291 64.2623 48.1419 63.9346 48.3545C63.3263 48.7869 62.8057 49.3272 62.3994 49.9475V57.4897C62.3404 58.1571 62.4437 58.8287 62.7007 59.4493C62.8491 59.6329 63.0395 59.7797 63.2563 59.8776C63.4732 59.9756 63.7105 60.022 63.949 60.0132V60.563H56.5741V60.0132C56.8148 60.0098 57.0523 59.958 57.2719 59.861C57.4915 59.764 57.6886 59.6239 57.8511 59.4493C58.0934 58.8253 58.1819 58.1538 58.1093 57.4897V49.5528C58.1838 48.8758 58.0801 48.1914 57.808 47.5651C57.6487 47.4019 57.457 47.2727 57.2447 47.1853C57.0325 47.098 56.8042 47.0545 56.5741 47.0576V46.4936L62.3994 46.5077Z" fill="#54AF5F"/>
<path d="M98.585 53.0349H90.7366C90.7064 54.6254 91.2107 56.1812 92.1714 57.4616C92.4685 57.8471 92.8523 58.1597 93.293 58.3749C93.7336 58.5901 94.219 58.7021 94.711 58.7021C95.3093 58.7136 95.8962 58.5412 96.3897 58.2087C97.0338 57.7039 97.5784 57.0875 97.9967 56.3902L98.5132 56.7285C97.9448 58.018 97.0629 59.1508 95.945 60.0273C94.9857 60.6814 93.841 61.0218 92.6736 61C91.7258 61.0464 90.7822 60.8484 89.9364 60.4255C89.0907 60.0026 88.3723 59.3696 87.8527 58.5894C86.9368 57.1518 86.4819 55.4769 86.547 53.7821C86.4314 51.7277 87.125 49.7084 88.484 48.1431C89.0415 47.4942 89.7355 46.9717 90.5182 46.6115C91.3009 46.2513 92.1537 46.062 93.018 46.0566C93.74 46.0604 94.4524 46.2202 95.1045 46.5248C95.7566 46.8293 96.3326 47.2711 96.7915 47.8188C97.9648 49.2973 98.574 51.1329 98.5132 53.0068M94.7397 52.0058C94.7853 50.8907 94.6987 49.7742 94.4815 48.6788C94.3514 48.1386 94.0619 47.6482 93.6493 47.2691C93.4057 47.0785 93.0992 46.9832 92.7884 47.0012C92.522 47.0046 92.2611 47.0767 92.032 47.2103C91.8028 47.3439 91.6134 47.5343 91.4827 47.7625C90.8225 48.8709 90.5082 50.1454 90.5788 51.4278V51.9776L94.7397 52.0058Z" fill="#54AF5F"/>
<path d="M118.141 53.6268L123.78 40.1777H132.231V40.7416H131.557C131.059 40.7209 130.565 40.8278 130.122 41.0518C129.85 41.2186 129.64 41.4652 129.519 41.7567C129.362 42.3688 129.304 43.0016 129.347 43.6316V57.0807C129.305 57.7386 129.363 58.3991 129.519 59.0402C129.667 59.3339 129.909 59.5716 130.208 59.7169C130.65 59.9418 131.146 60.0441 131.643 60.013H132.317V60.5769H121.384V60.013H122.058C122.556 60.0337 123.05 59.9268 123.493 59.7028C123.773 59.5354 123.989 59.283 124.11 58.9838C124.253 58.3598 124.306 57.7192 124.268 57.0807V41.9681L116.305 60.5769H115.946L107.911 42.1091V56.4745C107.863 57.0892 107.863 57.7066 107.911 58.3212C108.042 58.817 108.347 59.2515 108.772 59.5477C109.408 59.9044 110.137 60.0664 110.867 60.013V60.5769H103.693V60.013H103.908C104.344 60.0312 104.779 59.9591 105.185 59.8015C105.538 59.6783 105.85 59.464 106.089 59.1812C106.325 58.8521 106.486 58.4771 106.562 58.0816C106.593 57.5698 106.593 57.0567 106.562 56.5449V43.6316C106.604 42.983 106.546 42.3319 106.39 41.7002C106.239 41.409 105.998 41.1722 105.702 41.0236C105.255 40.8129 104.762 40.716 104.267 40.7416H103.607V40.1777H112.086L118.141 53.6268Z" fill="#312A53"/>
<path d="M137.167 60.5773V60.0134H137.855C138.349 60.0472 138.843 59.9549 139.29 59.7455C139.592 59.5605 139.835 59.297 139.993 58.9842C140.132 58.3597 140.181 57.7189 140.137 57.0811V43.6743C140.179 43.0163 140.121 42.3559 139.965 41.7148C139.816 41.4231 139.581 41.1823 139.29 41.024C138.845 40.8098 138.35 40.7126 137.855 40.742H137.167V40.1781H146.464C148.507 40.1051 150.544 40.4458 152.447 41.179C154.219 41.9234 155.695 43.2152 156.651 44.8585C157.628 46.5808 158.123 48.5264 158.086 50.4975C158.102 51.8493 157.864 53.1922 157.383 54.4589C156.973 55.5594 156.355 56.5736 155.561 57.4476C154.824 58.23 153.949 58.8749 152.978 59.3508C151.841 59.8691 150.64 60.2387 149.406 60.4504C148.456 60.5894 147.496 60.6507 146.536 60.6337L137.167 60.5773ZM145.087 41.3341V57.2502C145.052 57.7699 145.091 58.2917 145.202 58.801C145.284 58.9902 145.431 59.1449 145.618 59.238C145.991 59.4039 146.399 59.4812 146.809 59.4635C147.552 59.5072 148.295 59.3735 148.975 59.0741C149.654 58.7746 150.25 58.3182 150.711 57.7436C152.102 55.6068 152.747 53.0829 152.548 50.5539C152.644 48.3951 152.216 46.2449 151.299 44.2805C150.756 43.1918 149.857 42.3133 148.746 41.7852C147.564 41.4187 146.324 41.2658 145.087 41.3341Z" fill="#312A53"/>
<path d="M1.43481 38.3314L44.3066 4.04617C46.7826 2.24662 49.7939 1.30019 52.8733 1.35371C55.9526 1.40724 58.9279 2.45772 61.3376 4.34221L101.067 38.275" stroke="#54AF5F" stroke-width="2" stroke-linecap="round" stroke-linejoin="round"/>
<path d="M12.2245 28.2657V3.4541H26.142V19.8777" stroke="#54AF5F" stroke-width="1.5" stroke-miterlimit="10"/>
</g>
<defs>
<clipPath id="clip0_8_9961">
<rect width="158" height="61" fill="white"/>
</clipPath>
</defs>
</svg>
