<svg width="145" height="65" viewBox="0 0 145 65" fill="none" xmlns="http://www.w3.org/2000/svg">
<g clip-path="url(#clip0_8_11396)">
<path d="M115.154 49.5226C111.283 49.5199 107.499 48.3843 104.281 46.2595C101.064 44.1346 98.5565 41.1158 97.0769 37.5848C95.5973 34.0538 95.2116 30.169 95.9685 26.4217C96.7255 22.6743 98.5911 19.2326 101.33 16.5316C104.068 13.8307 107.556 11.9917 111.354 11.2472C115.151 10.5028 119.087 10.8862 122.663 12.3491C126.24 13.812 129.296 16.2887 131.447 19.466C133.597 22.6434 134.745 26.3787 134.745 30.1998C134.742 35.3258 132.676 40.2406 129.002 43.8639C125.328 47.4873 120.348 49.5226 115.154 49.5226ZM115.154 12.2365C111.554 12.2365 108.036 13.2901 105.043 15.2639C102.05 17.2377 99.7171 20.0432 98.3396 23.3256C96.9621 26.6079 96.6017 30.2197 97.3039 33.7042C98.0062 37.1888 99.7395 40.3895 102.285 42.9017C104.83 45.4139 108.073 47.1247 111.603 47.8179C115.134 48.511 118.793 48.1553 122.119 46.7957C125.444 45.4361 128.287 43.1337 130.287 40.1796C132.286 37.2256 133.354 33.7526 133.354 30.1998C133.346 25.4379 131.427 20.8731 128.015 17.5059C124.604 14.1387 119.979 12.2438 115.154 12.2365Z" fill="black"/>
<path d="M145 29.6914H136.429V30.7351H145V29.6914Z" fill="#E2361B"/>
<path d="M115.683 50.8135H114.625V59.2732H115.683V50.8135Z" fill="#E2361B"/>
<path d="M115.683 0H114.625V8.45975H115.683V0Z" fill="#E2361B"/>
<path d="M118.98 28.4006C118.971 28.3914 118.961 28.3842 118.949 28.3792C118.937 28.3743 118.924 28.3717 118.911 28.3717C118.898 28.3717 118.885 28.3743 118.873 28.3792C118.861 28.3842 118.85 28.3914 118.841 28.4006C118.831 28.4146 118.826 28.4314 118.826 28.4486C118.826 28.4659 118.831 28.4827 118.841 28.4967L118.911 28.689C118.914 28.7084 118.924 28.7259 118.94 28.7385C118.955 28.7511 118.974 28.7579 118.994 28.7576C119.009 28.7403 119.017 28.7184 119.017 28.6958C119.017 28.6732 119.009 28.6514 118.994 28.634V28.4967C119.01 28.4772 119.019 28.453 119.019 28.428C119.019 28.4031 119.01 28.3789 118.994 28.3594" fill="black"/>
<path d="M118.883 30.0075C118.842 29.6963 118.777 29.3887 118.688 29.0874C118.673 29.0739 118.653 29.0664 118.633 29.0664C118.612 29.0664 118.592 29.0739 118.577 29.0874C118.562 29.1047 118.554 29.1266 118.554 29.1492C118.554 29.1718 118.562 29.1937 118.577 29.211C118.658 29.5033 118.714 29.802 118.744 30.1037C118.751 30.1354 118.751 30.1681 118.744 30.1998C118.747 30.2265 118.761 30.251 118.781 30.2687C118.802 30.2865 118.828 30.2961 118.855 30.2959C118.882 30.2926 118.907 30.2795 118.925 30.2593C118.943 30.239 118.953 30.213 118.953 30.1861C118.946 30.1497 118.946 30.1125 118.953 30.0762" fill="black"/>
<path d="M118.98 27.9612C118.99 27.9523 118.997 27.9416 119.002 27.9298C119.007 27.918 119.01 27.9054 119.01 27.8926C119.01 27.8798 119.007 27.8671 119.002 27.8553C118.997 27.8435 118.99 27.8329 118.98 27.8239C118.961 27.8083 118.936 27.7998 118.911 27.7998C118.886 27.7998 118.861 27.8083 118.841 27.8239C118.711 27.9749 118.567 28.1129 118.41 28.2359C118.37 28.2686 118.341 28.3121 118.327 28.3609C118.312 28.4097 118.312 28.4617 118.326 28.5106L118.396 28.7303C118.404 28.7497 118.417 28.7665 118.435 28.7787C118.452 28.7908 118.472 28.7979 118.493 28.799C118.508 28.7817 118.516 28.7598 118.516 28.7372C118.516 28.7146 118.508 28.6927 118.493 28.6754V28.4419C118.66 28.3096 118.813 28.1625 118.953 28.0024" fill="black"/>
<path d="M111.703 25.2829C111.735 25.2945 111.769 25.2945 111.801 25.2829C111.871 25.1322 111.95 24.9855 112.037 24.8434C112.053 24.824 112.062 24.7997 112.062 24.7748C112.062 24.7498 112.053 24.7256 112.037 24.7061C112.028 24.697 112.017 24.6897 112.005 24.6848C111.993 24.6798 111.981 24.6772 111.968 24.6772C111.955 24.6772 111.942 24.6798 111.93 24.6848C111.918 24.6897 111.907 24.697 111.898 24.7061C111.806 24.8479 111.723 24.9946 111.648 25.1456C111.638 25.1545 111.631 25.1652 111.626 25.177C111.621 25.1888 111.618 25.2015 111.618 25.2143C111.618 25.227 111.621 25.2397 111.626 25.2515C111.631 25.2633 111.638 25.2739 111.648 25.2829" fill="black"/>
<path d="M112.19 25.2832C112.203 25.2894 112.218 25.2925 112.232 25.2925C112.246 25.2925 112.261 25.2894 112.274 25.2832C112.694 24.5306 113.267 23.8714 113.957 23.3469C113.973 23.3274 113.982 23.3032 113.982 23.2782C113.982 23.2532 113.973 23.229 113.957 23.2095C113.948 23.2004 113.938 23.1931 113.926 23.1882C113.914 23.1832 113.901 23.1807 113.888 23.1807C113.875 23.1807 113.862 23.1832 113.85 23.1882C113.838 23.1931 113.827 23.2004 113.818 23.2095C113.148 23.7396 112.595 24.3984 112.19 25.1459C112.181 25.1549 112.174 25.1655 112.169 25.1773C112.164 25.1891 112.161 25.2018 112.161 25.2146C112.161 25.2274 112.164 25.24 112.169 25.2518C112.174 25.2636 112.181 25.2743 112.19 25.2832Z" fill="black"/>
<path d="M111.467 27.4529C111.492 27.45 111.515 27.4389 111.532 27.4215C111.55 27.404 111.561 27.3812 111.564 27.3568C111.656 26.7134 111.849 26.088 112.135 25.5027C112.15 25.4833 112.159 25.459 112.159 25.4341C112.159 25.4091 112.15 25.3849 112.135 25.3654C112.115 25.3498 112.09 25.3413 112.065 25.3413C112.04 25.3413 112.015 25.3498 111.995 25.3654C111.7 25.9686 111.499 26.6121 111.397 27.2744C111.397 27.3013 111.407 27.3273 111.425 27.3476C111.443 27.3678 111.468 27.3809 111.495 27.3842" fill="black"/>
<path d="M111.787 30.3096C111.796 30.3018 111.803 30.2923 111.808 30.2817C111.813 30.271 111.815 30.2595 111.815 30.2478C111.815 30.2361 111.813 30.2245 111.808 30.2139C111.803 30.2032 111.796 30.1937 111.787 30.186C111.508 29.4116 111.394 28.5887 111.453 27.7689C111.445 27.7479 111.431 27.7297 111.412 27.7169C111.393 27.7041 111.371 27.6973 111.348 27.6973C111.326 27.6973 111.304 27.7041 111.285 27.7169C111.266 27.7297 111.252 27.7479 111.244 27.7689C111.186 28.6134 111.309 29.4604 111.606 30.2546C111.614 30.2741 111.627 30.2908 111.644 30.303C111.662 30.3152 111.682 30.3222 111.703 30.3233" fill="black"/>
<path d="M117.756 29.2797C117.743 29.2829 117.731 29.2886 117.72 29.2967C117.709 29.3047 117.7 29.3149 117.694 29.3265C117.687 29.3381 117.683 29.351 117.682 29.3642C117.681 29.3774 117.682 29.3907 117.686 29.4033C117.893 30.1373 117.921 30.9088 117.77 31.6556C117.768 31.6824 117.776 31.7089 117.791 31.7312C117.806 31.7535 117.828 31.7703 117.853 31.7792C117.853 31.7792 117.951 31.7792 117.951 31.6968C118.102 30.9178 118.074 30.1151 117.867 29.3484C117.864 29.3355 117.858 29.3234 117.85 29.3128C117.842 29.3022 117.832 29.2935 117.82 29.287C117.808 29.2805 117.795 29.2766 117.782 29.2753C117.768 29.2741 117.755 29.2756 117.742 29.2797" fill="black"/>
<path d="M117.547 27.8648L117.464 27.9335C117.422 27.9821 117.394 28.0405 117.382 28.1031C117.369 28.1656 117.374 28.2302 117.394 28.2906L117.506 28.6339C117.522 28.7045 117.546 28.7735 117.575 28.8399C117.59 28.8472 117.607 28.851 117.624 28.851C117.641 28.851 117.657 28.8472 117.673 28.8399C117.686 28.8368 117.698 28.831 117.709 28.823C117.719 28.8149 117.728 28.8048 117.735 28.7932C117.741 28.7816 117.745 28.7687 117.747 28.7555C117.748 28.7423 117.746 28.7289 117.742 28.7163C117.715 28.6445 117.691 28.5711 117.673 28.4966C117.673 28.3593 117.589 28.2494 117.561 28.167C117.544 28.1404 117.535 28.1094 117.535 28.0777C117.535 28.0461 117.544 28.0151 117.561 27.9884C117.894 27.8109 118.189 27.5704 118.427 27.2805C118.666 26.9907 118.844 26.6572 118.953 26.2992C118.953 26.2738 118.942 26.2493 118.924 26.2313C118.906 26.2132 118.881 26.2031 118.855 26.2031C118.829 26.2031 118.805 26.2132 118.786 26.2313C118.768 26.2493 118.758 26.2738 118.758 26.2992C118.56 26.9604 118.118 27.5241 117.519 27.8786" fill="black"/>
<path d="M113.109 24.3902C113.093 24.4097 113.084 24.4339 113.084 24.4589C113.084 24.4839 113.093 24.5081 113.109 24.5276C113.12 24.5325 113.131 24.5351 113.143 24.5351C113.155 24.5351 113.167 24.5325 113.178 24.5276C113.205 24.537 113.235 24.537 113.262 24.5276C113.695 24.0154 114.212 23.579 114.792 23.2366L115.015 23.1268C115.024 23.1178 115.031 23.1071 115.036 23.0953C115.042 23.0835 115.044 23.0709 115.044 23.0581C115.044 23.0453 115.042 23.0327 115.036 23.0209C115.031 23.0091 115.024 22.9984 115.015 22.9894C114.995 22.9738 114.971 22.9653 114.945 22.9653C114.92 22.9653 114.895 22.9738 114.876 22.9894L114.639 23.113C114.027 23.4724 113.485 23.9376 113.039 24.4864" fill="black"/>
<path d="M112.26 25.9836C112.275 25.9909 112.292 25.9947 112.309 25.9947C112.325 25.9947 112.342 25.9909 112.357 25.9836C112.535 25.564 112.764 25.1674 113.039 24.8026C113.055 24.7831 113.063 24.7588 113.063 24.7339C113.063 24.7089 113.055 24.6847 113.039 24.6652C113.019 24.6496 112.995 24.6411 112.969 24.6411C112.944 24.6411 112.92 24.6496 112.9 24.6652C112.62 25.0393 112.387 25.445 112.204 25.8738C112.195 25.8815 112.188 25.891 112.183 25.9016C112.178 25.9123 112.176 25.9239 112.176 25.9356C112.176 25.9472 112.178 25.9588 112.183 25.9695C112.188 25.9801 112.195 25.9896 112.204 25.9973" fill="black"/>
<path d="M112.051 26.2717C111.882 26.7604 111.775 27.2678 111.731 27.7824C111.687 28.5601 111.796 29.3388 112.051 30.0759C112.059 30.0953 112.072 30.1121 112.09 30.1242C112.107 30.1364 112.127 30.1434 112.149 30.1445C112.162 30.1414 112.174 30.1356 112.185 30.1276C112.195 30.1195 112.204 30.1094 112.211 30.0978C112.217 30.0862 112.221 30.0733 112.223 30.0601C112.224 30.0469 112.222 30.0335 112.218 30.0209C111.959 29.3133 111.85 28.5607 111.898 27.8099C111.942 27.3132 112.049 26.8239 112.218 26.3541C112.224 26.3268 112.22 26.2984 112.208 26.2735C112.195 26.2486 112.174 26.2286 112.149 26.2168C112.136 26.2126 112.122 26.2111 112.109 26.2123C112.095 26.2136 112.082 26.2176 112.071 26.224C112.059 26.2305 112.049 26.2393 112.04 26.2498C112.032 26.2604 112.026 26.2725 112.023 26.2855" fill="black"/>
<path d="M112.19 30.5979C112.214 30.5851 112.232 30.5635 112.24 30.5377C112.248 30.512 112.245 30.4842 112.232 30.4605C112.219 30.4369 112.197 30.4192 112.171 30.4115C112.145 30.4038 112.117 30.4066 112.093 30.4193L111.954 30.5017L111.787 30.5979C111.771 30.6174 111.762 30.6416 111.762 30.6666C111.762 30.6915 111.771 30.7157 111.787 30.7352H111.87L112.023 30.6391H112.162" fill="black"/>
<path d="M117.339 29.0874C117.314 29.0967 117.294 29.1141 117.281 29.1367C117.268 29.1593 117.264 29.1856 117.269 29.211C117.599 30.1731 117.599 31.2154 117.269 32.1774C117.256 32.1957 117.25 32.2172 117.25 32.2392C117.25 32.2613 117.256 32.2828 117.269 32.301C117.29 32.2999 117.311 32.2929 117.328 32.2807C117.345 32.2686 117.358 32.2518 117.366 32.2324C117.718 31.2317 117.718 30.1431 117.366 29.1424C117.363 29.1295 117.357 29.1173 117.349 29.1068C117.341 29.0962 117.331 29.0874 117.319 29.0809C117.307 29.0745 117.294 29.0705 117.281 29.0693C117.267 29.068 117.254 29.0695 117.241 29.0737" fill="black"/>
<path d="M117.339 27.5217C117.253 27.5668 117.181 27.6331 117.13 27.714C117.054 27.8127 117.004 27.9276 116.982 28.0493C116.96 28.1711 116.968 28.2961 117.005 28.4144L117.116 28.7577C117.131 28.765 117.148 28.7688 117.165 28.7688C117.182 28.7688 117.198 28.765 117.213 28.7577C117.226 28.7368 117.232 28.7132 117.232 28.689C117.232 28.6649 117.226 28.6413 117.213 28.6204L117.102 28.2908C117.076 28.2001 117.071 28.1047 117.088 28.0118C117.105 27.919 117.143 27.8312 117.199 27.7552C117.24 27.6994 117.292 27.6526 117.352 27.6178C117.637 27.4544 117.886 27.2367 118.084 26.9773C118.282 26.7179 118.426 26.4221 118.507 26.1072C118.584 25.7587 118.584 25.3981 118.507 25.0497C118.498 25.0255 118.48 25.0054 118.457 24.9928C118.435 24.9803 118.408 24.9761 118.382 24.981C118.382 24.981 118.299 24.981 118.313 25.0909C118.381 25.4124 118.381 25.7445 118.313 26.066C118.238 26.3546 118.104 26.6252 117.92 26.8613C117.736 27.0974 117.505 27.294 117.241 27.4393" fill="black"/>
<path d="M112.329 26.7113C112.315 26.7286 112.307 26.7505 112.307 26.7731C112.307 26.7957 112.315 26.8175 112.329 26.8349C112.353 26.8351 112.376 26.8269 112.394 26.8117C112.412 26.7966 112.423 26.7755 112.427 26.7525C112.801 25.4055 113.695 24.2568 114.917 23.5526C115.27 23.3571 115.668 23.2532 116.072 23.2505C116.089 23.2566 116.107 23.2587 116.125 23.2564C116.143 23.2542 116.16 23.2478 116.175 23.2377C116.189 23.2275 116.201 23.214 116.21 23.1983C116.218 23.1826 116.222 23.1652 116.222 23.1475C116.222 23.1297 116.218 23.1123 116.21 23.0966C116.201 23.0809 116.189 23.0674 116.175 23.0573C116.16 23.0471 116.143 23.0407 116.125 23.0385C116.107 23.0362 116.089 23.0383 116.072 23.0445C115.627 23.0477 115.191 23.1661 114.806 23.3878C113.545 24.1196 112.622 25.3064 112.232 26.6975" fill="black"/>
<path d="M112.622 30.2134L112.594 30.2273L112.524 30.2552L112.622 30.2134Z" fill="black"/>
<path d="M112.329 27.8376C112.343 27.6436 112.371 27.4509 112.413 27.2608C112.417 27.2336 112.411 27.2059 112.396 27.183C112.38 27.1601 112.357 27.1438 112.329 27.1372C112.329 27.1372 112.218 27.1372 112.218 27.2196C112.176 27.4188 112.148 27.6207 112.135 27.8239C112.088 28.649 112.226 29.4742 112.538 30.2409H112.663C112.373 29.4925 112.24 28.6934 112.274 27.8925" fill="black"/>
<path d="M112.496 30.9138C112.512 30.8943 112.521 30.87 112.521 30.8451C112.521 30.8201 112.512 30.7959 112.496 30.7764C112.487 30.7673 112.476 30.76 112.465 30.7551C112.453 30.7501 112.44 30.7476 112.427 30.7476C112.414 30.7476 112.401 30.7501 112.389 30.7551C112.377 30.76 112.366 30.7673 112.357 30.7764L112.051 30.955L111.87 31.0648C111.854 31.0843 111.846 31.1085 111.846 31.1335C111.846 31.1585 111.854 31.1827 111.87 31.2022H111.954L112.121 31.106L112.441 30.9275" fill="black"/>
<path d="M116.935 28.8125C116.886 28.7023 116.848 28.5872 116.824 28.4692C116.776 28.3244 116.763 28.1705 116.788 28.02C116.812 27.8696 116.872 27.727 116.963 27.604C117.034 27.4972 117.129 27.4079 117.241 27.3431C117.614 27.1373 117.911 26.8199 118.09 26.4367C118.105 26.4193 118.113 26.3975 118.113 26.3749C118.113 26.3523 118.105 26.3304 118.09 26.313C118.082 26.3043 118.072 26.2973 118.062 26.2924C118.051 26.2876 118.039 26.2852 118.027 26.2852C118.015 26.2852 118.004 26.2876 117.993 26.2924C117.982 26.2973 117.973 26.3043 117.965 26.313C117.799 26.6569 117.532 26.9439 117.199 27.1371C117.061 27.2158 116.943 27.3237 116.852 27.4529C116.746 27.6005 116.676 27.7702 116.647 27.9487C116.618 28.1273 116.631 28.3101 116.685 28.4829C116.685 28.6203 116.768 28.7439 116.796 28.84C117.246 29.8885 117.276 31.0666 116.879 32.136C116.835 32.2511 116.779 32.3615 116.712 32.4656C116.697 32.4851 116.688 32.5093 116.688 32.5343C116.688 32.5592 116.697 32.5834 116.712 32.6029C116.725 32.6102 116.739 32.614 116.754 32.614C116.769 32.614 116.783 32.6102 116.796 32.6029C116.86 32.4879 116.916 32.3686 116.963 32.2459C117.407 31.1435 117.407 29.9149 116.963 28.8125" fill="black"/>
<path d="M118.034 25.97C118.03 25.9972 118.036 26.025 118.052 26.0478C118.067 26.0707 118.091 26.0871 118.118 26.0936C118.139 26.0945 118.161 26.0882 118.178 26.0758C118.196 26.0633 118.209 26.0455 118.215 26.0249C118.339 25.5073 118.26 24.9625 117.993 24.5005C117.983 24.4914 117.973 24.4841 117.961 24.4792C117.949 24.4742 117.936 24.4717 117.923 24.4717C117.91 24.4717 117.897 24.4742 117.885 24.4792C117.873 24.4841 117.862 24.4914 117.853 24.5005C117.844 24.5095 117.837 24.5202 117.832 24.532C117.827 24.5438 117.824 24.5564 117.824 24.5692C117.824 24.582 117.827 24.5947 117.832 24.6064C117.837 24.6182 117.844 24.6289 117.853 24.6379C118.102 25.0512 118.177 25.5441 118.062 26.0112" fill="black"/>
<path d="M115.112 23.7449C114.722 23.9637 114.366 24.2366 114.055 24.5552C114.046 24.5642 114.038 24.5748 114.033 24.5866C114.028 24.5984 114.026 24.6111 114.026 24.6239C114.026 24.6367 114.028 24.6493 114.033 24.6611C114.038 24.6729 114.046 24.6836 114.055 24.6925C114.055 24.6925 114.055 24.6925 114.124 24.6925C114.194 24.6925 114.124 24.6925 114.194 24.6925C114.501 24.3937 114.842 24.131 115.21 23.9097C115.502 23.7463 115.833 23.6611 116.17 23.6625C116.432 23.6646 116.692 23.7206 116.931 23.827C117.171 23.9334 117.385 24.0878 117.561 24.2805C117.57 24.2905 117.581 24.2985 117.594 24.3042C117.606 24.3099 117.619 24.3132 117.633 24.3138C117.646 24.3145 117.66 24.3125 117.673 24.3079C117.685 24.3034 117.697 24.2964 117.707 24.2874C117.717 24.2784 117.725 24.2675 117.731 24.2554C117.737 24.2432 117.74 24.2301 117.741 24.2167C117.742 24.2033 117.74 24.1899 117.735 24.1773C117.73 24.1647 117.723 24.1531 117.714 24.1432C117.515 23.9265 117.273 23.7534 117.002 23.6351C116.731 23.5168 116.438 23.456 116.142 23.4565C115.769 23.4565 115.404 23.5562 115.084 23.7449" fill="black"/>
<path d="M113.011 30.9822H113.081C113.149 30.9271 113.2 30.8538 113.227 30.771C113.254 30.6882 113.256 30.5994 113.234 30.5153C113.234 30.3642 113.136 30.2132 113.109 30.117C112.833 29.4176 112.705 28.6698 112.733 27.9197C112.813 26.8709 113.221 25.8726 113.902 25.0632C113.913 25.0557 113.923 25.0454 113.929 25.0335C113.936 25.0215 113.939 25.0081 113.939 24.9945C113.939 24.9809 113.936 24.9675 113.929 24.9555C113.923 24.9435 113.913 24.9333 113.902 24.9258C113.893 24.9167 113.882 24.9094 113.87 24.9045C113.858 24.8995 113.845 24.897 113.832 24.897C113.819 24.897 113.806 24.8995 113.794 24.9045C113.782 24.9094 113.772 24.9167 113.763 24.9258C113.051 25.7633 112.627 26.8019 112.552 27.8922C112.514 28.6653 112.642 29.4375 112.928 30.1582L113.053 30.5565C113.067 30.6033 113.066 30.653 113.051 30.6994C113.036 30.7458 113.008 30.7869 112.969 30.8174C112.77 30.9552 112.56 31.0791 112.343 31.1882L112.19 31.2844C112.181 31.2933 112.174 31.304 112.169 31.3158C112.164 31.3276 112.161 31.3403 112.161 31.3531C112.161 31.3658 112.164 31.3785 112.169 31.3903C112.174 31.4021 112.181 31.4128 112.19 31.4217C112.217 31.4324 112.247 31.4324 112.274 31.4217L112.413 31.3393C112.677 31.1882 112.9 31.0646 113.053 30.9548" fill="black"/>
<path d="M116.81 31.0512C116.797 31.0466 116.783 31.0453 116.769 31.0473C116.756 31.0494 116.743 31.0547 116.732 31.0629C116.721 31.071 116.712 31.0817 116.706 31.0941C116.7 31.1064 116.698 31.12 116.698 31.1336C116.656 31.4349 116.577 31.73 116.462 32.0125C116.367 32.2405 116.245 32.457 116.1 32.658C116.091 32.6669 116.084 32.6776 116.079 32.6894C116.074 32.7012 116.071 32.7138 116.071 32.7266C116.071 32.7394 116.074 32.7521 116.079 32.7639C116.084 32.7757 116.091 32.7863 116.1 32.7953C116.113 32.8025 116.127 32.8063 116.142 32.8063C116.157 32.8063 116.171 32.8025 116.184 32.7953C116.332 32.5772 116.462 32.3475 116.573 32.1086C116.697 31.8093 116.781 31.4954 116.824 31.1748C116.824 31.1748 116.824 31.0649 116.74 31.0649" fill="black"/>
<path d="M117.032 26.9996C117.041 26.9919 117.048 26.9824 117.053 26.9717C117.058 26.9611 117.061 26.9495 117.061 26.9378C117.061 26.9261 117.058 26.9146 117.053 26.9039C117.048 26.8933 117.041 26.8838 117.032 26.876C117.023 26.8669 117.013 26.8596 117.001 26.8547C116.989 26.8497 116.976 26.8472 116.963 26.8472C116.95 26.8472 116.937 26.8497 116.925 26.8547C116.913 26.8596 116.902 26.8669 116.893 26.876C116.665 27.0146 116.473 27.2055 116.335 27.4326C116.197 27.6597 116.116 27.9163 116.1 28.1807C116.125 28.4779 116.195 28.7696 116.309 29.0459C116.495 29.531 116.613 30.0395 116.657 30.5566C116.66 30.5833 116.673 30.6078 116.694 30.6255C116.714 30.6432 116.741 30.6529 116.768 30.6527C116.795 30.6493 116.82 30.6363 116.838 30.616C116.856 30.5958 116.866 30.5697 116.865 30.5428C116.811 30.0081 116.69 29.4822 116.504 28.9772C116.416 28.7156 116.369 28.4424 116.365 28.167C116.378 27.9352 116.446 27.7098 116.565 27.5093C116.684 27.3088 116.848 27.1388 117.046 27.0134" fill="black"/>
<path d="M117.394 26.5879H117.464C117.668 26.3205 117.789 25.9999 117.812 25.6656C117.834 25.3313 117.756 24.9978 117.589 24.7064C117.434 24.4527 117.216 24.2424 116.955 24.0957C116.695 23.9491 116.4 23.8709 116.1 23.8687C115.801 23.8694 115.508 23.9501 115.251 24.1021C114.517 24.5207 113.911 25.1283 113.498 25.86C113.482 25.8795 113.474 25.9037 113.474 25.9287C113.474 25.9536 113.482 25.9778 113.498 25.9973C113.507 26.0065 113.518 26.0137 113.53 26.0187C113.542 26.0236 113.555 26.0262 113.568 26.0262C113.581 26.0262 113.594 26.0236 113.606 26.0187C113.617 26.0137 113.628 26.0065 113.637 25.9973C114.042 25.3007 114.622 24.7189 115.321 24.3081C115.551 24.182 115.809 24.1158 116.072 24.1159C116.338 24.1133 116.599 24.1807 116.829 24.3111C117.058 24.4414 117.249 24.6301 117.38 24.8575C117.528 25.1119 117.597 25.4031 117.58 25.6958C117.563 25.9884 117.459 26.2697 117.283 26.5055C117.274 26.5144 117.266 26.5251 117.261 26.5369C117.256 26.5487 117.254 26.5613 117.254 26.5741C117.254 26.5869 117.256 26.5996 117.261 26.6114C117.266 26.6232 117.274 26.6338 117.283 26.6428" fill="black"/>
<path d="M113.679 30.914C113.679 30.7904 113.679 30.5294 113.484 30.0075C113.228 29.3561 113.109 28.6597 113.136 27.9613C113.18 27.431 113.312 26.9114 113.526 26.4231C113.542 26.4037 113.55 26.3794 113.55 26.3545C113.55 26.3295 113.542 26.3053 113.526 26.2858C113.506 26.2702 113.482 26.2617 113.456 26.2617C113.431 26.2617 113.407 26.2702 113.387 26.2858C113.162 26.7951 113.025 27.3384 112.983 27.8926C112.955 28.6135 113.073 29.3327 113.331 30.0075C113.436 30.2534 113.506 30.5121 113.54 30.7766C113.415 31.065 112.733 31.4358 112.51 31.5594H112.413C112.397 31.5789 112.388 31.6031 112.388 31.6281C112.388 31.6531 112.397 31.6773 112.413 31.6968C112.426 31.7029 112.44 31.706 112.455 31.706C112.469 31.706 112.483 31.7029 112.496 31.6968H112.58C113.025 31.4496 113.568 31.1337 113.693 30.8316" fill="black"/>
<path d="M116.17 29.0597C116.043 28.7582 115.968 28.438 115.947 28.1121C115.966 27.879 116.028 27.6511 116.128 27.4392C116.143 27.4219 116.151 27.4 116.151 27.3774C116.151 27.3548 116.143 27.3329 116.128 27.3156C116.108 27.3 116.084 27.2915 116.058 27.2915C116.033 27.2915 116.009 27.3 115.989 27.3156C115.889 27.5526 115.824 27.8022 115.794 28.0572C115.818 28.4106 115.898 28.7582 116.031 29.0872C116.42 29.9555 116.46 30.9376 116.142 31.8339C115.987 32.1961 115.765 32.5267 115.488 32.8089C115.472 32.8284 115.464 32.8526 115.464 32.8776C115.464 32.9026 115.472 32.9268 115.488 32.9463H115.571C115.858 32.6502 116.089 32.3061 116.253 31.93C116.593 30.9913 116.558 29.9603 116.156 29.046" fill="black"/>
<path d="M117.436 25.8735C117.481 25.7108 117.494 25.5409 117.472 25.3736C117.451 25.2062 117.396 25.0447 117.311 24.8984C117.189 24.7063 117.021 24.5469 116.822 24.4342C116.623 24.3216 116.399 24.2593 116.17 24.2529C115.94 24.2583 115.716 24.3196 115.516 24.4315C115.503 24.4368 115.492 24.4448 115.482 24.4548C115.473 24.4649 115.466 24.4767 115.462 24.4897C115.457 24.5026 115.456 24.5163 115.457 24.5299C115.459 24.5434 115.463 24.5565 115.47 24.5683C115.477 24.5801 115.486 24.5903 115.498 24.5982C115.509 24.6061 115.522 24.6115 115.535 24.6142C115.549 24.6168 115.563 24.6166 115.576 24.6135C115.59 24.6104 115.602 24.6045 115.613 24.5963C115.784 24.5044 115.975 24.4572 116.17 24.4589C116.363 24.4568 116.554 24.5052 116.723 24.5993C116.891 24.6934 117.032 24.8297 117.13 24.9945C117.205 25.1167 117.254 25.2531 117.273 25.395C117.293 25.5368 117.282 25.6811 117.241 25.8185C117.207 25.9599 117.144 26.0927 117.056 26.2086C116.967 26.3245 116.855 26.4208 116.726 26.4915C116.547 26.5972 116.387 26.7318 116.253 26.8898C116.244 26.8987 116.237 26.9094 116.232 26.9212C116.227 26.933 116.224 26.9456 116.224 26.9584C116.224 26.9712 116.227 26.9839 116.232 26.9956C116.237 27.0074 116.244 27.0181 116.253 27.0271H116.323C116.35 27.0365 116.379 27.0365 116.406 27.0271C116.53 26.8866 116.676 26.7661 116.838 26.67C116.987 26.5874 117.117 26.4752 117.22 26.3404C117.323 26.2057 117.396 26.0514 117.436 25.8872" fill="black"/>
<path d="M115.112 24.9397C115.122 24.9308 115.129 24.9201 115.134 24.9083C115.139 24.8965 115.141 24.8839 115.141 24.8711C115.141 24.8583 115.139 24.8456 115.134 24.8338C115.129 24.822 115.122 24.8114 115.112 24.8024C115.093 24.7868 115.068 24.7783 115.043 24.7783C115.017 24.7783 114.993 24.7868 114.973 24.8024C114.501 25.1873 114.111 25.6613 113.827 26.1965C113.543 26.7318 113.369 27.3177 113.317 27.9199C113.317 28.0572 113.317 28.1945 113.317 28.3319C113.317 28.3574 113.328 28.3818 113.346 28.3999C113.364 28.4179 113.389 28.428 113.415 28.428C113.442 28.4247 113.467 28.4116 113.485 28.3914C113.503 28.3711 113.512 28.3451 113.512 28.3182C113.505 28.1947 113.505 28.0709 113.512 27.9473C113.557 27.3697 113.719 26.8068 113.989 26.2924C114.26 25.778 114.632 25.3227 115.084 24.9535" fill="black"/>
<path d="M114.055 30.9963C114.118 30.5936 114.055 30.1814 113.874 29.8152C113.755 29.4887 113.662 29.1535 113.596 28.8127C113.589 28.786 113.572 28.7627 113.549 28.7475C113.526 28.7322 113.498 28.7261 113.47 28.7303C113.47 28.7303 113.387 28.7303 113.387 28.8402C113.46 29.1897 113.558 29.5338 113.679 29.8702C113.844 30.1974 113.907 30.5653 113.86 30.9276C113.561 31.353 113.146 31.6863 112.663 31.889C112.648 31.9085 112.639 31.9327 112.639 31.9576C112.639 31.9826 112.648 32.0068 112.663 32.0263C112.676 32.0335 112.69 32.0374 112.705 32.0374C112.72 32.0374 112.734 32.0335 112.747 32.0263C113.272 31.7974 113.721 31.4259 114.041 30.9551" fill="black"/>
<path d="M115.78 29.1833C115.695 28.95 115.625 28.7114 115.571 28.4692C115.565 28.445 115.551 28.4237 115.53 28.4087C115.51 28.3937 115.485 28.386 115.46 28.3868C115.433 28.3933 115.409 28.4097 115.394 28.4325C115.379 28.4554 115.372 28.4832 115.377 28.5104C115.43 28.7617 115.5 29.0093 115.585 29.252C115.944 30.0254 115.989 30.9052 115.711 31.7102C115.524 32.1364 115.238 32.5129 114.876 32.8089C114.856 32.8293 114.845 32.8563 114.845 32.8844C114.845 32.9125 114.856 32.9396 114.876 32.96H114.945C115.334 32.6394 115.643 32.2354 115.85 31.7789C116.143 30.9293 116.098 30.0016 115.724 29.1833" fill="black"/>
<path d="M115.446 28.167C115.472 28.167 115.497 28.1568 115.515 28.1388C115.533 28.1208 115.544 28.0963 115.544 28.0708C115.569 27.7117 115.681 27.3636 115.869 27.0555C116.058 26.7475 116.318 26.4882 116.629 26.2992C116.733 26.2449 116.825 26.1689 116.897 26.0764C116.969 25.984 117.02 25.8773 117.046 25.7636C117.086 25.6308 117.093 25.4907 117.067 25.3546C117.041 25.2186 116.983 25.0904 116.898 24.9807C116.813 24.8709 116.702 24.7826 116.576 24.723C116.449 24.6633 116.31 24.634 116.17 24.6375C116.013 24.6379 115.859 24.6807 115.724 24.7611C115.544 24.8628 115.372 24.9775 115.21 25.1044C115.2 25.1134 115.193 25.124 115.188 25.1358C115.183 25.1476 115.18 25.1603 115.18 25.1731C115.18 25.1859 115.183 25.1985 115.188 25.2103C115.193 25.2221 115.2 25.2328 115.21 25.2417C115.219 25.2509 115.23 25.2581 115.241 25.2631C115.253 25.2681 115.266 25.2706 115.279 25.2706C115.292 25.2706 115.305 25.2681 115.317 25.2631C115.329 25.2581 115.34 25.2509 115.349 25.2417C115.502 25.1151 115.665 25.0004 115.836 24.8984C115.943 24.8437 116.063 24.8154 116.184 24.816C116.307 24.8143 116.429 24.8453 116.537 24.9056C116.645 24.966 116.734 25.0535 116.796 25.1594C116.845 25.2363 116.876 25.3227 116.888 25.4128C116.9 25.5028 116.893 25.5944 116.865 25.6812C116.845 25.7702 116.806 25.854 116.751 25.9272C116.696 26.0005 116.626 26.0617 116.545 26.107C116.204 26.307 115.917 26.587 115.711 26.9224C115.504 27.2577 115.385 27.6379 115.363 28.0296C115.358 28.0424 115.357 28.0562 115.359 28.0696C115.361 28.0831 115.366 28.0958 115.375 28.1067C115.383 28.1176 115.394 28.1262 115.406 28.132C115.419 28.1377 115.432 28.1403 115.446 28.1395" fill="black"/>
<path d="M114.097 31.3121C114.087 31.3211 114.08 31.3318 114.075 31.3436C114.07 31.3553 114.067 31.368 114.067 31.3808C114.067 31.3936 114.07 31.4062 114.075 31.418C114.08 31.4298 114.087 31.4405 114.097 31.4495C114.124 31.4589 114.153 31.4589 114.18 31.4495C114.239 31.3623 114.29 31.2704 114.333 31.1748C114.458 30.6811 114.399 30.1594 114.166 29.7053C113.947 29.1546 113.843 28.5662 113.86 27.9749C113.927 27.1313 114.269 26.3317 114.834 25.6952C114.854 25.6748 114.864 25.6478 114.864 25.6197C114.864 25.5916 114.854 25.5645 114.834 25.5441C114.814 25.5285 114.79 25.52 114.764 25.52C114.739 25.52 114.715 25.5285 114.695 25.5441C114.097 26.214 113.736 27.0574 113.665 27.9475C113.651 28.5621 113.76 29.1735 113.985 29.7465C114.214 30.167 114.278 30.6557 114.166 31.1199C114.13 31.2034 114.084 31.2819 114.027 31.3533" fill="black"/>
<path d="M114.027 31.5592C114.007 31.5436 113.983 31.5351 113.957 31.5351C113.932 31.5351 113.908 31.5436 113.888 31.5592C113.623 31.7963 113.328 31.9993 113.011 32.1635C113.002 32.1724 112.995 32.1831 112.99 32.1949C112.985 32.2067 112.982 32.2194 112.982 32.2322C112.982 32.2449 112.985 32.2576 112.99 32.2694C112.995 32.2812 113.002 32.2919 113.011 32.3008C113.024 32.3069 113.039 32.3101 113.053 32.3101C113.067 32.3101 113.082 32.3069 113.095 32.3008C113.425 32.1273 113.734 31.9152 114.013 31.6691C114.022 31.6601 114.03 31.6494 114.035 31.6376C114.04 31.6259 114.042 31.6132 114.042 31.6004C114.042 31.5876 114.04 31.575 114.035 31.5632C114.03 31.5514 114.022 31.5407 114.013 31.5317" fill="black"/>
<path d="M115.53 31.6278C115.746 31.0423 115.746 30.4005 115.53 29.815C115.512 29.8004 115.49 29.7925 115.467 29.7925C115.444 29.7925 115.422 29.8004 115.404 29.815C115.381 29.8214 115.361 29.8363 115.348 29.8566C115.335 29.8769 115.331 29.9013 115.335 29.9248C115.537 30.4702 115.537 31.0686 115.335 31.614C115.108 32.0896 114.758 32.4972 114.319 32.7951C114.302 32.8167 114.293 32.8433 114.293 32.8706C114.293 32.898 114.302 32.9245 114.319 32.9462H114.403C114.872 32.6283 115.247 32.192 115.488 31.6827" fill="black"/>
<path d="M115.404 29.3209C115.237 28.9199 115.147 28.4913 115.14 28.0575C115.17 27.6325 115.303 27.2209 115.528 26.8575C115.754 26.4941 116.064 26.1897 116.434 25.97C116.492 25.9396 116.542 25.8967 116.581 25.8443C116.619 25.792 116.645 25.7316 116.657 25.6679C116.684 25.6098 116.698 25.5465 116.698 25.4825C116.698 25.4184 116.684 25.3551 116.657 25.2971C116.587 25.1836 116.476 25.1015 116.346 25.0681C116.216 25.0348 116.078 25.0528 115.961 25.1185C115.547 25.3616 115.186 25.6834 114.9 26.0654C114.613 26.4473 114.406 26.8817 114.291 27.3433C114.291 27.356 114.294 27.3685 114.299 27.3801C114.304 27.3918 114.311 27.4024 114.32 27.4113C114.329 27.4202 114.34 27.4273 114.351 27.4322C114.363 27.437 114.376 27.4395 114.389 27.4395C114.402 27.4395 114.414 27.437 114.426 27.4322C114.438 27.4273 114.449 27.4202 114.458 27.4113C114.467 27.4024 114.474 27.3918 114.479 27.3801C114.484 27.3685 114.486 27.356 114.486 27.3433C114.707 26.4614 115.272 25.7013 116.058 25.2284C116.129 25.1885 116.212 25.1777 116.29 25.1982C116.368 25.2188 116.435 25.2692 116.476 25.3383C116.493 25.3748 116.502 25.4146 116.502 25.455C116.502 25.4953 116.493 25.5352 116.476 25.5717C116.466 25.6092 116.449 25.6443 116.425 25.675C116.401 25.7056 116.371 25.7312 116.337 25.7503C115.934 25.979 115.595 26.3037 115.352 26.6948C115.109 27.0858 114.969 27.5307 114.945 27.9888C114.937 28.4597 115.027 28.9272 115.21 29.3621L115.404 29.3209Z" fill="black"/>
<path d="M114.806 30.8041C114.833 30.8008 114.858 30.7877 114.876 30.7675C114.894 30.7472 114.904 30.7212 114.904 30.6943C114.864 30.3093 114.775 29.931 114.639 29.5681C114.433 29.0666 114.329 28.53 114.333 27.9888C114.333 27.9888 114.333 27.8926 114.25 27.8789C114.222 27.8787 114.196 27.8884 114.175 27.9061C114.155 27.9238 114.142 27.9484 114.138 27.9751C114.125 28.5393 114.229 29.1002 114.444 29.6231C114.58 29.9718 114.669 30.3365 114.709 30.708C114.709 30.7335 114.719 30.7579 114.737 30.776C114.756 30.794 114.78 30.8041 114.806 30.8041Z" fill="black"/>
<path d="M114.792 31.3121C114.792 31.3121 114.792 31.2023 114.792 31.1885C114.784 31.1798 114.775 31.1727 114.764 31.1679C114.753 31.1631 114.741 31.1606 114.73 31.1606C114.718 31.1606 114.706 31.1631 114.695 31.1679C114.684 31.1727 114.675 31.1798 114.667 31.1885C114.394 31.6872 113.971 32.0901 113.456 32.3421C113.441 32.3616 113.432 32.3858 113.432 32.4108C113.432 32.4358 113.441 32.46 113.456 32.4795C113.469 32.4884 113.483 32.4932 113.498 32.4932C113.513 32.4932 113.528 32.4884 113.54 32.4795C114.089 32.2012 114.54 31.7656 114.834 31.2297" fill="black"/>
<path d="M114.639 28.167C114.663 28.1672 114.686 28.159 114.704 28.1439C114.722 28.1287 114.733 28.1076 114.737 28.0846C114.772 27.5956 114.925 27.1222 115.184 26.7039C115.444 26.2857 115.8 25.935 116.225 25.6813C116.24 25.6639 116.248 25.6421 116.248 25.6195C116.248 25.5969 116.24 25.575 116.225 25.5577C116.216 25.5485 116.206 25.5413 116.194 25.5363C116.182 25.5314 116.169 25.5288 116.156 25.5288C116.143 25.5288 116.13 25.5314 116.118 25.5363C116.106 25.5413 116.095 25.5485 116.086 25.5577C115.633 25.823 115.253 26.1927 114.976 26.6352C114.7 27.0777 114.537 27.5798 114.5 28.0983C114.5 28.1252 114.51 28.1513 114.528 28.1715C114.546 28.1918 114.57 28.2048 114.597 28.2082" fill="black"/>
<path d="M115.154 31.4629C115.37 30.797 115.32 30.0751 115.015 29.4441C114.931 29.1694 114.834 28.8811 114.778 28.6064C114.772 28.5822 114.758 28.5609 114.737 28.5459C114.717 28.5309 114.692 28.5232 114.667 28.524C114.64 28.5305 114.616 28.5469 114.601 28.5697C114.585 28.5926 114.579 28.6204 114.584 28.6476C114.648 28.9352 114.727 29.2194 114.82 29.4991C115.118 30.0874 115.173 30.7668 114.973 31.3943C114.729 31.8961 114.336 32.3127 113.846 32.5891C113.837 32.598 113.829 32.6087 113.824 32.6205C113.819 32.6323 113.817 32.6449 113.817 32.6577C113.817 32.6705 113.819 32.6832 113.824 32.695C113.829 32.7068 113.837 32.7175 113.846 32.7264C113.862 32.7328 113.878 32.7361 113.895 32.7361C113.912 32.7361 113.928 32.7328 113.944 32.7264C114.475 32.4332 114.899 31.9813 115.154 31.4355" fill="black"/>
<path d="M117.213 38.1515V37.0528C117.228 36.549 117.049 36.0582 116.712 35.6795C116.522 35.4578 116.286 35.2792 116.019 35.1559C115.753 35.0327 115.462 34.9677 115.168 34.9653C114.621 34.969 114.097 35.1862 113.711 35.5695C113.325 35.9529 113.109 36.4713 113.109 37.0116V38.1103H112.538V42.4775H117.756V38.1103L117.213 38.1515ZM115.516 40.3626V41.3376H114.834V40.3626C114.762 40.3071 114.703 40.2364 114.662 40.1556C114.621 40.0748 114.599 39.9859 114.597 39.8956C114.597 39.8205 114.613 39.7461 114.642 39.6769C114.672 39.6077 114.715 39.545 114.769 39.4925C114.824 39.4401 114.888 39.3989 114.959 39.3714C115.03 39.3439 115.106 39.3307 115.182 39.3326C115.333 39.3326 115.478 39.3919 115.585 39.4975C115.692 39.6031 115.752 39.7463 115.752 39.8956C115.748 39.9869 115.724 40.0761 115.68 40.1568C115.637 40.2376 115.576 40.3078 115.502 40.3626M116.212 38.1515H113.999V36.9567C113.982 36.803 113.997 36.6474 114.045 36.5001C114.092 36.3528 114.171 36.2171 114.275 36.1018C114.38 35.9865 114.508 35.8943 114.651 35.8311C114.794 35.768 114.949 35.7354 115.105 35.7354C115.262 35.7354 115.417 35.768 115.56 35.8311C115.703 35.8943 115.831 35.9865 115.935 36.1018C116.04 36.2171 116.118 36.3528 116.166 36.5001C116.213 36.6474 116.229 36.803 116.212 36.9567V38.1515Z" fill="black"/>
<path d="M118.591 42.5046C118.52 42.5041 118.45 42.4892 118.386 42.4608C118.321 42.4325 118.263 42.3913 118.215 42.3398C118.119 42.2424 118.065 42.1118 118.065 41.9759C118.065 41.8399 118.119 41.7093 118.215 41.6119C124.351 35.6654 125.492 26.9172 125.854 23.4015C122.117 23.3134 118.456 22.3383 115.182 20.5587C111.23 23.2367 104.176 23.429 103.87 23.429C103.735 23.429 103.607 23.3774 103.51 23.285C103.414 23.1927 103.358 23.0669 103.355 22.9346C103.351 22.8656 103.361 22.7965 103.386 22.7316C103.41 22.6668 103.447 22.6075 103.495 22.5574C103.544 22.5072 103.602 22.4673 103.666 22.4401C103.73 22.4129 103.8 22.3989 103.87 22.399C103.939 22.399 111.216 22.2067 114.848 19.5424L115.112 19.3364L115.404 19.5012C118.782 21.3795 122.589 22.3768 126.466 22.399H127.009V22.9346C126.689 26.1207 125.757 35.789 119.008 42.3261C118.907 42.4213 118.773 42.4752 118.633 42.4771" fill="#E2361B"/>
<path d="M111.731 42.505C111.591 42.5045 111.456 42.4503 111.355 42.3539C104.607 35.8168 103.661 26.1486 103.355 22.9624V22.4268H103.897C107.775 22.4071 111.582 21.4096 114.959 19.5291L115.251 19.3643L115.53 19.5703C119.161 22.2345 126.438 22.4268 126.508 22.4268C126.584 22.4146 126.661 22.4187 126.735 22.439C126.809 22.4592 126.877 22.4951 126.936 22.5441C126.994 22.5931 127.041 22.654 127.073 22.7227C127.106 22.7914 127.122 22.8661 127.122 22.9418C127.122 23.0175 127.106 23.0922 127.073 23.1609C127.041 23.2296 126.994 23.2905 126.936 23.3395C126.877 23.3885 126.809 23.4244 126.735 23.4446C126.661 23.4649 126.584 23.469 126.508 23.4568C126.202 23.4568 119.161 23.2645 115.196 20.5865C111.927 22.368 108.27 23.3433 104.537 23.4293C104.899 26.9451 106.04 35.6932 112.176 41.6398C112.226 41.6871 112.265 41.7437 112.291 41.8062C112.318 41.8687 112.332 41.9359 112.332 42.0037C112.332 42.0715 112.318 42.1387 112.291 42.2012C112.265 42.2637 112.226 42.3203 112.176 42.3676C112.131 42.4187 112.076 42.4598 112.013 42.4882C111.951 42.5166 111.883 42.5317 111.815 42.5325" fill="#E2361B"/>
<path d="M53.6532 10.8906H46.2509V49.7148H53.6532V10.8906Z" fill="black"/>
<path d="M21.4975 10.877V49.7149H28.8859V23.5666L44.8038 46.7897V34.8966L28.3015 10.877H21.4975Z" fill="black"/>
<path d="M67.7483 49.7147H75.1507V33.3582H86.5742L88.9675 27.0684H67.7483V49.7147Z" fill="black"/>
<path d="M67.7483 25.6952H75.1507V17.2767H89.7049L92.0982 10.9868H67.7483V25.6952Z" fill="black"/>
<path d="M7.40236 10.9316H0V49.7009H7.40236V10.9316Z" fill="black"/>
<path d="M4.31342 56.7872H3.93775C3.82591 56.8071 3.7179 56.8442 3.61771 56.8971C3.52963 56.9374 3.45311 56.9988 3.39508 57.0757C3.33892 57.1512 3.30958 57.2429 3.3116 57.3366C3.3053 57.4648 3.34466 57.5911 3.42289 57.6936C3.52259 57.7992 3.64674 57.8793 3.78468 57.9271C3.97269 58.0098 4.16843 58.0742 4.36909 58.1194C4.61955 58.1194 4.8978 58.2705 5.20391 58.3803C5.59139 58.5064 5.96448 58.6721 6.31707 58.8747C6.64152 59.0544 6.93312 59.2865 7.17975 59.5614C7.41655 59.8247 7.60489 60.1268 7.73631 60.454C7.87411 60.804 7.94033 61.1774 7.93113 61.5527C7.93887 62.0293 7.82902 62.5007 7.61108 62.9261C7.40057 63.3375 7.10699 63.702 6.74841 63.9973C6.3809 64.3013 5.96158 64.5384 5.51002 64.6977C5.03714 64.8673 4.53826 64.9555 4.03512 64.9586C3.61926 64.9585 3.20606 64.8936 2.81071 64.7663C2.42641 64.6465 2.06449 64.4656 1.73928 64.2307C1.41278 64.0095 1.12195 63.741 0.87661 63.4342C0.641158 63.1222 0.449273 62.7804 0.306122 62.4179L1.07143 61.9785C1.19479 61.9096 1.32543 61.8543 1.46103 61.8137C1.60408 61.7936 1.7493 61.7936 1.89236 61.8137C2.08968 61.8104 2.28505 61.8527 2.46285 61.9373C2.63288 62.0201 2.79572 62.1166 2.94981 62.2257L3.45075 62.5003C3.63076 62.5938 3.83172 62.6411 4.03512 62.6377C4.19965 62.6341 4.36316 62.611 4.52213 62.569C4.69338 62.523 4.85731 62.4537 5.00913 62.363C5.15501 62.2843 5.28288 62.1768 5.3848 62.0471C5.48206 61.9161 5.53114 61.7562 5.52395 61.5939C5.53084 61.4526 5.48081 61.3144 5.3848 61.2094C5.28829 61.0938 5.16392 61.0041 5.02306 60.9484C4.85492 60.861 4.67762 60.792 4.49431 60.7425L3.85427 60.509C3.4925 60.3717 3.13071 60.2343 2.78285 60.0695C2.44311 59.9135 2.12512 59.7151 1.83669 59.479C1.55784 59.2394 1.32665 58.9506 1.15491 58.6275C0.97079 58.2316 0.880379 57.7995 0.890537 57.364C0.883377 56.9302 0.983671 56.5012 1.18272 56.1143C1.37529 55.7578 1.64059 55.4445 1.96192 55.1942C2.28666 54.9406 2.65401 54.7454 3.04722 54.6174C3.45675 54.4894 3.88385 54.4245 4.31342 54.4251C4.62172 54.4204 4.92827 54.4716 5.21784 54.5762C5.51745 54.6771 5.80272 54.8156 6.06663 54.9882C6.32735 55.156 6.57396 55.3443 6.80408 55.5512C7.0302 55.7493 7.23959 55.9651 7.43019 56.1967L6.69274 56.8147C6.5592 56.9348 6.40326 57.0281 6.23359 57.0894C6.05838 57.1455 5.87511 57.1733 5.69092 57.1718C5.55691 57.188 5.42143 57.188 5.28743 57.1718C5.17184 57.1369 5.05997 57.0909 4.95346 57.0345L4.64735 56.9108C4.53694 56.891 4.42383 56.891 4.31342 56.9108" fill="#E2361B"/>
<path d="M30.2495 64.904H27.8563V60.7977H23.1672V64.904H20.7739V54.5078H23.1672V58.5729H27.8563V54.5078H30.2495V64.904Z" fill="#E2361B"/>
<path d="M46.5013 54.5078H44.0941V64.904H46.5013V54.5078Z" fill="#E2361B"/>
<path d="M67.3587 64.904H60.3459V54.5078H67.3587V56.7326H62.7392V58.5454H66.496V60.7702H62.7392V62.6792H67.3587V64.904Z" fill="#E2361B"/>
<path d="M80.4241 64.904V54.5078H82.8174V62.6792H86.9777V64.904H80.4241Z" fill="#E2361B"/>
<path d="M99.584 64.9041V54.5079H103.939C104.409 54.505 104.877 54.5651 105.331 54.6865C105.776 54.8052 106.202 54.9855 106.597 55.2221C106.989 55.444 107.349 55.7165 107.668 56.0323C107.997 56.3433 108.278 56.6995 108.503 57.0898C108.74 57.4755 108.923 57.8914 109.046 58.3258C109.303 59.2238 109.303 60.1745 109.046 61.0725C108.923 61.5069 108.74 61.9228 108.503 62.3085C108.278 62.6988 107.997 63.0549 107.668 63.3659C107.349 63.6818 106.989 63.9542 106.597 64.1762C106.202 64.4083 105.775 64.584 105.331 64.6981C104.878 64.8241 104.41 64.8888 103.939 64.8904L99.584 64.9041ZM103.939 62.5145C104.317 62.5188 104.692 62.4439 105.038 62.2947C105.386 62.1616 105.703 61.9607 105.971 61.7042C106.235 61.4403 106.451 61.1337 106.611 60.7978C106.767 60.4545 106.848 60.0824 106.848 59.706C106.848 59.3296 106.767 58.9575 106.611 58.6142C106.451 58.2783 106.235 57.9717 105.971 57.7078C105.699 57.4524 105.384 57.2477 105.038 57.1035C104.69 56.9609 104.317 56.8863 103.939 56.8838H101.991V62.5007L103.939 62.5145Z" fill="#E2361B"/>
</g>
<defs>
<clipPath id="clip0_8_11396">
<rect width="145" height="65" fill="white"/>
</clipPath>
</defs>
</svg>
