<svg width="235" height="63" viewBox="0 0 235 63" fill="none" xmlns="http://www.w3.org/2000/svg">
<g clip-path="url(#clip0_8_11290)">
<path d="M133.146 62.2856L149.264 51.4919L149.5 0.634766L133.917 28.1903L133.146 62.2856Z" fill="url(#paint0_linear_8_11290)"/>
<path d="M116.729 62.9999L100.091 51.73L100.249 16.4443L116.729 30.5872V62.9999Z" fill="url(#paint1_linear_8_11290)"/>
<path d="M12.5134 26.8569V41.9839H11.2699V30.4919L6.28031 36.7141L1.25921 30.4125V41.9839H0V26.8252L6.26457 34.6506L12.5134 26.8569Z" fill="black"/>
<path d="M25.2629 27.3809H24.0037V41.9682H25.2629V27.3809Z" fill="black"/>
<path d="M48.0703 27.3494V42.2066L38.3587 30.524V41.9843H37.1152V27.1431L46.8111 38.8256V27.3494H48.0703Z" fill="black"/>
<path d="M59.5921 41.984V27.3809H67.9816V28.6666H60.8513V32.7618H65.652V34.0475H60.8513V40.6983H68.4695V41.984H59.5921Z" fill="black"/>
<path d="M79.7552 36.4128V41.9683H78.5117V27.381H82.6514C83.2496 27.3753 83.8414 27.5055 84.3828 27.762C84.9043 28.0098 85.3785 28.3483 85.7836 28.762C86.1715 29.1874 86.4854 29.6758 86.7123 30.2064C86.9305 30.7345 87.0429 31.301 87.0429 31.8731C87.0484 32.3184 86.9901 32.7621 86.8697 33.1905C86.765 33.6094 86.5893 34.0068 86.3503 34.3652C86.1144 34.7273 85.8282 35.0534 85.5003 35.3334C85.1706 35.6175 84.7988 35.8478 84.3985 36.016L85.28 37.1747L86.1771 38.3493L88.9317 41.9683H87.3577L83.1079 36.4128H79.7552ZM79.7552 28.6668V35.1112H82.6514C83.079 35.1162 83.5029 35.0296 83.8949 34.8572C84.2686 34.7012 84.6062 34.4688 84.8864 34.1747C85.3282 33.7148 85.6264 33.1342 85.7439 32.5049C85.8614 31.8757 85.7931 31.2255 85.5476 30.635C85.3959 30.251 85.1713 29.9005 84.8864 29.6033C84.6071 29.3041 84.2696 29.0663 83.8949 28.9048C83.5029 28.7324 83.079 28.6458 82.6514 28.6509L79.7552 28.6668Z" fill="black"/>
<path d="M172.402 40.1111C171.672 40.7232 170.855 41.2209 169.978 41.5873C169.128 41.9374 168.219 42.1153 167.302 42.1111C166.31 42.1151 165.329 41.9097 164.421 41.508C163.555 41.1266 162.766 40.5887 162.092 39.9207C161.415 39.2471 160.879 38.4427 160.518 37.5556C160.137 36.6467 159.944 35.6691 159.951 34.6826C159.943 33.7048 160.128 32.7353 160.496 31.8305C160.863 30.9258 161.406 30.1039 162.092 29.4127C162.762 28.7395 163.552 28.2009 164.421 27.8254C165.33 27.4287 166.311 27.2287 167.302 27.2381C168.114 27.2391 168.92 27.3898 169.679 27.6826C170.515 28.0015 171.304 28.4341 172.024 28.9683L171.032 29.7619C169.951 28.9587 168.644 28.5249 167.302 28.5238C166.484 28.5149 165.673 28.6827 164.925 29.0159C164.205 29.3247 163.549 29.7661 162.989 30.3175C161.84 31.4877 161.195 33.0676 161.195 34.7143C161.193 35.5282 161.36 36.3335 161.683 37.0794C161.992 37.8123 162.435 38.48 162.989 39.0476C163.544 39.6086 164.201 40.056 164.925 40.3651C165.648 40.6791 166.428 40.8411 167.215 40.8411C168.003 40.8411 168.782 40.6791 169.505 40.3651C170.259 40.0455 170.959 39.6119 171.583 39.0794L172.402 40.1111Z" fill="black"/>
<path d="M187.591 42.1269C186.813 42.1345 186.042 41.9833 185.324 41.6824C184.633 41.3907 183.998 40.9768 183.451 40.4602C182.916 39.9537 182.488 39.3437 182.192 38.6666C181.881 37.9794 181.725 37.2313 181.735 36.4761V27.3809H182.979V36.4761C182.977 37.067 183.101 37.6514 183.341 38.1904C183.582 38.7059 183.912 39.1736 184.317 39.5713C184.745 39.9699 185.241 40.2872 185.781 40.5078C186.352 40.7355 186.961 40.8488 187.575 40.8412C188.189 40.8456 188.798 40.7325 189.369 40.5078C189.905 40.2877 190.396 39.9703 190.817 39.5713C191.232 39.1712 191.563 38.6909 191.79 38.1592C192.018 37.6274 192.136 37.0551 192.14 36.4761V27.3809H193.383V36.4761C193.393 37.2313 193.237 37.9794 192.927 38.6666C192.631 39.3397 192.208 39.9487 191.683 40.4602C191.141 40.9752 190.512 41.3891 189.826 41.6824C189.119 41.9834 188.358 42.1346 187.591 42.1269Z" fill="black"/>
<path d="M214.192 40.6983V41.984H204.763V27.3809H206.007V40.6983H214.192Z" fill="black"/>
<path d="M234.984 27.3809V28.6666H229.412V41.984H228.169V28.6666H222.534V27.3809H234.984Z" fill="black"/>
<path d="M116.272 61.9208L99.9183 50.8414L99.7137 13.4922L116.272 28.1906V61.9208Z" fill="url(#paint2_linear_8_11290)"/>
<path d="M132.453 61.9208L148.791 50.8414L148.996 13.4922L132.453 28.1906V61.9208Z" fill="url(#paint3_linear_8_11290)"/>
<path d="M99.7137 0.126953L136.105 36.3809L124.394 48.1904L99.7137 23.3809V0.126953Z" fill="url(#paint4_linear_8_11290)"/>
<path d="M99.7294 13.4922L129.274 43.2858" stroke="#FCFCFC" stroke-width="0.25" stroke-miterlimit="10"/>
<path d="M149.043 0V23.381L124.394 48.1905L112.841 36.5238L149.043 0Z" fill="url(#paint5_linear_8_11290)"/>
<path d="M148.996 11.9365L126.503 34.6032" stroke="#FCFCFC" stroke-width="0.25" stroke-miterlimit="10"/>
<path d="M123.591 41.7462C125.886 41.7462 127.747 39.87 127.747 37.5557C127.747 35.2414 125.886 33.3652 123.591 33.3652C121.296 33.3652 119.436 35.2414 119.436 37.5557C119.436 39.87 121.296 41.7462 123.591 41.7462Z" stroke="url(#paint6_linear_8_11290)" stroke-width="0.25" stroke-miterlimit="10"/>
<path d="M126.173 40.8411C125.561 41.3306 124.824 41.636 124.047 41.7224C123.271 41.8089 122.486 41.6727 121.782 41.3297C121.079 40.9866 120.486 40.4505 120.071 39.783C119.656 39.1154 119.436 38.3433 119.436 37.5554C119.432 36.7675 119.648 35.9945 120.06 35.3251C120.472 34.6556 121.063 34.1168 121.765 33.7704C122.466 33.4241 123.251 33.2842 124.028 33.3669C124.804 33.4496 125.542 33.7515 126.157 34.2379" stroke="url(#paint7_linear_8_11290)" stroke-width="1.5" stroke-miterlimit="10" stroke-linecap="round"/>
<path d="M123.591 39.4286C124.617 39.4286 125.449 38.5901 125.449 37.5556C125.449 36.5212 124.617 35.6826 123.591 35.6826C122.566 35.6826 121.734 36.5212 121.734 37.5556C121.734 38.5901 122.566 39.4286 123.591 39.4286Z" fill="url(#paint8_linear_8_11290)"/>
</g>
<defs>
<linearGradient id="paint0_linear_8_11290" x1="141.315" y1="10.3173" x2="141.315" y2="32.5713" gradientUnits="userSpaceOnUse">
<stop stop-color="#6ECCD9"/>
<stop offset="1" stop-color="#396BB2"/>
</linearGradient>
<linearGradient id="paint1_linear_8_11290" x1="92.0797" y1="24.6824" x2="123.666" y2="56.0042" gradientUnits="userSpaceOnUse">
<stop stop-color="#6ECCD9"/>
<stop offset="1" stop-color="#396BB2"/>
</linearGradient>
<linearGradient id="paint2_linear_8_11290" x1="90.9936" y1="22.2858" x2="123.564" y2="54.5676" gradientUnits="userSpaceOnUse">
<stop stop-color="white"/>
<stop offset="0.13" stop-color="#EAEAEA"/>
<stop offset="0.32" stop-color="#D2D2D2"/>
<stop offset="0.52" stop-color="#C1C1C1"/>
<stop offset="0.74" stop-color="#B6B6B6"/>
<stop offset="1" stop-color="#B3B3B3"/>
</linearGradient>
<linearGradient id="paint3_linear_8_11290" x1="140.717" y1="21.0954" x2="140.717" y2="38.5716" gradientUnits="userSpaceOnUse">
<stop stop-color="white"/>
<stop offset="0.13" stop-color="#EAEAEA"/>
<stop offset="0.32" stop-color="#D2D2D2"/>
<stop offset="0.52" stop-color="#C1C1C1"/>
<stop offset="0.74" stop-color="#B6B6B6"/>
<stop offset="1" stop-color="#B3B3B3"/>
</linearGradient>
<linearGradient id="paint4_linear_8_11290" x1="105.333" y1="17.5873" x2="125.565" y2="37.0046" gradientUnits="userSpaceOnUse">
<stop stop-color="#B3B3B3"/>
<stop offset="0.4" stop-color="#D8D8D8"/>
<stop offset="0.78" stop-color="#F4F4F4"/>
<stop offset="1" stop-color="white"/>
</linearGradient>
<linearGradient id="paint5_linear_8_11290" x1="112.841" y1="24.0952" x2="149.043" y2="24.0952" gradientUnits="userSpaceOnUse">
<stop stop-color="white"/>
<stop offset="1" stop-color="#B3B3B3"/>
</linearGradient>
<linearGradient id="paint6_linear_8_11290" x1="120.459" y1="34.4922" x2="126.775" y2="40.5661" gradientUnits="userSpaceOnUse">
<stop stop-color="#6ECCD9"/>
<stop offset="1" stop-color="#396BB2"/>
</linearGradient>
<linearGradient id="paint7_linear_8_11290" x1="119.751" y1="33.8093" x2="127.463" y2="41.2207" gradientUnits="userSpaceOnUse">
<stop stop-color="#6ECCD9"/>
<stop offset="1" stop-color="#396BB2"/>
</linearGradient>
<linearGradient id="paint8_linear_8_11290" x1="122.253" y1="36.254" x2="124.951" y2="38.8346" gradientUnits="userSpaceOnUse">
<stop stop-color="#6ECCD9"/>
<stop offset="1" stop-color="#396BB2"/>
</linearGradient>
<clipPath id="clip0_8_11290">
<rect width="235" height="63" fill="white"/>
</clipPath>
</defs>
</svg>
