<svg width="78" height="83" viewBox="0 0 78 83" fill="none" xmlns="http://www.w3.org/2000/svg">
<g clip-path="url(#clip0_8_10186)">
<path d="M77.6116 53.633V39.2822C77.6116 28.9643 73.5443 19.0689 66.3044 11.7731C59.0646 4.47719 49.2452 0.378418 39.0065 0.378418C28.7677 0.378418 18.9484 4.47719 11.7085 11.7731C4.46865 19.0689 0.401306 28.9643 0.401306 39.2822V53.633H77.6116Z" fill="#FFDD15"/>
<path d="M39.0194 0.000101462C28.674 0.0104631 18.7552 4.15654 11.4399 11.5285C4.12455 18.9004 0.010282 28.8959 0 39.3214V77.6903H3.78027V76.9206H0.802689V39.3214C0.669912 34.183 1.55951 29.0698 3.41908 24.2834C5.27866 19.497 8.07051 15.1343 11.63 11.4527C15.1895 7.77104 19.4446 4.84497 24.1442 2.84705C28.8438 0.849133 33.8928 -0.180176 38.9935 -0.180176C44.0942 -0.180176 49.1433 0.849133 53.8429 2.84705C58.5425 4.84497 62.7976 7.77104 66.3571 11.4527C69.9166 15.1343 72.7084 19.497 74.568 24.2834C76.4276 29.0698 77.3172 34.183 77.1844 39.3214V76.9466H73.8055V77.7164H77.987V39.2822C77.9733 28.8659 73.8603 18.8804 66.5502 11.5162C59.2401 4.15199 49.3298 0.0104568 38.9935 0.000101462" fill="#121112"/>
<path d="M23.1346 64.0309L24.1056 63.9135L25.4002 63.7961L26.8372 63.7048H28.2613C30.9598 63.5096 33.6256 64.3957 35.6793 66.1705C36.5757 67.1508 37.2623 68.3064 37.6966 69.5655C38.1309 70.8246 38.3036 72.1603 38.2038 73.4895C38.2038 76.7858 37.3408 79.1994 35.6146 80.7301C33.8885 82.2609 31.3424 83.0306 27.9764 83.0393C27.109 83.0393 26.2805 83.0393 25.4778 82.9219C24.6752 82.8045 23.8984 82.7523 23.1216 82.6479L23.1346 64.0309ZM27.7046 78.9167H28.1189H28.5979C29.2405 78.9229 29.8809 78.8395 30.5009 78.6688C31.078 78.5095 31.6071 78.2093 32.0415 77.7947C32.5032 77.3204 32.849 76.7441 33.0513 76.1118C33.5603 74.3257 33.5603 72.4314 33.0513 70.6454C32.8419 70.0008 32.4975 69.4091 32.0415 68.9102C31.6232 68.4924 31.1132 68.1795 30.5527 67.997C29.9749 67.813 29.3722 67.7206 28.7662 67.723H27.7176L27.7046 78.9167Z" fill="#121112"/>
<path d="M40.819 64.0309L41.7899 63.9135L43.0845 63.7961L44.5215 63.7048H45.9456C48.6441 63.5096 51.31 64.3957 53.3637 66.1705C54.2716 67.1454 54.9701 68.2986 55.4156 69.5579C55.8611 70.8172 56.0441 72.1556 55.9529 73.4895C55.9529 76.7858 55.0898 79.1994 53.3637 80.7301C51.6376 82.2609 49.0871 83.0306 45.7125 83.0393C44.8495 83.0393 44.0209 83.0002 43.2269 82.9219C42.4243 82.8436 41.6345 82.7523 40.8707 82.6479L40.819 64.0309ZM45.3759 78.9167H45.7902H46.2822C46.9248 78.9229 47.5653 78.8395 48.1853 78.6688C48.7596 78.5122 49.2851 78.2115 49.7129 77.7947C50.1832 77.3248 50.534 76.7475 50.7356 76.1118C51.0082 75.2253 51.1351 74.2998 51.1111 73.372C51.136 72.4475 51.0046 71.5255 50.7227 70.6454C50.514 69.9976 50.1647 69.4048 49.6999 68.9102C49.2884 68.4901 48.782 68.1768 48.2241 67.997C47.6462 67.813 47.0435 67.7206 46.4375 67.723H45.3759V78.9167Z" fill="#121112"/>
<path d="M62.3483 64.0049H67.1642L72.8734 82.6088H68.1481L67.1642 78.995H61.9857L61.0277 82.5566H56.5613L62.3483 64.0049ZM64.6397 68.8972L62.9049 75.5899H66.2968L64.6397 68.8972Z" fill="#121112"/>
<path d="M10.9265 64.0049H15.7425L21.4516 82.6088H16.7263L15.7425 78.995H10.564L9.60599 82.5566H5.13959L10.9265 64.0049ZM13.218 68.8972L11.4832 75.5899H14.875L13.218 68.8972Z" fill="#121112"/>
<path d="M10.564 31.8721H11.4055L18.3963 44.0703V31.8721H19.1601V45.5836H18.3963L11.3278 33.268V45.5836H10.564V31.8721Z" fill="#121112"/>
<path d="M31.1741 45.5835H30.4103V43.8614C30.2641 44.0675 30.0995 44.2597 29.9183 44.4354C29.2651 45.095 28.4324 45.5446 27.5255 45.7271C26.6187 45.9096 25.6785 45.8169 24.824 45.4607C23.9694 45.1045 23.239 44.5009 22.7251 43.7262C22.2111 42.9515 21.9367 42.0405 21.9367 41.1086C21.9367 40.1767 22.2111 39.2657 22.7251 38.491C23.239 37.7163 23.9694 37.1127 24.824 36.7565C25.6785 36.4003 26.6187 36.3076 27.5255 36.4901C28.4324 36.6727 29.2651 37.1222 29.9183 37.7818C30.0964 37.9604 30.2608 38.1523 30.4103 38.3559V37.1686H31.1741V45.5835ZM30.4103 41.8783V40.3519C30.2766 39.6093 29.9196 38.9262 29.3876 38.395C28.6417 37.7966 27.7034 37.4955 26.7515 37.5492C25.7996 37.6029 24.9005 38.0076 24.2255 38.6862C23.5505 39.3647 23.1468 40.2698 23.0913 41.229C23.0358 42.1881 23.3323 43.1344 23.9244 43.8875C24.4223 44.3664 25.0376 44.7034 25.7073 44.8639C26.377 45.0243 27.0769 45.0026 27.7355 44.8008C28.3941 44.5991 28.9876 44.2246 29.4554 43.7156C29.9231 43.2067 30.2482 42.5816 30.3974 41.9044" fill="#121112"/>
<path d="M34.1647 37.1688H34.9285V37.3645C35.3921 36.9126 36.0118 36.6599 36.6568 36.6599C37.3017 36.6599 37.9215 36.9126 38.3851 37.3645C38.5154 37.496 38.6324 37.6402 38.7346 37.795C38.8355 37.6394 38.9527 37.495 39.0841 37.3645C39.5511 36.9039 40.1785 36.646 40.8319 36.646C41.4853 36.646 42.1126 36.9039 42.5796 37.3645C43.0324 37.8123 43.2928 38.4213 43.3046 39.0605V45.5836H42.5407V39.0605C42.5253 38.6003 42.3291 38.1652 41.9953 37.8508C41.6614 37.5364 41.2173 37.3685 40.7606 37.3841C40.304 37.3996 39.8722 37.5974 39.5602 37.9338C39.2482 38.2702 39.0816 38.7177 39.0971 39.1779V45.5575H38.3332V39.0344C38.3132 38.5891 38.1226 38.169 37.8015 37.8624C37.4804 37.5559 37.0538 37.3867 36.6115 37.3906C36.1819 37.3891 35.7675 37.5507 35.4508 37.8432C35.1341 38.1358 34.9384 38.5378 34.9026 38.9692V45.4923H34.1387L34.1647 37.1688Z" fill="#121112"/>
<path d="M46.2951 37.1688H47.0589V37.3645C47.5225 36.9126 48.1422 36.6599 48.7872 36.6599C49.4322 36.6599 50.0519 36.9126 50.5155 37.3645C50.6458 37.496 50.7629 37.6402 50.8651 37.795C50.966 37.6394 51.0832 37.495 51.2146 37.3645C51.6815 36.9039 52.3089 36.646 52.9623 36.646C53.6157 36.646 54.2431 36.9039 54.71 37.3645C55.1629 37.8123 55.4232 38.4213 55.435 39.0605V45.5836H54.6712V39.0605C54.6558 38.6003 54.4595 38.1652 54.1257 37.8508C53.7919 37.5364 53.3478 37.3685 52.8911 37.3841C52.4345 37.3996 52.0026 37.5974 51.6906 37.9338C51.3787 38.2702 51.2121 38.7177 51.2275 39.1779V45.5575H50.4638V39.0344C50.4437 38.5891 50.253 38.169 49.9319 37.8624C49.6108 37.5559 49.1842 37.3867 48.7419 37.3906C48.3123 37.3891 47.8979 37.5507 47.5812 37.8432C47.2646 38.1358 47.0688 38.5378 47.033 38.9692V45.4923H46.2692L46.2951 37.1688Z" fill="#121112"/>
<path d="M67.436 45.5835H66.6722V43.8614C66.5267 44.0643 66.3666 44.2562 66.1932 44.4354C65.5399 45.095 64.7072 45.5446 63.8004 45.7271C62.8935 45.9096 61.9534 45.8169 61.0988 45.4607C60.2443 45.1045 59.5138 44.5009 58.9998 43.7262C58.4859 42.9515 58.2115 42.0405 58.2115 41.1086C58.2115 40.1767 58.4859 39.2657 58.9998 38.491C59.5138 37.7163 60.2443 37.1127 61.0988 36.7565C61.9534 36.4003 62.8935 36.3076 63.8004 36.4901C64.7072 36.6727 65.5399 37.1222 66.1932 37.7818C66.3635 37.9639 66.5234 38.1555 66.6722 38.3559V37.1686H67.436V45.5835ZM66.6722 41.8783V40.3519C66.4935 39.4701 66.0188 38.6772 65.3279 38.1069C64.6369 37.5366 63.7721 37.2237 62.879 37.2208C62.1203 37.2315 61.3814 37.4659 60.7534 37.895C60.1255 38.3241 59.636 38.9292 59.3454 39.6355C59.0549 40.3418 58.976 41.1185 59.1185 41.8695C59.261 42.6204 59.6187 43.3129 60.1474 43.8614C60.5028 44.2269 60.9282 44.516 61.3977 44.711C61.8673 44.9061 62.3711 45.0032 62.879 44.9964C63.7703 44.9942 64.6337 44.6831 65.3244 44.1154C66.015 43.5476 66.4909 42.7578 66.6722 41.8783Z" fill="#121112"/>
</g>
<defs>
<clipPath id="clip0_8_10186">
<rect width="78" height="83" fill="white"/>
</clipPath>
</defs>
</svg>
