<svg width="248" height="68" viewBox="0 0 248 68" fill="none" xmlns="http://www.w3.org/2000/svg">
<g clip-path="url(#clip0_8_11457)">
<g opacity="0.53">
<path d="M9.53968 29.5802C9.53968 35.2349 11.2309 40.7627 14.3996 45.4644C17.5683 50.1662 22.072 53.8307 27.3414 55.9947C32.6107 58.1587 38.4089 58.7249 44.0027 57.6217C49.5966 56.5185 54.7349 53.7955 58.7678 49.797C62.8008 45.7984 65.5473 40.7041 66.66 35.158C67.7726 29.6119 67.2016 23.8632 65.019 18.6389C62.8364 13.4146 59.1402 8.94929 54.398 5.80768C49.6557 2.66607 44.0803 0.989262 38.3769 0.989262C34.5894 0.987231 30.8385 1.72536 27.3389 3.16147C23.8393 4.59758 20.6595 6.70349 17.9813 9.35881C15.3031 12.0141 13.1791 15.1668 11.7306 18.6365C10.2821 22.1062 9.53763 25.825 9.53968 29.5802Z" fill="#126090"/>
</g>
<g opacity="0.53">
<path d="M-1.52588e-05 48.6046C-1.52588e-05 52.3673 1.12538 56.0455 3.23383 59.1741C5.34228 62.3026 8.33912 64.7411 11.8453 66.181C15.3516 67.6209 19.2097 67.9977 22.9319 67.2636C26.6541 66.5295 30.0732 64.7176 32.7567 62.057C35.4403 59.3963 37.2678 56.0065 38.0082 52.3161C38.7486 48.6257 38.3685 44.8005 36.9162 41.3242C35.4639 37.8479 33.0045 34.8767 29.849 32.7863C26.6934 30.6958 22.9835 29.5801 19.1884 29.5801C14.0993 29.5801 9.2187 31.5844 5.62017 35.1522C2.02164 38.72 -1.52588e-05 43.559 -1.52588e-05 48.6046Z" fill="#126090"/>
</g>
<path d="M79.2478 26.8602C77.8314 26.3133 76.5882 25.4009 75.647 24.2175C74.844 23.2036 74.3808 21.9662 74.3221 20.6784C74.3214 20.5711 74.3431 20.4649 74.3861 20.3665C74.429 20.268 74.4921 20.1795 74.5715 20.1066C74.6503 20.0263 74.745 19.963 74.8496 19.9204C74.9542 19.8779 75.0664 19.8571 75.1794 19.8593H77.159C77.3917 19.8531 77.6195 19.9265 77.8041 20.0672C77.9886 20.208 78.1186 20.4074 78.1723 20.632C78.4602 21.7796 79.1795 22.7747 80.183 23.4138C81.5806 24.278 83.2153 24.6886 84.8593 24.5884C86.5644 24.6996 88.2639 24.3012 89.7383 23.4448C90.2628 23.0933 90.6883 22.6152 90.9746 22.0554C91.261 21.4957 91.3988 20.8728 91.375 20.2457C91.3922 19.8556 91.3307 19.4661 91.1942 19.0999C91.0577 18.7337 90.8489 18.3982 90.58 18.1129C89.8976 17.4821 89.0909 16.998 88.2107 16.6911C87.1663 16.2739 85.6075 15.7639 83.5344 15.1457C81.8574 14.7182 80.232 14.1119 78.6866 13.3375C77.5962 12.7803 76.6679 11.9556 75.9899 10.942C75.3631 9.84649 75.0556 8.59984 75.1015 7.34111C75.0781 6.0025 75.4758 4.68991 76.2393 3.58567C77.0772 2.42993 78.2208 1.52609 79.5439 0.973848C81.1613 0.301564 82.9034 -0.0249289 84.6567 0.0156742C86.4618 -0.0308738 88.2536 0.333949 89.8942 1.08204C91.2127 1.68516 92.3552 2.61044 93.2144 3.77112C93.9204 4.72212 94.3368 5.85373 94.4146 7.03205C94.4184 7.23127 94.346 7.4245 94.2119 7.57292C94.1317 7.65039 94.0365 7.71088 93.932 7.75073C93.8275 7.79058 93.7159 7.809 93.604 7.80478H91.5465C91.3147 7.82845 91.0824 7.7655 90.895 7.62829C90.7076 7.49109 90.5786 7.28949 90.5333 7.06294C90.4441 6.5085 90.233 5.98028 89.9152 5.5156C89.5974 5.05093 89.1805 4.66116 88.6939 4.37387C87.4927 3.62402 86.0907 3.25226 84.6723 3.3075C83.2109 3.23273 81.7592 3.5818 80.4948 4.31204C79.9945 4.63055 79.5872 5.07365 79.3137 5.59705C79.0402 6.12046 78.91 6.70583 78.936 7.29475C78.8993 8.07875 79.1544 8.84879 79.6531 9.45838C80.2577 10.1324 81.0094 10.661 81.8509 11.0038C83.267 11.5675 84.7137 12.0525 86.1843 12.4566C87.9863 12.8993 89.7404 13.5153 91.4218 14.2957C92.5667 14.8127 93.5515 15.6237 94.2743 16.6447C94.9332 17.7234 95.2583 18.9701 95.2095 20.2302C95.2492 21.3294 95.0138 22.4213 94.5242 23.4083C94.0346 24.3953 93.3061 25.2467 92.4038 25.8866C90.1618 27.3484 87.508 28.063 84.8282 27.9266C82.908 27.9761 80.998 27.6342 79.2166 26.922" fill="#E5E5E5"/>
<path d="M106.464 27.2308C106.381 27.1473 106.317 27.0482 106.274 26.9393C106.231 26.8304 106.211 26.714 106.214 26.5971V1.31353C106.206 1.19158 106.224 1.0693 106.267 0.95476C106.31 0.840219 106.377 0.73603 106.464 0.648999C106.547 0.565058 106.647 0.49854 106.757 0.453412C106.866 0.408284 106.984 0.385443 107.103 0.386251H123.236C123.355 0.385443 123.473 0.408284 123.583 0.453412C123.692 0.49854 123.792 0.565058 123.875 0.648999C123.962 0.73603 124.029 0.840219 124.072 0.95476C124.115 1.0693 124.133 1.19158 124.125 1.31353V2.85899C124.131 3.09207 124.048 3.31883 123.891 3.49263C123.806 3.57804 123.704 3.64432 123.591 3.68699C123.478 3.72966 123.357 3.74772 123.236 3.73991H109.955V12.2244H122.426C122.543 12.2207 122.661 12.2407 122.771 12.2832C122.881 12.3257 122.981 12.3898 123.065 12.4717C123.152 12.5617 123.219 12.6686 123.262 12.7856C123.305 12.9027 123.323 13.0274 123.314 13.1517V14.5735C123.319 14.6928 123.3 14.8119 123.257 14.9235C123.214 15.035 123.148 15.1368 123.065 15.2226C122.981 15.3045 122.881 15.3686 122.771 15.4111C122.661 15.4536 122.543 15.4736 122.426 15.4699H109.955V24.2635H123.548C123.668 24.2527 123.788 24.2678 123.901 24.3078C124.014 24.3479 124.117 24.4119 124.203 24.4954C124.284 24.5824 124.346 24.6848 124.386 24.7963C124.426 24.9078 124.443 25.0262 124.436 25.1444V26.6899C124.441 26.8067 124.421 26.9232 124.378 27.032C124.335 27.1409 124.269 27.2397 124.186 27.3224C124.103 27.4051 124.003 27.4699 123.893 27.5126C123.783 27.5553 123.666 27.5751 123.548 27.5708H107.134C107.016 27.5745 106.899 27.5545 106.789 27.512C106.679 27.4695 106.579 27.4054 106.495 27.3235" fill="#E5E5E5"/>
<path d="M137.343 25.0826C135.428 22.9609 134.387 20.2025 134.428 17.3553C134.428 16.6599 134.428 15.5162 134.428 13.9398C134.428 12.3635 134.428 11.1889 134.428 10.4626C134.388 7.61277 135.435 4.8531 137.359 2.73529C138.415 1.75127 139.665 0.993715 141.03 0.509785C142.395 0.0258538 143.846 -0.174034 145.293 -0.0774013C147.326 -0.130771 149.344 0.287264 151.185 1.14347C152.677 1.85865 153.944 2.96494 154.848 4.34258C155.671 5.60516 156.144 7.06032 156.22 8.56168V8.63894C156.22 8.73935 156.198 8.83857 156.154 8.92942C156.111 9.02027 156.048 9.10049 155.97 9.16439C155.809 9.29809 155.604 9.36945 155.394 9.3653H153.258C153.011 9.37386 152.77 9.28667 152.587 9.12222C152.404 8.95777 152.292 8.72898 152.276 8.48438C152.038 6.86736 151.184 5.40202 149.891 4.38894C148.512 3.54753 146.91 3.1382 145.293 3.21442C140.804 3.21442 138.497 5.68715 138.341 10.6017C138.341 11.3126 138.341 12.3789 138.341 13.8162C138.341 15.2535 138.341 16.3662 138.341 17.108C138.497 22.038 140.804 24.5108 145.293 24.5108C146.938 24.6003 148.571 24.1847 149.969 23.3208C151.264 22.3183 152.114 20.8547 152.338 19.2408C152.378 18.9763 152.504 18.732 152.697 18.5453C152.875 18.4084 153.095 18.3373 153.32 18.3444H155.456C155.678 18.3426 155.894 18.4194 156.064 18.5608C156.148 18.6246 156.213 18.7103 156.252 18.8085C156.29 18.9067 156.301 19.0134 156.282 19.1171C156.211 20.6337 155.738 22.105 154.91 23.3826C154.007 24.7602 152.74 25.8665 151.247 26.5817C149.405 27.4326 147.387 27.8453 145.355 27.7871C143.908 27.89 142.456 27.6961 141.088 27.2175C139.72 26.7388 138.467 25.9858 137.405 25.0053" fill="#E5E5E5"/>
<path d="M173.538 27.2311C173.453 27.1484 173.386 27.0497 173.34 26.9409C173.295 26.8321 173.272 26.7153 173.273 26.5974V3.83293H165.791C165.67 3.83785 165.55 3.81846 165.438 3.77595C165.325 3.73344 165.222 3.6687 165.136 3.58565C165.053 3.50221 164.989 3.40303 164.946 3.29413C164.903 3.18523 164.883 3.06885 164.886 2.952V1.31383C164.882 1.0736 164.971 0.84087 165.136 0.664715C165.218 0.573716 165.319 0.501674 165.432 0.453611C165.545 0.405548 165.668 0.382644 165.791 0.386545H184.605C184.729 0.379852 184.854 0.399239 184.971 0.443471C185.087 0.487703 185.193 0.555779 185.281 0.643256C185.369 0.730733 185.438 0.835653 185.483 0.951186C185.527 1.06672 185.547 1.1903 185.54 1.31383V2.952C185.542 3.07137 185.518 3.18972 185.469 3.29903C185.421 3.40834 185.349 3.50607 185.26 3.58565C185.172 3.66797 185.07 3.73227 184.957 3.77473C184.845 3.81719 184.725 3.83697 184.605 3.83293H177.138V26.5974C177.143 26.7158 177.122 26.8337 177.076 26.9431C177.03 27.0525 176.961 27.1507 176.873 27.2311C176.692 27.3983 176.451 27.4872 176.203 27.4784H174.161C174.043 27.4839 173.925 27.4648 173.815 27.4222C173.705 27.3796 173.605 27.3145 173.522 27.2311" fill="#E5E5E5"/>
<path d="M197.106 25.2216C196.109 24.1474 195.336 22.8887 194.83 21.5176C194.325 20.1466 194.097 18.6901 194.16 17.2316C194.16 16.4589 194.16 15.3616 194.16 13.9398C194.16 12.5179 194.16 11.4362 194.16 10.6789C194.117 9.21535 194.371 7.75818 194.907 6.39369C195.442 5.02921 196.248 3.78514 197.278 2.73522C199.481 0.960748 202.233 -0.0078125 205.072 -0.0078125C207.91 -0.0078125 210.662 0.960748 212.865 2.73522C213.895 3.78463 214.702 5.02861 215.238 6.39322C215.773 7.75783 216.027 9.21525 215.983 10.6789C215.983 12.2243 215.983 13.2598 215.983 13.9398C215.983 14.6198 215.983 15.6861 215.983 17.2316C216.054 18.6909 215.83 20.1495 215.324 21.5216C214.818 22.8938 214.04 24.1518 213.037 25.2216C210.887 27.0783 208.089 28.0268 205.243 27.8643C202.356 28.0464 199.513 27.0974 197.324 25.2216M210.153 22.718C211.509 21.1345 212.22 19.1065 212.148 17.0307C212.148 15.4852 212.148 14.4498 212.148 13.9398C212.148 13.4298 212.148 12.3943 212.148 10.8489C212.216 8.77095 211.499 6.74285 210.138 5.16159C208.782 3.96776 207.032 3.30835 205.22 3.30835C203.407 3.30835 201.657 3.96776 200.302 5.16159C198.927 6.73511 198.208 8.76863 198.291 10.8489C198.291 11.601 198.291 12.6313 198.291 13.9398C198.291 15.2225 198.291 16.2579 198.291 17.0307C198.208 19.1109 198.927 21.1445 200.302 22.718C201.564 23.9366 203.263 24.6091 205.025 24.588C205.929 24.6279 206.832 24.4825 207.677 24.1607C208.521 23.8389 209.29 23.3478 209.935 22.718" fill="#E5E5E5"/>
<path d="M227.72 27.2307C227.638 27.1472 227.573 27.0481 227.53 26.9392C227.487 26.8303 227.467 26.7139 227.471 26.597V1.31342C227.463 1.19147 227.481 1.06919 227.524 0.954647C227.567 0.840106 227.634 0.735916 227.72 0.648886C227.804 0.564944 227.903 0.498426 228.013 0.453299C228.123 0.408171 228.241 0.38533 228.36 0.386138H237.884C240.405 0.233938 242.898 0.979322 244.914 2.48798C245.776 3.23151 246.454 4.16203 246.894 5.20733C247.335 6.25264 247.527 7.38457 247.454 8.51524C247.526 10.2449 247.01 11.9483 245.989 13.3525C244.948 14.6587 243.502 15.5877 241.874 15.9952L247.875 26.288C247.955 26.4127 247.999 26.5573 248 26.7052C247.998 26.8076 247.975 26.9085 247.932 27.0016C247.889 27.0946 247.828 27.1779 247.751 27.2461C247.596 27.395 247.389 27.4782 247.174 27.478H245.303C244.975 27.5 244.65 27.407 244.384 27.2153C244.136 26.9999 243.934 26.737 243.791 26.4425L238.071 16.6134H231.243V26.597C231.245 26.7164 231.221 26.8348 231.172 26.9441C231.124 27.0534 231.052 27.1511 230.963 27.2307C230.876 27.3137 230.773 27.3785 230.661 27.421C230.548 27.4635 230.428 27.4829 230.308 27.478H228.313C228.195 27.4817 228.077 27.4617 227.968 27.4192C227.858 27.3767 227.758 27.3125 227.674 27.2307M237.681 13.3216C241.562 13.3216 243.511 11.7761 243.511 8.4843C243.511 5.19249 241.562 3.64707 237.681 3.64707H231.243V13.3216H237.681Z" fill="#E5E5E5"/>
<path d="M79.2477 66.9953C77.8293 66.4442 76.5822 65.5328 75.6314 64.3526C74.8365 63.3343 74.3742 62.0995 74.3065 60.8135C74.3087 60.7052 74.3333 60.5986 74.3789 60.5002C74.4245 60.4019 74.49 60.3138 74.5714 60.2417C74.6485 60.1633 74.7407 60.1011 74.8424 60.0586C74.9441 60.0161 75.0534 59.9943 75.1638 59.9944H77.159C77.3917 59.9882 77.6195 60.0616 77.804 60.2023C77.9886 60.3431 78.1186 60.5425 78.1722 60.7671C78.4565 61.9204 79.1762 62.9216 80.183 63.5644C81.5856 64.4157 83.2177 64.8202 84.8593 64.7235C86.5642 64.8328 88.2632 64.4346 89.7383 63.5799C90.2638 63.2295 90.6902 62.7515 90.9767 62.1915C91.2632 61.6315 91.4003 61.0082 91.375 60.3808C91.3919 59.9895 91.3287 59.5988 91.1894 59.2323C91.0501 58.8658 90.8375 58.531 90.5644 58.248C89.8905 57.6139 89.0881 57.1292 88.2107 56.8262C87.1663 56.4089 85.6075 55.8989 83.5344 55.2807C81.8623 54.8465 80.2423 54.2352 78.7022 53.4571C77.609 52.904 76.6797 52.0785 76.0055 51.0617C75.3733 49.9677 75.0603 48.7209 75.1015 47.4607C75.0878 46.1212 75.4905 44.81 76.2549 43.7053C77.0862 42.5433 78.2317 41.6379 79.5595 41.0935C81.1769 40.4212 82.919 40.0947 84.6723 40.1353C86.4774 40.0888 88.2692 40.4536 89.9098 41.2017C91.2283 41.8048 92.3707 42.7301 93.2299 43.8907C93.9359 44.8418 94.3524 45.9734 94.4302 47.1517C94.4334 47.2519 94.4157 47.3517 94.3781 47.4448C94.3406 47.5378 94.284 47.6223 94.2119 47.6926C94.1358 47.7712 94.0435 47.8326 93.9413 47.8726C93.8391 47.9126 93.7293 47.9303 93.6196 47.9244H91.5464C91.3147 47.9481 91.0824 47.8851 90.895 47.7479C90.7076 47.6107 90.5786 47.4091 90.5333 47.1826C90.441 46.6291 90.2288 46.1022 89.9112 45.6379C89.5937 45.1737 89.1784 44.7832 88.6939 44.4935C87.4919 43.7454 86.0904 43.3738 84.6723 43.4271C83.2107 43.3505 81.7585 43.6997 80.4948 44.4317C79.9945 44.7502 79.5872 45.1933 79.3137 45.7167C79.0401 46.2401 78.9099 46.8255 78.936 47.4144C78.9051 48.2002 79.1657 48.97 79.6686 49.5781C80.2733 50.2521 81.0249 50.7807 81.8665 51.1235C83.2817 51.6896 84.7286 52.1746 86.1999 52.5762C88.0018 53.019 89.7559 53.6349 91.4373 54.4153C92.5833 54.9379 93.5681 55.7542 94.2899 56.7798C94.9509 57.8519 95.2764 59.0944 95.2251 60.3499C95.2659 61.4509 95.0293 62.5446 94.5367 63.5322C94.0441 64.5198 93.311 65.37 92.4037 66.0062C90.1721 67.4793 87.5211 68.2001 84.8438 68.0617C82.9225 68.1063 81.0125 67.7592 79.2322 67.0417" fill="#126090"/>
<path d="M112.122 67.3666C112.038 67.2843 111.972 67.1853 111.929 67.0761C111.886 66.9669 111.867 66.85 111.873 66.733V43.9684H104.375C104.255 43.9734 104.135 43.954 104.022 43.9115C103.91 43.869 103.807 43.8042 103.72 43.7212C103.559 43.5489 103.47 43.3224 103.471 43.0875V41.4648C103.47 41.2206 103.559 40.9843 103.72 40.8002C103.802 40.7092 103.903 40.6372 104.017 40.5891C104.13 40.5411 104.252 40.5182 104.375 40.5221H123.189C123.316 40.5176 123.442 40.5386 123.56 40.5838C123.677 40.629 123.785 40.6973 123.875 40.7848C123.962 40.8747 124.029 40.9816 124.072 41.0987C124.115 41.2158 124.133 41.3405 124.125 41.4648V43.1339C124.126 43.2517 124.103 43.3685 124.057 43.4773C124.011 43.5862 123.944 43.6848 123.86 43.7675C123.678 43.9347 123.437 44.0237 123.189 44.0148H115.739V66.7793C115.742 66.899 115.719 67.018 115.671 67.1276C115.622 67.2373 115.549 67.3347 115.458 67.413C115.276 67.5802 115.035 67.6691 114.788 67.6602H112.761C112.643 67.664 112.526 67.644 112.416 67.6015C112.306 67.559 112.206 67.4948 112.122 67.413" fill="#126090"/>
<path d="M129.082 67.3974C128.932 67.25 128.848 67.0499 128.848 66.841C128.825 66.7029 128.825 66.5619 128.848 66.4238L138.528 41.3719C138.608 41.1114 138.775 40.8855 139.002 40.7312C139.228 40.5768 139.501 40.503 139.775 40.5219H142.425C142.699 40.503 142.971 40.5768 143.198 40.7312C143.424 40.8855 143.591 41.1114 143.672 41.3719L153.32 66.4238L153.398 66.841C153.398 67.0499 153.314 67.25 153.165 67.3974C153.094 67.4689 153.008 67.525 152.915 67.5622C152.821 67.5995 152.72 67.617 152.619 67.6138H150.624C150.383 67.6279 150.146 67.5567 149.953 67.4128C149.816 67.2897 149.709 67.1362 149.642 66.9647L147.506 61.4628H134.693L132.542 66.9647C132.472 67.1612 132.341 67.3302 132.167 67.447C131.993 67.5639 131.786 67.6223 131.576 67.6138H129.58C129.479 67.617 129.379 67.5995 129.285 67.5622C129.191 67.525 129.106 67.4689 129.035 67.3974M146.368 58.1247L141.1 44.3856L135.831 58.1247H146.368Z" fill="#126090"/>
<path d="M164.809 65.2181C162.88 63.1045 161.837 60.3407 161.894 57.4909C161.894 56.7954 161.894 55.6517 161.894 54.0754C161.894 52.499 161.894 51.3245 161.894 50.5981C161.848 47.7472 162.895 44.9854 164.824 42.8708C165.877 41.8865 167.124 41.1285 168.487 40.6445C169.85 40.1605 171.299 39.9609 172.743 40.0581C174.776 40.0013 176.795 40.4195 178.635 41.279C180.132 41.9938 181.404 43.0999 182.313 44.4781C183.125 45.745 183.592 47.1984 183.67 48.6972V48.7745C183.67 48.8749 183.647 48.9741 183.604 49.065C183.561 49.1558 183.498 49.236 183.42 49.2999C183.263 49.4313 183.064 49.5026 182.859 49.5008H180.708C180.194 49.5008 179.866 49.2072 179.742 48.6199C179.486 47.0131 178.636 45.5584 177.357 44.5399C175.96 43.6732 174.326 43.2574 172.68 43.35C168.212 43.35 165.895 45.8175 165.728 50.7527C165.728 51.4481 165.728 52.5145 165.728 53.9518C165.728 55.389 165.728 56.5018 165.728 57.2436C165.884 62.1787 168.201 64.6463 172.68 64.6463C174.325 64.7348 175.958 64.3193 177.357 63.4563C178.647 62.4495 179.496 60.9881 179.726 59.3763C179.761 59.1138 179.881 58.8696 180.069 58.6808C180.247 58.5439 180.467 58.4728 180.692 58.4799H182.843C183.066 58.4782 183.281 58.5549 183.451 58.6963C183.533 58.7654 183.595 58.8547 183.63 58.9551C183.666 59.0555 183.674 59.1636 183.654 59.2681C183.579 60.777 183.112 62.241 182.298 63.5181C181.388 64.8963 180.116 66.0024 178.619 66.7172C176.779 67.5767 174.761 67.9949 172.727 67.9381C171.281 68.0415 169.83 67.8463 168.464 67.3648C167.098 66.8833 165.848 66.126 164.793 65.1408" fill="#126090"/>
<path d="M195.08 67.3666C194.996 67.2842 194.93 67.1853 194.887 67.0761C194.844 66.9669 194.825 66.85 194.83 66.7329V41.4648C194.822 41.3405 194.84 41.2158 194.883 41.0987C194.926 40.9816 194.993 40.8747 195.08 40.7848C195.163 40.7008 195.263 40.6343 195.373 40.5892C195.482 40.5441 195.6 40.5212 195.719 40.522H197.683C197.807 40.516 197.931 40.5363 198.047 40.5816C198.162 40.6269 198.267 40.6962 198.353 40.7848C198.442 40.874 198.512 40.9804 198.557 41.0974C198.603 41.2144 198.624 41.3395 198.618 41.4648V51.062L209.031 41.1402C209.236 40.9388 209.479 40.7803 209.747 40.6741C210.015 40.5679 210.301 40.5162 210.59 40.522H212.694C212.796 40.5208 212.897 40.5408 212.991 40.5807C213.085 40.6206 213.17 40.6796 213.239 40.7538C213.375 40.8919 213.457 41.073 213.472 41.2652C213.486 41.4575 213.431 41.6485 213.317 41.8048L201.253 53.4884L214.066 66.3157C214.2 66.4641 214.272 66.6574 214.268 66.8566C214.27 66.9603 214.25 67.0631 214.21 67.1588C214.169 67.2545 214.11 67.341 214.034 67.4129C213.964 67.4844 213.878 67.5405 213.785 67.5777C213.691 67.615 213.59 67.6325 213.489 67.6293H211.307C211.016 67.6339 210.727 67.5785 210.459 67.4668C210.19 67.3551 209.948 67.1894 209.748 66.9802L198.587 56.162V66.8102C198.591 66.9299 198.568 67.0489 198.519 67.1585C198.471 67.2682 198.398 67.3657 198.306 67.4439C198.129 67.6073 197.894 67.6959 197.652 67.6912H195.688C195.57 67.6949 195.453 67.6748 195.343 67.6323C195.233 67.5898 195.133 67.5258 195.049 67.4439" fill="#126090"/>
</g>
<defs>
<clipPath id="clip0_8_11457">
<rect width="248" height="68" fill="white"/>
</clipPath>
</defs>
</svg>
