<svg width="87" height="76" viewBox="0 0 87 76" fill="none" xmlns="http://www.w3.org/2000/svg">
<g clip-path="url(#clip0_8_11391)">
<path d="M7.38208 62.5206L43.3802 0C45.3708 3.41356 47.2509 6.72591 49.214 9.99225C49.4205 10.3059 49.5227 10.6765 49.5062 11.0514C49.4897 11.4264 49.3551 11.7866 49.1218 12.0809C39.6108 28.4525 30.1151 44.8302 20.6348 61.214C20.4561 61.6319 20.1516 61.9839 19.7636 62.2213C19.3755 62.4587 18.9231 62.5698 18.4691 62.539C14.9301 62.4654 11.3819 62.539 7.40976 62.539" fill="#B22637"/>
<path d="M34.6249 75.9357C23.8236 75.9357 13.0193 75.9357 2.21184 75.9357C1.48377 75.9357 0.46078 76.359 0.0829198 75.6229C-0.29494 74.8868 0.617454 74.2795 1.00453 73.6355C2.35008 71.2156 3.76934 68.851 5.13333 66.4219C5.3405 65.935 5.69584 65.5255 6.14904 65.2514C6.60224 64.9773 7.13033 64.8524 7.65853 64.8945C25.5685 64.9313 43.4754 64.9313 61.3792 64.8945C61.8691 64.8404 62.3635 64.9421 62.7921 65.1849C63.2207 65.4278 63.5615 65.7995 63.7662 66.2471C65.2407 68.9522 66.7768 71.6143 68.3742 74.2335C69.2958 75.7793 68.7521 75.9725 67.2775 75.9633C56.3933 75.9633 45.5091 75.9633 34.6249 75.9633" fill="#34A4DB"/>
<path d="M52.1263 15.0806L73.7381 52.4549C78.0236 59.8157 82.2814 67.2409 86.6406 74.5372C87.3503 75.7333 86.9263 75.8254 85.9217 75.8254C82.521 75.8254 79.1295 75.8254 75.7379 75.8254C74.761 75.8254 74.4108 75.2825 74.0145 74.5924L46.6335 27.051C46.3018 26.4806 45.8041 25.9837 46.2833 25.2108C48.2003 21.9813 50.0527 18.7702 52.1263 15.0898" fill="#B22637"/>
<path d="M61.9138 62.1339H25.0494L43.4816 30.3262L61.9138 62.1339Z" fill="#34A4DB"/>
</g>
<defs>
<clipPath id="clip0_8_11391">
<rect width="87" height="76" fill="white"/>
</clipPath>
</defs>
</svg>
