<svg width="261" height="62" viewBox="0 0 261 62" fill="none" xmlns="http://www.w3.org/2000/svg">
<g clip-path="url(#clip0_8_11371)">
<path d="M189.227 44.716H185.051V36.2557H175.192V44.716H171.016V24.1099H175.192V32.4794H185.051V24.1099H189.227V44.716Z" fill="#15425A"/>
<path d="M206.494 38.144H194.801C194.953 39.1371 195.432 40.051 196.163 40.7402C196.84 41.3648 197.729 41.7088 198.651 41.7024C199.41 41.7535 200.17 41.592 200.843 41.2361C201.516 40.8802 202.078 40.3439 202.463 39.6872L206.095 40.4497C205.539 41.9444 204.513 43.2185 203.171 44.0808C201.808 44.8998 200.241 45.3153 198.651 45.279C197.599 45.2849 196.558 45.0734 195.593 44.6579C194.628 44.2424 193.758 43.6318 193.04 42.8644C191.575 41.2698 190.763 39.1835 190.763 37.0184C190.763 34.8533 191.575 32.767 193.04 31.1724C193.775 30.4237 194.654 29.833 195.625 29.4365C196.596 29.04 197.638 28.8461 198.687 28.8667C199.697 28.8499 200.7 29.0374 201.636 29.418C202.573 29.7987 203.422 30.3645 204.134 31.0817C204.884 31.8188 205.48 32.6973 205.889 33.6665C206.297 34.6357 206.509 35.6763 206.512 36.7279L206.494 38.144ZM196.363 33.1876C195.636 33.6752 195.123 34.4221 194.928 35.2755H202.336C202.156 34.4301 201.679 33.6769 200.993 33.1513C200.325 32.6781 199.523 32.4301 198.705 32.4433C197.867 32.4475 197.05 32.7071 196.363 33.1876Z" fill="#15425A"/>
<path d="M224.56 44.6801H220.493V43.4818C219.046 44.6159 217.247 45.2069 215.409 45.1521C214.419 45.1511 213.439 44.9476 212.531 44.5542C211.622 44.1608 210.804 43.5858 210.125 42.8645C208.671 41.2721 207.864 39.1934 207.864 37.0367C207.864 34.8801 208.671 32.8014 210.125 31.2089C210.794 30.4781 211.608 29.8942 212.514 29.4941C213.42 29.0941 214.4 28.8867 215.391 28.8851C217.235 28.8279 219.039 29.4333 220.475 30.5916V29.3571H224.542L224.56 44.6801ZM219.113 40.341C219.553 39.9139 219.899 39.399 220.127 38.8297C220.355 38.2605 220.461 37.6496 220.438 37.0367C220.461 36.4185 220.355 35.8023 220.126 35.2273C219.898 34.6522 219.553 34.1308 219.113 33.6962C218.717 33.2872 218.243 32.9623 217.719 32.7408C217.195 32.5193 216.632 32.4059 216.063 32.4072C215.487 32.3886 214.915 32.4923 214.383 32.7114C213.851 32.9304 213.371 33.2599 212.976 33.678C212.559 34.1283 212.237 34.6574 212.028 35.2343C211.819 35.8112 211.728 36.424 211.76 37.0367C211.728 37.6439 211.82 38.251 212.029 38.8219C212.238 39.3927 212.56 39.9156 212.976 40.3591C213.375 40.7712 213.856 41.0955 214.387 41.3112C214.919 41.5269 215.489 41.6293 216.063 41.6118C216.63 41.6165 217.193 41.5064 217.718 41.288C218.242 41.0696 218.716 40.7475 219.113 40.341Z" fill="#15425A"/>
<path d="M230.315 22.5669H226.248V44.7162H230.315V22.5669Z" fill="#15425A"/>
<path d="M245.331 44.0443C244.109 44.7524 242.73 45.1454 241.318 45.188C240.496 45.2834 239.662 45.1899 238.881 44.9148C238.1 44.6396 237.392 44.19 236.811 43.6001C236.23 43.0102 235.791 42.2956 235.527 41.5106C235.264 40.7255 235.183 39.8908 235.29 39.0698V32.6973H232.004V29.3749H235.29V24.709H239.357V29.3567H244.369V32.6973H239.357V38.7611C239.357 40.5766 240.102 41.3936 241.609 41.3936C242.503 41.3639 243.376 41.1145 244.151 40.6674L245.331 44.0443Z" fill="#15425A"/>
<path d="M259.33 30.7186C260.483 31.9848 261.09 33.6551 261.018 35.3663V44.6799H256.951V36.2378C257.002 35.2935 256.705 34.3634 256.116 33.6234C255.835 33.3011 255.485 33.0458 255.092 32.8762C254.699 32.7066 254.274 32.6269 253.846 32.643C251.304 32.643 250.033 34.4041 250.033 37.9262V44.6799H245.966V22.5669H250.033V30.7549C250.673 30.1395 251.431 29.6611 252.261 29.3489C253.091 29.0368 253.977 28.8974 254.863 28.9394C255.694 28.9094 256.521 29.0556 257.291 29.3686C258.061 29.6815 258.756 30.154 259.33 30.7549" fill="#15425A"/>
<path d="M96.738 44.716H92.2351L88.2407 30.8091L84.21 44.716H79.7435L73.7518 24.1099H78.1275L82.0675 38.3254L86.2072 24.1099H90.2379L94.3958 38.3254L98.3357 24.1099H102.73L96.738 44.716Z" fill="#15425A"/>
<path d="M115.439 31.2634C116.205 32.0229 116.813 32.9264 117.228 33.922C117.642 34.9176 117.856 35.9854 117.856 37.064C117.856 38.1425 117.642 39.2103 117.228 40.2059C116.813 41.2014 116.205 42.105 115.439 42.8645C113.821 44.3253 111.718 45.1339 109.538 45.1339C107.358 45.1339 105.256 44.3253 103.637 42.8645C102.867 42.1075 102.255 41.2047 101.838 40.2088C101.42 39.2129 101.205 38.1439 101.205 37.064C101.205 35.9841 101.42 34.915 101.838 33.9191C102.255 32.9232 102.867 32.0204 103.637 31.2634C105.261 29.8139 107.362 29.0127 109.538 29.0127C111.715 29.0127 113.815 29.8139 115.439 31.2634ZM112.589 40.341C113.438 39.4469 113.911 38.2608 113.911 37.0276C113.911 35.7945 113.438 34.6084 112.589 33.7143C112.196 33.3131 111.727 32.994 111.209 32.7758C110.692 32.5576 110.136 32.4446 109.575 32.4435C108.979 32.4431 108.389 32.5628 107.841 32.7956C107.292 33.0284 106.796 33.3693 106.383 33.7982C105.969 34.227 105.646 34.7348 105.434 35.2913C105.221 35.8477 105.122 36.4414 105.144 37.0367C105.125 37.6369 105.227 38.2348 105.443 38.7947C105.66 39.3547 105.988 39.8652 106.406 40.2956C106.825 40.7261 107.326 41.0678 107.88 41.3002C108.434 41.5325 109.029 41.6509 109.629 41.6481C110.191 41.647 110.746 41.534 111.264 41.3158C111.781 41.0976 112.25 40.7785 112.643 40.3773" fill="#15425A"/>
<path d="M127.786 44.7163H123.464L117.073 29.3389H121.449L125.625 39.7599L129.819 29.3389H134.177L127.786 44.7163Z" fill="#15425A"/>
<path d="M149.138 38.1442H137.445C137.61 39.1366 138.095 40.0479 138.825 40.7404C139.49 41.372 140.377 41.7175 141.294 41.7026C142.054 41.7537 142.813 41.5922 143.487 41.2363C144.16 40.8804 144.721 40.3441 145.107 39.6874L148.738 40.4499C148.182 41.9446 147.157 43.2187 145.815 44.081C144.452 44.9 142.884 45.3155 141.294 45.2792C140.245 45.287 139.206 45.0763 138.244 44.6606C137.281 44.2449 136.415 43.6332 135.702 42.8646C134.941 42.1023 134.345 41.1915 133.951 40.1888C133.558 39.1862 133.375 38.1132 133.414 37.0368C133.374 35.9548 133.556 34.8762 133.95 33.8675C134.343 32.8589 134.94 31.9417 135.702 31.1726C136.438 30.4257 137.318 29.8361 138.288 29.4397C139.259 29.0433 140.3 28.8485 141.349 28.8669C142.359 28.849 143.363 29.0361 144.299 29.4168C145.235 29.7975 146.084 30.3639 146.795 31.0819C147.549 31.8165 148.148 32.6946 148.556 33.6644C148.965 34.6341 149.175 35.6759 149.174 36.7281L149.138 38.1442ZM139.006 33.1879C138.279 33.6754 137.766 34.4223 137.572 35.2757H144.98C144.799 34.4303 144.323 33.6771 143.636 33.1515C142.969 32.676 142.167 32.4277 141.349 32.4435C140.51 32.4477 139.693 32.7073 139.006 33.1879Z" fill="#15425A"/>
<path d="M164.099 30.7184C164.675 31.3423 165.123 32.0742 165.416 32.8718C165.709 33.6695 165.841 34.5172 165.805 35.3661V44.6797H161.738V36.2376C161.784 35.291 161.48 34.3607 160.885 33.6232C160.608 33.3003 160.262 33.0443 159.872 32.8745C159.482 32.7047 159.058 32.6255 158.634 32.6428C156.092 32.6428 154.821 34.4039 154.821 37.926V44.6797H150.754V29.3749H154.821V30.7547C155.458 30.1376 156.216 29.658 157.047 29.3457C157.878 29.0334 158.764 28.895 159.65 28.9392C160.478 28.9094 161.303 29.0559 162.07 29.3689C162.836 29.6819 163.528 30.1542 164.099 30.7547" fill="#15425A"/>
<path d="M47.8969 3.48557C47.6507 2.96176 47.5779 2.37313 47.6889 1.80511C47.7999 1.23708 48.089 0.719194 48.5142 0.326565C48.7181 0.179942 48.9536 0.0834281 49.2017 0.0448497C49.4499 0.00627136 49.7036 0.0267122 49.9423 0.104521C50.1811 0.18233 50.3981 0.315313 50.5759 0.492684C50.7536 0.670054 50.887 0.886816 50.9653 1.12539C50.9653 1.28879 51.4556 2.23286 52.0729 3.97576C52.5086 5.22847 53.0352 6.89875 53.598 8.96844C55.5874 16.6877 56.72 24.6028 56.9752 32.5702C55.8313 34.6944 54.633 36.8911 53.3438 39.1605C53.4918 30.5427 52.6572 21.9361 50.8564 13.5072C50.3843 11.4194 49.9123 9.62202 49.4765 8.16961C49.0523 6.57561 48.5246 5.01095 47.8969 3.48557Z" fill="#A9CF37"/>
<path d="M31.9918 56.4809C31.3926 58.2965 30.8298 60.112 30.3032 61.9275C29.5407 60.2391 28.7599 58.5688 27.9974 56.9167C26.5993 53.9755 25.2013 51.0888 23.785 48.2929C22.3688 45.497 21.1523 43.1369 19.8632 40.6859C9.76821 21.7501 0.689951 7.93394 0.43576 7.57084C0.124496 7.08077 -0.0253839 6.50549 0.00718251 5.92585C0.0397489 5.34621 0.253121 4.79134 0.617322 4.33921C0.775507 4.14487 0.979144 3.9925 1.21023 3.89557C1.44131 3.79865 1.69272 3.76015 1.94222 3.78348C2.19172 3.80682 2.43163 3.89126 2.64073 4.02936C2.84983 4.16745 3.02168 4.35493 3.14108 4.57523C4.03075 5.91872 11.3478 17.0115 19.9359 32.6613C21.0797 34.731 22.2417 36.8915 23.4038 39.1064C25.4918 43.1006 27.6342 47.3126 29.7222 51.6698C30.4848 53.2493 31.2474 54.8651 31.9918 56.4809Z" fill="#093042"/>
<path d="M56.6846 3.72199C55.6134 5.53751 54.5785 7.22594 53.5617 8.96884C52.545 10.7117 51.7461 12.0734 50.929 13.5984C46.9164 20.8605 43.4667 27.7232 40.489 34.4043C39.7809 36.0019 39.091 37.5814 38.4373 39.1428C35.9075 45.1945 33.759 50.9739 31.9918 56.481C31.3926 58.2965 30.8298 60.112 30.3032 61.9275C29.5407 60.2391 28.7599 58.5688 27.9973 56.9167C28.542 55.1012 29.123 53.4128 29.813 51.5972C31.6286 46.1507 33.8982 40.341 36.4946 34.3498C37.1482 32.8429 37.8382 31.3179 38.5463 29.7565C41.7055 22.8394 45.3731 15.65 49.6399 8.18817C50.457 6.77206 51.274 5.3378 52.1455 3.90354C52.7447 2.8687 53.362 1.852 53.9612 0.817158C54.0677 0.590399 54.2284 0.393369 54.4292 0.243484C54.6299 0.0935998 54.8645 -0.00452365 55.1122 -0.0422127C55.3599 -0.0799018 55.613 -0.0559983 55.8493 0.0273901C56.0856 0.110779 56.2976 0.251086 56.4668 0.4359C56.8438 0.874611 57.0744 1.42006 57.1265 1.99613C57.1786 2.57221 57.0495 3.15017 56.7573 3.64937" fill="#425A6F"/>
<path d="M23.4037 40.4133C23.4037 42.8824 23.5672 45.533 23.785 48.3652C22.4778 45.7509 21.1523 43.2091 19.8632 40.7582C19.8632 40.5585 19.8632 40.3588 19.8632 40.1591C19.8632 37.5266 19.8632 35.0575 19.954 32.6791C20.2178 24.7113 21.3563 16.7965 23.3493 9.07738C23.894 7.00769 24.4387 5.33741 24.8744 4.0847C25.4917 2.26918 25.9275 1.39773 25.982 1.23433C26.0579 0.996159 26.1892 0.779397 26.3652 0.601862C26.5411 0.424326 26.7568 0.291086 26.9943 0.213104C27.2318 0.135121 27.4844 0.114624 27.7314 0.153287C27.9784 0.19195 28.2126 0.288673 28.4149 0.435507C28.8411 0.82359 29.1312 1.33842 29.2424 1.90398C29.3535 2.46954 29.2799 3.05586 29.0323 3.57636C28.3925 5.13771 27.8349 6.7315 27.3619 8.35117C26.9261 9.80359 26.4359 11.5828 25.9638 13.6888C24.1419 22.0722 23.289 30.637 23.4219 39.215C23.4219 39.6326 23.4219 40.0865 23.4219 40.5222" fill="#15425A"/>
<path d="M56.9752 40.1413V40.7404C55.6558 43.2579 54.3183 45.8541 52.9626 48.529C53.2168 45.2852 53.3439 42.1867 53.3439 39.2335C54.5422 36.9459 55.7405 34.7492 56.9752 32.625C57.0841 34.9852 57.1023 37.4724 56.9752 40.1049" fill="#A9CF37"/>
<path d="M53.3439 39.2334C53.3439 42.1624 53.2168 45.2488 52.9626 48.4925C51.5645 51.234 50.1846 54.0662 48.8411 56.9529C48.0603 58.605 47.2796 60.2753 46.5352 61.9456C46.0086 60.13 45.4276 58.3145 44.8285 56.499C45.5729 54.8832 46.3355 53.2674 47.098 51.6879C49.2405 47.3488 51.3466 43.2094 53.3439 39.2334Z" fill="#6FBD44"/>
<path d="M76.4753 7.57088C76.2211 7.95214 67.0883 21.7501 57.0478 40.7404V40.1413C57.0478 37.5088 57.0478 35.0215 57.0478 32.6614C65.654 16.9934 72.9711 5.9006 73.8607 4.57527C73.9778 4.35504 74.1478 4.16731 74.3554 4.02895C74.5629 3.89059 74.8016 3.80592 75.05 3.78252C75.2983 3.75913 75.5486 3.79775 75.7784 3.89492C76.0081 3.99209 76.2101 4.14476 76.3663 4.33925C76.7333 4.78942 76.9499 5.34329 76.9858 5.92297C77.0216 6.50264 76.8748 7.07896 76.5661 7.57088" fill="#6FBD44"/>
<path d="M48.9137 56.9889C48.1329 58.6411 47.3522 60.3113 46.6078 61.9816C46.0812 60.1661 45.5002 58.3506 44.9011 56.5351C43.0854 51.0885 40.9793 45.2244 38.4373 39.1969C37.8019 37.6355 37.1119 36.0742 36.4038 34.4765C33.4443 27.8135 29.9764 20.8601 25.9457 13.6343C25.1105 12.1093 24.239 10.5843 23.3311 9.02291C22.4233 7.46157 21.2976 5.55527 20.2082 3.77606C19.9157 3.27584 19.7882 2.69626 19.8436 2.11949C19.899 1.54271 20.1345 0.998007 20.5169 0.562591C20.6863 0.381723 20.8972 0.244859 21.1315 0.163853C21.3657 0.0828472 21.6161 0.0601378 21.8611 0.0976856C22.106 0.135233 22.3382 0.231908 22.5374 0.379345C22.7366 0.526783 22.8968 0.720542 23.0043 0.943849C23.6216 1.97869 24.2571 2.99539 24.82 4.03023C25.6733 5.46449 26.5085 6.8806 27.3074 8.2967C31.556 15.6314 35.2781 22.8935 38.4555 29.8288C39.1636 31.372 39.8354 32.8788 40.489 34.4039C43.0854 40.3951 45.2824 46.1321 47.1706 51.6695C47.788 53.485 48.369 55.3005 48.9863 56.9889" fill="#C9DF87"/>
</g>
<defs>
<clipPath id="clip0_8_11371">
<rect width="261" height="62" fill="white"/>
</clipPath>
</defs>
</svg>
