<svg width="445" height="216" viewBox="0 0 445 216" fill="none" xmlns="http://www.w3.org/2000/svg">
<g clip-path="url(#clip0_8_11592)">
<path d="M109.1 128.4C100.8 138.8 88.1 144 70.9 144C54.4 144 41.5 139.1 32.1 129.3C22.7 119.5 18 108.4 18 96.2001C18 82.2001 22.8 70.5001 32.5 61.2001C42.2 51.9001 54.3 47.2001 68.8 47.2001C76.7619 47.1789 84.6485 48.7426 92 51.8001L97.2 34.7001C87.5019 31.2853 77.2812 29.5931 67 29.7001C48.4 29.7001 32.6 36.1001 19.6 48.9001C6.6 61.7001 0.0666667 77.2001 0 95.4001C0 112.733 6.36666 128.133 19.1 141.6C31.9 155.1 48.9 161.8 70.4 161.8C79.8 161.8 87.9 160.8 94.7 158.7C101.685 156.515 108.174 152.982 113.8 148.3C117.57 145.216 120.99 141.729 124 137.9L109.1 128.4Z" fill="#EF3A37"/>
<path d="M372.6 114.3H354.8V163.8H372.6V114.3Z" fill="#EF3A37"/>
<path d="M372.6 23.3999H354.8V90.2999H372.6V23.3999Z" fill="#EF3A37"/>
<path d="M142.4 116.7L74.9 78.3999L66.5 93.0999L113.4 119.7L132.5 130.5C133.085 129.095 133.753 127.726 134.5 126.4C136.189 123.426 138.238 120.672 140.6 118.2L142.4 116.7Z" fill="#EF3A37"/>
<path d="M181 141.2C173.259 141.192 165.724 138.704 159.5 134.1C152.9 129.4 148.7 121.9 146.9 111.6H232.2C232.4 94.8002 227.3 81.1002 217.1 70.6002C206.9 60.1002 194.5 54.8002 180.2 54.8002C173.271 54.6741 166.391 55.9966 160.003 58.6829C153.614 61.3692 147.857 65.3602 143.1 70.4002C136.376 77.079 131.634 85.4901 129.4 94.7002C129.2 95.5002 129 96.2002 128.8 97.0002C128.19 100.332 127.888 103.713 127.9 107.1C127.9 108.6 128 110.1 128.1 111.6C128.3 113.8 128.5 116 128.9 118.2C130.744 128.345 135.626 137.691 142.9 145C152.9 155.2 165.3 160.3 180.2 160.3C199.6 160.3 215 152.8 226.6 137.9L211.2 126.3C202.9 136.3 192.9 141.2 181 141.2ZM149 94.9002C155.2 81.2002 165.6 74.3002 180 74.3002C193.2 74.3002 203.2 81.2002 210 94.9002" fill="#EF3A37"/>
<path d="M259.9 126.4L244.5 138C256 152.9 271.467 160.367 290.9 160.4C305.8 160.4 318.2 155.3 328.2 145.1C335.51 137.817 340.398 128.459 342.2 118.3C342.577 116.115 342.844 113.912 343 111.7C343.1 110.2 343.2 108.7 343.2 107.2C343.212 103.813 342.91 100.432 342.3 97.0998C342.2 96.2998 341.9 95.5998 341.8 94.7998C339.566 85.5897 334.824 77.1786 328.1 70.4998C323.343 65.4598 317.586 61.4688 311.197 58.7825C304.809 56.0962 297.929 54.7737 291 54.8998C276.6 54.8998 264.3 60.1998 254.1 70.6998C243.9 81.1998 238.8 94.8998 239 111.7H324.2C322.3 121.9 318.1 129.4 311.6 134.2C305.376 138.803 297.841 141.292 290.1 141.3C278 141.2 268 136.3 259.9 126.4ZM260.9 94.8998C267.7 81.1998 277.7 74.2998 290.9 74.2998C305.4 74.2998 315.7 81.1998 321.9 94.8998" fill="#EF3A37"/>
<path d="M394.1 102L430.5 63H407.5L378.3 94H341.1C342.256 99.4867 342.693 105.101 342.4 110.7H379.2L422.9 163.2H444.8L394.1 102Z" fill="#EF3A37"/>
<path d="M202.9 32.1V3.60001H192.8V0H217.1V3.60001H206.9V32.1H202.9Z" fill="#EF3A37"/>
<path d="M245 32.1001V17.4001H226.3V32.1001H222.3V0.100098H226.3V13.8001H245V0.100098H249V32.1001H245Z" fill="#EF3A37"/>
<path d="M256.5 32.1001V0.100098H277.5V3.7001H260.5V14.0001H277.2V17.6001H260.5V28.6001H277.5V32.2001L256.5 32.1001Z" fill="#EF3A37"/>
<path d="M152.1 210.1L154.5 207.1C155.759 208.542 157.311 209.698 159.053 210.491C160.795 211.285 162.686 211.697 164.6 211.7C170.3 211.7 172.1 208.6 172.1 206.2C172.1 197.9 153.1 202.5 153.1 191.1C153.1 185.8 157.8 182.2 164.1 182.2C169 182.2 172.8 183.8 175.5 186.7L173.1 189.6C171.899 188.355 170.452 187.375 168.85 186.72C167.249 186.066 165.529 185.753 163.8 185.8C160 185.8 157.2 187.9 157.2 190.9C157.2 198.1 176.2 194 176.2 205.9C176.2 210.6 173 215.3 164.4 215.3C158.8 215.2 154.8 213.1 152.1 210.1Z" fill="#EF3A37"/>
<path d="M189.8 214.7V186.2H179.7V182.6H204V186.2H193.8V214.7H189.8Z" fill="#EF3A37"/>
<path d="M209.2 202.2V182.6H213.2V202.1C213.2 208 216.4 211.7 222.3 211.7C228.2 211.7 231.4 208 231.4 202.1V182.6H235.4V202.1C235.4 210.1 231 215.2 222.3 215.2C213.6 215.2 209.2 210.1 209.2 202.2Z" fill="#EF3A37"/>
<path d="M242.8 214.7V182.7H253.7C263.6 182.7 270.1 189.7 270.1 198.7C270.1 207.7 263.6 214.7 253.7 214.7H242.8ZM266.1 198.7C266.1 191.8 261.7 186.2 253.8 186.2H246.8V211.1H253.8C261.6 211.1 266.1 205.5 266.1 198.7Z" fill="#EF3A37"/>
<path d="M276.4 214.7V182.7H280.4V214.7H276.4Z" fill="#EF3A37"/>
<path d="M286.6 198.7C286.6 189.2 293 182.1 302.5 182.1C312 182.1 318.4 189.2 318.4 198.7C318.4 208.2 312 215.3 302.5 215.3C293 215.3 286.6 208.1 286.6 198.7ZM314.3 198.7C314.3 191.2 309.7 185.7 302.5 185.7C295.3 185.7 290.7 191.2 290.7 198.7C290.7 206.2 295.3 211.7 302.5 211.7C309.7 211.7 314.3 206.1 314.3 198.7Z" fill="#EF3A37"/>
</g>
<defs>
<clipPath id="clip0_8_11592">
<rect width="444.8" height="215.3" fill="white"/>
</clipPath>
</defs>
</svg>
