<svg width="235" height="134" viewBox="0 0 235 134" fill="none" xmlns="http://www.w3.org/2000/svg">
<path d="M72.8725 68.2255C69.596 72.3143 64.5826 74.3587 57.7927 74.3587C51.2792 74.3587 46.1868 72.4322 42.4761 68.5793C38.7653 64.7264 36.91 60.3624 36.91 55.5659C36.91 50.0618 38.8048 45.4619 42.634 41.8056C46.4631 38.1492 51.2397 36.3014 56.9637 36.3014C60.2007 36.3014 63.2799 36.9305 66.1221 38.1099L68.1749 31.387C64.5826 30.0896 60.5955 29.4212 56.2531 29.4212C48.9106 29.4212 42.6734 31.9374 37.5416 36.9698C32.3702 42.0021 29.8043 48.096 29.8043 55.2514C29.8043 62.053 32.3307 68.1075 37.3442 73.4151C42.3971 78.7227 49.108 81.3568 57.5953 81.3568C61.3061 81.3568 64.5036 80.9636 67.188 80.138C69.8723 79.3124 72.3593 77.9757 74.7279 76.0492C76.2674 74.7911 77.6096 73.4151 78.7544 71.9604L72.8725 68.2255Z" fill="#EF3A37"/>
<path d="M176.891 62.682H169.865V82.1431H176.891V62.682Z" fill="#EF3A37"/>
<path d="M176.891 26.9444H169.865V53.2463H176.891V26.9444Z" fill="#EF3A37"/>
<path d="M86.018 63.6256L59.3718 48.5678L56.0558 54.3472L74.57 64.805L82.1099 69.0511C82.3467 68.5007 82.5836 67.9896 82.8994 67.4392C83.5705 66.2597 84.3995 65.1589 85.3074 64.2153C85.5443 64.0187 85.7811 63.8222 86.018 63.6256Z" fill="#EF3A37"/>
<path d="M101.256 73.2578C98.1766 73.2578 95.3738 72.3142 92.7684 70.4664C90.163 68.6186 88.505 65.67 87.7944 61.6205H121.467C121.546 55.0155 119.533 49.6293 115.506 45.5012C111.48 41.3731 106.585 39.2894 100.94 39.2894C95.1764 39.2894 90.2814 41.3338 86.2943 45.4226C83.531 48.2533 81.7151 51.4378 80.8861 54.9762C80.8072 55.2907 80.7282 55.5659 80.6493 55.8804C80.4124 57.1385 80.294 58.4752 80.294 59.8513C80.294 60.441 80.3335 61.0307 80.3729 61.6205C80.4519 62.4854 80.5308 63.3503 80.6887 64.2153C81.4388 68.2648 83.2941 71.7638 86.2154 74.7518C90.1629 78.762 95.058 80.767 100.94 80.767C108.598 80.767 114.677 77.8184 119.257 71.9604L113.177 67.3998C109.901 71.3314 105.953 73.2578 101.256 73.2578ZM88.6234 55.0548C91.0709 49.6686 95.1764 46.9559 100.861 46.9559C106.072 46.9559 110.019 49.6686 112.704 55.0548" fill="#EF3A37"/>
<path d="M132.402 67.4392L126.323 71.9997C130.863 77.8577 136.981 80.8064 144.64 80.8064C150.522 80.8064 155.417 78.8013 159.364 74.7911C162.325 71.8032 164.141 68.3041 164.891 64.2546C165.049 63.429 165.128 62.5641 165.207 61.6598C165.246 61.0701 165.286 60.4803 165.286 59.8906C165.286 58.5146 165.167 57.1779 164.93 55.9198C164.891 55.6052 164.772 55.33 164.733 55.0155C163.904 51.4771 162.088 48.2926 159.325 45.4619C155.338 41.3731 150.443 39.3287 144.679 39.3287C138.995 39.3287 134.139 41.4124 130.113 45.5405C126.086 49.6686 124.073 55.0548 124.152 61.6598H157.785C157.035 65.67 155.377 68.6186 152.811 70.5058C150.206 72.3536 147.403 73.2971 144.324 73.2971C139.547 73.2578 135.6 71.3314 132.402 67.4392ZM132.797 55.0548C135.481 49.6686 139.429 46.9559 144.64 46.9559C150.364 46.9559 154.43 49.6686 156.877 55.0548" fill="#EF3A37"/>
<path d="M185.379 57.8462L199.748 42.5132H190.669L179.142 54.701H164.457C164.891 57.1385 165.049 58.0821 164.97 61.2667H179.497L196.748 81.9072H205.393L185.379 57.8462Z" fill="#EF3A37"/>
<path d="M109.901 30.3648V19.1599H105.914V17.7446H115.506V19.1599H111.48V30.3648H109.901Z" fill="#EF3A37"/>
<path d="M126.52 30.3648V24.5854H119.138V30.3648H117.559V17.7839H119.138V23.1701H126.52V17.7839H128.099V30.3648H126.52Z" fill="#EF3A37"/>
<path d="M131.06 30.3648V17.7839H139.35V19.1992H132.639V23.2487H139.231V24.6641H132.639V28.9887H139.35V30.4041L131.06 30.3648Z" fill="#EF3A37"/>
<path d="M89.8471 100.346L90.7946 99.1666C91.6236 100.11 93.0052 100.975 94.7816 100.975C97.0318 100.975 97.7423 99.7564 97.7423 98.8128C97.7423 95.5496 90.2419 97.3581 90.2419 92.8762C90.2419 90.7925 92.0973 89.3771 94.5842 89.3771C96.5186 89.3771 98.0186 90.0062 99.0845 91.1463L98.1371 92.2864C97.1897 91.2642 95.8475 90.7925 94.4658 90.7925C92.9657 90.7925 91.8604 91.6181 91.8604 92.7975C91.8604 95.6282 99.3608 94.0163 99.3608 98.6948C99.3608 100.543 98.0976 102.39 94.7027 102.39C92.492 102.351 90.913 101.526 89.8471 100.346Z" fill="#EF3A37"/>
<path d="M104.73 102.155V90.9497H100.742V89.5344H110.335V90.9497H106.309V102.155H104.73Z" fill="#EF3A37"/>
<path d="M112.388 97.2402V89.5344H113.967V97.2009C113.967 99.5205 115.23 100.975 117.559 100.975C119.888 100.975 121.152 99.5205 121.152 97.2009V89.5344H122.731V97.2009C122.731 100.346 120.994 102.351 117.559 102.351C114.125 102.351 112.388 100.346 112.388 97.2402Z" fill="#EF3A37"/>
<path d="M125.652 102.155V89.5737H129.955C133.863 89.5737 136.429 92.3258 136.429 95.8642C136.429 99.4418 133.863 102.155 129.955 102.155H125.652ZM134.85 95.8642C134.85 93.1514 133.113 90.9497 129.994 90.9497H127.231V100.739H129.994C133.073 100.739 134.85 98.5376 134.85 95.8642Z" fill="#EF3A37"/>
<path d="M138.916 102.155V89.5737H140.495V102.155H138.916Z" fill="#EF3A37"/>
<path d="M142.942 95.8641C142.942 92.1292 145.469 89.3378 149.219 89.3378C152.969 89.3378 155.496 92.1292 155.496 95.8641C155.496 99.5991 152.969 102.39 149.219 102.39C145.469 102.351 142.942 99.5598 142.942 95.8641ZM153.877 95.8641C153.877 92.9155 152.061 90.7532 149.219 90.7532C146.377 90.7532 144.561 92.9155 144.561 95.8641C144.561 98.7735 146.377 100.975 149.219 100.975C152.061 100.975 153.877 98.7735 153.877 95.8641Z" fill="#EF3A37"/>
</svg>
