<svg width="124" height="144" viewBox="0 0 137 144" fill="none" xmlns="http://www.w3.org/2000/svg">
<g clip-path="url(#clip0_8_351)">
<path d="M60.3561 12.0063H46.2102H46.1741C46.0808 12.0065 45.9878 12.0159 45.8963 12.0342H45.8713C45.7842 12.0533 45.6987 12.0794 45.6157 12.1121L45.5324 12.1483C45.4685 12.1789 45.4046 12.2123 45.3435 12.2484L45.2685 12.2957C45.1867 12.3525 45.1095 12.4158 45.0379 12.4849L24.972 32.5188C24.9022 32.59 24.839 32.6673 24.7831 32.7498L24.7358 32.8249C24.6978 32.8858 24.6635 32.949 24.633 33.0141C24.633 33.0419 24.608 33.0697 24.5969 33.0948C24.5624 33.1854 24.5346 33.2784 24.5136 33.373C24.496 33.4704 24.4867 33.569 24.4858 33.668C24.4858 33.668 24.4858 33.6902 24.4858 33.7014V61.7627C24.4858 62.2055 24.6614 62.6301 24.974 62.9432C25.2866 63.2563 25.7106 63.4322 26.1526 63.4322C26.5947 63.4322 27.0187 63.2563 27.3313 62.9432C27.6439 62.6301 27.8195 62.2055 27.8195 61.7627V35.3876H41.7764C43.3974 35.3876 44.9519 34.7426 46.0981 33.5946C47.2443 32.4466 47.8882 30.8896 47.8882 29.2661V15.3537H60.3617C60.8037 15.3537 61.2277 15.1778 61.5403 14.8647C61.8529 14.5516 62.0285 14.127 62.0285 13.6842C62.0285 13.2414 61.8529 12.8168 61.5403 12.5037C61.2277 12.1906 60.8037 12.0147 60.3617 12.0147L60.3561 12.0063ZM44.5351 29.2577C44.5351 29.9928 44.2447 30.698 43.7273 31.2194C43.2099 31.7407 42.5076 32.0358 41.7737 32.0402H30.1919L31.7615 30.4737L44.5406 17.7243L44.5351 29.2577Z" fill="white"/>
<path d="M41.9931 122.237C41.5511 122.237 41.1271 122.413 40.8145 122.726C40.5019 123.039 40.3263 123.464 40.3263 123.907C40.3263 124.35 40.5019 124.774 40.8145 125.087C41.1271 125.4 41.5511 125.576 41.9931 125.576H85.392L84.3336 127.093C83.9246 127.678 83.6348 128.339 83.4807 129.037C83.3267 129.735 83.3114 130.456 83.4357 131.16C83.5601 131.864 83.8216 132.536 84.2054 133.139C84.5892 133.742 85.0877 134.263 85.6726 134.672C86.8507 135.497 88.3073 135.821 89.7232 135.572C91.1391 135.323 92.3988 134.522 93.2261 133.345L115.287 101.747V118.998C115.286 119.854 114.947 120.674 114.343 121.279C113.739 121.884 112.921 122.225 112.067 122.226H106.614C106.172 122.226 105.748 122.402 105.435 122.715C105.122 123.028 104.947 123.453 104.947 123.896C104.947 124.338 105.122 124.763 105.435 125.076C105.748 125.389 106.172 125.565 106.614 125.565H112.067C113.808 125.563 115.477 124.869 116.708 123.636C117.939 122.403 118.632 120.731 118.634 118.987V96.9528L131.111 79.0837C132.201 77.524 132.942 75.7475 133.286 73.8749L134.439 67.6227C134.479 67.4067 134.476 67.1849 134.43 66.97C134.385 66.7551 134.297 66.5514 134.173 66.3704C134.048 66.1895 133.89 66.0349 133.705 65.9156C133.521 65.7962 133.315 65.7144 133.1 65.6749C132.712 65.6021 132.312 65.6692 131.969 65.8642L126.485 68.9972C124.769 69.9758 123.291 71.3233 122.157 72.9428L118.643 77.9735V40.7383C118.643 40.2956 118.467 39.8709 118.154 39.5578C117.842 39.2447 117.418 39.0688 116.976 39.0688C116.534 39.0688 116.11 39.2447 115.797 39.5578C115.485 39.8709 115.309 40.2956 115.309 40.7383V81.7966C115.309 82.0435 115.365 82.2871 115.473 82.509L87.7422 122.226L41.9931 122.237ZM124.896 74.8404C125.745 73.6288 126.851 72.6205 128.135 71.8882L130.505 70.5415L130.002 73.2544C129.746 74.6553 129.191 75.9842 128.374 77.1499L115.581 95.4753L90.4925 131.411C90.3355 131.636 90.1358 131.828 89.9047 131.975C89.6737 132.123 89.4159 132.224 89.146 132.271C88.8762 132.319 88.5996 132.313 88.332 132.254C88.0645 132.195 87.8112 132.083 87.5867 131.926C87.3622 131.769 87.1708 131.569 87.0234 131.338C86.8761 131.107 86.7757 130.849 86.728 130.579C86.6802 130.309 86.6861 130.032 86.7453 129.764C86.8044 129.496 86.9157 129.243 87.0727 129.018L124.896 74.8404Z" fill="white"/>
<path d="M1.10289 132.062C11.6595 135.891 29.853 137.905 30.6225 137.989C31.0274 138.035 31.4349 137.93 31.7682 137.695C32.1014 137.46 32.3372 137.112 32.4311 136.714L35.4869 124.093C35.5394 123.879 35.5492 123.657 35.5155 123.439C35.4818 123.221 35.4055 123.012 35.2908 122.824C35.1761 122.636 35.0254 122.473 34.8474 122.343C34.6694 122.214 34.4675 122.121 34.2535 122.07H34.2007L32.2783 121.67L35.1202 110.857C37.5094 111.041 39.9457 111.077 41.7153 111.079C43.1511 111.085 44.5501 110.625 45.7044 109.77C46.8586 108.915 47.7064 107.709 48.1215 106.333L49.3383 102.379C49.4038 102.168 49.427 101.946 49.4065 101.727C49.386 101.507 49.3223 101.294 49.2189 101.099C49.1156 100.904 48.9748 100.732 48.8045 100.592C48.6343 100.452 48.438 100.347 48.2271 100.283H48.2049C43.7794 98.984 39.1567 96.3518 36.0564 94.3707C34.3034 93.2499 32.9874 91.5605 32.3283 89.5848C30.4503 83.9197 29.1946 75.7809 28.6112 71.4319C28.453 70.2479 27.8318 69.1753 26.8842 68.45C25.9365 67.7247 24.7401 67.4061 23.5579 67.5642C23.0418 67.6338 22.5416 67.7929 22.08 68.0345L20.691 68.7551C20.1357 67.5519 19.1267 66.6182 17.8853 66.1587C16.6439 65.6992 15.2712 65.7513 14.0681 66.3038C13.7563 66.448 13.4602 66.6243 13.1847 66.8297L7.35074 71.1731C6.54256 71.7742 5.89592 72.5667 5.46877 73.4797C5.04162 74.3926 4.84732 75.3975 4.90327 76.4042C5.00606 78.3519 5.18107 80.0798 5.31164 81.0954L3.48369 82.5396C2.69147 83.1597 2.06604 83.9678 1.66395 84.8909C1.26185 85.8139 1.09575 86.8228 1.18067 87.8263C1.74708 94.2211 3.69505 100.416 6.88958 105.982C7.36741 106.807 7.52841 107.779 7.3424 108.714L5.86171 116.188L4.84493 115.979C4.41323 115.888 3.96286 115.971 3.5926 116.212C3.22233 116.452 2.96238 116.83 2.86973 117.262L0.0499952 130.151C-0.0328514 130.543 0.0279363 130.952 0.22125 131.303C0.414564 131.654 0.727509 131.923 1.10289 132.062ZM4.50601 87.523C4.46915 87.0732 4.54455 86.6213 4.72544 86.2079C4.90633 85.7946 5.18701 85.4328 5.54222 85.1551L5.84226 84.9186C6.38417 88.0474 7.31075 91.097 8.60087 93.9978C8.69265 94.1981 8.82311 94.3782 8.98474 94.5278C9.14636 94.6773 9.33594 94.7933 9.54255 94.8691C9.74916 94.9449 9.9687 94.979 10.1885 94.9694C10.4083 94.9597 10.6241 94.9066 10.8233 94.8131C11.0231 94.7209 11.2026 94.59 11.3516 94.4281C11.5006 94.2661 11.6162 94.0761 11.6916 93.8692C11.767 93.6623 11.8008 93.4425 11.791 93.2224C11.7812 93.0024 11.728 92.7865 11.6345 92.5871C9.31483 87.5786 8.75365 81.7187 8.7481 81.6575C8.7481 81.6575 8.7481 81.638 8.7481 81.6297C8.75083 81.6103 8.75083 81.5906 8.7481 81.5712C8.7481 81.5518 8.40084 79.131 8.24805 76.215C8.22349 75.7594 8.31215 75.3049 8.50609 74.8921C8.70002 74.4794 8.99317 74.1212 9.35927 73.8499L10.94 72.6756C11.19 76.777 11.9734 83.9697 14.4431 89.6794C14.5299 89.8818 14.6557 90.065 14.8135 90.2185C14.9712 90.372 15.1577 90.4927 15.3622 90.5736C15.5667 90.6546 15.7852 90.6942 16.0051 90.6902C16.225 90.6862 16.4419 90.6386 16.6433 90.5503C16.8458 90.4635 17.029 90.3373 17.1825 90.1791C17.3359 90.0209 17.4566 89.8338 17.5374 89.6286C17.6183 89.4235 17.6577 89.2043 17.6535 88.9838C17.6493 88.7632 17.6015 88.5457 17.5129 88.3438C14.7348 81.8996 14.2626 72.9901 14.1792 70.2577L15.1932 69.5036C15.5391 69.2471 15.9722 69.1376 16.3982 69.1991C16.8243 69.2606 17.2089 69.488 17.4684 69.8319C17.6438 70.0687 17.7522 70.3484 17.7824 70.6417L17.8574 71.379C17.8963 71.8298 18.5797 79.7598 20.3771 86.5213C20.4311 86.7347 20.5268 86.9353 20.6586 87.1115C20.7904 87.2877 20.9557 87.4361 21.1449 87.5481C21.3342 87.6601 21.5437 87.7334 21.7614 87.764C21.9791 87.7945 22.2007 87.7817 22.4134 87.7261C22.6264 87.6719 22.8267 87.5761 23.0027 87.4441C23.1786 87.3121 23.3267 87.1466 23.4385 86.957C23.5503 86.7674 23.6236 86.5576 23.6541 86.3396C23.6846 86.1215 23.6718 85.8996 23.6163 85.6865C23.6178 85.6773 23.6178 85.6679 23.6163 85.6587C22.2661 80.5751 21.555 74.6123 21.3049 72.1915L23.6274 70.9811C23.8978 70.8404 24.213 70.8129 24.5036 70.9047C24.7943 70.9965 25.0367 71.2002 25.1775 71.4708C25.2393 71.5899 25.2797 71.719 25.297 71.852C26.0276 77.3029 27.2889 84.9853 29.1529 90.6143C30.0545 93.3203 31.8559 95.6344 34.2562 97.1698C37.1732 99.0341 41.3792 101.447 45.6463 102.952L44.9157 105.323C44.7077 106.013 44.2829 106.618 43.7044 107.048C43.1258 107.477 42.4244 107.708 41.7042 107.707C39.142 107.733 36.5802 107.629 34.0284 107.395C33.6299 107.351 33.2288 107.452 32.8987 107.68C32.5685 107.908 32.3315 108.248 32.231 108.636L28.9835 120.993L9.12593 116.856L10.615 109.343C10.963 107.608 10.6666 105.805 9.78154 104.274C6.83127 99.1392 5.03116 93.4236 4.50601 87.523ZM5.77281 119.574L31.831 124.989L29.5391 134.483C25.2109 133.949 12.2207 132.193 3.64204 129.385L5.77281 119.574Z" fill="white"/>
<path d="M132.55 3.60874L119.451 4.99998C119.232 5.02084 119.019 5.08503 118.824 5.18885C118.63 5.29266 118.458 5.43404 118.318 5.60481C118.179 5.77558 118.075 5.97235 118.012 6.18375C117.948 6.39515 117.928 6.61698 117.951 6.83642L118.051 7.87429L110.47 8.52817C109.525 8.61153 108.582 8.34634 107.819 7.78246C102.646 3.99213 96.7105 1.3745 90.4258 0.11116C89.4401 -0.0821846 88.4218 -0.0270202 87.4626 0.271689C86.5034 0.570399 85.6334 1.10328 84.9308 1.82239L83.3001 3.49188C82.3056 3.26093 80.6221 2.89086 78.6857 2.57087C77.6931 2.40305 76.6744 2.48478 75.7212 2.80872C74.7679 3.13265 73.9098 3.68865 73.2241 4.42679L67.6874 10.3952C66.8785 11.2742 66.4513 12.4389 66.4997 13.6334C66.5482 14.8278 67.0683 15.954 67.9458 16.7643C68.3347 17.1238 68.7831 17.4129 69.2709 17.6185L68.8986 18.175C68.5345 18.7192 68.281 19.3299 68.1526 19.9723C68.0242 20.6147 68.0235 21.2761 68.1504 21.9187C68.2773 22.5614 68.5295 23.1727 68.8924 23.7177C69.2553 24.2627 69.7219 24.7307 70.2655 25.0951C70.7394 25.4132 71.2648 25.6467 71.8184 25.7851C76.8189 27.0456 83.8029 29.0267 88.7784 31.3111C90.6672 32.1846 92.1998 33.6804 93.1205 35.5489C94.7457 38.8517 96.8543 43.7433 97.6571 48.2898C97.6943 48.5077 97.7743 48.716 97.8925 48.9027C98.0107 49.0893 98.1647 49.2506 98.3456 49.3772C98.5265 49.5037 98.7307 49.5931 98.9463 49.64C99.1619 49.6869 99.3847 49.6905 99.6018 49.6505H99.624L103.68 48.8714C105.089 48.6079 106.376 47.8976 107.351 46.8454C108.326 45.7933 108.937 44.455 109.094 43.0282C109.289 41.278 109.517 38.8377 109.594 36.4365L120.618 34.7725L120.804 36.7342C120.842 37.1499 121.034 37.5362 121.343 37.817C121.652 38.0977 122.054 38.2524 122.471 38.2506C122.541 38.2502 122.612 38.2455 122.682 38.2367L135.542 36.5867C135.947 36.5363 136.32 36.3383 136.589 36.0305C136.859 35.7227 137.006 35.3265 137.003 34.9172C137.003 34.1437 137.003 15.8044 134.355 4.86642C134.258 4.47295 134.021 4.12836 133.689 3.89694C133.357 3.66552 132.952 3.56308 132.55 3.60874ZM107.672 33.3117C107.276 33.3699 106.914 33.5689 106.652 33.8724C106.391 34.1759 106.247 34.5635 106.247 34.9645C106.207 37.5295 106.037 40.0908 105.738 42.6386C105.664 43.3568 105.359 44.0313 104.869 44.561C104.379 45.0908 103.731 45.4472 103.022 45.5769L100.585 46.0444C99.5629 41.6286 97.6266 37.1766 96.0958 34.0797C94.8431 31.5207 92.7513 29.4698 90.1702 28.2699C84.9642 25.8769 77.7579 23.8318 72.6324 22.538C72.2122 22.431 71.8516 22.1614 71.6297 21.7884C71.4078 21.4154 71.3428 20.9695 71.4489 20.5485C71.4965 20.3674 71.5735 20.1954 71.6767 20.0393L72.749 18.4366C75.1215 18.9513 80.9582 20.3092 85.8587 22.2124C86.0644 22.2913 86.2836 22.3287 86.5037 22.3222C86.7239 22.3158 86.9406 22.2657 87.1413 22.1749C87.342 22.0841 87.5228 21.9543 87.6731 21.7931C87.8235 21.6319 87.9404 21.4425 88.0172 21.2358C88.1736 20.8249 88.1618 20.3689 87.9844 19.9667C87.807 19.5645 87.4784 19.2487 87.0699 19.0877C80.547 16.5556 72.7435 15.0058 72.3157 14.914L70.7572 14.5801C70.6097 14.5484 70.47 14.4879 70.3459 14.402C70.2218 14.3162 70.1159 14.2067 70.0341 14.0798C69.9523 13.9529 69.8963 13.8111 69.8692 13.6625C69.8422 13.514 69.8447 13.3615 69.8765 13.2139C69.9202 13.0118 70.016 12.8247 70.1543 12.6713L71.5961 11.1159C74.2964 11.4887 83.0779 12.9189 89.1785 16.4026C89.3692 16.5126 89.5798 16.5838 89.7982 16.6118C90.0165 16.6399 90.2382 16.6244 90.4505 16.5662C90.6628 16.508 90.8615 16.4082 91.0351 16.2727C91.2088 16.1372 91.3538 15.9685 91.462 15.7765C91.572 15.5857 91.6432 15.3749 91.6714 15.1563C91.6997 14.9377 91.6844 14.7157 91.6266 14.5031C91.5687 14.2905 91.4694 14.0914 91.3344 13.9174C91.1993 13.7434 91.0312 13.5979 90.8398 13.4893C85.4475 10.4175 78.3829 8.85094 74.3353 8.15532L75.6716 6.70843C75.9819 6.376 76.3696 6.12578 76.8001 5.98011C77.2306 5.83445 77.6904 5.79788 78.1385 5.87368C81.0193 6.3467 83.3779 6.95607 83.4001 6.96441H83.4557C83.4658 6.96285 83.4761 6.96285 83.4862 6.96441C83.5446 6.96441 89.2924 8.16645 94.0151 11.0352C94.2024 11.1508 94.4106 11.2281 94.6279 11.2627C94.8451 11.2973 95.0671 11.2884 95.2809 11.2367C95.4947 11.185 95.6962 11.0914 95.8738 10.9613C96.0513 10.8312 96.2014 10.6672 96.3153 10.4787C96.4303 10.2912 96.5071 10.0829 96.5414 9.86554C96.5757 9.64823 96.5668 9.42628 96.5152 9.21243C96.4635 8.99859 96.3702 8.79708 96.2406 8.61948C96.1109 8.44188 95.9475 8.29171 95.7597 8.17758C93.0208 6.57722 90.0946 5.32297 87.0477 4.44349L87.3255 4.16524C87.6401 3.84195 88.03 3.60221 88.4602 3.46765C88.8904 3.33309 89.3473 3.30795 89.7897 3.39449C95.5879 4.55809 101.063 6.97267 105.836 10.4703C107.258 11.5223 109.014 12.0171 110.775 11.8616L118.384 11.2049L120.307 31.4252L107.672 33.3117ZM123.963 34.703L121.443 8.18036L131.411 7.12023C133.255 15.9657 133.577 29.1018 133.633 33.462L123.963 34.703Z" fill="white"/>
<path d="M70.5627 38.3619C63.4299 38.4644 56.6299 41.4008 51.6586 46.5251C46.6874 51.6493 43.9521 58.5417 44.0545 65.6858C44.1203 70.3445 45.3915 74.9065 47.7438 78.9261C50.0961 82.9456 53.4491 86.2854 57.4753 88.6191C57.6983 88.7522 57.8827 88.9414 58.0104 89.1678C58.138 89.3942 58.2045 89.6501 58.2031 89.9101V101.377C58.2068 104.345 59.3858 107.191 61.4814 109.29C63.5771 111.389 66.4183 112.57 69.382 112.573H72.5157C75.4799 112.571 78.3218 111.39 80.4181 109.291C82.5144 107.192 83.6937 104.346 83.6974 101.377V95.6894C83.6974 95.2466 83.5218 94.8219 83.2092 94.5088C82.8966 94.1958 82.4726 94.0199 82.0305 94.0199H76.3077V89.1505C76.3066 88.4479 76.4725 87.7551 76.7919 87.1294C77.1112 86.5038 77.5747 85.9633 78.144 85.5528C80.9582 83.5355 85.8643 79.2532 87.0866 73.193C87.1199 73.0065 87.8895 68.5601 86.1337 64.4699C85.5865 63.1907 84.7614 62.0497 83.7186 61.1299C82.6758 60.2101 81.4415 59.5346 80.1053 59.1526C78.7885 58.7591 77.4007 58.6643 76.0427 58.8752C74.6848 59.086 73.3907 59.597 72.2546 60.3713C72.0724 60.4952 71.9166 60.6541 71.7962 60.8386C71.6757 61.0232 71.5929 61.2299 71.5526 61.4467C71.5123 61.6635 71.5153 61.8861 71.5614 62.1018C71.6075 62.3174 71.6958 62.5218 71.8212 62.703C71.9451 62.8852 72.1039 63.041 72.2883 63.1614C72.4726 63.2818 72.679 63.3645 72.8955 63.4046C73.1119 63.4447 73.3341 63.4414 73.5493 63.395C73.7645 63.3486 73.9684 63.26 74.1492 63.1343C74.8767 62.6393 75.7053 62.3128 76.5745 62.1785C77.4438 62.0442 78.332 62.1055 79.1747 62.358C80.0362 62.6023 80.8323 63.036 81.5051 63.6276C82.178 64.2192 82.7105 64.9538 83.064 65.7777C84.4141 68.9219 83.8029 72.5502 83.8029 72.5502C82.8167 77.4474 78.6163 81.0813 76.2022 82.812C75.2005 83.5327 74.3847 84.482 73.8223 85.5814C73.26 86.6808 72.9673 87.8986 72.9685 89.1338V94.0032H69.2792V89.1422C69.2806 87.9066 68.9877 86.6885 68.4248 85.589C67.8619 84.4895 67.0453 83.5404 66.0428 82.8204C63.8399 81.2786 61.9285 79.3565 60.3978 77.1441C60.2796 76.9581 60.1257 76.7973 59.9451 76.6712C59.7645 76.545 59.5607 76.4559 59.3456 76.4091C59.1304 76.3623 58.9081 76.3586 58.6915 76.3983C58.4749 76.438 58.2683 76.5203 58.0837 76.6405C57.8979 76.7589 57.7374 76.913 57.6115 77.0939C57.4855 77.2748 57.3966 77.4789 57.3499 77.6944C57.3031 77.9099 57.2994 78.1326 57.3391 78.3495C57.3787 78.5664 57.4609 78.7733 57.5808 78.9583L57.6031 78.9917C59.3603 81.5474 61.56 83.7676 64.0982 85.5472C64.6667 85.9584 65.1294 86.499 65.4482 87.1246C65.767 87.7501 65.9327 88.4426 65.9317 89.145V94.0143H61.5562V89.9074C61.5564 89.0601 61.3352 88.2275 60.9146 87.4924C60.494 86.7573 59.8887 86.1452 59.1588 85.7169C55.4863 83.5865 52.4563 80.5022 50.3889 76.7898C48.3215 73.0775 47.2934 68.8748 47.4131 64.6257C47.7604 52.1658 58.1698 41.8873 70.6183 41.712C73.7113 41.6671 76.7829 42.2329 79.6576 43.3771C82.5322 44.5213 85.1537 46.2215 87.3723 48.3805C89.5909 50.5396 91.3631 53.1152 92.5877 55.9604C93.8123 58.8055 94.4654 61.8644 94.5096 64.9624V65.2991C94.5013 69.4386 93.4096 73.5036 91.3433 77.0887C89.2769 80.6738 86.3083 83.6535 82.7334 85.7309C82.0084 86.1585 81.4077 86.7688 80.991 87.501C80.5743 88.2332 80.3561 89.0618 80.3582 89.9046C80.3582 90.3474 80.5338 90.772 80.8464 91.0851C81.1589 91.3982 81.5829 91.5741 82.025 91.5741C82.4671 91.5741 82.891 91.3982 83.2036 91.0851C83.5162 90.772 83.6918 90.3474 83.6918 89.9046C83.6881 89.6489 83.751 89.3966 83.8742 89.1727C83.9975 88.9487 84.1768 88.7608 84.3947 88.6274C88.4772 86.2556 91.8674 82.8531 94.2272 78.7592C96.587 74.6654 97.8338 70.0234 97.8433 65.2963C97.8433 58.1506 95.0092 51.2976 89.9644 46.2449C84.9197 41.1921 78.0776 38.3535 70.9433 38.3535L70.5627 38.3619ZM61.5562 97.3783H80.3554V101.388C80.3532 103.468 79.5274 105.461 78.0592 106.932C76.591 108.402 74.6004 109.229 72.524 109.232H69.3876C67.3096 109.229 65.3177 108.4 63.8493 106.927C62.381 105.454 61.5562 103.458 61.5562 101.377V97.3783Z" fill="white"/>
<path d="M24.8859 127.955C24.7782 127.977 24.673 128.01 24.5719 128.053C24.4753 128.095 24.3824 128.145 24.2941 128.203C24.205 128.266 24.1205 128.336 24.0413 128.412C23.8847 128.567 23.7603 128.752 23.6754 128.955C23.5906 129.159 23.5469 129.378 23.5469 129.598C23.5469 129.819 23.5906 130.038 23.6754 130.241C23.7603 130.445 23.8847 130.63 24.0413 130.785C24.1205 130.861 24.205 130.93 24.2941 130.994C24.3824 131.051 24.4753 131.102 24.5719 131.144C24.6735 131.186 24.7785 131.218 24.8859 131.241C24.9941 131.261 25.1037 131.272 25.2137 131.275C25.6557 131.275 26.0797 131.099 26.3923 130.786C26.7049 130.473 26.8805 130.048 26.8805 129.605C26.8823 129.385 26.8406 129.166 26.7576 128.962C26.6747 128.758 26.5522 128.572 26.3972 128.416C26.2423 128.259 26.0579 128.135 25.8548 128.05C25.6516 127.966 25.4337 127.922 25.2137 127.922C25.0999 127.922 24.9864 127.933 24.8747 127.955H24.8859Z" fill="white"/>
<path d="M130.816 27.989C130.772 27.8921 130.72 27.7991 130.66 27.7108C130.597 27.6206 130.528 27.535 130.452 27.4548C130.375 27.377 130.289 27.308 130.197 27.2489C130.11 27.1878 130.017 27.1364 129.919 27.0958C129.818 27.0521 129.713 27.0195 129.605 26.9984C129.281 26.9298 128.943 26.9611 128.637 27.0882C128.331 27.2154 128.071 27.4324 127.891 27.7108C127.83 27.7981 127.778 27.8913 127.735 27.989C127.693 28.0904 127.66 28.1957 127.638 28.3034C127.617 28.4107 127.606 28.5197 127.605 28.629C127.605 28.7393 127.616 28.8493 127.638 28.9573C127.66 29.0651 127.692 29.1705 127.735 29.2717C127.778 29.3695 127.83 29.4627 127.891 29.55C128.041 29.7819 128.246 29.9721 128.489 30.1029C128.732 30.2338 129.004 30.301 129.28 30.2985C129.389 30.2988 129.498 30.2867 129.605 30.2623C129.712 30.2431 129.818 30.2124 129.919 30.1705C130.015 30.1272 130.108 30.0761 130.197 30.0174C130.287 29.9539 130.373 29.8832 130.452 29.806C130.608 29.6504 130.731 29.4656 130.815 29.2622C130.899 29.0588 130.942 28.8407 130.941 28.6206C130.942 28.5113 130.932 28.4023 130.911 28.2951C130.887 28.1906 130.856 28.0883 130.816 27.989Z" fill="white"/>
<path d="M63.6148 75.4498C63.9554 76.1884 64.5007 76.8133 65.1858 77.2504C65.8708 77.6874 66.6668 77.9182 67.4791 77.9151C67.5577 77.9193 67.6365 77.9193 67.7152 77.9151C68.5588 77.8762 69.371 77.5831 70.0456 77.0742C70.7202 76.5654 71.2258 75.8644 71.4961 75.0631L71.5378 74.9462C72.0159 73.4543 72.1705 71.8773 71.9913 70.3207C71.8121 68.7641 71.3033 67.2637 70.4988 65.9198C67.6819 61.1729 63.1203 61.6654 62.2785 61.8018C56.6363 62.2943 54.8222 67.3862 54.9861 71.6156C54.994 71.8356 55.0452 72.0519 55.1369 72.252C55.2285 72.4521 55.3588 72.6321 55.5202 72.7816C55.6816 72.931 55.8709 73.0471 56.0772 73.123C56.2835 73.1989 56.5028 73.2332 56.7224 73.2239C56.9423 73.2163 57.1586 73.1653 57.3587 73.0736C57.5588 72.982 57.7388 72.8516 57.8883 72.6899C58.0379 72.5282 58.154 72.3385 58.2299 72.1317C58.3059 71.9249 58.3402 71.705 58.3309 71.4848C58.2587 69.6818 58.5393 65.4607 62.623 65.138C62.6939 65.1321 62.7645 65.1218 62.8342 65.1074C63.4775 65.0125 64.1341 65.0658 64.7538 65.2632C62.4286 68.4157 62.0174 71.9912 63.6148 75.4498ZM67.4124 67.2916C67.4818 67.3973 67.5513 67.5086 67.6207 67.6227C68.1823 68.5574 68.538 69.6015 68.664 70.6851C68.79 71.7686 68.6834 72.8666 68.3514 73.9056L68.3292 73.9779C68.2738 74.1452 68.1678 74.291 68.0259 74.3952C67.8841 74.4995 67.7133 74.5568 67.5374 74.5594C67.3543 74.5763 67.1705 74.5355 67.0116 74.4427C66.8528 74.3499 66.7268 74.2098 66.6512 74.0419C65.5789 71.7213 65.8345 69.4536 67.4124 67.2916Z" fill="white"/>
</g>
<defs>
<clipPath id="clip0_8_351">
<rect width="124" height="144" fill="white"/>
</clipPath>
</defs>
</svg>
