<svg width="124" height="144" viewBox="0 0 124 124" fill="none" xmlns="http://www.w3.org/2000/svg">
<path d="M22.7385 0.00244141C21.0963 0.00924169 19.5232 0.664638 18.362 1.82589C17.2007 2.98715 16.5453 4.56019 16.5385 6.20244V72.3358C16.5385 75.0948 20.6718 75.0948 20.6718 72.3358V20.6691H103.339V72.3358C103.277 75.1542 107.536 75.1542 107.472 72.3358V6.20244C107.466 4.55998 106.811 2.98655 105.649 1.82515C104.488 0.663745 102.914 0.00856623 101.272 0.00244141H22.7385ZM22.7385 4.13577H101.272C101.546 4.12717 101.818 4.17474 102.073 4.27556C102.327 4.37637 102.559 4.52829 102.752 4.72194C102.946 4.91559 103.098 5.14686 103.199 5.40149C103.3 5.65613 103.347 5.92871 103.339 6.20244V16.5358H20.6718V6.20244C20.6632 5.92871 20.7108 5.65613 20.8116 5.40149C20.9124 5.14686 21.0644 4.91559 21.258 4.72194C21.4517 4.52829 21.6829 4.37637 21.9376 4.27556C22.1922 4.17474 22.4648 4.12717 22.7385 4.13577ZM26.8718 8.26911C26.3237 8.26911 25.7981 8.48685 25.4105 8.87442C25.0229 9.262 24.8052 9.78766 24.8052 10.3358C24.8052 10.8839 25.0229 11.4096 25.4105 11.7971C25.7981 12.1847 26.3237 12.4024 26.8718 12.4024C27.42 12.4024 27.9456 12.1847 28.3332 11.7971C28.7208 11.4096 28.9385 10.8839 28.9385 10.3358C28.9385 9.78766 28.7208 9.262 28.3332 8.87442C27.9456 8.48685 27.42 8.26911 26.8718 8.26911ZM35.1385 8.26911C34.5904 8.26911 34.0647 8.48685 33.6772 8.87442C33.2896 9.262 33.0718 9.78766 33.0718 10.3358C33.0718 10.8839 33.2896 11.4096 33.6772 11.7971C34.0647 12.1847 34.5904 12.4024 35.1385 12.4024C35.6866 12.4024 36.2123 12.1847 36.5999 11.7971C36.9874 11.4096 37.2052 10.8839 37.2052 10.3358C37.2052 9.78766 36.9874 9.262 36.5999 8.87442C36.2123 8.48685 35.6866 8.26911 35.1385 8.26911ZM43.4052 8.26911C42.8571 8.26911 42.3314 8.48685 41.9438 8.87442C41.5562 9.262 41.3385 9.78766 41.3385 10.3358C41.3385 10.8839 41.5562 11.4096 41.9438 11.7971C42.3314 12.1847 42.8571 12.4024 43.4052 12.4024C43.9533 12.4024 44.479 12.1847 44.8665 11.7971C45.2541 11.4096 45.4718 10.8839 45.4718 10.3358C45.4718 9.78766 45.2541 9.262 44.8665 8.87442C44.479 8.48685 43.9533 8.26911 43.4052 8.26911ZM72.2352 8.26911C69.4452 8.45769 69.6338 12.4696 72.3308 12.4024H97.1308C99.8278 12.3379 99.8278 8.32852 97.1308 8.26911H72.2352ZM6.20517 12.4024C4.56355 12.4113 2.99167 13.0673 1.83085 14.2281C0.670031 15.3889 0.0139934 16.9608 0.00517273 18.6024V93.0024C0.0146648 94.6439 0.670933 96.2153 1.83161 97.376C2.99228 98.5367 4.56376 99.1929 6.20517 99.2024H117.805C119.448 99.1963 121.021 98.5411 122.182 97.3797C123.344 96.2183 123.999 94.6449 124.005 93.0024V18.6024C124 16.9598 123.345 15.3859 122.183 14.2244C121.022 13.0629 119.448 12.4079 117.805 12.4024H113.672C110.853 12.3379 110.853 16.5978 113.672 16.5358H117.805C118.079 16.5272 118.351 16.5747 118.606 16.6756C118.861 16.7764 119.092 16.9283 119.286 17.1219C119.479 17.3156 119.631 17.5469 119.732 17.8015C119.833 18.0561 119.88 18.3287 119.872 18.6024V78.5358H4.13851V18.6024C4.13177 18.3292 4.18062 18.0574 4.2821 17.8037C4.38358 17.5499 4.53557 17.3194 4.72884 17.1261C4.9221 16.9328 5.15261 16.7809 5.4064 16.6794C5.66018 16.5779 5.93194 16.529 6.20517 16.5358H10.3385C13.1569 16.5978 13.1569 12.3379 10.3385 12.4024H6.20517ZM68.2207 28.8996C67.7783 28.8964 67.3466 29.0352 66.989 29.2956C66.6314 29.556 66.3668 29.9243 66.2341 30.3463L53.8341 67.5463C52.9583 70.1606 56.8824 71.4729 57.7556 68.8586L70.1556 31.6586C70.2654 31.3483 70.2996 31.0163 70.2552 30.6901C70.2109 30.364 70.0892 30.0532 69.9005 29.7835C69.7117 29.5139 69.4612 29.2932 69.1699 29.1399C68.8787 28.9866 68.555 28.9051 68.2258 28.9022L68.2207 28.8996ZM77.2055 40.8475L87.7042 49.6024L77.2107 58.3444C74.9683 60.1011 77.7273 63.4129 79.8638 61.5168L92.2638 51.1834C92.496 50.9895 92.6828 50.7469 92.811 50.4728C92.9391 50.1987 93.0056 49.8998 93.0056 49.5973C93.0056 49.2947 92.9391 48.9958 92.811 48.7217C92.6828 48.4477 92.496 48.2051 92.2638 48.0111L79.8638 37.6649C79.4627 37.3298 78.9523 37.1541 78.43 37.1714C76.477 37.3445 75.7666 39.6747 77.2107 40.8424L77.2055 40.8475ZM45.4098 37.1818C44.945 37.1974 44.499 37.3695 44.144 37.67L31.744 48.0163C31.5118 48.2102 31.325 48.4528 31.1968 48.7269C31.0686 49.001 31.0022 49.2999 31.0022 49.6024C31.0022 49.905 31.0686 50.2039 31.1968 50.478C31.325 50.7521 31.5118 50.9946 31.744 51.1886L44.144 61.5219C46.2752 63.5085 49.1247 60.0856 46.7816 58.3496L36.2933 49.6024L46.7868 40.8449C47.12 40.5714 47.3594 40.2004 47.4713 39.784C47.5832 39.3676 47.5621 38.9266 47.4109 38.5228C47.2597 38.119 46.986 37.7726 46.6281 37.5321C46.2702 37.2917 45.846 37.1692 45.415 37.1818H45.4098ZM4.13851 82.6691H119.872V93.0024C119.88 93.2762 119.833 93.5488 119.732 93.8034C119.631 94.058 119.479 94.2893 119.286 94.4829C119.092 94.6766 118.861 94.8285 118.606 94.9293C118.351 95.0301 118.079 95.0777 117.805 95.0691H6.20517C5.93203 95.0755 5.66044 95.0264 5.40682 94.9248C5.15321 94.8232 4.92285 94.6712 4.72966 94.478C4.53647 94.2848 4.38446 94.0544 4.28286 93.8008C4.18125 93.5472 4.13214 93.2756 4.13851 93.0024V82.6691ZM66.2522 86.8024H57.7711C55.1387 87.1176 55.3143 90.8505 57.8693 90.9203H66.1359C68.9776 91.1786 69.2127 86.8567 66.2496 86.7999L66.2522 86.8024ZM50.4138 103.165C50.0079 103.157 49.6084 103.267 49.2653 103.484C48.9221 103.701 48.6504 104.014 48.484 104.385C47.4843 106.521 45.7018 109.019 42.6302 111.602H39.2718C37.6302 111.611 36.0583 112.267 34.8975 113.428C33.7367 114.589 33.0807 116.161 33.0718 117.802V121.936C33.0718 122.484 33.2896 123.01 33.6772 123.397C34.0647 123.785 34.5904 124.002 35.1385 124.002H88.8718C89.42 124.002 89.9456 123.785 90.3332 123.397C90.7208 123.01 90.9385 122.484 90.9385 121.936V117.802C90.9263 116.162 90.2692 114.592 89.1091 113.432C87.949 112.272 86.3791 111.615 84.7385 111.602H81.3802C78.3008 109.019 76.5183 106.526 75.5238 104.392C75.3528 104.013 75.0715 103.695 74.7166 103.478C74.3618 103.262 73.9498 103.157 73.5346 103.178C73.1943 103.196 72.8636 103.297 72.5719 103.473C72.2802 103.649 72.0366 103.895 71.8627 104.188C71.6888 104.481 71.5901 104.812 71.5753 105.152C71.5605 105.493 71.6301 105.832 71.7779 106.139C72.7447 108.125 73.9885 109.965 75.4721 111.602H48.5305C50.0141 109.965 51.2579 108.125 52.2247 106.139C52.3765 105.827 52.4474 105.482 52.4308 105.135C52.4142 104.789 52.3107 104.452 52.1298 104.156C51.9489 103.86 51.6964 103.615 51.3956 103.442C51.0948 103.269 50.7554 103.175 50.4086 103.168L50.4138 103.165ZM39.2718 115.736H84.7385C85.0113 115.731 85.2822 115.781 85.5351 115.883C85.7881 115.985 86.0179 116.137 86.2108 116.33C86.4037 116.523 86.5557 116.753 86.6578 117.006C86.76 117.259 86.8101 117.53 86.8052 117.802V119.869H37.2052V117.802C37.1984 117.529 37.2473 117.257 37.3488 117.004C37.4502 116.75 37.6022 116.519 37.7955 116.326C37.9888 116.133 38.2193 115.981 38.4731 115.879C38.7268 115.778 38.9986 115.729 39.2718 115.736Z" fill="white"/>
</svg>
