<svg width="124" height="144" viewBox="0 0 124 144" fill="none" xmlns="http://www.w3.org/2000/svg">
<g clip-path="url(#clip0_8_293)">
<path d="M58.5732 43.2457C58.0915 43.2457 57.6295 43.0544 57.2888 42.7139C56.9481 42.3735 56.7568 41.9117 56.7568 41.4302V6.70471C56.7601 4.92723 57.4682 3.22354 58.7259 1.96684C59.9836 0.710134 61.6883 0.00287923 63.4667 0L117.288 0C119.068 -3.1844e-06 120.776 0.705978 122.036 1.96299C123.296 3.22001 124.006 4.92535 124.009 6.70471V18.6726C124.009 19.1541 123.818 19.6159 123.477 19.9564C123.136 20.2969 122.674 20.4881 122.193 20.4881C121.711 20.4881 121.249 20.2969 120.908 19.9564C120.568 19.6159 120.376 19.1541 120.376 18.6726V6.70471C120.373 5.88836 120.046 5.10659 119.467 4.53052C118.888 3.95446 118.105 3.63103 117.288 3.63104H63.4667C62.6519 3.63391 61.8711 3.9586 61.2947 4.53436C60.7183 5.11011 60.393 5.89024 60.3897 6.70471V41.4302C60.3897 41.9117 60.1983 42.3735 59.8576 42.7139C59.517 43.0544 59.055 43.2457 58.5732 43.2457Z" fill="white"/>
<path d="M93.5672 67.993C93.0829 67.9922 92.6048 67.8849 92.1667 67.6789C91.5987 67.4173 91.1182 66.9977 90.7825 66.4703C90.4468 65.943 90.2703 65.3301 90.2739 64.7051V57.4285H75.944C75.4622 57.4285 75.0002 57.2372 74.6595 56.8967C74.3189 56.5562 74.1275 56.0945 74.1275 55.6129C74.1275 55.1314 74.3189 54.6697 74.6595 54.3292C75.0002 53.9887 75.4622 53.7974 75.944 53.7974H90.6227C91.4934 53.7984 92.3282 54.1445 92.9439 54.7599C93.5595 55.3753 93.9059 56.2096 93.9068 57.0799V63.9625L105.063 54.6707C105.742 54.1064 106.597 53.7974 107.479 53.7974H117.288C118.106 53.7974 118.89 53.4735 119.468 52.8967C120.047 52.3198 120.374 51.5371 120.376 50.7201V27.1456C120.376 26.6641 120.568 26.2023 120.908 25.8618C121.249 25.5214 121.711 25.3301 122.193 25.3301C122.674 25.3301 123.136 25.5214 123.477 25.8618C123.818 26.2023 124.009 26.6641 124.009 27.1456V50.7201C124.007 52.5001 123.297 54.2064 122.037 55.4642C120.777 56.722 119.069 57.4285 117.288 57.4285H107.479C107.446 57.4282 107.414 57.4391 107.389 57.4593L95.6615 67.2286C95.0746 67.7208 94.3333 67.9913 93.5672 67.993Z" fill="white"/>
<path d="M38.1382 110.747C37.819 110.747 37.5054 110.663 37.2289 110.504C36.9525 110.345 36.7229 110.115 36.5633 109.839C36.3224 109.422 36.2572 108.927 36.3818 108.461C36.5065 107.996 36.8109 107.6 37.2281 107.359L39.1899 106.228C39.299 106.166 39.3868 106.072 39.4419 105.959C39.497 105.846 39.5168 105.719 39.4987 105.594L38.1927 96.2826C38.1596 96.0464 38.1734 95.8061 38.2333 95.5753C38.2931 95.3444 38.3979 95.1276 38.5417 94.9373C38.6854 94.747 38.8652 94.5868 39.0709 94.4659C39.2765 94.345 39.504 94.2658 39.7403 94.2329C39.9765 94.1998 40.217 94.2136 40.448 94.2734C40.6789 94.3333 40.8958 94.438 41.0862 94.5817C41.2767 94.7253 41.4369 94.9051 41.5579 95.1106C41.6788 95.3162 41.758 95.5435 41.791 95.7797L43.0953 105.09C43.216 105.931 43.0815 106.788 42.7091 107.552C42.3366 108.315 41.7435 108.95 41.0063 109.372L39.0446 110.504C38.769 110.663 38.4564 110.746 38.1382 110.747Z" fill="white"/>
<path d="M16.5042 107.515C15.3265 107.514 14.1696 107.204 13.1495 106.616C12.1293 106.028 11.2817 105.182 10.6916 104.163L0.906377 87.221C0.0210958 85.6818 -0.218479 83.8548 0.240009 82.1395C0.698496 80.4242 1.81776 78.9601 3.35314 78.0672L16.0683 70.7325C16.4855 70.4917 16.9813 70.4265 17.4466 70.5511C17.9119 70.6757 18.3087 70.98 18.5496 71.397L33.2301 96.8142C33.47 97.2317 33.5353 97.7269 33.4118 98.1922C33.286 98.6568 32.9818 99.0528 32.5653 99.2942L19.8501 106.631C18.8322 107.215 17.678 107.52 16.5042 107.515ZM16.3081 74.7775L5.16959 81.2044C4.46508 81.6143 3.95131 82.286 3.74033 83.073C3.52936 83.86 3.63829 84.6985 4.04339 85.4055L13.8286 102.348C14.2387 103.052 14.9108 103.566 15.6982 103.776C16.4856 103.987 17.3245 103.878 18.0319 103.474L29.1722 97.0448L16.3081 74.7775Z" fill="white"/>
<path d="M3.69462 90.2475C3.37547 90.2478 3.06186 90.164 2.78539 90.0047C2.50892 89.8453 2.27933 89.6159 2.11975 89.3397C1.87889 88.9227 1.81362 88.4272 1.9383 87.9621C2.06298 87.497 2.36739 87.1005 2.78458 86.8597L7.02963 84.4215C7.44683 84.1807 7.94262 84.1155 8.40795 84.2401C8.87328 84.3647 9.27001 84.669 9.51089 85.0859C9.74946 85.5023 9.81345 85.996 9.68888 86.4594C9.5643 86.9227 9.2613 87.3179 8.84608 87.5587L4.60829 90.0042C4.33056 90.1645 4.01533 90.2484 3.69462 90.2475Z" fill="white"/>
<path d="M11.0349 102.953C10.7157 102.953 10.4021 102.869 10.1257 102.71C9.84919 102.551 9.6196 102.321 9.46003 102.045C9.21856 101.629 9.15217 101.134 9.27546 100.669C9.39874 100.204 9.70163 99.807 10.1176 99.565L14.3554 97.1195C14.562 97 14.7902 96.9224 15.0269 96.8911C15.2636 96.8599 15.5041 96.8755 15.7347 96.9373C15.9653 96.999 16.1815 97.1055 16.3709 97.2508C16.5603 97.3961 16.7192 97.5773 16.8384 97.784C17.0793 98.201 17.1446 98.6965 17.0199 99.1616C16.8952 99.6267 16.5908 100.023 16.1736 100.264L11.934 102.709C11.6606 102.867 11.3507 102.951 11.0349 102.953Z" fill="white"/>
<path d="M7.36388 96.6001C7.04472 96.6004 6.73111 96.5167 6.45464 96.3573C6.17817 96.198 5.94858 95.9686 5.789 95.6924C5.54814 95.2754 5.48287 94.7798 5.60755 94.3148C5.73223 93.8497 6.03664 93.4531 6.45383 93.2124L10.6916 90.7759C11.1088 90.5352 11.6046 90.47 12.0699 90.5946C12.5353 90.7192 12.932 91.0234 13.1729 91.4404C13.4137 91.8574 13.479 92.353 13.3543 92.818C13.2297 93.2831 12.9252 93.6797 12.5081 93.9204L8.27028 96.3659C7.99407 96.5224 7.68138 96.6033 7.36388 96.6001Z" fill="white"/>
<path d="M31.6516 99.5252C31.2329 99.5252 30.827 99.3807 30.5026 99.116C30.1782 98.8514 29.9553 98.4828 29.8715 98.0727C29.8244 97.839 29.8238 97.5982 29.8697 97.3642C29.9157 97.1302 30.0073 96.9075 30.1394 96.7089C30.2715 96.5103 30.4414 96.3397 30.6395 96.2067C30.8376 96.0738 31.0599 95.9811 31.2938 95.9341L76.3418 86.8782C76.8139 86.7836 77.3043 86.8802 77.7052 87.1467C78.1061 87.4133 78.3847 87.828 78.4797 88.2998C78.5269 88.5336 78.5275 88.7743 78.4816 89.0084C78.4356 89.2424 78.344 89.465 78.2119 89.6636C78.0798 89.8622 77.9099 90.0329 77.7118 90.1658C77.5137 90.2988 77.2914 90.3914 77.0575 90.4385L32.0095 99.4943C31.8916 99.5168 31.7717 99.5272 31.6516 99.5252Z" fill="white"/>
<path d="M16.9729 74.113C16.5307 74.1128 16.1038 73.9514 15.7722 73.6591C15.411 73.3408 15.1911 72.8921 15.1608 72.4117C15.1305 71.9313 15.2922 71.4586 15.6105 71.0974L45.9852 36.628C46.3035 36.2667 46.7523 36.0465 47.2329 36.0159C47.7135 35.9853 48.1866 36.1466 48.5482 36.4646C48.7275 36.6221 48.8739 36.8134 48.9791 37.0275C49.0844 37.2416 49.1463 37.4744 49.1615 37.7124C49.1767 37.9505 49.1448 38.1893 49.0676 38.415C48.9904 38.6407 48.8695 38.8491 48.7117 39.0281L18.337 73.4975C18.1664 73.6911 17.9565 73.8461 17.7213 73.9522C17.4861 74.0583 17.231 74.1131 16.9729 74.113Z" fill="white"/>
<path d="M79.8693 93.9857C79.2065 93.9862 78.5553 93.8121 77.9813 93.481C77.4073 93.1498 76.9307 92.6733 76.5997 92.0994L70.8542 82.1558C70.6129 81.7395 70.5468 81.2445 70.6704 80.7794C70.7941 80.3144 71.0973 79.9175 71.5136 79.6758C71.9308 79.4351 72.4266 79.3698 72.8919 79.4945C73.3573 79.6191 73.754 79.9233 73.9949 80.3403L79.7403 90.2839C79.7495 90.3002 79.7619 90.3145 79.7767 90.326C79.7915 90.3374 79.8084 90.3459 79.8265 90.3507C79.8446 90.3556 79.8634 90.3569 79.882 90.3545C79.9006 90.352 79.9185 90.3459 79.9347 90.3366L83.3242 88.3812C83.34 88.372 83.3537 88.3597 83.3646 88.345C83.3756 88.3304 83.3834 88.3137 83.3877 88.2959C83.3933 88.2785 83.3951 88.26 83.3929 88.2419C83.3907 88.2237 83.3846 88.2062 83.375 88.1906L51.0785 32.2817C51.0695 32.2654 51.0573 32.2512 51.0426 32.2397C51.0279 32.2283 51.0111 32.22 50.9931 32.2153C50.9751 32.2105 50.9564 32.2094 50.938 32.2121C50.9196 32.2148 50.9019 32.2212 50.886 32.2308L47.4983 34.1862C47.482 34.1949 47.4677 34.2071 47.4564 34.2218C47.4452 34.2365 47.4371 34.2534 47.4329 34.2715C47.4273 34.2892 47.4255 34.3079 47.4277 34.3264C47.4299 34.3449 47.436 34.3627 47.4456 34.3786L69.7571 73.0038C69.998 73.4208 70.0632 73.9163 69.9386 74.3814C69.8139 74.8465 69.5095 75.243 69.0923 75.4838C68.6751 75.7245 68.1793 75.7898 67.714 75.6652C67.2486 75.5405 66.8519 75.2363 66.611 74.8193L44.3068 36.1941C44.0579 35.7654 43.8965 35.2917 43.832 34.8002C43.7674 34.3088 43.801 33.8094 43.9308 33.331C44.0585 32.8527 44.2798 32.4044 44.5819 32.012C44.884 31.6197 45.261 31.2911 45.6909 31.0453L49.0768 29.09C49.5057 28.8411 49.9796 28.6796 50.4713 28.6147C50.963 28.5499 51.4626 28.5831 51.9414 28.7124C52.4209 28.8395 52.8704 29.0605 53.2639 29.3625C53.6574 29.6644 53.987 30.0414 54.2337 30.4716L86.5266 86.3769C86.7762 86.805 86.9382 87.2784 87.003 87.7696C87.0679 88.2608 87.0344 88.76 86.9044 89.2382C86.7779 89.717 86.5574 90.1659 86.2559 90.5589C85.9544 90.952 85.5777 91.2812 85.1479 91.5275L81.7566 93.4847C81.1826 93.8148 80.5315 93.9877 79.8693 93.9857Z" fill="white"/>
<path d="M26.6473 112.713C26.3891 112.713 26.1339 112.658 25.8986 112.551C25.6634 112.445 25.4536 112.29 25.2832 112.096L19.2798 105.266C18.9619 104.904 18.8008 104.431 18.8318 103.951C18.8628 103.47 19.0834 103.022 19.4451 102.704C19.8069 102.386 20.2802 102.225 20.7608 102.256C21.2414 102.287 21.6901 102.508 22.0081 102.869L28.0115 109.699C28.3293 110.061 28.4905 110.534 28.4595 111.014C28.4285 111.495 28.2079 111.943 27.8462 112.261C27.5148 112.552 27.0886 112.713 26.6473 112.713Z" fill="white"/>
<path d="M37.6259 123.936C37.0195 123.937 36.4199 123.809 35.8668 123.561C35.3138 123.312 34.8199 122.949 34.4181 122.495L30.8687 118.459C30.5509 118.097 30.3897 117.624 30.4207 117.144C30.4517 116.664 30.6723 116.215 31.034 115.897C31.3959 115.58 31.8691 115.418 32.3497 115.449C32.8304 115.48 33.279 115.701 33.597 116.062L37.1446 120.095C37.242 120.203 37.3737 120.275 37.5178 120.299C37.6619 120.322 37.8096 120.296 37.9365 120.224L40.8574 118.537C40.9292 118.496 40.9922 118.441 41.0428 118.376C41.0933 118.31 41.1303 118.236 41.1516 118.156C41.1734 118.076 41.179 117.993 41.1681 117.911C41.1572 117.829 41.13 117.75 41.0881 117.678L30.0786 98.6153C29.8377 98.1983 29.7724 97.7028 29.8971 97.2377C30.0218 96.7726 30.3262 96.3761 30.7434 96.1353C31.1606 95.8946 31.6564 95.8293 32.1217 95.9539C32.587 96.0786 32.9838 96.3828 33.2247 96.7998L44.2342 115.863C44.5161 116.347 44.699 116.882 44.7723 117.438C44.8456 117.993 44.8077 118.557 44.661 119.098C44.5175 119.64 44.2677 120.147 43.9263 120.592C43.5849 121.036 43.1585 121.409 42.672 121.687L39.7512 123.374C39.1043 123.744 38.3714 123.938 37.6259 123.936Z" fill="white"/>
<path d="M76.1474 73.8497C75.691 73.8497 75.2513 73.6779 74.9158 73.3686C74.5615 73.0424 74.3514 72.5889 74.3316 72.1078C74.3118 71.6267 74.4841 71.1574 74.8105 70.8033L77.9311 67.4174C78.3769 66.9363 78.6565 66.3251 78.7288 65.6734C78.801 65.0217 78.6622 64.3641 78.3326 63.7972L69.6972 48.8482C69.3708 48.2791 68.8703 47.8298 68.2692 47.5664C67.6682 47.3029 66.9985 47.2393 66.3585 47.3849L61.8646 48.3925C61.3952 48.4977 60.9032 48.4124 60.4966 48.1554C60.09 47.8984 59.802 47.4908 59.6958 47.0218C59.6422 46.7885 59.6352 46.5468 59.6754 46.3108C59.7155 46.0748 59.802 45.849 59.9298 45.6465C60.0576 45.444 60.2242 45.2688 60.42 45.1309C60.6159 44.9931 60.8371 44.8953 61.0709 44.8432L65.5629 43.8356C66.9582 43.5175 68.4189 43.6558 69.7296 44.2301C71.0403 44.8044 72.1318 45.7843 72.8433 47.0254L81.4787 61.9744C82.1987 63.2122 82.5016 64.6486 82.3426 66.0716C82.1837 67.4945 81.5713 68.8288 80.5959 69.8774L77.4752 73.2633C77.3061 73.4471 77.1009 73.594 76.8725 73.6949C76.644 73.7958 76.3972 73.8485 76.1474 73.8497Z" fill="white"/>
<path d="M107.26 41.5336C107.001 41.5336 106.746 41.4785 106.511 41.372C106.276 41.2656 106.066 41.1102 105.895 40.9163L96.0357 29.7128C95.7176 29.3514 95.5562 28.8785 95.5868 28.3981C95.6175 27.9177 95.8377 27.4692 96.1992 27.1511C96.5608 26.8332 97.0339 26.6718 97.5145 26.7024C97.9952 26.7331 98.4439 26.9532 98.7622 27.3145L108.629 38.518C108.947 38.8795 109.109 39.3524 109.078 39.8327C109.047 40.3131 108.827 40.7616 108.466 41.0797C108.133 41.3742 107.704 41.5358 107.26 41.5336Z" fill="white"/>
<path d="M94.5608 41.5334C94.079 41.5334 93.617 41.3422 93.2763 41.0017C92.9357 40.6612 92.7443 40.1994 92.7443 39.7179V16.2433C92.7443 15.7617 92.9357 15.3 93.2763 14.9595C93.617 14.619 94.079 14.4277 94.5608 14.4277C95.0425 14.4277 95.5045 14.619 95.8452 14.9595C96.1858 15.3 96.3772 15.7617 96.3772 16.2433V39.7179C96.3772 40.1994 96.1858 40.6612 95.8452 41.0017C95.5045 41.3422 95.0425 41.5334 94.5608 41.5334Z" fill="white"/>
<path d="M94.6116 30.2863C94.1321 30.2863 93.672 30.0968 93.3317 29.759C92.9914 29.4213 92.7986 28.9628 92.7952 28.4835C92.7952 28.4381 92.7661 24.0282 92.7661 22.3434C92.7661 20.9509 92.7516 16.2487 92.7516 16.2487C92.7507 16.0099 92.7969 15.7734 92.8876 15.5525C92.9783 15.3316 93.1117 15.1308 93.2802 14.9615C93.4491 14.7921 93.6498 14.6578 93.8708 14.5662C94.0919 14.4746 94.3288 14.4275 94.5681 14.4277H100.809C105.367 14.4277 109.074 17.9789 109.074 22.3434C109.074 26.7079 105.367 30.2591 100.809 30.2591C99.1019 30.2591 94.6661 30.2863 94.6225 30.2863H94.6116ZM96.3918 18.0588C96.3918 19.5421 96.3918 21.5192 96.3918 22.3434C96.3918 23.3183 96.4008 25.221 96.4099 26.6462C97.854 26.6371 99.7958 26.628 100.802 26.628C103.312 26.628 105.434 24.6655 105.434 22.3434C105.434 20.0214 103.312 18.0588 100.802 18.0588H96.3918Z" fill="white"/>
<path d="M73.4972 41.5334C73.0155 41.5334 72.5535 41.3422 72.2128 41.0017C71.8722 40.6612 71.6808 40.1994 71.6808 39.7179V16.2433C71.6808 15.7617 71.8722 15.3 72.2128 14.9595C72.5535 14.619 73.0155 14.4277 73.4972 14.4277C73.979 14.4277 74.441 14.619 74.7817 14.9595C75.1223 15.3 75.3137 15.7617 75.3137 16.2433V39.7179C75.3137 40.1994 75.1223 40.6612 74.7817 41.0017C74.441 41.3422 73.979 41.5334 73.4972 41.5334Z" fill="white"/>
<path d="M73.5426 31.3357C73.0666 31.3346 72.61 31.1469 72.2711 30.8128C71.9275 30.4748 71.7316 30.0147 71.7261 29.5329C71.7261 29.4838 71.6971 24.6963 71.6971 22.8681C71.6971 21.3539 71.6807 16.2487 71.6807 16.2487C71.6801 16.0098 71.7266 15.7732 71.8176 15.5523C71.9086 15.3314 72.0423 15.1306 72.2111 14.9615C72.3798 14.7924 72.5803 14.6581 72.801 14.5665C73.0216 14.475 73.2582 14.4278 73.4972 14.4277H80.0364C84.7592 14.4277 88.6119 18.2131 88.6119 22.8681C88.6119 27.5231 84.7646 31.3066 80.0364 31.3066C78.2472 31.3066 73.6007 31.3357 73.5535 31.3357H73.5426ZM75.3282 18.0588C75.3282 19.6927 75.3391 21.944 75.3391 22.8681C75.3391 23.9574 75.35 26.136 75.3572 27.6956C76.8812 27.6865 78.972 27.6756 80.0455 27.6756C82.7247 27.6756 84.988 25.4734 84.988 22.8681C84.988 20.2628 82.7247 18.0588 80.0455 18.0588H75.3282Z" fill="white"/>
</g>
<defs>
<clipPath id="clip0_8_293">
<rect width="124" height="144" fill="white"/>
</clipPath>
</defs>
</svg>
