<svg width="124" height="144" viewBox="0 0 136 111" fill="none" xmlns="http://www.w3.org/2000/svg">
<g clip-path="url(#clip0_8_360)">
<path d="M132.756 3.42751C131.638 2.29936 130.293 1.42036 128.811 0.848116C127.329 0.27587 125.742 0.0232968 124.156 0.10695C122.571 0.190389 121.023 0.606968 119.61 1.3295C118.198 2.05204 116.953 3.06428 115.959 4.30019L88.5161 37.5058C83.2142 36.3559 78.5297 38.7188 75.2531 44.3664C74.0097 46.5557 73.193 48.9611 72.8464 51.4549C72.185 55.692 70.8678 59.3529 68.7794 62.6323C68.6101 62.9007 68.5133 63.2083 68.4984 63.5253C68.4835 63.8422 68.551 64.1576 68.6943 64.4407C68.8424 64.722 69.0624 64.9591 69.3319 65.1278C69.6013 65.2965 69.9106 65.3908 70.2284 65.4012C71.1422 65.4424 72.0588 65.4424 72.9315 65.4424C83.5325 65.4424 90.942 62.9314 94.9432 57.9917C97.2807 55.0607 98.3807 51.3324 98.0085 47.6019L131.683 20.2252C132.927 19.2408 133.952 18.0067 134.69 16.6025C135.428 15.1982 135.864 13.6549 135.97 12.0719C136.082 10.4852 135.853 8.89282 135.299 7.40181C134.745 5.9108 133.878 4.55569 132.756 3.42751ZM96.672 33.34L102.594 39.2566L96.5074 44.1963L91.694 39.3637L96.672 33.34ZM92.1166 55.7551C88.9223 59.674 82.4705 61.7596 73.3815 61.8227C74.9085 58.7253 75.9356 55.4058 76.4249 51.9873C76.7076 49.944 77.3723 47.9723 78.3843 46.1749C80.4699 42.6074 83.0248 40.8126 86.0051 40.8126C86.7751 40.8175 87.541 40.9246 88.2828 41.131L94.3614 47.2616C94.5727 48.5597 94.8718 52.3934 92.1056 55.7689L92.1166 55.7551ZM129.488 17.3931L129.466 17.415L105.41 36.9789L98.9717 30.5491L118.769 6.59988C119.445 5.75611 120.291 5.06418 121.252 4.56914C122.214 4.07409 123.268 3.78703 124.348 3.72664C125.425 3.66425 126.502 3.83331 127.508 4.22242C128.514 4.61154 129.425 5.21168 130.179 5.98242C130.938 6.74882 131.527 7.66583 131.908 8.67414C132.289 9.68245 132.455 10.7596 132.394 11.8359C132.328 12.9145 132.034 13.9669 131.534 14.9245C131.033 15.882 130.336 16.7232 129.488 17.3931Z" fill="white"/>
<path d="M58.5433 85.3466C59.683 85.3466 60.607 84.4227 60.607 83.2829C60.607 82.1432 59.683 81.2192 58.5433 81.2192C57.4036 81.2192 56.4796 82.1432 56.4796 83.2829C56.4796 84.4227 57.4036 85.3466 58.5433 85.3466Z" fill="white"/>
<path d="M37.2121 12.8596C37.2125 12.6216 37.1659 12.3859 37.075 12.166C36.9841 11.9461 36.8507 11.7463 36.6824 11.578C36.5142 11.4098 36.3144 11.2764 36.0945 11.1855C35.8746 11.0946 35.6389 11.048 35.4009 11.0483H12.1543C11.9166 11.0483 11.6812 11.0952 11.4616 11.1863C11.242 11.2773 11.0425 11.4108 10.8745 11.579C10.7066 11.7472 10.5734 11.9469 10.4827 12.1666C10.392 12.3864 10.3455 12.6218 10.3458 12.8596V31.0979C10.3455 31.3355 10.392 31.5709 10.4828 31.7904C10.5735 32.01 10.7067 32.2095 10.8747 32.3775C11.0427 32.5455 11.2422 32.6787 11.4618 32.7695C11.6814 32.8602 11.9167 32.9068 12.1543 32.9064H35.4009C35.6386 32.9068 35.8741 32.8603 36.0938 32.7695C36.3136 32.6788 36.5133 32.5457 36.6815 32.3777C36.8497 32.2097 36.9832 32.0102 37.0742 31.7906C37.1653 31.5711 37.2121 31.3357 37.2121 31.0979V12.8596ZM33.5925 29.273H13.9545V14.6461H33.5815L33.5925 29.273Z" fill="white"/>
<path d="M37.2121 40.0443C37.2121 39.8066 37.1653 39.5712 37.0742 39.3516C36.9832 39.132 36.8497 38.9325 36.6815 38.7646C36.5133 38.5966 36.3136 38.4634 36.0938 38.3727C35.8741 38.282 35.6386 38.2355 35.4009 38.2358H12.1543C11.9168 38.2358 11.6816 38.2826 11.4622 38.3735C11.2428 38.4644 11.0434 38.5976 10.8755 38.7655C10.7076 38.9335 10.5744 39.1328 10.4835 39.3522C10.3926 39.5717 10.3458 39.8068 10.3458 40.0443C10.3455 40.282 10.392 40.5175 10.4827 40.7372C10.5734 40.957 10.7066 41.1566 10.8745 41.3249C11.0425 41.4931 11.242 41.6266 11.4616 41.7176C11.6812 41.8087 11.9166 41.8555 12.1543 41.8555H35.4009C35.6389 41.8559 35.8746 41.8093 36.0945 41.7184C36.3144 41.6275 36.5142 41.4941 36.6824 41.3258C36.8507 41.1576 36.9841 40.9578 37.075 40.7379C37.1659 40.518 37.2125 40.2823 37.2121 40.0443Z" fill="white"/>
<path d="M12.1543 46.3672C11.9166 46.3672 11.6812 46.4141 11.4616 46.5051C11.242 46.5962 11.0425 46.7296 10.8745 46.8978C10.7066 47.0661 10.5734 47.2658 10.4827 47.4855C10.392 47.7052 10.3455 47.9407 10.3458 48.1784C10.3458 48.658 10.5364 49.118 10.8755 49.4572C11.2147 49.7963 11.6747 49.9869 12.1543 49.9869H28.4826C28.7204 49.9872 28.9558 49.9407 29.1756 49.85C29.3953 49.7593 29.595 49.6261 29.7632 49.4582C29.9314 49.2902 30.0649 49.0907 30.1559 48.8711C30.247 48.6515 30.2939 48.4161 30.2939 48.1784C30.2942 47.9405 30.2476 47.7048 30.1567 47.4849C30.0658 47.2649 29.9324 47.0651 29.7642 46.8969C29.5959 46.7286 29.3961 46.5952 29.1762 46.5043C28.9563 46.4134 28.7206 46.3668 28.4826 46.3672H12.1543Z" fill="white"/>
<path d="M68.6339 40.0443C68.6339 39.5647 68.4434 39.1047 68.1042 38.7655C67.7651 38.4264 67.3051 38.2358 66.8255 38.2358H43.5761C43.3386 38.2358 43.1035 38.2826 42.884 38.3735C42.6646 38.4644 42.4653 38.5976 42.2973 38.7655C42.1294 38.9335 41.9962 39.1328 41.9053 39.3522C41.8144 39.5717 41.7676 39.8068 41.7676 40.0443C41.7673 40.282 41.8138 40.5175 41.9045 40.7372C41.9952 40.957 42.1284 41.1566 42.2964 41.3249C42.4643 41.4931 42.6638 41.6265 42.8834 41.7176C43.103 41.8087 43.3384 41.8555 43.5761 41.8555H66.8255C67.0632 41.8555 67.2986 41.8087 67.5182 41.7176C67.7378 41.6265 67.9373 41.4931 68.1052 41.3249C68.2732 41.1566 68.4063 40.957 68.4971 40.7372C68.5878 40.5175 68.6343 40.282 68.6339 40.0443Z" fill="white"/>
<path d="M43.5761 46.3672C43.3384 46.3672 43.103 46.4141 42.8834 46.5051C42.6638 46.5962 42.4643 46.7296 42.2964 46.8978C42.1284 47.0661 41.9952 47.2658 41.9045 47.4855C41.8138 47.7052 41.7673 47.9407 41.7676 48.1784C41.7676 48.658 41.9582 49.118 42.2973 49.4572C42.6365 49.7963 43.0965 49.9869 43.5761 49.9869H59.9045C60.1422 49.9872 60.3776 49.9407 60.5974 49.85C60.8171 49.7593 61.0168 49.6261 61.185 49.4582C61.3532 49.2902 61.4867 49.0907 61.5777 48.8711C61.6688 48.6515 61.7157 48.4161 61.7157 48.1784C61.716 47.9405 61.6694 47.7048 61.5785 47.4849C61.4876 47.2649 61.3542 47.0651 61.186 46.8969C61.0177 46.7286 60.8179 46.5952 60.598 46.5043C60.3781 46.4134 60.1424 46.3668 59.9045 46.3672H43.5761Z" fill="white"/>
<path d="M68.6339 12.8596C68.6343 12.6218 68.5878 12.3864 68.4971 12.1666C68.4063 11.9469 68.2732 11.7472 68.1052 11.579C67.9373 11.4108 67.7378 11.2773 67.5182 11.1863C67.2986 11.0952 67.0632 11.0483 66.8255 11.0483H43.5761C43.3384 11.0483 43.103 11.0952 42.8834 11.1863C42.6638 11.2773 42.4643 11.4108 42.2964 11.579C42.1284 11.7472 41.9952 11.9469 41.9045 12.1666C41.8138 12.3864 41.7673 12.6218 41.7676 12.8596V31.0979C41.7673 31.3355 41.8138 31.5709 41.9046 31.7904C41.9953 32.01 42.1285 32.2095 42.2965 32.3775C42.4645 32.5455 42.664 32.6787 42.8836 32.7695C43.1032 32.8602 43.3385 32.9068 43.5761 32.9064H66.8255C67.0631 32.9068 67.2984 32.8602 67.518 32.7695C67.7375 32.6787 67.9371 32.5455 68.1051 32.3775C68.2731 32.2095 68.4063 32.01 68.497 31.7904C68.5878 31.5709 68.6343 31.3355 68.6339 31.0979V12.8596ZM65.0143 29.273H45.3873V14.6461H65.0143V29.273Z" fill="white"/>
<path d="M117.087 41.9186C117.087 41.681 117.04 41.4457 116.95 41.2261C116.859 41.0066 116.726 40.8071 116.558 40.639C116.39 40.471 116.19 40.3379 115.971 40.2471C115.751 40.1563 115.516 40.1098 115.278 40.1102C115.04 40.1098 114.805 40.1563 114.585 40.247C114.365 40.3378 114.166 40.4709 113.998 40.6389C113.829 40.8069 113.696 41.0063 113.605 41.2259C113.514 41.4455 113.467 41.6809 113.467 41.9186V74.0018H3.61693V10.774C3.6162 8.87965 4.36708 7.06241 5.70477 5.72111C7.04247 4.37981 8.85768 3.62405 10.752 3.61969H106.318C107.104 3.62632 107.882 3.77027 108.618 4.04504C109.072 4.19667 109.568 4.16337 109.999 3.95233C110.429 3.74129 110.759 3.36946 110.917 2.91715C111.068 2.46214 111.034 1.96612 110.823 1.53596C110.611 1.1058 110.239 0.775946 109.787 0.617459C108.672 0.224614 107.5 0.0160617 106.318 0H10.7493C7.89655 0.00798841 5.16334 1.14645 3.14848 3.16594C1.13362 5.18543 0.00144132 7.92126 0 10.774V81.7489C0.00144132 84.6016 1.13362 87.3374 3.14848 89.3569C5.16334 91.3764 7.89655 92.5149 10.7493 92.5229H44.1935L41.4273 99.1228H33.4854C31.9107 99.1236 30.4006 99.7495 29.287 100.863C28.1735 101.977 27.5476 103.487 27.5469 105.061C27.5476 106.636 28.1735 108.146 29.287 109.26C30.4006 110.373 31.9107 110.999 33.4854 111H83.6203C85.1956 111 86.7064 110.374 87.8205 109.261C88.9346 108.147 89.5609 106.637 89.5616 105.061C89.5609 103.486 88.9346 101.976 87.8205 100.862C86.7064 99.7484 85.1956 99.1228 83.6203 99.1228H75.6812L72.9122 92.5229H106.337C109.184 92.5207 111.914 91.3901 113.929 89.3789C115.944 87.3676 117.079 84.6397 117.087 81.7928V41.9186ZM85.942 105.083C85.9405 105.698 85.6954 106.288 85.2602 106.722C84.825 107.157 84.2354 107.402 83.6203 107.402H33.4854C32.8709 107.401 32.2819 107.156 31.8473 106.721C31.4128 106.287 31.168 105.698 31.1665 105.083C31.1673 104.468 31.4117 103.879 31.8464 103.443C32.281 103.008 32.8704 102.763 33.4854 102.762H83.6203C84.2356 102.763 84.8253 103.008 85.2604 103.443C85.6954 103.878 85.9405 104.468 85.942 105.083ZM71.7432 99.1558H45.3434L48.1123 92.5558H68.9687L71.7432 99.1558ZM113.456 81.8285C113.449 83.7165 112.695 85.525 111.357 86.8578C110.02 88.1905 108.209 88.9389 106.321 88.9389H10.7493C8.85493 88.9345 7.03972 88.1787 5.70203 86.8374C4.36433 85.4961 3.61345 83.6789 3.61418 81.7846V77.6682H113.464L113.456 81.8285Z" fill="white"/>
</g>
<defs>
<clipPath id="clip0_8_360">
<rect width="124" height="144" fill="white"/>
</clipPath>
</defs>
</svg>
