<svg width="124" height="144" viewBox="0 0 124 144" fill="none" xmlns="http://www.w3.org/2000/svg">
<g clip-path="url(#clip0_8_349)">
<path d="M119.254 94.1497C115.44 91.8964 110.606 92.1325 106.309 94.7794L80.6683 108.772C80.5676 108.827 80.4704 108.888 80.3771 108.955C79.9512 109.282 79.4805 109.545 78.9795 109.736C79.8276 108.631 80.3219 107.295 80.3975 105.903C80.5343 102.638 78.2545 99.5192 73.6162 96.6392C63.8475 90.5672 44.7119 86.5706 37.1327 90.7333L37.0599 90.777L20.4371 100.831L20.1052 100.248C19.1609 98.6191 17.6106 97.431 15.7935 96.9437C13.9764 96.4564 12.0404 96.7095 10.4093 97.6478L3.53187 101.624C1.90503 102.569 0.718352 104.12 0.231583 105.939C-0.255186 107.758 -0.00238273 109.695 0.934651 111.328L17.7351 140.464C18.6766 142.095 20.2264 143.285 22.044 143.773C23.8615 144.26 25.7981 144.005 27.4281 143.064L34.3084 139.088C35.895 138.173 37.0678 136.681 37.5826 134.922C38.0974 133.163 37.9143 131.273 37.0716 129.646L38.5798 128.67C38.7312 128.722 38.9147 128.777 39.1272 128.836L63.7863 135.619C65.8168 136.345 67.9544 136.727 70.1105 136.747C73.2209 136.742 76.2645 135.843 78.8805 134.159L116.919 111.194C122.815 108.445 123.881 104.489 123.991 102.382C124.16 99.1228 122.346 95.9687 119.257 94.1352L119.254 94.1497ZM32.2819 135.543L25.4016 139.519C24.7076 139.92 23.8833 140.028 23.1097 139.82C22.3361 139.613 21.6764 139.106 21.2757 138.412L4.47525 109.279C4.07924 108.583 3.97332 107.759 4.18048 106.986C4.38764 106.212 4.89115 105.552 5.5817 105.148L12.462 101.172C12.9163 100.91 13.4314 100.772 13.9557 100.773C14.2251 100.772 14.4934 100.808 14.7535 100.878C15.1369 100.979 15.4965 101.155 15.8114 101.396C16.1262 101.637 16.3902 101.939 16.5879 102.283L33.3883 131.416C33.7873 132.11 33.8949 132.935 33.6875 133.708C33.48 134.482 32.9745 135.142 32.2819 135.543ZM119.924 102.178C119.816 104.262 118.11 106.166 115.114 107.541C115.044 107.573 114.977 107.609 114.913 107.649L76.7695 130.678L76.7346 130.698C73.2144 132.92 69.4 133.261 65.0733 131.748L64.9423 131.707L40.2191 124.909C39.9512 124.833 39.7649 124.769 39.5989 124.711C38.2654 124.245 37.5607 124.481 36.4135 125.227L35.048 126.101L22.487 104.352L39.1418 94.278C44.7788 91.2289 62.2752 94.3684 71.479 100.091C74.6323 102.052 76.4027 104.102 76.3357 105.717C76.2745 107.174 74.6353 108.824 71.7177 110.357C67.7346 110.016 62.1965 108.85 54.4835 106.308C54.2292 106.224 53.9609 106.192 53.6939 106.212C53.427 106.231 53.1665 106.304 52.9275 106.425C52.6885 106.545 52.4755 106.712 52.3009 106.915C52.1262 107.118 51.9932 107.354 51.9095 107.608C51.8257 107.863 51.7929 108.132 51.8128 108.399C51.8327 108.666 51.905 108.927 52.0256 109.166C52.1462 109.406 52.3127 109.619 52.5156 109.794C52.7185 109.968 52.9539 110.102 53.2082 110.185C68.2994 115.161 77.9575 115.843 82.756 112.267L108.306 98.3299C108.34 98.3122 108.373 98.2927 108.405 98.2716C112.726 95.5898 115.975 96.9482 117.181 97.6594C118.96 98.703 120.008 100.435 119.918 102.172L119.924 102.178ZM15.9036 111.057C16.1795 111.522 16.2596 112.078 16.1264 112.602C15.9932 113.126 15.6575 113.576 15.1932 113.852C14.729 114.129 14.1742 114.21 13.6506 114.077C13.1271 113.944 12.6776 113.608 12.4009 113.144L12.3747 113.097L9.92303 108.85C9.64717 108.385 9.56705 107.829 9.70027 107.305C9.83349 106.781 10.1692 106.331 10.6335 106.055C10.8634 105.917 11.1182 105.827 11.3832 105.788C11.6481 105.749 11.9181 105.763 12.1777 105.829C12.4373 105.895 12.6814 106.011 12.896 106.171C13.1107 106.332 13.2917 106.533 13.4287 106.763L13.4549 106.81L15.9036 111.057ZM24.0563 53.0943C24.1753 52.8536 24.3405 52.6387 24.5426 52.4621C24.7446 52.2854 24.9795 52.1504 25.2338 52.0648C25.4881 51.9793 25.7567 51.9448 26.0244 51.9634C26.292 51.982 26.5533 52.0533 26.7933 52.1732L29.1402 53.3392C26.5486 45.771 26.2688 37.6013 28.3365 29.8731C34.09 8.4097 56.2043 -4.37857 77.643 1.37571C84.3627 3.17815 90.5011 6.6933 95.4596 11.5784C95.6516 11.7651 95.805 11.988 95.9109 12.2341C96.0169 12.4802 96.0734 12.7448 96.0771 13.0128C96.0809 13.2808 96.0319 13.5469 95.933 13.796C95.834 14.045 95.687 14.2721 95.5004 14.4642C95.3138 14.6564 95.0913 14.81 94.8454 14.916C94.5996 15.0221 94.3352 15.0787 94.0676 15.0825C93.7999 15.0862 93.5341 15.0372 93.2853 14.9381C93.0366 14.8391 92.8098 14.6919 92.6178 14.505L92.5975 14.4846C89.2109 11.1491 85.2012 8.51411 80.7974 6.73004C76.3936 4.94596 71.682 4.04777 66.9314 4.08675C62.1809 4.12573 57.4846 5.10111 53.1106 6.95721C48.7366 8.81331 44.7706 11.5138 41.4391 14.9044C36.7884 19.6378 33.5266 25.5599 32.0103 32.0236C30.4939 38.4873 30.7812 45.2439 32.8409 51.5552L33.4786 49.4243C33.6335 48.906 33.9877 48.4705 34.4633 48.2136C34.9389 47.9567 35.4969 47.8993 36.0146 48.0542C36.5324 48.2093 36.9673 48.5639 37.224 49.0401C37.4806 49.5162 37.5378 50.0749 37.3831 50.5932L35.1091 58.2131C34.9542 58.7314 34.6 59.1669 34.1244 59.4238C33.6488 59.6808 33.0908 59.7381 32.573 59.5832C32.4605 59.5509 32.3513 59.5079 32.2469 59.4549L24.9677 55.8257C24.7279 55.7064 24.5139 55.5409 24.338 55.3387C24.1621 55.1365 24.0277 54.9016 23.9425 54.6474C23.8573 54.3932 23.823 54.1247 23.8415 53.8572C23.8601 53.5897 23.9311 53.3285 24.0505 53.0885L24.0563 53.0943ZM96.9825 29.8556L99.2594 22.2357C99.3358 21.9788 99.462 21.7395 99.6309 21.5315C99.7997 21.3234 100.008 21.1507 100.243 21.0232C100.479 20.8957 100.737 20.8159 101.003 20.7884C101.27 20.7608 101.539 20.7861 101.795 20.8627C101.907 20.8979 102.016 20.9417 102.122 20.9939L109.401 24.6202C109.64 24.7416 109.852 24.909 110.027 25.1127C110.201 25.3165 110.333 25.5526 110.416 25.8077C110.499 26.0627 110.531 26.3316 110.511 26.5991C110.49 26.8665 110.416 27.1272 110.295 27.3662C110.052 27.8438 109.631 28.2066 109.123 28.3762C108.616 28.5458 108.062 28.5087 107.581 28.2728L105.263 27.1038C107.899 34.7124 108.193 42.9379 106.108 50.7157C101.295 68.6985 84.9892 80.589 67.2163 80.589C56.5872 80.5805 46.3915 76.3699 38.8477 68.8734C38.6598 68.6826 38.5112 68.4566 38.4105 68.2083C38.3098 67.96 38.2589 67.6943 38.2608 67.4263C38.2627 67.1583 38.3173 66.8933 38.4215 66.6464C38.5257 66.3996 38.6775 66.1757 38.8681 65.9875C39.2492 65.6128 39.7621 65.4028 40.2963 65.4028C40.8305 65.4028 41.3433 65.6128 41.7245 65.9875C45.0952 69.34 49.0925 71.995 53.4882 73.8008C57.8838 75.6066 62.5917 76.528 67.343 76.5123C72.0943 76.4966 76.796 75.5442 81.1796 73.7093C85.5632 71.8744 89.543 69.1931 92.8915 65.8185C97.608 61.0612 100.914 55.0872 102.441 48.561C103.968 42.0349 103.657 35.2125 101.542 28.8529L100.893 31.0333C100.816 31.2903 100.69 31.5296 100.52 31.7375C100.351 31.9455 100.143 32.118 99.907 32.2453C99.6712 32.3725 99.4127 32.452 99.1462 32.4791C98.8797 32.5062 98.6104 32.4805 98.3539 32.4034C97.8362 32.2483 97.4012 31.8937 97.1445 31.4175C96.8879 30.9414 96.8307 30.3828 96.9854 29.8644L96.9825 29.8556ZM78.5981 26.0253C78.5981 23.0179 77.4047 20.1336 75.2806 18.007C73.1565 15.8805 70.2756 14.6858 67.2716 14.6858C64.2676 14.6858 61.3867 15.8805 59.2626 18.007C57.1385 20.1336 55.9451 23.0179 55.9451 26.0253C55.9451 29.0327 57.1385 31.917 59.2626 34.0435C61.3867 36.1701 64.2676 37.3648 67.2716 37.3648C70.2746 37.3617 73.1538 36.166 75.2772 34.0401C77.4007 31.9142 78.595 29.0318 78.5981 26.0253ZM60.0186 26.0253C60.0186 24.1002 60.7824 22.254 62.1421 20.8928C63.5017 19.5316 65.3458 18.7668 67.2687 18.7668C69.1915 18.7668 71.0356 19.5316 72.3953 20.8928C73.7549 22.254 74.5188 24.1002 74.5188 26.0253C74.5188 27.9503 73.7549 29.7966 72.3953 31.1578C71.0356 32.519 69.1915 33.2837 67.2687 33.2837C65.3468 33.2806 63.5045 32.5149 62.1455 31.1544C60.7865 29.7938 60.0217 27.9494 60.0186 26.0253ZM47.0063 56.4554C46.9087 57.2286 46.9643 58.0136 47.1698 58.7653C47.3753 59.5171 47.7267 60.221 48.2039 60.8368C48.6811 61.4526 49.2748 61.9683 49.9511 62.3544C50.6274 62.7405 51.373 62.9895 52.1454 63.0871C52.3916 63.1187 52.6396 63.1343 52.8879 63.1337H81.6524C83.2244 63.1337 84.7322 62.5089 85.8443 61.3966C86.9564 60.2843 87.582 58.7754 87.5835 57.2016C87.5831 56.9521 87.5666 56.7028 87.534 56.4554C86.8471 51.0773 84.055 46.1925 79.7716 42.875C75.4881 39.5574 70.064 38.0787 64.6918 38.764C60.2015 39.3369 56.0284 41.3866 52.8279 44.5914C49.6273 47.7961 47.5806 51.9744 47.0092 56.4699L47.0063 56.4554ZM67.2687 42.6672C71.2461 42.6722 75.0858 44.1262 78.0707 46.7579C81.0557 49.3896 82.9819 53.019 83.4897 56.9684C83.5506 57.4562 83.4156 57.9483 83.1142 58.3365C82.8128 58.7246 82.3697 58.977 81.8824 59.0381C81.8058 59.0425 81.729 59.0425 81.6524 59.0381H52.8879C52.3967 59.0381 51.9257 58.8428 51.5784 58.4951C51.2311 58.1474 51.036 57.6758 51.036 57.1841C51.0365 57.1062 51.0414 57.0283 51.0506 56.9509C51.559 53.0025 53.485 49.3742 56.4693 46.7432C59.4536 44.1122 63.2922 42.6582 67.2687 42.6527V42.6672Z" fill="white"/>
</g>
<defs>
<clipPath id="clip0_8_349">
<rect width="124" height="144" fill="white"/>
</clipPath>
</defs>
</svg>
