<svg width="124" height="124" viewBox="0 0 124 124" fill="none" xmlns="http://www.w3.org/2000/svg">
<path d="M21.9184 84.684C21.9184 84.218 22.1035 83.771 22.433 83.4415C22.7625 83.112 23.2095 82.9269 23.6755 82.9269H66.1568C66.6228 82.9269 67.0697 83.112 67.3992 83.4415C67.7287 83.771 67.9138 84.218 67.9138 84.684C67.9138 85.15 67.7287 85.5969 67.3992 85.9264C67.0697 86.2559 66.6228 86.4411 66.1568 86.4411H23.6755C23.2095 86.4411 22.7625 86.2559 22.433 85.9264C22.1035 85.5969 21.9184 85.15 21.9184 84.684ZM23.6755 73.416H54.7206C55.1867 73.416 55.6336 73.2309 55.9631 72.9014C56.2926 72.5719 56.4777 72.125 56.4777 71.659C56.4777 71.1929 56.2926 70.746 55.9631 70.4165C55.6336 70.087 55.1867 69.9019 54.7206 69.9019H23.6755C23.2095 69.9019 22.7625 70.087 22.433 70.4165C22.1035 70.746 21.9184 71.1929 21.9184 71.659C21.9184 72.125 22.1035 72.5719 22.433 72.9014C22.7625 73.2309 23.2095 73.416 23.6755 73.416ZM95.598 99.082V119.931C95.5966 121.01 95.1672 122.045 94.4039 122.808C93.6405 123.571 92.6057 123.999 91.5266 124H63.5211C62.4424 123.999 61.4082 123.57 60.6454 122.807C59.8827 122.044 59.4536 121.01 59.4522 119.931V107.2C54.6846 108.294 49.8078 108.842 44.9161 108.831C42.8453 108.831 40.7644 108.733 38.7211 108.543L17.0186 123.684C16.7241 123.889 16.3737 124 16.0146 124C15.663 124.001 15.3194 123.896 15.0281 123.699C14.7341 123.499 14.5075 123.216 14.378 122.885C14.2485 122.554 14.2222 122.192 14.3027 121.846L18.6577 103.078C6.94551 97.33 0 88.1053 0 78.1727C0 71.3628 3.17279 64.9243 9.17449 59.5577C14.9176 54.4219 22.7291 50.7145 31.7656 48.8394C31.9916 48.7924 32.2246 48.7904 32.4513 48.8334C32.6781 48.8765 32.8941 48.9638 33.0872 49.0904C33.2802 49.2169 33.4463 49.3803 33.5762 49.5711C33.7061 49.7619 33.797 49.9764 33.844 50.2024C33.891 50.4284 33.893 50.6614 33.85 50.8882C33.8069 51.1149 33.7196 51.331 33.5931 51.524C33.4665 51.717 33.3031 51.8832 33.1123 52.013C32.9215 52.1429 32.707 52.2339 32.481 52.2808C24.1649 54.0053 16.7174 57.5194 11.5114 62.1757C6.30542 66.832 3.51417 72.3894 3.51417 78.1727C3.51417 87.0485 10.2087 95.3921 21.4189 100.495C21.788 100.663 22.0876 100.954 22.2669 101.317C22.4463 101.681 22.4943 102.096 22.4028 102.491L18.7606 118.184L37.2427 105.29C37.5888 105.048 38.0103 104.94 38.43 104.983C40.5849 105.206 42.7498 105.317 44.9161 105.317C49.8139 105.33 54.695 104.747 59.4522 103.583V99.0795C59.4536 98.0008 59.8827 96.9666 60.6454 96.2038C61.4082 95.441 62.4424 95.0119 63.5211 95.0106H77.3268C83.1252 90.2188 86.3105 84.2598 86.3105 78.1702C86.3105 71.6665 82.706 65.3686 76.1596 60.4136C75.9754 60.2744 75.8205 60.1003 75.7036 59.9011C75.5868 59.702 75.5103 59.4818 75.4786 59.2531C75.4469 59.0244 75.4606 58.7918 75.5189 58.5684C75.5771 58.345 75.6788 58.1352 75.8182 57.9512C76.0993 57.5799 76.5163 57.3354 76.9775 57.2714C77.4388 57.2074 77.9066 57.3291 78.2781 57.6098C85.7257 63.235 89.8247 70.5369 89.8247 78.1702C89.8247 84.1945 87.2493 90.0456 82.4876 95.0106H91.524C92.6034 95.0119 93.6383 95.4413 94.4015 96.2046C95.1648 96.9678 95.5941 98.0026 95.5955 99.082H95.598ZM92.0838 99.082C92.0819 98.9348 92.0225 98.7942 91.9184 98.6901C91.8144 98.5861 91.6737 98.5267 91.5266 98.5248H63.5211C63.3742 98.5267 63.2338 98.5862 63.1302 98.6903C63.0265 98.7945 62.9677 98.9351 62.9664 99.082V119.931C62.9683 120.078 63.0274 120.218 63.131 120.321C63.2346 120.425 63.3746 120.484 63.5211 120.486H91.5266C91.6733 120.484 91.8136 120.425 91.9176 120.321C92.0216 120.218 92.0812 120.078 92.0838 119.931V99.082ZM84.3024 109.504C84.3028 109.813 84.2217 110.116 84.0675 110.384C83.9133 110.651 83.6913 110.873 83.4239 111.028L73.396 116.816C73.1289 116.97 72.8259 117.052 72.5174 117.052C72.2091 117.051 71.9064 116.969 71.6389 116.816C71.3718 116.662 71.1501 116.44 70.9959 116.173C70.8417 115.906 70.7604 115.603 70.7603 115.295V103.716C70.7604 103.407 70.8417 103.104 70.9959 102.837C71.1501 102.57 71.3718 102.349 71.6389 102.195C71.906 102.04 72.209 101.959 72.5174 101.959C72.8258 101.959 73.1288 102.04 73.396 102.195L83.4239 107.983C83.6909 108.137 83.9127 108.359 84.0669 108.626C84.2211 108.893 84.3023 109.196 84.3024 109.504ZM79.0312 109.504L74.2745 106.76V112.25L79.0312 109.504ZM112.541 18.364C112.849 18.3643 113.151 18.2829 113.417 18.1281L120.195 14.2123C120.395 14.0971 120.57 13.9435 120.711 13.7604C120.852 13.5772 120.955 13.3681 121.015 13.145C121.075 12.9219 121.091 12.6891 121.061 12.4601C121.03 12.231 120.955 12.0102 120.84 11.8101C120.724 11.6101 120.571 11.4347 120.387 11.2942C120.204 11.1536 119.995 11.0505 119.772 10.9908C119.549 10.9311 119.316 10.916 119.087 10.9463C118.858 10.9767 118.637 11.0518 118.438 11.1675L111.66 15.0858C111.257 15.3189 110.963 15.7026 110.842 16.1526C110.722 16.6026 110.785 17.082 111.018 17.4855C111.172 17.7525 111.394 17.9743 111.661 18.1285C111.928 18.2827 112.23 18.364 112.539 18.364H112.541ZM101.228 10.4371C101.495 10.5915 101.798 10.6729 102.107 10.673C102.415 10.6734 102.719 10.5924 102.986 10.4381C103.254 10.2839 103.476 10.0619 103.63 9.79449L107.762 2.63563C107.995 2.23217 108.058 1.75274 107.938 1.30276C107.817 0.852766 107.523 0.469045 107.119 0.235951C106.716 0.00307527 106.237 -0.0600522 105.787 0.0604471C105.337 0.180946 104.953 0.475209 104.72 0.878543L100.578 8.03239C100.345 8.43585 100.282 8.91527 100.403 9.36526C100.523 9.81525 100.817 10.199 101.221 10.4321L101.228 10.4371ZM112.228 29.4864C112.228 29.9524 112.413 30.3993 112.742 30.7288C113.072 31.0584 113.519 31.2435 113.985 31.2435H122.243C122.709 31.2435 123.156 31.0584 123.485 30.7288C123.815 30.3993 124 29.9524 124 29.4864C124 29.0204 123.815 28.5735 123.485 28.244C123.156 27.9144 122.709 27.7293 122.243 27.7293H113.977C113.511 27.7293 113.064 27.9144 112.735 28.244C112.405 28.5735 112.22 29.0204 112.22 29.4864H112.228ZM37.7874 48.7691C38.2392 47.0568 39.0265 45.4513 40.1038 44.0457C41.181 42.6401 42.5267 41.4625 44.0627 40.5811L53.2547 35.2747C53.6582 35.0418 54.1376 34.9786 54.5876 35.099C54.7655 35.1459 54.9349 35.2205 55.0896 35.3199C64.5101 28.2514 71.9577 20.0659 76.2249 12.0486L76.0642 11.77C75.1086 10.1108 74.8503 8.14038 75.3458 6.29097C75.8413 4.44157 77.0503 2.86427 78.7074 1.90518C80.3665 0.9496 82.337 0.691227 84.1864 1.18675C86.0358 1.68228 87.6131 2.89124 88.5721 4.54834L95.7411 16.9659C97.5897 16.0149 99.7333 15.8116 101.728 16.3981C103.722 16.9846 105.415 18.3159 106.454 20.1161C107.491 21.9167 107.796 24.0472 107.306 26.0663C106.815 28.0855 105.566 29.8385 103.819 30.9623L110.988 43.3824C111.463 44.2027 111.771 45.1093 111.893 46.0495C112.016 46.9897 111.95 47.9448 111.7 48.8595C111.459 49.7768 111.038 50.637 110.461 51.3902C109.885 52.1434 109.164 52.7746 108.342 53.2472C107.254 53.8813 106.017 54.2165 104.757 54.2186C104.119 54.2182 103.484 54.1338 102.867 53.9676C101.95 53.7261 101.09 53.3049 100.337 52.7284C99.5834 52.1519 98.9522 51.4315 98.4796 50.6091L98.3189 50.3304C89.3277 50.0217 78.6245 52.3385 67.8762 56.9019L80.5624 73.9708C81.1739 74.7836 81.4598 75.7955 81.3641 76.8082C81.2685 77.8209 80.7981 78.7614 80.0453 79.4453L77.254 81.9781C76.4975 82.6627 75.5132 83.0412 74.4929 83.0398C74.3649 83.0398 74.2419 83.0398 74.1038 83.0223C73.5438 82.9677 73.0013 82.7971 72.5108 82.5214C72.0203 82.2457 71.5926 81.8708 71.2548 81.4208L57.9838 63.6642L57.5194 63.9303C55.4855 65.1098 53.1762 65.7315 50.8249 65.7326C49.6347 65.7308 48.4499 65.573 47.3007 65.2632C45.5885 64.8112 43.983 64.0238 42.5774 62.9466C41.1719 61.8694 39.9942 60.5238 39.1127 58.9879C38.225 57.4563 37.6499 55.7638 37.4207 54.0085C37.1915 52.2532 37.3127 50.4698 37.7773 48.7616L37.7874 48.7691ZM77.7485 76.0692L65.3711 59.407L61.0637 61.8946L74.0787 79.3198C74.1216 79.3789 74.1768 79.4279 74.2405 79.4635C74.3042 79.499 74.3749 79.5202 74.4477 79.5257C74.528 79.534 74.6092 79.5251 74.6858 79.4996C74.7625 79.4741 74.8327 79.4325 74.892 79.3776L77.6832 76.8449C77.7893 76.7469 77.8543 76.6124 77.865 76.4684C77.8757 76.3245 77.8314 76.1818 77.741 76.0692H77.7485ZM97.5107 20.0257L102.064 27.9125C103.005 27.2582 103.666 26.2746 103.916 25.1563C104.167 24.038 103.989 22.8664 103.417 21.8732C102.842 20.8802 101.915 20.1394 100.82 19.7972C99.7248 19.4551 98.5411 19.5366 97.5032 20.0257H97.5107ZM79.114 10.0204L101.532 48.847C101.775 49.2694 102.101 49.6393 102.488 49.9349C102.876 50.2305 103.319 50.446 103.791 50.5689C104.26 50.6968 104.751 50.7306 105.233 50.6681C105.716 50.6056 106.181 50.4482 106.602 50.2049C107.025 49.9611 107.394 49.6359 107.69 49.2481C107.986 48.8603 108.201 48.4176 108.324 47.9458C108.452 47.4764 108.486 46.9863 108.423 46.5038C108.361 46.0213 108.203 45.5559 107.96 45.1345L85.5274 6.31296C85.2014 5.74889 84.7326 5.28068 84.1681 4.95547C83.6036 4.63025 82.9634 4.45953 82.3119 4.46049C81.6626 4.46178 81.0251 4.63499 80.4645 4.96251C80.0422 5.2063 79.6725 5.53154 79.3769 5.91935C79.0813 6.30715 78.8657 6.74981 78.7425 7.22162C78.6147 7.69106 78.5811 8.18116 78.6435 8.66366C78.706 9.14616 78.8633 9.61154 79.1065 10.033L79.114 10.0204ZM56.9998 38.2668L66.0112 53.8747C76.5537 49.3339 87.1238 46.8665 96.2832 46.7862L78.2681 15.5954C73.6194 23.4872 66.1944 31.4091 56.9923 38.2668H56.9998ZM42.155 57.2308C42.8086 58.3646 43.6803 59.3576 44.72 60.1525C45.7596 60.9474 46.9464 61.5284 48.2119 61.8619C49.4741 62.2055 50.7918 62.2957 52.0891 62.1273C53.3863 61.9588 54.6373 61.5351 55.7699 60.8805L63.4383 56.4526L53.4656 39.1955L45.7972 43.6234C44.663 44.2759 43.6697 45.1471 42.8747 46.1864C42.0797 47.2257 41.4989 48.4124 41.166 49.6778C40.8232 50.9396 40.7342 52.2569 40.9039 53.5534C41.0737 54.8498 41.4989 56.0997 42.155 57.2308ZM9.63887 20.3119C9.64286 17.4825 10.7686 14.77 12.7693 12.7693C14.77 10.7686 17.4825 9.64285 20.3119 9.63887C23.1415 9.64219 25.8543 10.7677 27.8552 12.7686C29.8561 14.7695 30.9816 17.4823 30.9849 20.3119C30.9823 23.1418 29.857 25.8549 27.8559 27.8559C25.8549 29.8569 23.1417 30.9823 20.3119 30.9849C17.4823 30.9816 14.7695 29.8561 12.7686 27.8552C10.7677 25.8543 9.64219 23.1415 9.63887 20.3119ZM13.153 20.3119C13.155 22.2099 13.9099 24.0297 15.252 25.3718C16.5941 26.7139 18.4139 27.4688 20.3119 27.4708C22.2099 27.4688 24.0297 26.7139 25.3718 25.3718C26.7139 24.0297 27.4688 22.2099 27.4708 20.3119C27.4688 18.4139 26.7139 16.5941 25.3718 15.252C24.0297 13.9099 22.2099 13.155 20.3119 13.153C18.4141 13.1557 16.5947 13.9108 15.2528 15.2528C13.9108 16.5947 13.1557 18.4141 13.153 20.3119ZM0 22.1669V18.4569C0.000664713 17.6676 0.314522 16.9107 0.872675 16.3526C1.43083 15.7944 2.18765 15.4806 2.977 15.4799C3.44251 15.4858 3.89884 15.3503 4.28564 15.0912C4.67244 14.8321 4.97149 14.4618 5.14324 14.0291C5.32812 13.6016 5.37912 13.1281 5.2895 12.671C5.19988 12.2139 4.97385 11.7948 4.64121 11.4687C4.36288 11.1938 4.14207 10.8662 3.99167 10.5051C3.84126 10.144 3.76427 9.75648 3.76518 9.36526C3.76389 8.97445 3.84022 8.58726 3.98974 8.22617C4.13926 7.86508 4.35899 7.53728 4.63619 7.26178L7.26178 4.63619C7.82027 4.07947 8.57669 3.76686 9.36526 3.76686C10.1538 3.76686 10.9103 4.07947 11.4687 4.63619C11.7948 4.96883 12.2139 5.19486 12.671 5.28448C13.1281 5.3741 13.6016 5.3231 14.0291 5.13822C14.4618 4.96647 14.8322 4.66742 15.0912 4.28062C15.3503 3.89382 15.4858 3.43749 15.4799 2.97198C15.4819 2.18351 15.7964 1.42797 16.3544 0.870901C16.9124 0.313833 17.6685 0.000661744 18.4569 0H22.1669C22.9562 0.000664713 23.7131 0.314526 24.2712 0.872678C24.8294 1.43083 25.1432 2.18766 25.1439 2.977C25.139 3.44397 25.2764 3.90137 25.5378 4.28833C25.7992 4.6753 26.1722 4.9735 26.6073 5.14324C27.0343 5.32827 27.5075 5.37934 27.9642 5.2897C28.4209 5.20006 28.8397 4.97394 29.1651 4.64121C29.724 4.08434 30.4809 3.77167 31.2698 3.77167C32.0588 3.77167 32.8157 4.08434 33.3746 4.64121L36.0002 7.2668C36.2769 7.54264 36.4964 7.8705 36.6458 8.23151C36.7953 8.59252 36.8719 8.97955 36.8712 9.37028C36.8723 9.7613 36.7956 10.1486 36.6457 10.5097C36.4957 10.8709 36.2754 11.1986 35.9976 11.4738C35.6653 11.8 35.4395 12.2191 35.3499 12.6761C35.2603 13.1331 35.3111 13.6065 35.4956 14.0341C35.6675 14.4642 35.9654 14.8324 36.3502 15.0904C36.7349 15.3484 37.1886 15.4842 37.6518 15.4799C38.4412 15.4806 39.198 15.7944 39.7561 16.3526C40.3143 16.9107 40.6282 17.6676 40.6288 18.4569V22.1669C40.6282 22.9562 40.3143 23.7131 39.7561 24.2712C39.198 24.8294 38.4412 25.1432 37.6518 25.1439C37.1863 25.138 36.73 25.2735 36.3432 25.5326C35.9564 25.7917 35.6573 26.162 35.4856 26.5947C35.3007 27.0222 35.2497 27.4957 35.3393 27.9528C35.429 28.4099 35.655 28.829 35.9876 29.1551C36.5443 29.7136 36.8569 30.47 36.8569 31.2585C36.8569 32.0471 36.5443 32.8035 35.9876 33.362L33.362 35.9876C33.0865 36.2648 32.7587 36.4845 32.3976 36.6341C32.0365 36.7836 31.6494 36.8599 31.2586 36.8586C30.8673 36.86 30.4798 36.7837 30.1183 36.6342C29.7568 36.4846 29.4285 36.2649 29.1526 35.9876C28.8267 35.6555 28.408 35.4298 27.9515 35.3402C27.4949 35.2506 27.0219 35.3013 26.5947 35.4856C26.162 35.6581 25.7918 35.9577 25.5328 36.3448C25.2738 36.732 25.1382 37.1886 25.1439 37.6543C25.1432 38.4434 24.8293 39.2 24.2711 39.7578C23.7128 40.3155 22.956 40.6288 22.1669 40.6288H18.4569C17.6674 40.6288 16.9102 40.3152 16.3519 39.7569C15.7936 39.1986 15.4799 38.4414 15.4799 37.6518C15.486 37.186 15.3509 36.7292 15.0924 36.3417C14.8338 35.9541 14.464 35.6539 14.0316 35.4806C13.6036 35.2962 13.1298 35.2454 12.6725 35.335C12.2151 35.4246 11.7956 35.6503 11.4687 35.9826C11.1934 36.26 10.8656 36.4799 10.5045 36.6294C10.1434 36.779 9.75612 36.8552 9.36526 36.8536C8.97444 36.8549 8.58727 36.7786 8.22618 36.629C7.86509 36.4795 7.53728 36.2598 7.26178 35.9826L4.63619 33.3595C4.35947 33.0831 4.14008 32.7548 3.99061 32.3934C3.84114 32.032 3.76453 31.6446 3.76518 31.2535C3.76417 30.8627 3.84063 30.4756 3.99013 30.1146C4.13964 29.7535 4.35921 29.4257 4.63619 29.15C4.96882 28.824 5.19486 28.4048 5.28448 27.9478C5.3741 27.4907 5.3231 27.0172 5.13821 26.5897C4.96617 26.1572 4.66706 25.787 4.28032 25.528C3.89359 25.269 3.43742 25.1333 2.97199 25.1389C2.18438 25.1369 1.4296 24.8231 0.872675 24.2662C0.31575 23.7093 0.00198808 22.9545 0 22.1669ZM3.51417 21.6649C4.58061 21.7535 5.60143 22.1368 6.46266 22.772C7.32389 23.4072 7.99162 24.2692 8.39133 25.2619C8.8109 26.2468 8.94836 27.3289 8.78834 28.3875C8.62832 29.446 8.17713 30.4392 7.48518 31.256L9.38284 33.1512C10.1985 32.4579 11.1913 32.0058 12.2498 31.8457C13.3082 31.6857 14.3903 31.8239 15.3745 32.245C16.3683 32.643 17.2314 33.3103 17.8669 34.1719C18.5023 35.0334 18.8848 36.0552 18.9715 37.1222H21.6523C21.7397 36.0557 22.1226 35.0346 22.7579 34.1736C23.3933 33.3125 24.256 32.6456 25.2493 32.2475C26.234 31.8276 27.316 31.6898 28.3745 31.8493C29.4331 32.0089 30.4263 32.4596 31.2435 33.1512L33.1386 31.256C32.4471 30.4389 31.9964 29.4456 31.8368 28.3871C31.6772 27.3286 31.8151 26.2465 32.235 25.2619C32.6345 24.2696 33.3019 23.4078 34.1626 22.7726C35.0234 22.1375 36.0436 21.754 37.1096 21.6649V18.9715C36.0431 18.8844 35.0219 18.5016 34.1608 17.8662C33.2997 17.2308 32.6328 16.3679 32.235 15.3745C31.8132 14.3909 31.6738 13.3093 31.8326 12.2509C31.9913 11.1926 32.4418 10.1994 33.1336 9.38283L31.236 7.48518C30.4199 8.17779 29.427 8.62924 28.3686 8.78886C27.3102 8.94848 26.2283 8.80995 25.2443 8.38883C24.2518 7.99027 23.3899 7.32306 22.7555 6.46202C22.121 5.60099 21.739 4.5802 21.6523 3.51417H18.9715C18.8844 4.58076 18.5016 5.60194 17.8662 6.46303C17.2308 7.32412 16.3679 7.99102 15.3745 8.38883C14.3905 8.80995 13.3086 8.94848 12.2502 8.78886C11.1918 8.62924 10.1989 8.17779 9.38284 7.48518L7.48518 9.38283C8.17779 10.1989 8.62924 11.1918 8.78886 12.2502C8.94848 13.3086 8.80995 14.3905 8.38882 15.3745C7.99101 16.3679 7.32412 17.2308 6.46303 17.8662C5.60194 18.5016 4.58076 18.8844 3.51417 18.9715V21.6649ZM123.862 68.3807C123.247 73.5717 120.737 78.5216 119.304 81.0092C117.87 83.4967 114.833 88.1379 110.636 91.2756C107.915 93.3113 105.177 94.3354 102.523 94.3354C100.621 94.3231 98.7561 93.8032 97.1216 92.8293L96.4891 92.4628C95.9765 92.1685 95.5275 91.7753 95.1681 91.3061C94.8088 90.8368 94.5462 90.3009 94.3956 89.7293C94.2408 89.159 94.2005 88.5637 94.2772 87.9777C94.3539 87.3917 94.546 86.8268 94.8424 86.3155L97.3651 81.9454C97.9654 80.9149 98.9487 80.1635 100.101 79.855C101.253 79.5465 102.48 79.7061 103.515 80.2988L104.993 81.1522C105.19 81.2709 105.422 81.3156 105.648 81.2783C105.875 81.241 106.08 81.1242 106.228 80.9489C107.658 79.3054 108.924 77.5256 110.006 75.635C111.102 73.7529 112.011 71.7679 112.72 69.7086C112.797 69.4926 112.795 69.256 112.714 69.0412C112.633 68.8264 112.479 68.6475 112.278 68.5364L110.797 67.6829C110.284 67.3884 109.836 66.9951 109.476 66.5259C109.117 66.0567 108.854 65.5208 108.703 64.9494C108.548 64.3787 108.508 63.7829 108.585 63.1965C108.661 62.6102 108.854 62.0448 109.15 61.5331L111.673 57.163C112.273 56.1325 113.256 55.381 114.408 55.0726C115.56 54.7641 116.788 54.9236 117.823 55.5164L118.453 55.8803C122.675 58.3176 124.545 62.6351 123.862 68.3632V68.3807ZM116.696 58.9402L116.066 58.5762C115.839 58.446 115.57 58.4109 115.317 58.4786C115.064 58.5464 114.849 58.7114 114.718 58.9377L112.202 63.2952C112.137 63.4082 112.096 63.5329 112.079 63.6622C112.063 63.7914 112.072 63.9227 112.107 64.0483C112.14 64.1735 112.197 64.2911 112.275 64.3941C112.354 64.4971 112.452 64.5835 112.564 64.6482L114.045 65.5016C114.952 66.0175 115.649 66.8349 116.016 67.8116C116.383 68.7884 116.396 69.8628 116.053 70.8482C115.27 73.1253 114.266 75.3203 113.056 77.4021C111.857 79.4915 110.458 81.4587 108.877 83.2758C108.195 84.0662 107.257 84.5921 106.227 84.7618C105.197 84.9316 104.141 84.7343 103.241 84.2045L101.763 83.3511C101.61 83.2644 101.437 83.2194 101.261 83.2206C101.086 83.2225 100.916 83.2698 100.765 83.3578C100.615 83.4459 100.49 83.5716 100.402 83.7226L97.8947 88.0777C97.8298 88.1906 97.7879 88.3153 97.7715 88.4446C97.7551 88.5739 97.7646 88.7051 97.7994 88.8307C97.8319 88.956 97.8891 89.0735 97.9675 89.1765C98.046 89.2795 98.1441 89.3659 98.2562 89.4306L98.8887 89.7946C101.881 91.5215 105.039 91.0873 108.543 88.4667C112.363 85.5951 115.215 81.0769 116.261 79.2521C117.308 77.4272 119.806 72.7032 120.373 67.9565C120.89 63.614 119.688 60.6621 116.696 58.9326V58.9402Z" fill="white"/>
</svg>
