<svg width="124" height="124" viewBox="0 0 124 124" fill="none" xmlns="http://www.w3.org/2000/svg">
<g clip-path="url(#clip0_86_10780)">
<path d="M22.7387 0.00259399C21.0965 0.00939428 19.5234 0.66479 18.3622 1.82604C17.2009 2.9873 16.5455 4.56035 16.5387 6.20259V72.3359C16.5387 75.0949 20.672 75.0949 20.672 72.3359V20.6693H103.339V72.3359C103.277 75.1543 107.537 75.1543 107.472 72.3359V6.20259C107.466 4.56014 106.811 2.9867 105.649 1.8253C104.488 0.663898 102.914 0.00871882 101.272 0.00259399H22.7387ZM22.7387 4.13593H101.272C101.546 4.12732 101.818 4.17489 102.073 4.27571C102.328 4.37652 102.559 4.52844 102.753 4.72209C102.946 4.91574 103.098 5.14702 103.199 5.40165C103.3 5.65628 103.347 5.92887 103.339 6.20259V16.5359H20.672V6.20259C20.6634 5.92887 20.711 5.65628 20.8118 5.40165C20.9126 5.14702 21.0646 4.91574 21.2582 4.72209C21.4519 4.52844 21.6831 4.37652 21.9377 4.27571C22.1924 4.17489 22.465 4.12732 22.7387 4.13593ZM26.872 8.26926C26.3239 8.26926 25.7983 8.487 25.4107 8.87457C25.0231 9.26215 24.8054 9.78781 24.8054 10.3359C24.8054 10.884 25.0231 11.4097 25.4107 11.7973C25.7983 12.1849 26.3239 12.4026 26.872 12.4026C27.4202 12.4026 27.9458 12.1849 28.3334 11.7973C28.721 11.4097 28.9387 10.884 28.9387 10.3359C28.9387 9.78781 28.721 9.26215 28.3334 8.87457C27.9458 8.487 27.4202 8.26926 26.872 8.26926ZM35.1387 8.26926C34.5906 8.26926 34.0649 8.487 33.6773 8.87457C33.2898 9.26215 33.072 9.78781 33.072 10.3359C33.072 10.884 33.2898 11.4097 33.6773 11.7973C34.0649 12.1849 34.5906 12.4026 35.1387 12.4026C35.6868 12.4026 36.2125 12.1849 36.6001 11.7973C36.9876 11.4097 37.2054 10.884 37.2054 10.3359C37.2054 9.78781 36.9876 9.26215 36.6001 8.87457C36.2125 8.487 35.6868 8.26926 35.1387 8.26926ZM43.4054 8.26926C42.8573 8.26926 42.3316 8.487 41.944 8.87457C41.5564 9.26215 41.3387 9.78781 41.3387 10.3359C41.3387 10.884 41.5564 11.4097 41.944 11.7973C42.3316 12.1849 42.8573 12.4026 43.4054 12.4026C43.9535 12.4026 44.4791 12.1849 44.8667 11.7973C45.2543 11.4097 45.472 10.884 45.472 10.3359C45.472 9.78781 45.2543 9.26215 44.8667 8.87457C44.4791 8.487 43.9535 8.26926 43.4054 8.26926ZM72.2354 8.26926C69.4454 8.45784 69.6339 12.4698 72.331 12.4026H97.131C99.8279 12.338 99.8279 8.32868 97.131 8.26926H72.2354ZM6.20537 12.4026C4.56375 12.4114 2.99187 13.0675 1.83105 14.2283C0.67023 15.3891 0.0141917 16.961 0.00537109 18.6026V93.0026C0.0148632 94.644 0.671131 96.2155 1.83181 97.3762C2.99248 98.5368 4.56396 99.1931 6.20537 99.2026H117.805C119.448 99.1965 121.021 98.5413 122.183 97.3799C123.344 96.2185 123.999 94.6451 124.005 93.0026V18.6026C124 16.9599 123.345 15.3861 122.183 14.2246C121.022 13.063 119.448 12.408 117.805 12.4026H113.672C110.854 12.338 110.854 16.5979 113.672 16.5359H117.805C118.079 16.5273 118.352 16.5749 118.606 16.6757C118.861 16.7765 119.092 16.9284 119.286 17.1221C119.48 17.3157 119.631 17.547 119.732 17.8016C119.833 18.0563 119.881 18.3289 119.872 18.6026V78.5359H4.1387V18.6026C4.13197 18.3294 4.18082 18.0576 4.2823 17.8038C4.38377 17.55 4.53577 17.3195 4.72904 17.1263C4.9223 16.933 5.15281 16.781 5.40659 16.6795C5.66038 16.5781 5.93213 16.5292 6.20537 16.5359H10.3387C13.1571 16.5979 13.1571 12.338 10.3387 12.4026H6.20537ZM68.2209 28.8998C67.7785 28.8965 67.3468 29.0353 66.9892 29.2957C66.6316 29.5561 66.367 29.9244 66.2343 30.3464L53.8343 67.5464C52.9585 70.1608 56.8826 71.4731 57.7558 68.8588L70.1558 31.6588C70.2656 31.3485 70.2998 31.0164 70.2554 30.6903C70.2111 30.3641 70.0894 30.0533 69.9007 29.7837C69.7119 29.514 69.4614 29.2934 69.1701 29.1401C68.8789 28.9868 68.5552 28.9053 68.226 28.9023L68.2209 28.8998ZM77.2057 40.8477L87.7044 49.6026L77.2109 58.3446C74.9685 60.1013 77.7275 63.4131 79.864 61.5169L92.264 51.1836C92.4962 50.9896 92.683 50.747 92.8112 50.473C92.9393 50.1989 93.0058 49.9 93.0058 49.5974C93.0058 49.2949 92.9393 48.996 92.8112 48.7219C92.683 48.4478 92.4962 48.2052 92.264 48.0113L79.864 37.665C79.4629 37.3299 78.9525 37.1543 78.4302 37.1716C76.4772 37.3447 75.7668 39.6748 77.2109 40.8425L77.2057 40.8477ZM45.41 37.1819C44.9452 37.1976 44.4992 37.3696 44.1442 37.6702L31.7442 48.0164C31.512 48.2104 31.3252 48.453 31.197 48.7271C31.0688 49.0011 31.0024 49.3 31.0024 49.6026C31.0024 49.9052 31.0688 50.204 31.197 50.4781C31.3252 50.7522 31.512 50.9948 31.7442 51.1888L44.1442 61.5221C46.2754 63.5087 49.1249 60.0858 46.7818 58.3498L36.2935 49.6026L46.787 40.8451C47.1202 40.5715 47.3596 40.2005 47.4715 39.7841C47.5834 39.3677 47.5623 38.9268 47.4111 38.523C47.2599 38.1192 46.9862 37.7728 46.6283 37.5323C46.2704 37.2918 45.8462 37.1693 45.4152 37.1819H45.41ZM4.1387 82.6693H119.872V93.0026C119.881 93.2763 119.833 93.5489 119.732 93.8035C119.631 94.0582 119.48 94.2894 119.286 94.4831C119.092 94.6767 118.861 94.8287 118.606 94.9295C118.352 95.0303 118.079 95.0779 117.805 95.0693H6.20537C5.93223 95.0756 5.66064 95.0265 5.40702 94.9249C5.1534 94.8233 4.92305 94.6713 4.72986 94.4781C4.53667 94.2849 4.38466 94.0546 4.28305 93.8009C4.18145 93.5473 4.13234 93.2757 4.1387 93.0026V82.6693ZM66.2524 86.8026H57.7713C55.1389 87.1178 55.3145 90.8507 57.8694 90.9204H66.1361C68.9778 91.1788 69.2129 86.8568 66.2498 86.8L66.2524 86.8026ZM50.414 103.165C50.0081 103.157 49.6086 103.268 49.2655 103.484C48.9223 103.701 48.6506 104.014 48.4842 104.385C47.4845 106.521 45.702 109.019 42.6304 111.603H39.272C37.6304 111.611 36.0585 112.267 34.8977 113.428C33.7369 114.589 33.0809 116.161 33.072 117.803V121.936C33.072 122.484 33.2898 123.01 33.6773 123.397C34.0649 123.785 34.5906 124.003 35.1387 124.003H88.872C89.4202 124.003 89.9458 123.785 90.3334 123.397C90.721 123.01 90.9387 122.484 90.9387 121.936V117.803C90.9265 116.162 90.2694 114.592 89.1093 113.432C87.9492 112.272 86.3793 111.615 84.7387 111.603H81.3804C78.301 109.019 76.5185 106.526 75.5239 104.393C75.353 104.014 75.0717 103.695 74.7168 103.478C74.362 103.262 73.95 103.157 73.5348 103.178C73.1945 103.196 72.8638 103.297 72.5721 103.473C72.2804 103.649 72.0368 103.895 71.8629 104.188C71.689 104.481 71.5903 104.812 71.5755 105.153C71.5607 105.493 71.6303 105.832 71.7781 106.139C72.7449 108.126 73.9887 109.965 75.4723 111.603H48.5307C50.0143 109.965 51.2581 108.126 52.2249 106.139C52.3767 105.827 52.4476 105.482 52.431 105.135C52.4144 104.789 52.3109 104.452 52.13 104.156C51.9491 103.86 51.6966 103.615 51.3958 103.442C51.095 103.269 50.7556 103.175 50.4088 103.168L50.414 103.165ZM39.272 115.736H84.7387C85.0115 115.731 85.2824 115.781 85.5353 115.883C85.7883 115.985 86.0181 116.137 86.211 116.33C86.4039 116.523 86.5559 116.753 86.658 117.006C86.7602 117.259 86.8103 117.53 86.8054 117.803V119.869H37.2054V117.803C37.1986 117.529 37.2475 117.258 37.349 117.004C37.4504 116.75 37.6024 116.52 37.7957 116.326C37.989 116.133 38.2195 115.981 38.4733 115.88C38.727 115.778 38.9988 115.729 39.272 115.736Z" fill="#222222"/>
</g>
<defs>
<clipPath id="clip0_86_10780">
<rect width="124" height="124" fill="white"/>
</clipPath>
</defs>
</svg>
