<?xml version="1.0" encoding="utf-8"?>
<!-- Generator: Adobe Illustrator 26.0.1, SVG Export Plug-In . SVG Version: 6.00 Build 0)  -->
<svg version="1.1" id="Layer_1" xmlns="http://www.w3.org/2000/svg" xmlns:xlink="http://www.w3.org/1999/xlink" x="0px" y="0px"
	 viewBox="0 0 16 16" style="enable-background:new 0 0 16 16;" xml:space="preserve">
<style type="text/css">
	.st0{fill:#EF3A37;}
</style>
<g>
	<g>
		<g>
			<g>
				<path class="st0" d="M11.66,11.15c-0.83,1.04-2.11,1.57-3.83,1.57c-1.66,0-2.95-0.49-3.89-1.48s-1.41-2.1-1.41-3.32
					c0-1.4,0.48-2.58,1.46-3.51S6.16,3,7.61,3c0.82,0,1.61,0.16,2.33,0.46l0.52-1.72c-0.91-0.33-1.93-0.5-3.03-0.5
					c-1.87,0-3.45,0.64-4.76,1.93C1.36,4.46,0.71,6.01,0.71,7.84c0,1.74,0.64,3.28,1.92,4.64c1.28,1.35,2.99,2.03,5.15,2.03
					c0.94,0,1.76-0.1,2.44-0.31s1.31-0.55,1.92-1.04c0.39-0.32,0.73-0.67,1.02-1.04L11.66,11.15z"/>
			</g>
		</g>
	</g>
</g>
<path class="st0" d="M15,9.98L8.23,6.13L7.38,7.61l4.71,2.67l1.92,1.08"/>
</svg>
